<?xml version="1.0" encoding="UTF-8"?>
<svg id="Capa_2" data-name="Capa 2" xmlns="http://www.w3.org/2000/svg" viewBox="0 0 285.73 210.74">
  <defs>
    <style>
      .cls-1 {
        opacity: .3;
      }

      .cls-1, .cls-2 {
        fill: #fff;
      }
    </style>
  </defs>
  <g id="JAPON">
    <g>
      <g>
        <path class="cls-2" d="M115.36,46.31c.48,0,.48-.75,0-.75s-.48.75,0,.75h0Z"/>
        <path class="cls-2" d="M121.04,58.1c.48,0,.48-.75,0-.75s-.48.75,0,.75h0Z"/>
        <path class="cls-2" d="M121.43,57.87c.5-.46,1.13-.73,1.75-.99.65-.28,1.28-.59,1.88-.96s1.15-.77,1.68-1.21c.5-.42,1.23-.9,1.12-1.64l-.63.36s.06.07.09.1c.33.36.86-.18.53-.53-.03-.03-.06-.07-.09-.1-.28-.3-.68.03-.63.36.03.18-.51.55-.63.66-.25.22-.51.43-.78.63-.51.38-1.05.73-1.61,1.04-1.06.58-2.31.9-3.21,1.74-.35.33.18.86.53.53h0Z"/>
        <path class="cls-2" d="M117.46,47.52c.83-.03,1.68-.08,2.45-.4.36-.15.68-.43,1.09-.37s.77.29,1.1.51.69-.2.51-.51c-.04-.07-.08-.14-.12-.21-.24-.42-.89-.04-.65.38.04.07.08.14.12.21l.51-.51c-.37-.24-.77-.47-1.2-.57-.47-.1-.87-.01-1.29.21-.79.43-1.65.48-2.53.52-.48.02-.48.77,0,.75h0Z"/>
        <path class="cls-2" d="M117.03,46.49c-.69-.39-1.4-.75-2.13-1.08-.18-.08-.41-.06-.51.13-.09.18-.05.41.13.51.23.13.49.19.75.16.19-.02.38-.16.38-.38,0-.18-.17-.4-.38-.38-.05,0-.1,0-.15,0-.07,0,.03.01-.04,0-.04,0-.07-.02-.11-.03-.04-.02-.05-.02-.01,0-.02-.01-.04-.02-.06-.03l-.38.65c.72.33,1.43.69,2.13,1.08.17.1.42.05.51-.13s.05-.41-.13-.51h0Z"/>
        <path class="cls-2" d="M95.53,93.13c.48,0,.48-.75,0-.75s-.48.75,0,.75h0Z"/>
        <path class="cls-2" d="M96.93,99.77c.48,0,.48-.75,0-.75s-.48.75,0,.75h0Z"/>
        <g>
          <path class="cls-2" d="M56.75,13.28c-1.05,1.29-2.45,2.14-3.75,3.15-.89.7-2.4,1.88-2.27,3.18.09.9.96,1.31,1.78,1.23.62-.06,1.12-.41,1.61-.77.35-.26.69-.67,1.11-.8.47-.14.98.1.96.65,0,.14-.12.31-.15.46-.16.95.64,1.75,1.53,1.92.53.1,1.08-.03,1.57-.25.76-.33,1.44-1.26,2.24-1.45.29-.07,1.53.32,1.69.5.12.13.18.37.26.53.2.41.39.82.6,1.21.29.55.64,1.13,1.16,1.5.7.49,1.78.63,2.42-.04.19-.2.28-.45.4-.7.36-.73.59-1.23,1.26-1.73.58-.43,1.21-.82,1.46-1.54.33-.96-.38-1.91-1.4-1.63l.17.41c.46-.35.89-.52,1.48-.54.17,0,.32-.26.16-.38-.46-.36-.87-.75-1.2-1.23-.56-.83-.16-1.57.6-2.16s3.3-3.04,4.06-1.43c.08.18.37.13.41-.05.28-1.12-.62-1.9-1.7-1.89-.92.01-1.69.58-2.53.87-1.16.39-2.29.13-3.46-.02-1.82-.24-2.77.23-4.29,1.16-1,.61-2.34.96-3.43.35-.6-.34-.92-.84-1.63-.93-.29-.04-.28.42,0,.45.65.08,1.1.75,1.7,1.01.44.19.92.25,1.4.23,1.3-.05,2.17-.8,3.25-1.42,1.65-.94,3.31-.18,5.05-.16.6,0,1.15-.09,1.71-.3.25-.1.49-.22.74-.33.51-.22,3.3-1.32,2.77.86l.41-.05c-1.02-2.14-3.71.53-4.68,1.27-.57.44-1.39.78-1.32,1.57.09.97,1.11,1.96,1.83,2.52l.16-.38c-.67.02-1.17.19-1.71.6-.19.14-.09.48.17.41.93.69,1.03,1.3.3,1.83l-.55.41c-.22.16-.46.29-.66.47-.45.4-.63.76-.85,1.3-.73,1.76-2.25,1.16-3.04-.09-.41-.64-.68-1.37-1.03-2.04-.44-.84-1.04-1.28-2.01-.97-.6.19-1.07.63-1.57.99-.75.54-2.87,1.56-3.36.1-.25-.75.66-1.97-.35-2.41s-1.97.75-2.67,1.21c-.39.25-1.16.74-1.63.43l-.47-1.72c.19-.29.4-.57.65-.82.52-.56,1.14-1.03,1.75-1.49,1.14-.85,2.3-1.64,3.21-2.75.18-.22-.13-.54-.32-.32h0Z"/>
          <path class="cls-2" d="M65.1,10.85c-.14-.39-.27-.78-.36-1.18.04.19-.13-1.2-.15-1.23-.17-.24-.42-.38-.72-.42-.84-.11-1.34.61-1.25,1.38.02.16.18.29.34.19,1.64-1.04,3.22-1.17,5.11-1.36,1.52-.16,2.83-1.23,4.33-1.23,1.42,0,1.59,1.4,2.73,1.69.69.17,1.45-.25,2.16-.23.25,0,1.21,0,1.36.19l.18,1.15c-.28.12-.57.2-.87.25-.14.03-.21.22-.13.33.29.42.67.52,1.17.52.71,0,.92-.25,1.36.4s.08.74.08,1.4.42,1.04,1,1.28c1.12.45,2.47.54,3.65.78,1.43.28,2.91.36,3.84,1.62.73.99,1.26,2.1,2.01,3.08s1.64,1.76,2.45,2.67c.25.28.59.62.68,1,.34.5.05.77-.88.82l-.31-.27c-.55-.36-1.01-1.01-1.41-1.51-.08-.1-.3-.08-.35.05-.31.72-.53,1.46-.56,2.24-.04,1.09.57,4.32-1.72,3.2-1.53-.74-1.14-3.13-2.52-4.13-.9-.65-1.77-.45-2.47.34-.19.21-.33.54-.57.69-1.28.08-1.85-.39-1.73-1.43v-.46c-.05-.6-.07-1.22-.43-1.73-.57-.79-1.46-.7-2.25-.36s-1.82,1.17-2.69.42c-.67-.58-.57-1.8-.57-2.6,0-1.05.3-2.38-.38-3.21-.11-.05-.23-.08-.36-.09-.56-.32-.72-.75-.5-1.28.04-.22.12-.43.14-.67.04-.48-.05-.84-.42-1.17-.22-.19-.54.13-.32.32.74.65-.23,1.92.18,2.7.18.35.33.31.61.51.81.58.6,1.07.6,1.95,0,.57-.02,1.15,0,1.72s.08,1.14.34,1.63c.52,1.01,1.49,1.09,2.46.7,1.15-.46,2.53-1.54,3.06.43.22.82-.07,1.7.34,2.49.48.93,1.47,1.16,2.24.44.27-.25.45-.72.77-.91l1.44-.23c.38.21.67.51.88.9.52.88.55,1.99,1.18,2.81s1.81,1.36,2.67.57c.38-.35.54-.9.58-1.4.06-.57-.09-1.14-.11-1.71-.02-.88.15-1.66.49-2.46l-.35.05c.54.67,1.73,2.36,2.74,2.37.67,0,.85-.63.81-1.2-.09-1.33-1.45-2.27-2.28-3.15-1.22-1.3-2-2.79-3-4.24-.68-.99-1.46-1.4-2.61-1.64-.91-.19-1.82-.36-2.74-.54-.75-.15-1.73-.19-2.41-.53-1.55-.77.2-2.01-.8-2.89-.71-.63-2.1.26-2.63-.51l-.13.33c.77-.16,2.4-.99,1.39-1.98-.47-.46-1.56-.48-2.18-.5-.44-.01-.85.15-1.28.15s-1.18-.36-1.51-.68c-.09-.09-.09-.27-.2-.35-1.39-1.08-3.01-.4-4.43.21-1.32.57-2.73.42-4.11.66-1.1.19-2.09.62-3.03,1.21l.34.19c.81-.77,1.2-.8,1.15-.07.01.09.03.18.04.26.09.48.23.93.39,1.39.1.27.53.15.43-.12h0Z"/>
          <path class="cls-2" d="M63.58,29.57c-2.19.32-4.5.7-6.22,2.22-.68.6-1.08,1.28-1.46,2.09s-.73,1.07-1.61,1.12c-.39.02-.68-.09-.99.19-.18.15-.24.37-.29.58-.18.74-.16,1.29-.82,1.82-.81.65-1.92.83-2.64,1.6-.54.58-.69,1.36-.7,2.13,0,.56-.07,1.58.57,1.84.79.32,1.63-.52,2.37-.61.34-.04.67-.14.91.28.13.22.08.89.11,1.15.08.6.19,1.18.34,1.77.38,1.54.93,3.89,3,3.11.76-.29,1.4-.9,1.9-1.53.79-.99,1.43-3.58,2.94-1.42.52.74.69,1.54,1.52,2.04.59.35,1.31.47,1.95.19,1.57-.7,2.12-3.38,1.71-4.87-.15-.55-.62-.93-.57-1.5.04-.47.2-.68.75-.8.72-.15.77.16,1.1.52.73.81,1.65,1.22,2.74,1.23.29,0,.29-.45,0-.45-.73,0-1.4-.2-1.97-.67-.34-.28-.58-.73-.95-.96-.44-.27-.92-.18-1.36.03s-1,.52-.99,1.06c0,.27.15.44.28.66.36.61.63,1.1.64,1.83.02.94-.29,2.15-.87,2.9-1.31,1.69-2.95.02-3.55-1.36-.23-.53-.39-1.17-1.03-1.35-.58-.16-1.16.23-1.5.66-.57.73-.83,1.61-1.48,2.31-.34.36-.72.72-1.17.94-1.31.66-1.9-.27-2.29-1.39-.42-1.21-.66-2.45-.79-3.71-.04-.44.01-1.07-.48-1.28-.63-.27-1.69.44-2.27.65-.86.31-1.14-.55-1.13-1.26,0-.86.25-1.64.98-2.16,1.3-.92,2.67-1.03,3.12-2.73.12-.44-.21-.76.6-1.01.21-.07.54.07.76.06.28-.02.51-.08.74-.24.66-.46.84-1.38,1.24-2.03,1.45-2.36,4.45-2.83,6.96-3.21.29-.04.16-.48-.12-.43h0Z"/>
          <path class="cls-2" d="M73.93,29.7c-1.64.45-2.95,1.6-3.63,3.16-.37.85-.54,1.78-.44,2.7.13,1.17.79,2.24.86,3.41.09,1.49-.94,2.14-1.74,3.18-.74.96-.88,2.11-1.11,3.27-.21,1.07-.78,2.56-.68,3.65.06.62.39.91.98,1.07.48.13,1.01.08,1.49.1.43.02,1.15-.02,1.49.31.42.39.37,1.61.38,2.1.01,1.17.22,1.97.66,3.1.54,1.38.96,4.17,2.91,4.12.75-.02,1.62-.44,2.07-1.05.43-.57.31-.94.16-1.56-.26-1.09-.16-1.73.64-2.57.41-.43.83-.83,1.2-1.3.61-.77,1.11-1.63,1.48-2.54s.78-2.02.62-3c-.05-.34-.18-.66-.43-.9-.12-.12-.3-.18-.43-.29-.14-.08-.27-.15-.42-.22l.58-1.14c.38-.25,1.64.27,1.67-.62.02-.66-1.49-1.3-1.88-1.56l-.05.41c1.47-.25,4.93-.12,4.32-2.44-.21-.78-.55-1.28-.37-2.14.09-.45.29-.75.22-1.22s-.38-.8-.55-1.2c-.32-.79-.04-1.38-.17-2.16-.4-2.42-3.6-2.43-5.15-3.64-.78-.6-1.35-1.5-2.39-1.63-.84-.1-1.59.27-2.12.9-.18.22.13.54.32.32,1.74-2.09,3.37.67,4.98,1.4.83.38,1.77.55,2.55,1.03,1.12.69,1.38,1.48,1.33,2.75-.02.66.18.96.41,1.54.26.66.22,1.13.13,1.79-.06.43-.14.38-.12.8.06,1.04,1.27,2.08-.32,2.91-.35.18-.9.16-1.3.23-.63.11-1.27.22-1.9.32-.21.04-.2.31-.05.41.45.3,1.24.54.96,1.05-.25.46-.48.22-.94.33-.41.09-.89.35-1.02.79-.08.27-.02.54.14.77s.41.3.63.45c.73.51,1,1.2.83,2.09-.43,2.27-1.71,3.87-3.22,5.52-.41.45-.86.98-.96,1.6-.14.91.59,1.72.03,2.67-.66,1.14-2.4.32-2.86-.34-.29-.43-.43-1.07-.62-1.56-.44-1.12-1.08-2.32-1.13-3.53-.05-1.34.69-2.72-.97-3.36-.74-.29-2.15.12-2.73-.28-1.09-.76-.28-2.64-.08-3.7.21-1.12.32-2.39.94-3.36.47-.72,1.2-1.23,1.63-1.99.97-1.7-.27-3.42-.48-5.14-.29-2.44,1.41-4.75,3.73-5.4.28-.08.16-.51-.12-.43h0Z"/>
          <path class="cls-2" d="M95.79,33.02c1.17,0,2.35-.01,3.53,0,.56,0,1.15.03,1.64.32.45.27.75.71,1.1,1.08.53.55,1.19.84,1.9,1.08.83.28,1.76.5,2.24,1.3l.19-.34c-.73.03-1.46.05-2.19.04-.79-.01-1.72.09-2.32-.5-.34-.33-.59-.59-1.1-.59-.6,0-1.22.26-1.79.42-.65.18-1.89.58-2.2-.32-.18-.5.06-1.01-.19-1.52-.51-1.05-1.71-1.33-2.76-1.51-.28-.05-.41.39-.12.43.68.11,1.41.23,1.97.67.29.23.54.54.61.92.06.31-.03.63.02.94.17,1.05,1.32,1.18,2.17.99.62-.14,1.22-.39,1.85-.51.32-.07.58-.08.86.08.18.1.28.25.43.38.16.15.33.27.54.36.55.22,1.21.19,1.79.2.81.02,1.62,0,2.44-.03.17,0,.29-.19.19-.34-.41-.68-1.08-1.02-1.81-1.27-1.04-.37-1.91-.63-2.67-1.48-.69-.78-1.34-1.18-2.4-1.24-1.3-.08-2.63-.01-3.93-.02-.29,0-.29.45,0,.45h0Z"/>
          <path class="cls-2" d="M90.25,35.95c.2.54.57,1.02.73,1.57.13.44.07,1.23-.56,1.24-.39,0-.71-.45-1.09-.1-.18.17-.33.41-.47.62-.13.17-.25.35-.26.57-.05.91,1.17,1.28,1.88,1.26,1.01-.03,2.33-.7,3.21.08.1.09.28.09.35-.05.38-.7.45-1.4.37-2.18-.07-.71.13-1.43.01-2.14-.11-.66-.64-1.09-1.15-1.47s-1.21-.59-1.81-.24l.33.25c.08-.23,0-.47-.2-.62-.24-.19-.55-.15-.83-.1s-.16.48.12.43c.11-.02.57-.1.48.17-.06.19.17.35.33.25.56-.32,1.15.07,1.58.43.21.17.43.34.57.58.15.26.17.56.17.86-.02.56-.1,1.09-.04,1.66.07.68.01,1.29-.32,1.9l.35-.05c-.76-.67-1.76-.5-2.67-.33-.52.1-1.07.19-1.59.02-.21-.07-.41-.18-.55-.35-.24-.28-.12-.5.08-.75.08-.11.16-.22.24-.33.13-.18.2-.15.38-.07.17.08.32.15.51.15.38,0,.74-.26.92-.58.54-.96-.33-1.94-.65-2.79-.1-.27-.54-.15-.43.12h0Z"/>
          <path class="cls-2" d="M95.14,40.07c1.09-.41,2.2-.82,3.18-1.47.45-.3.83-.64,1.21-1.02.45-.45.76-.54,1.41-.44.27.04.53.08.8.08l-.11-.42c-.87.55-.5,1.65.27,2.09,1.39.79,3.19.47,4.67.93.65.21,1.8.65,1.59,1.48-.11.46-.27.69.06,1.15.36.51.94.57,1.4.93.62.49.42,1.25-.2,1.6-.44.25-1,.24-1.48.19-.95-.1-2.92-.68-3.05.79-.04.39.08.8-.14,1.16s-.71.57-1.12.58c-.99.03-1.55-.93-1.62-1.81-.05-.62.29-1.24.16-1.85-.11-.51-.51-.84-.92-1.11-.65-.43-1.28-.81-1.81-1.4-.4-.45-.72-.93-1.39-.83-.59.09-.99.56-1.24,1.07-.21.42-.29,1.29-.92.91-.4-.24-.54-.91-.45-1.33.1-.45.86-.94.58-1.45-.16-.28-.52-.34-.73-.11-.2.21.12.53.32.32-.68.75-.89,1.92-.2,2.73.23.27.66.61,1.05.47.5-.19.62-1.15.86-1.53.41-.66.96-.82,1.56-.21.27.27.49.57.78.82.54.47,1.27.74,1.78,1.25.59.6.08,1.51.13,2.25.04.52.2,1.04.51,1.46.6.82,1.71,1.05,2.58.49.37-.24.61-.59.68-1.02s-.06-.65.19-1.04.43-.35.86-.35c.34,0,.67.07,1,.12,1.05.15,2.47.23,2.97-.95s-.61-1.55-1.4-2.07.13-1.27-.32-1.91c-.4-.56-1.08-.93-1.72-1.16-.82-.29-1.69-.36-2.55-.45-.54-.06-1.09-.12-1.61-.27-.21-.06-.43-.13-.62-.24-.42-.25-.9-.92-.27-1.31.19-.12.11-.42-.11-.42-.56,0-1.2-.26-1.76-.09-.51.15-.81.66-1.19,1-1.07.95-2.44,1.46-3.77,1.96-.27.1-.15.54.12.43h0Z"/>
          <path class="cls-2" d="M62.62,49.35c-.71.69-1.42,1.38-2.14,2.07s-1.46,1.5-2.44,1.71c-1.51.32-2.78-1.18-4.22-.16-1.15.81-2.23,2.24-2.82,3.51-.38.81-.99,2.57-.31,3.38.26.31.63.33,1,.28.49-.06.93-.25,1.43-.25.73,0,.74.01,1.05.66s.27.56.05,1.14c-.23.62-1.12,2.83-.09,3.21,1.12.41,2.66-.6,3.3-1.43.38-.49.62-1.12,1.07-1.55.39-.38.45-.53.73-.08.23.37.14.25.09.58-.07.45-.41.88-.5,1.34-.21,1.01.39,1.96,1.49,1.75,1.81-.34,1.59-2.81,3.02-3.63l-.31-.08c.75,1.48,2.98,2.26,4.32,1.05.22-.2.42-.47.45-.78.04-.48-.29-.59-.43-.97-.32-.89.87-1.05,1.49-1.31.41-.17,1.2-.36,1.48-.75.43-.61-.22-1.33-.63-1.77-.88-.96-2.16-1.61-2.6-2.92-.39-1.15-.41-2.23-1.2-3.22-.69-.86-1.63-1.43-2.69-1.69-.28-.07-.4.37-.12.43,1.06.26,2,.85,2.63,1.76s.62,1.86.95,2.84c.5,1.49,1.94,2.16,2.89,3.32,1.01,1.23-1.28,1.72-2.09,2.1-.39.18-.81.36-.79.86.01.22.15.3.22.49.34,1,.06,1.56-.87,1.7-1.09.16-2.13-.4-2.62-1.37-.06-.11-.21-.14-.31-.08-1.13.65-1.22,1.88-1.9,2.88-.18.26-.55.68-.88.68l-.54-.27c-.46-.02-.63-.22-.53-.59-.04-.48.21-.89.38-1.33.15-.4.36-.88.25-1.32-.16-.7-.91-.55-1.39-.22-1.05.72-1.28,2.1-2.46,2.76-.38.21-1.01.47-1.46.4-.62-.1-.41-.81-.33-1.29.14-.78.57-1.48.69-2.25.14-.91-.49-1.35-1.32-1.47-.35-.05-.69-.05-1.04,0-.23.03-.67.25-.88.21-.23-.04-.75-.71-.8-.9-.03-.13,0-.32.02-.45.05-.56.23-1.12.47-1.62.35-.74.84-1.42,1.37-2.04.57-.67,1.32-1.64,2.27-1.65.75-.01,1.46.48,2.2.58.65.08,1.26-.08,1.82-.4,1.48-.85,2.68-2.36,3.9-3.53.21-.2-.11-.52-.32-.32h0Z"/>
          <path class="cls-2" d="M76.04,20.65c-.43,1.63-.22,3.34.09,4.97.33,1.73.87,3.41,1.58,5.02.12.26.5.04.39-.23-.67-1.52-1.17-3.1-1.49-4.73s-.55-3.3-.12-4.91c.07-.28-.36-.4-.43-.12h0Z"/>
          <path class="cls-2" d="M81.93,46c2.76,6.03,7.73,10.62,11.72,15.8,4.06,5.27,5.08,11.82,7.94,17.68.13.26.52.03.39-.23-2.83-5.8-3.83-12.3-7.82-17.53s-9.05-9.86-11.84-15.96c-.12-.26-.51-.03-.39.23h0Z"/>
          <path class="cls-2" d="M83.49,44.12c1.7,2.91,3.56,5.73,5.58,8.42s4.44,5.17,6.43,7.92,3.46,5.7,5,8.59,2.14,6.12,3.89,8.93c.15.24.54.02.39-.23-1.75-2.8-2.35-6.04-3.89-8.93s-3.08-5.92-5-8.59-4.39-5.2-6.43-7.92-3.88-5.52-5.58-8.42c-.15-.25-.54-.02-.39.23h0Z"/>
          <path class="cls-2" d="M24.66,35.99c-1.15,1-2.82,1.2-3.86,2.33-1.09,1.19-.67,2.83-1.12,4.25-.16.49-1.35,2.03-.19,2.32.37.09.52-.16.79-.33.47-.29.97-.3,1.48-.5,1.72-.67,3.37-2.01,4.78-3.17.36-.3.33-.56.64-.12.2.29.14.48.08.81-.07.38-.21.73-.22,1.12-.02.63.2,1.06.64,1.5.34.34.64.55.9.97.12.2.27.6.41.78.4.53,1.12,1,1.74,1.21.65.22,1.14-.03,1.77.04.41.04.87.43,1.27.14.34-.24.25-.67.19-1.01-.17-.88-.39-1.56.46-2.27.23-.19.69-.36.97-.5.9-.45,1.55-.54,2.47-.24.48.16.98.27,1.48.34.76.09,2.92-.41,3.45.17l.27-.35c-1.13-.77-2.11-1.71-2.89-2.85-.55-.8-.84-1.84-1.56-2.52-.39-.37-.84-.6-1.16-1.04-.2-.27-.31-.62-.59-.82-.63-.44-1.42.03-2.05.18-1.49.36-2.84-.12-4.08-.95-.7-.47-1.39-.83-2.24-.91-1.61-.16-3.14.57-4.07,1.88-.17.24.22.46.39.23,1.33-1.86,3.69-2.09,5.54-.91,1.51.96,2.96,1.55,4.77,1.04.75-.21,1-.5,1.79.25.23.22.37.55.62.78.4.37.85.58,1.17,1.06.24.35.38.77.59,1.14.86,1.55,2.09,2.82,3.55,3.82.22.15.44-.17.27-.35-.47-.51-1.04-.4-1.67-.33-.9.1-1.75.12-2.64-.06-.67-.13-1.26-.49-1.92-.64-.95-.22-1.3.48-2.05.91-.69.39-1.36.56-1.52,1.43-.07.38,0,.79.1,1.16.08.32.16.81-.36.88-.1.01-.34-.15-.46-.17-.49-.08-.84.11-1.37.02-1.14-.19-1.53-.7-2.1-1.63-.19-.31-.37-.54-.63-.79-.21-.2-.47-.36-.64-.61-.39-.56-.2-1.33-.13-1.98.09-.71.16-1.25-.35-1.82-.09-.09-.23-.08-.32,0-1.48,1.3-3.26,2.84-5.11,3.59-.49.2-1.04.09-1.5.36-.14.08-.24.27-.37.33-.67.3-.26-.61-.15-.94.18-.55.35-1.06.42-1.64.13-1.08.07-2.23.91-3.06,1.04-1.04,2.65-1.25,3.76-2.22.22-.19-.1-.51-.32-.32h0Z"/>
          <path class="cls-2" d="M38.66,43.73c-1.12.46-2.28.99-2.76,2.18-.41,1.01-.19,2.18.6,2.94.35.34.84.61,1.34.64.57.04.98-.28,1.46-.54.74-.4,1.36-.1,2.14-.08.54.02.95-.16,1.37-.49.62-.49,1.17-1.02,1.88-.32.35.34.61.79,1.03,1.06.77.48,1.82.14,2.13-.73.18-.52-.18-1-.01-1.46.16-.43.25-.17.58.05.17.11.33.21.5.32.42.26.83.53,1.25.79.26.16.64.45.93.18.22-.2.15-.52.04-.76-.31-.67-1.01-1.26-1.48-1.82s-.78-.92-1.5-1c-1.66-.19-4.01-.03-5.08-1.61-.16-.24-.55-.01-.39.23.49.71,1.2,1.12,2.02,1.37,1.19.36,2.44.24,3.63.53.66.16,1.11.94,1.54,1.44.18.21.35.42.53.63.11.14.42.31.28.5-.1.15-.25-.03-.41-.14-.59-.37-1.17-.74-1.76-1.11-.28-.18-.6-.48-.96-.33-.19.08-.32.28-.36.47-.13.62.51,1.1.15,1.74-.48.85-1.4.43-1.88-.12-.25-.27-.46-.59-.76-.8-.61-.44-1.23-.23-1.77.2s-.93.8-1.69.72c-.46-.05-.92-.18-1.38-.12-.55.07-.92.45-1.42.64-.93.37-1.83-.35-2.16-1.2-.71-1.86,1.04-2.97,2.49-3.56.26-.11.15-.54-.12-.43h0Z"/>
          <path class="cls-2" d="M22.56,47.59c-2.26,0-4.3.87-6.18,2.08-.95.61-1.86,1.28-2.75,1.98-1.08.84-1.74,2.13-3.01,2.66-1.03.43-3.66,1.07-3.1,2.74.17.51.62.71,1.14.72.32,0,.59-.1.88-.22,1.02-.39,1.83-.71,2.84-.01.12.08.3,0,.33-.13.29-1.34,1.82-1.53,2.72-2.31.39-.34.68-.77,1.04-1.13.73-.72,1.46-.61,2.42-.42.72.14,1.2.03,1.87-.28.73-.34,1.2-.48,2.03-.49.33,0,.46.08.8-.04.37-.13.65-.45.98-.65.62-.39,1.3-.57,2.03-.61,1.35-.09,2.56.47,3.88.63s2.97-.57,2.77-2.15c-.02-.15-.13-.25-.28-.22-1.64.36-3.14-.31-4.67-.78-1.29-.4-2.62-.7-3.95-.9-1.23-.19-3.98-.94-4.66.58-.12.26.27.49.39.23.53-1.19,3.22-.52,4.15-.37,1.04.16,2.07.37,3.09.65,1.91.52,3.76,1.46,5.78,1.03l-.28-.22c.19,1.5-1.54,1.84-2.66,1.64-.59-.1-1.16-.31-1.74-.42-.79-.15-1.62-.22-2.42-.08-.39.06-.77.17-1.13.34-.41.19-.76.62-1.17.77-.48.17-1.04,0-1.54.08-.41.06-.76.2-1.14.38-.72.34-1.3.63-2.11.4-.32-.09-.57-.26-.91-.29-.73-.05-1.34.39-1.82.89-.4.41-.72.86-1.17,1.21s-.93.53-1.4.8c-.67.38-1.14.86-1.31,1.62l.33-.13c-.55-.39-1.15-.61-1.83-.53-.28.03-.5.12-.75.21-.13.05-.26.11-.38.18-.88.61-1.2.14-.96-1.41.38-.49,1.52-.63,2.09-.87s1.02-.49,1.44-.93c.29-.3.48-.7.76-1.01.41-.45.94-.8,1.42-1.17.72-.54,1.45-1.08,2.21-1.57,1.81-1.17,3.76-2.02,5.95-2.02.29,0,.29-.45,0-.45h0Z"/>
          <path class="cls-2" d="M11.69,58.87c-.06,2.32-1.61,3.53-3.51,4.49-1.09.55-2.28,1.1-2.97,2.16-.42.65-.74,1.82.1,2.31,1.17.69,2.14-1.06,2.7-1.75s1.25-1.39,2.14-1.6c1.02-.23,2.23.05,3.28.03.94-.02,1.89-.08,2.83-.13.78-.04,1.64-.02,2.36-.35,1.28-.58,1.38-2,2.02-3.08,1.05-1.78,3.45-2.11,5.25-2.73,1.04-.36,2.4-1.05,2.34-2.36-.09-1.94-3.65-.8-3.54-2.49.02-.29-.43-.29-.45,0-.1,1.47,1.59,1.33,2.55,1.63,1.27.4.93,1.72.12,2.26-.39.26-.84.42-1.28.57-.96.32-1.92.56-2.86.96-1.47.63-2.3,1.34-2.92,2.81-.55,1.33-1.09,2.14-2.66,2.27-1.04.09-2.09.12-3.14.16-1.7.07-3.7-.49-5.18.56-.56.4-1.01.93-1.42,1.47-.13.17-.26.34-.38.52-.38.73-1,.8-1.84.2-.08-.55.42-1.17.77-1.53,1.15-1.19,2.9-1.56,4.21-2.55s1.88-2.3,1.93-3.83c0-.29-.44-.29-.45,0h0Z"/>
          <path class="cls-2" d="M29.76,53.15c-.59.53-1.2,1.08-1.64,1.75-.51.77-.51,1.6-.78,2.45-.56,1.79-2.61,2.53-3.66,3.96-.53.72-1.27,2.6-.06,3.11.54.23,1.18-.12,1.66-.34.91-.43,1.75-.96,2.54-1.57l-.31-.08c.31.49.62.98.94,1.47.16.25.33.61.63.72.34.13.71.02.93.48.13.28.08.75.2,1.07.27.72.82,1.31,1.39,1.8.46.39,1.23,1.17,1.87,1.13.7-.04,1.13-1.05,1.51-1.48.5-.56,1.69-1.84,2.48-1.46,1.58.75,3,1.55,4.73.65.14-.07.13-.25.05-.35-.88-1.03-1.39-2.3-1.38-3.66.01-1.13.38-2.22.33-3.35-.09-1.76-.93-3.44-2.19-4.65-1.38-1.34-3.23-2.09-5.11-2.35-1.04-.14-3.18-.41-3.35,1.09-.03.29.42.28.45,0,.19-1.68,4.56-.31,5.4.06,1.75.77,3.23,2.14,3.94,3.94s.16,3.31.1,5.11c-.06,1.54.52,2.98,1.51,4.14l.05-.35c-1.59.83-3.31.06-4.64-.91-.07-.05-.16-.03-.23,0-.97.45-1.83,1.08-2.53,1.89-.49.57-.91,1.32-1.79.89-.6-.29-1.21-.91-1.62-1.42-.49-.61-.57-1.15-.71-1.9-.04-.24-.07-.51-.28-.67-.27-.22-.57-.11-.87-.24-.6-.27-1.04-1.31-1.4-1.87-.06-.09-.21-.16-.31-.08-.58.45-1.19.86-1.84,1.22-.28.15-.56.3-.85.42-.6.27-1.51.11-1.47-.7.07-1.5,1.55-2.46,2.59-3.33.86-.72,1.57-1.49,1.83-2.6.17-.72.24-1.37.65-2.01s1.01-1.16,1.57-1.66c.22-.19-.1-.51-.32-.32h0Z"/>
          <path class="cls-2" d="M49.47,64.01c1.17.94,2.31,1.97,3.11,3.27.32.52.55,1.09.91,1.57.56.75,1.49,1.12,1.3,2.23l.38-.1c-.69-.78-1.37-1.57-2.07-2.34-.29-.31-.81-.77-1.23-.39-.47.42-.13,1.47.03,1.95.05.16.12.32.19.48.02.04.16.27.15.31l-.25.14c-.13.18-.24.2-.32.07-.15-.07-.32-.35-.43-.48-.17-.19-.36-.38-.54-.56-.62-.61-1.31-1.16-2.05-1.62-.49-.31-1.19-.64-1.77-.35-.52.26-.52.8-.59,1.3-.09.62-.4.55-.9.73-.31.12-.57.34-.8.56-.11.1-.35.47-.49.49-.16.03-.52-.23-.53-.33s.1-.25.12-.35c.11-.39.09-.78-.05-1.17-.36-.98-1.28-1.57-1.84-2.41-.16-.24-.55-.01-.39.23.52.78,1.4,1.35,1.76,2.23.24.6.03.96-.09,1.52-.05.23-.05.49.09.69.31.47.83.26,1.17-.04.32-.27.57-.62.92-.85s.76-.18,1.08-.4c.58-.41.2-1.22.65-1.66.72-.7,2.26.74,2.81,1.22.34.29.66.6.97.92.27.29.51.67.86.88.39.23,1.01.19,1.15-.32.08-.28-.09-.53-.2-.77-.14-.29-.26-.59-.33-.91-.03-.14-.06-.28-.08-.42-.05-.32-.13-.38.19-.51.35-.14.46.15.69.41.19.22.39.44.58.66.41.47.83.94,1.24,1.4.11.12.35.07.38-.1.11-.66-.03-1.27-.5-1.76-.3-.31-.64-.54-.9-.89s-.44-.74-.65-1.12c-.83-1.5-2.08-2.68-3.4-3.74-.22-.18-.54.14-.32.32h0Z"/>
          <path class="cls-2" d="M10.64,66.29c-.01,1.46-.41,2.78-1.21,4-.1.15.03.33.19.34.61.02,1.13-.14,1.68-.4s3.08-1.28,2.07.35c-.67,1.08-2.25,1.3-2.63,2.62-.23.81.23,1.6,1.06,1.79.44.1.9-.02,1.28-.24.46-.27.97-1.31,1.58-1.14l-.16-.28c-.23,1.4-.47,3.01.24,4.32s2.58,1.78,2.88,3.29c.05.23.37.2.43,0,.43-1.36-.08-2.76.24-4.14s1.24-2.56,2.09-3.66h-.39c.31.71.79,1.29,1.48,1.65.28.15.59.23.89.34.5.19.6.63.63,1.16,0,.1-.07.24-.04.34.3,1.1,2.28.48,2.97.19.42-.18.85-.47.95-.95.12-.6-.3-.91-.68-1.28-.29-.28-.79-.98-.65-1.44.03-.1.31-.31.36-.39.13-.19.21-.41.22-.65.04-.76-.57-1.43-1.07-1.93l-.16.38c1.1.06,3.01.54,3.98-.2.59-.45.66-1.25.07-1.72-.49-.39-1.25-.48-1.8-.73-.28-.13-.6-.28-.85-.47-.31-.14-.49-.4-.52-.77.07-.04.14-.09.2-.14.1-.26.23-.34.19-.66-.07-.52-.62-.92-.45-1.48.09-.28-.35-.4-.43-.12-.22.7.65,1.42.26,2.01-.28.43-.63.52-.13,1.06.65.7,1.7,1.06,2.57,1.36.18.05.35.12.53.2l-.31,1.29c-.18.13-.81.06-1.04.05-.76-.03-1.51-.08-2.27-.13-.2-.01-.29.25-.16.38.55.55.75.76.71,1.53-.05.83-.09.48-.41,1.02-.18.3-.22.59-.08.92.18.43.58.65.92.92.45.35.65,1.1.06,1.42-.34.19-.73.25-1.1.32-.52.1-1.16.41-1.31-.41-.02-.11.13-.24.12-.37-.03-.33-.07-.52-.32-.75-.28-.26-.68-.37-1.03-.5-.89-.34-1.49-.81-1.88-1.7-.08-.17-.3-.12-.39,0-.82,1.06-1.65,2.17-2.05,3.47-.45,1.47.13,2.99-.32,4.44h.43c-.24-1.17-1.27-1.7-2.1-2.42-1.49-1.29-1.31-3.17-1.02-4.95.02-.12-.03-.24-.16-.28-1.07-.29-2.57,2.54-3.41,1.09l-.03-1.3c.21-.3.48-.56.78-.77.25-.19.52-.37.77-.57.44-.35.99-.79,1.3-1.28.36-.57-.08-.97-.66-1.12-1.39-.35-2.55,1.01-3.9.96l.19.34c.84-1.28,1.26-2.69,1.27-4.23,0-.29-.45-.29-.45,0h0Z"/>
          <path class="cls-2" d="M33.35,74.6c-.89.32-1.56.85-2.08,1.64-.07.1-.02.25.08.31.19.12.34.15.57.13.18-.02.65-.3.77-.24.75.36-1.42,1.89-1.65,2.07-1.35,1.05-2.09,2.23-1.71,3.99.19.88.86,3.43,2.3,2.66.48-.26.55-.82.47-1.31-.13-.79-.53-1.43.21-2.09.52-.47,1.27-.52,1.93-.58l-.22-.28c-.35,1.05-.71,2.1-1.06,3.15-.25.73-.63,1.59-.47,2.38.28,1.4,1.84,1.36,2.81.7.66-.45,1.57-1.95,2.44-1.33.38.27.77,1.14,1.03,1.53.34.51.69,1.02,1.03,1.53.62.91,1.2,1.87,1.86,2.75.33.45.72.86,1.33.67.57-.17.9-.81,1.16-1.29.5-.92.91-1.89,1.25-2.88.26-.75.36-2.05,1.6-1.69.17.05.29.26.49.32.46.12.96-.18,1.19-.56.71-1.15-.5-3.26-1.21-4.15-.5-.63-1.19-1.08-1.71-1.69-.7-.83-.48-1.91-1.1-2.78-1-1.41-2.37-2.97-4.15-3.32-2.17-.43-4.33.84-6.48.1-.27-.1-.39.34-.12.43,1.35.47,2.7.19,4.07-.02,1.99-.3,3.56.02,4.99,1.51.51.53,1.06,1.12,1.44,1.75.41.68.25,1.52.67,2.2.31.5.76.88,1.19,1.26.64.58,1.15,1.2,1.52,1.99.18.38.39.82.48,1.23.07.32.11,1.12-.11,1.4-.69.85-.74-.03-1.07-.15s-.57-.23-.95-.07c-.45.19-.69.62-.86,1.06-.35.93-.62,1.87-1.03,2.78-.36.8-.99,2.78-2.23,1.7-.29-.25-.51-.76-.72-1.07-.31-.46-.62-.92-.93-1.38-.48-.71-.96-1.43-1.45-2.14-.33-.48-.66-1.29-1.17-1.61-1.07-.68-2.47,1.62-3.38,1.88-.4.12-1.04-.03-1.34-.36-.25-.28-.15-.87-.09-1.21.09-.46.27-.91.42-1.35.35-1.05.71-2.1,1.06-3.15.04-.13-.08-.3-.22-.28-1.15.1-2.76.42-2.87,1.85-.03.35.13.64.18.98l.09.29c-.23,1.02-.56,1.24-.96.64-.33-.32-.43-.55-.59-.98-.41-1.14-.71-2.48.05-3.54.83-1.16,2.68-1.72,3.21-3.09.12-.3.12-.67-.2-.85-.51-.29-1.09.43-1.58.13l.08.31c.45-.68,1.03-1.15,1.81-1.43.27-.1.15-.53-.12-.43h0Z"/>
          <path class="cls-2" d="M19.79,78.99c-.96,1.93-2.8,3-4.55,4.11-1.06.68-2.4,1.95-1.38,3.25.35.45.92.76,1.5.74.34-.01.6-.15.89-.31.42-.23,1.08-.34,1.13.36.02.21-.09.48-.12.69-.25,1.94.19,3.9,1.16,5.59.08.15.3.14.39,0,1.09-1.82.99-5.34,3.49-5.94,1.27-.3,2.04.91,2.91,1.59s1.86.61,2.74,1.13c.61.37,1.13,1,1.91.69.67-.26.99-1.01.91-1.68-.11-.91-.82-1.58-1.44-2.19-.5-.49-.98-1.01-1.17-1.7-.26-.98.17-2.01,1.19-2.28.28-.07.16-.51-.12-.43-2.12.56-1.81,3.03-.62,4.34.37.41.81.75,1.15,1.18.27.34.52.74.55,1.18.05.75-.45,1.44-1.32,1.09-.39-.16-.69-.54-1.09-.72-.6-.28-1.28-.3-1.87-.6-.9-.45-1.43-1.39-2.33-1.84-.72-.36-1.53-.3-2.22.1-2.11,1.23-1.93,3.97-3.06,5.86h.39c-1.11-1.93-1.29-3.91-.97-6.08.07-.46.06-.85-.43-1.05-.67-.27-1.18.31-1.78.48s-1.34-.11-1.58-.77.07-1.19.51-1.63c.63-.62,1.48-1.02,2.21-1.51,1.37-.9,2.65-1.95,3.39-3.44.13-.26-.26-.49-.39-.23h0Z"/>
          <path class="cls-2" d="M27.15,78.38c.87.4,1.66.96,2.32,1.67.13.14.39.03.38-.16,0-.17-.03-.35-.09-.51s-.13-.38-.28-.47c-.17-.1-.41,0-.41.22s.2.31.38.23c.11-.05.14-.21.08-.31-.07-.12-.2-.13-.31-.08h-.01c.08,0,.15,0,.23,0h-.01s.05.05.08.08l.02.07-.03.11v-.02s-.05.05-.07.08h.01s-.08.01-.11.02h.03s-.08-.02-.11-.03c-.02-.01,0,.02.01.03.01.03.03.05.04.08.02.05.04.11.06.16.03.11.05.22.05.33l.38-.16c-.68-.73-1.5-1.32-2.41-1.74-.11-.05-.24-.03-.31.08-.06.1-.03.26.08.31h0Z"/>
          <path class="cls-2" d="M31.02,70.45c.26,1.06.52,2.14,1.09,3.08.25.41.55.8.91,1.11.17.15.36.28.55.4s.39.25.45.48c.07.28.51.16.43-.12-.11-.42-.47-.62-.8-.85-.43-.29-.79-.68-1.07-1.12-.61-.94-.87-2.04-1.13-3.11-.07-.28-.5-.16-.43.12h0Z"/>
          <path class="cls-2" d="M32.81,70.1c.31,1.25.72,2.71,1.98,3.32.32.15.65.21.99.26.38.06.74.16,1.1.31.75.31,1.48.67,2.22,1.01.26.12.49-.27.23-.39-.67-.3-1.33-.62-2-.91-.3-.14-.61-.27-.93-.35-.36-.1-.73-.11-1.08-.21-1.38-.37-1.79-1.96-2.08-3.16-.07-.28-.5-.16-.43.12h0Z"/>
          <path class="cls-2" d="M101.8,79.62c.21,1.21-.31,2.46-.89,3.5-.26.47-.6.94-1.08,1.21s-1.07.32-1.54,0c-.24-.16-.47.23-.23.39.52.35,1.17.35,1.74.12.6-.24,1.04-.74,1.37-1.28.72-1.18,1.3-2.66,1.06-4.06-.05-.28-.48-.16-.43.12h0Z"/>
          <path class="cls-2" d="M106.96,57c-.98,3.53-1.9,7.07-1.85,10.76s.58,7.65.93,11.45c.03.29.48.29.45,0-.34-3.66-.84-7.35-.93-11.03s.81-7.42,1.83-11.06c.08-.28-.36-.4-.43-.12h0Z"/>
          <path class="cls-2" d="M104.31,57.47l-.26,2.79c-.05.49-.06,1-.19,1.48-.17.63-.3.93-.96,1.03-.9.14-1.87-.36-2.77-.51-.82-.14-1.65-.21-2.48-.22v.45c1.48-.06,2.58,1,3.92,1.43.67.22,1.39.03,1.65.77.3.84-.17,1.86-.23,2.72-.12,1.65.27,3.41.44,5.05.19,1.83.39,3.65.58,5.48.03.29.48.29.45,0-.22-2.09-.44-4.17-.66-6.26-.11-1.03-.23-2.05-.32-3.08s.2-2.01.25-3.06c.03-.5.02-1.31-.36-1.69s-1.09-.2-1.55-.33c-1.46-.41-2.58-1.55-4.18-1.49-.29.01-.29.45,0,.45,1.36.02,2.7.21,4,.6.67.2,1.35.5,1.97,0,.51-.41.68-1.13.77-1.75.19-1.27.25-2.58.37-3.86.03-.29-.42-.29-.45,0h0Z"/>
          <path class="cls-2" d="M96.24,44.36c.45.56.45,1.38,1.02,1.86s.92.1,1.53.13c.68.04.96.83,1.5,1.18.22.14.43.2.69.24.72.12,1.09.08,1.47.77.46.82.9,2.48,2.21,1.84.7-.35,1.32-1.09,1.91-1.6.41-.36.82-.75,1.26-1.08.61-.45,1.14-.31,1.83-.04l-.16-.28c-.24.82-1.14,1.11-1.68,1.7-.43.46-.64,1.06-.73,1.67-.14.96-.28,2.96.74,3.55.23.14.48.09.73.15,1.08.27,1.02.85.77,1.63s-.8,1.84-1.77,1.16c-.28-.19-.45-.51-.74-.7-.38-.25-.72-.25-1.11-.01-.86.53-1.64,1.38-2.41,2.04-.09.08-.08.24,0,.32.59.61-.02,1.4-.64,1.63-.43.16-.92.13-1.38.11-.67-.03-1.37-.09-2.01.16-.27.11-.49.33-.75.44-.45.18-.69-.05-1.1-.07-.37-.02-.67.15-.73.53-.04.28.39.41.43.12.04-.27.97.01,1.2-.03.49-.08.83-.5,1.31-.63.89-.26,1.85.05,2.76-.11,1.11-.19,2.19-1.46,1.21-2.47v.32c.64-.55,2.22-2.41,3.1-1.83.53.35.73.94,1.48.87,1.24-.12,1.91-1.98,1.7-3.05-.1-.5-.4-.78-.9-.88-.26-.05-.72.05-.96-.09-.32-.19-.43-.63-.49-.97-.08-.46-.09-.94-.08-1.41.01-1.14.36-1.98,1.27-2.67.51-.39.98-.74,1.17-1.38.04-.13-.05-.23-.16-.28-.44-.17-1.27-.51-1.74-.29-.37.17-.72.61-1.03.88-.34.29-.67.58-1.01.86-.35.3-.73.74-1.13.97-.35.2-1.06.32-1.36.02-.17-.17-.25-.38-.35-.59-.22-.5-.37-1.07-.82-1.43-.58-.47-1.36-.13-1.93-.58-.39-.31-.62-.79-1.05-1.05-.48-.29-.7,0-1.18-.02-.44,0-.9-.44-1.04-.82-.06-.15-.1-.3-.16-.44-.11-.26-.23-.47-.41-.69s-.5.09-.32.32h0Z"/>
          <path class="cls-2" d="M96.09,44.33l-.9-.61c-.12-.08-1.07-.62-.84-.82.18-.17-.02-.41-.22-.38-.49.08-.91.29-1.29.61l.35.05c-.14-.27-.45-.38-.74-.27-.36.14-.54.55-.7.87-.24.45-.44.91-.61,1.39-.1.27-.18.53-.26.81-.03.1-.03.26-.09.34-.16.23-.32.18-.52.17-.49-.01-.73.25-1.15.44s-.85.23-1.25.43c-.62.31-1.04,1.13-.45,1.69.21.2.53-.12.32-.32-.37-.36.02-.81.36-.98.29-.14.61-.19.92-.3.15-.05.29-.1.43-.17.18-.09.34-.26.54-.32.26-.07.54.05.8-.04.56-.18.58-1.01.75-1.48.13-.37.28-.73.45-1.08.09-.18.18-.37.28-.55.04-.07.39-.73.55-.39.07.14.25.13.35.05.32-.27.68-.43,1.09-.5l-.22-.38c-.33.29-.18.72.12.97.52.44,1.16.79,1.72,1.17.24.16.47-.23.23-.39h0Z"/>
          <path class="cls-2" d="M79.38,58.01c1.46,1.81,3.86,2,6.01,2.13,1.4.08,2.79.24,4.18.43,1.29.18,2.43.44,3.37,1.42.2.21.52-.11.32-.32-1.58-1.67-4.18-1.67-6.33-1.87-2.47-.23-5.5.04-7.23-2.11-.18-.23-.5.09-.32.32h0Z"/>
          <path class="cls-2" d="M80.41,53.29c-.65,2.1-2.77,3.65-3.09,5.85-.09.6.03,1.23.6,1.53.15.08.34.09.48.17.34.05.48.33.41.84-.06.05-.11.1-.15.16-.11.28-.24.3-.15.63.03.12.16.18.28.16,1.89-.37,3.81-.5,5.74-.35.55.04,1.1.1,1.64.19.61.1.85.13,1,.77.11.45.09.77.47,1.12,1.03.93,2.37.21,3.51,0,.76-.14,1.21.02,1.83.47.23.17.39.34.66.46.64.29,1.36.17,1.96.58.24.17.46-.22.23-.39-.61-.42-1.32-.32-1.97-.61-.7-.31-1.02-.91-1.83-1.01-.72-.09-1.4.18-2.09.35-.59.15-1.3.29-1.84-.09s-.36-.83-.48-1.36c-.09-.38-.28-.52-.64-.63-.82-.23-1.77-.28-2.61-.33-1.91-.13-3.81.02-5.69.38l.28.16c-.06-.24.53-.65.58-.93.04-.22-.02-.4-.15-.58-.19-.27-.47-.3-.74-.42-.38-.16-.7-.23-.84-.66-.11-.32-.03-.63.06-.95.58-2,2.37-3.41,2.99-5.42.09-.28-.35-.4-.43-.12h0Z"/>
          <path class="cls-2" d="M78.55,65.03c-.94,1.01-1.94,2.1-2.23,3.49-.06.31-.08.63-.19.94-.11.32-.47.48-.54.79-.14.56.69.53,1.01.56.7.07,2.41.04,1.82,1.19-.36.71-1.18,1.12-1.56,1.81-.22.39,0,.82.4.98.59.24,1.08-.25,1.41-.67.18-.22-.14-.54-.32-.32s-.46.62-.8.6c-.73-.04-.02-.69.14-.87.41-.44.94-.88,1.18-1.45.16-.38.17-.86-.11-1.18-.34-.4-.91-.42-1.39-.46-.34-.03-.69-.07-1.03-.1-.1,0-.2-.02-.3-.04.04,0,.07,0,.09-.04.04-.08.15-.15.21-.23.31-.42.32-.97.43-1.47.29-1.29,1.22-2.29,2.09-3.22.2-.21-.12-.53-.32-.32h0Z"/>
          <path class="cls-2" d="M92.21,76.94c.54-.61,1.12-1.19,1.79-1.64.62-.42,1.3-.67,1.98-.98.57-.26,1.09-.59,1.47-1.11s.61-1.28,1.31-1.39c.12-.02.18-.17.16-.28-.08-.37-.32-.59-.59-.83-.47-.42-.56-.88-.68-1.48-.19-.97-.5-1.98-1.24-2.68-.59-.57-1.46-.92-2.27-.68-.76.23-1.32.9-1.32,1.7l.28-.22-.19-.17-.06.22h.09c.27.1.38-.33.12-.44-.21-.09-.37-.04-.53.13-.05.06-.08.14-.06.22.09.26.23.41.5.49.14.04.28-.07.28-.22,0-.92.95-1.48,1.79-1.29s1.49.97,1.81,1.78c.28.71.29,1.48.55,2.19.22.58.94.83,1.08,1.41l.16-.28c-.57.09-.9.53-1.2,1-.45.71-.91,1.19-1.69,1.55-.73.34-1.46.61-2.12,1.08s-1.22,1.01-1.74,1.61c-.19.22.13.54.32.32h0Z"/>
          <path class="cls-2" d="M92.33,67.57c-.58.45-1.21.82-1.88,1.11-.33.14-.67.26-1.02.36-.2.06-.3.1-.48.01s-.35-.19-.54-.27c-.6-.26-1.25-.39-1.9-.48s-1.28-.19-1.9-.12c-.24.03-.49.08-.71.19-.15.08-.24.21-.39.15-.14-.06-.25-.31-.3-.44-.24-.63.02-1.34.52-1.76.58-.49,1.29-.56,2.01-.64.51-.06.94-.25,1.16-.73.52-1.14-.58-2.13-1.68-2.04-.29.02-.29.47,0,.45.67-.05,1.44.34,1.35,1.11-.11.9-1.1.73-1.76.87-1.03.22-2.03.93-2.12,2.05-.04.46.07.95.37,1.31.11.14.3.33.49.35.28.03.52-.28.78-.36.65-.19,1.44-.03,2.09.06.72.09,1.45.24,2.1.59.33.18.42.3.79.2s.76-.22,1.13-.37c.76-.31,1.46-.71,2.11-1.21.23-.17,0-.56-.23-.39h0Z"/>
          <path class="cls-2" d="M115.85,2.07c-1.48,1.21-2.43,2.88-2.72,4.77-.02.11.03.26.16.28,1.06.15,2.1.25,3.07-.28l-.33-.13.39,1.59c.03.13.16.17.28.16.98-.14,1.14,1.85,1.75,2.4.1.09.28.09.35-.05.4-.75.76-1.81,1.31-2.45.65-.75,1.02-.19,1.75-.25,1.14-.08.89-1.46,1.52-2.07.8-.77,1.51.07,2.35.2.6.09,1.28-.05,1.86-.18,1.38-.31,2.64-.95,3.75-1.81.14-.11.05-.34-.1-.38-.65-.17-.91-.41-1.02-1.11-.03-.16.06-.27-.03-.44-.23-.46-1.13-.6-1.55-.72-.82-.25-1.67-.41-2.52-.5-.96-.1-1.96-.04-2.89-.33-.66-.2-1.28-.78-2-.75-.33.01-.5.16-.78.29-.49.23-.85.04-1.32-.08-1.66-.42-1.93,1.69-3.32,1.96-.28.05-.16.49.12.43.61-.12.99-.5,1.38-.97.23-.29.45-.62.78-.81.43-.26.88-.07,1.31.08.09.03.19.1.29.12.2.04.36,0,.55-.07.58-.21.49-.42,1.21-.35.88.09,1.63.62,2.53.75,1.69.24,3.64.05,5.2.87.16.03.29.13.38.28.22.1.28.24.17.43.02.08-.02.17,0,.25.02.16.09.3.19.44.28.38.79.55,1.23.66l-.1-.38c-1.35,1.05-3.28,1.99-5.04,1.88-1.09-.07-2.05-1.18-3.03-.03-.33.39-.31.86-.52,1.3-.43.88-1.18.24-1.88.35-.42.07-.61.36-.82.7-.48.79-.88,1.64-1.31,2.45l.35-.05c-.82-.74-.61-2.75-2.18-2.52l.28.16-.39-1.59c-.04-.15-.21-.2-.33-.13-.86.47-1.79.37-2.73.24l.16.28c.27-1.82,1.17-3.4,2.6-4.57.22-.18-.1-.5-.32-.32h0Z"/>
          <path class="cls-2" d="M126.4,18.68c-1.27.45-2.82,1.18-2.76,2.75.02.44.1.64-.09,1.05-.18.39-.31.42-.7.49-.34.06-.7.06-1.02.2-.63.29-.65.92-.73,1.53-.15,1.23-.3,2.46-.45,3.7-.06.45-.4,1.62.41,1.63.38,0,.7-.33,1.01-.51.37-.2.31-.19.66.16.47.47.23.18.34.55.06.2.07.43.14.63.18.57.73,1.74,1.37,1.93.48.14.97-.45,1.21-.8.67-.95,1.13-1.79,2.45-1.79s2.34.78,3.41,1.37c.64.35,1.24.46,1.87.02.46-.32,1.2-1.08,1.19-1.69s-.64-.85-1.15-.94c-.42-.07-.58-.04-.91-.37s-.35-.43-.06-.8c.1-.13.22-.25.36-.33.55-.3,1.26-.2,1.85-.3s1.31-.44,1.53-1.09c.3-.86-.64-1.55-1.14-2.1-.74-.81-1.46-1.7-2.43-2.25-1.8-1.02-4.18-.92-5.65-2.5-.2-.21-.51.11-.32.32,1.01,1.09,2.44,1.43,3.81,1.83.79.23,1.6.49,2.29.96.84.57,1.49,1.42,2.17,2.16.45.49,1.3,1.18.55,1.84-.44.4-1.04.39-1.6.45-.66.06-1.32.15-1.76.7-.27.34-.44.85-.22,1.27.33.62,1.05.52,1.63.67,1.01.26.26,1.21-.16,1.6-.51.48-1.01.47-1.62.15-.81-.42-1.55-.95-2.42-1.23-1.36-.44-2.77-.15-3.59,1.07-.22.34-.4.8-.72,1.06-.49.39-.76,0-1.07-.44-.25-.37-.44-.8-.53-1.24-.07-.36,0-.85-.23-1.17-.28-.39-.79-.41-1.21-.25-.3.11-.83.7-1.13.29-.07-.09.09-.76.11-.89.04-.3.07-.59.11-.89.07-.59.14-1.18.22-1.77.08-.64-.02-1.93.67-2.19.55-.21,1.23-.04,1.7-.48.64-.59.13-1.47.33-2.19.28-.99,1.51-1.46,2.38-1.76.27-.1.15-.53-.12-.43h0Z"/>
          <path class="cls-2" d="M127.74,7.17c-.84,1.4-1.73,2.77-2.68,4.1-.41.58-1.69,1.73-1.39,2.59.26.74,1.06.38,1.59.17.22-.09.64-.32.93-.35.94-.09,1.06.29,1.7.6.46.22.93.27,1.44.25l-.22-.28c-.15.74-.53,2.64.79,2.41.62-.11.82-.64,1.09-1.14.9-1.64,2.62-.94,3.93-.27.54.28,1.05.59,1.68.45.34-.07.63-.29.94-.44.94-.45,1.68-.29,2.51.27.59.4.99.65,1.74.56.38-.05,1.28-.19,1.48-.61.07-.15,0-.29.01-.42l-.06-.13c-.31-.54-.02-1.04.89-1.49.3-.06.8.13,1.1.19.67.13,1.36.29,2-.05,1.51-.82-.41-1.86-1.1-2.42-.82-.67-1.29-1.4-1.81-2.3-.29-.5-.62-.94-1.2-1.12-.68-.21-1.41.05-2.08.16-1.22.21-2.73.31-3.7-.61-.67-.64-.8-.99-1.77-1.17-1.14-.21-2.07-.92-3.24-1.06-1.73-.2-3.43.49-4.56,1.8-.19.22.13.54.32.32,1.16-1.35,3.01-2.01,4.76-1.57.77.19,1.4.7,2.16.88.54.13.81.11,1.3.48.35.27.62.59.97.85.9.68,2.13.73,3.21.61.72-.08,1.5-.39,2.22-.29,1.11.15,1.3,1.3,1.85,2.07.42.58.97,1.04,1.53,1.48.25.2.65.4.84.66.29.37.51.01-.16.61-.5.44-.62.39-1.23.28-.97-.18-2.28-.57-2.88.54-.2.37-.06.57-.06.93,0,.06.1.15.1.18.02.31-.14.5-.47.63-.68.28-1.32-.03-1.92-.38-1.08-.64-1.81-.77-2.99-.29-.33.13-.37.18-.81.27-.63.14-.81,0-1.36-.29-.37-.18-.72-.39-1.1-.54-.58-.23-1.19-.36-1.81-.26-.53.09-1.02.33-1.36.76-.18.22-.27.79-.49.91h-.5c-.39.19-.56.14-.5-.15-.11-.29.08-.92.14-1.21.03-.14-.06-.29-.22-.28-1.08.05-1.61-.75-2.57-.88-.35-.05-.68.05-1.01.15-.42.13-1.49.93-1.51-.2,0-.31.76-1.04.94-1.29.35-.48.69-.97,1.03-1.46.67-.98,1.3-1.99,1.91-3.01.15-.25-.24-.48-.39-.23h0Z"/>
          <path class="cls-2" d="M125.74,32.64c-1.66,3.17-1.86,6.75-2.53,10.21-.78,4.02-2.28,7.74-3.93,11.46-1.55,3.5-2.95,6.98-3.91,10.69s-2.21,7.66-3.68,11.37c-.88,2.22-1.82,4.41-2.81,6.59-.85,1.88-1.65,4.39-3.73,5.22-.27.11-.15.54.12.43,1.24-.5,2.04-1.46,2.67-2.61.94-1.72,1.68-3.57,2.46-5.37,1.61-3.72,3.09-7.5,4.26-11.38,1.25-4.13,2.2-8.24,3.9-12.22,1.56-3.63,3.31-7.2,4.36-11.02,1.19-4.32,1.09-9.12,3.2-13.15.13-.26-.25-.48-.39-.23h0Z"/>
          <path class="cls-2" d="M128.8,31.51c-2.15,2.87-2.93,6.5-3.87,9.89-1.09,3.94-2.13,7.89-3.33,11.8-2.42,7.83-5.39,15.48-7.73,23.34-.65,2.18-1.25,4.38-1.8,6.59-.45,1.8-1.34,4.01-.69,5.85.1.27.53.15.43-.12-.49-1.38.02-2.82.35-4.19.3-1.27.62-2.53.95-3.79.62-2.35,1.31-4.67,2.04-6.99,1.53-4.83,3.24-9.59,4.86-14.38s3.02-9.47,4.33-14.27c.65-2.38,1.28-4.75,1.98-7.12s1.44-4.47,2.86-6.37c.17-.23-.22-.46-.39-.23h0Z"/>
          <path class="cls-2" d="M42.02,59.74c1.19,2.23,3.7,3.02,5.93,3.83,3.19,1.17,6.37,2.45,9.63,3.44,1.65.5,3.36.75,5,1.27s3.33,1.4,4.97,2.11c3.05,1.32,6.15,2.53,9.29,3.63.27.1.39-.34.12-.43-3.18-1.11-6.32-2.33-9.4-3.67-1.28-.55-2.53-1.17-3.82-1.69-1.53-.61-3.14-.87-4.72-1.28-2.97-.76-5.84-1.95-8.72-3-2.67-.98-6.42-1.72-7.88-4.44-.14-.26-.53-.03-.39.23h0Z"/>
          <path class="cls-2" d="M79.96,75.22c.45.22.9.47,1.32.74s1.07.63,1.31,1.11c.37.74-.51,1.52-.58,2.25-.14,1.59,1.85,1.58,2.81,2.15.18.11.36.24.47.42.09.15.1.36.21.5s.25.19.42.16c.5-.08.89-.78,1.13-1.16.2-.32.38-.66.63-.94.4-.43.84-.48,1.41-.46,1.13.03,2.25.09,3.38.14.13,0,.27-.15.22-.28-.43-1.02-.46-2.09-.09-3.14.1-.27-.34-.39-.43-.12-.39,1.11-.36,2.28.09,3.37l.22-.28c-1.13-.05-2.25-.1-3.38-.14-.68-.02-1.25.08-1.73.6s-.71,1.21-1.2,1.7c-.15.15-.2.25-.35.15-.06-.04-.18-.38-.23-.45-.16-.21-.38-.37-.62-.5-.64-.34-1.42-.37-2.02-.79-.94-.64-.21-1.49.06-2.27.56-1.59-1.69-2.61-2.82-3.16-.26-.13-.49.26-.23.39h0Z"/>
          <path class="cls-2" d="M93.38,80.59c.81,1,1.67,1.98,2.75,2.69.58.38,1.21.67,1.83.96.35.17.7.33,1.05.5.16.07.31.15.47.22.07.03.41.13.42.21l.02-.17.22-.04.04.27.02-.03c.15-.25-.24-.48-.39-.23l-.02.03c-.05.09-.03.2.04.27.14.14.4.14.49-.05.13-.28-.17-.45-.38-.54-.82-.39-1.65-.77-2.47-1.17-.77-.38-1.48-.83-2.11-1.41s-1.14-1.19-1.65-1.83c-.18-.23-.5.09-.32.32h0Z"/>
          <path class="cls-2" d="M55.37,68.92c4.63.86,9,2.1,13.42,3.74s9.01,3.35,13.51,5.03c.27.1.39-.33.12-.43-4.5-1.68-9.01-3.35-13.51-5.03s-8.78-2.87-13.42-3.74c-.28-.05-.4.38-.12.43h0Z"/>
          <path class="cls-2" d="M88.73,80.93c3.14,1.9,6.61,3.38,9.26,5.98.21.2.52-.11.32-.32-2.68-2.64-6.17-4.14-9.35-6.05-.25-.15-.47.24-.23.39h0Z"/>
          <path class="cls-2" d="M45.49,77.24c8.8,2.15,17.85,2.64,26.81,3.73,4.53.55,9.06,1.26,13.48,2.42,4.25,1.12,8.8,2.53,12.38,5.14.23.17.46-.22.23-.39-3.49-2.54-7.92-3.95-12.05-5.06s-8.41-1.83-12.67-2.38c-9.37-1.21-18.85-1.64-28.06-3.89-.28-.07-.4.37-.12.43h0Z"/>
          <path class="cls-2" d="M46.07,79.23c2.88,1.72,6.36,1.5,9.59,1.63,4.06.17,8.11.47,12.14.93,4.3.48,8.57,1.14,12.82,1.9,3.94.71,8.06,1.21,11.91,2.31,4.07,1.16,7.9,4.89,6.73,9.45-.07.28.36.4.43.12.74-2.86-.49-5.79-2.65-7.71-2.9-2.57-7.04-2.88-10.69-3.56-8.57-1.61-17.13-3.02-25.84-3.62-2.47-.17-4.95-.27-7.43-.36s-4.73-.24-6.8-1.48c-.25-.15-.48.24-.23.39h0Z"/>
          <path class="cls-2" d="M108.59,59.98c1.98-.54,3.98-1.04,5.97-1.54.95-.24,1.86-.5,2.85-.45.67.03,1.32.05,1.85-.42.22-.19-.1-.51-.32-.32-.61.55-1.62.22-2.36.29-.86.08-1.7.35-2.54.56-1.86.47-3.72.94-5.57,1.44-.28.08-.16.51.12.43h0Z"/>
          <path class="cls-2" d="M115.4,45.74c-.26-.18-.59-.14-.82.06-.28.24-.34.63-.37.98-.08.76.08,1.66-.32,2.35-.23.39-.63.59-1.05.72-.49.16-1,.28-1.5.4-1.01.24-2.04.44-3.07.59-.13.02-.18.17-.16.28.09.43.57.41.9.31.06-.02.29-.11.34-.04.03.04-.21.41-.24.46-.18.33-.36.65-.54.98-.14.25.25.48.39.23.2-.37.4-.74.6-1.1.12-.23.33-.51.19-.78-.09-.16-.28-.24-.45-.24-.11,0-.73.19-.76.07l-.16.28c.96-.14,1.92-.32,2.87-.55.8-.19,1.75-.33,2.45-.79.56-.37.8-.98.87-1.63.04-.38.04-.76.05-1.13.01-.24.06-1.39.54-1.06.24.17.46-.22.23-.39h0Z"/>
          <path class="cls-2" d="M110.83,59.9l1.16.93c.18.15.37.28.54.44.07.07.18.16.2.26.04.14,0,.16-.1.26-.21.23-.25.55.04.74s.67.06.95-.08c.67-.31,1.02-.89,1.24-1.56.12-.37.23-.68.67-.69.18,0,.36.02.54-.04.1-.03.5-.34.56-.22.14.26.52.03.39-.23-.15-.28-.49-.31-.76-.18-.24.12-.37.22-.64.21-.2,0-.38,0-.57.08-.61.29-.59,1.11-.93,1.61-.23.33-.58.59-.97.69-.09.05-.16.04-.22-.04l.06-.05c.04-.08.12-.13.16-.22.05-.13.04-.27,0-.4-.12-.37-.49-.61-.78-.85l-1.25-1.01c-.22-.18-.54.14-.32.32h0Z"/>
          <path class="cls-2" d="M128.32,42.73c.64.12,1.27.17,1.91.09.23-.03.45-.08.67-.12.24-.07.47-.12.72-.15.35.05.64.19.86.43.34.2.56.32.95.4.43.08.81.04,1.18.35.18.15.3.39.44.57.18.22.35.41.62.51.56.19,1.14-.21,1.7.1.44.24.71.67.3,1.06-.29.27-.82.29-1.19.23-.66-.12-1.23-.56-1.75-.95-.1-.08-.25-.01-.31.08-1.06,1.58,1.18,2.85,2.14,3.71.59.53.93,1.03.88,1.86-.02.35-.08.6.15.9.25.32.71.5,1.01.77.41.37.73.82.98,1.31l.19-.34c-1.05.01-1.88-1.5-2.54-2.16-.53-.53-1.15-1.01-1.88-1.22s-1.38-.05-2.09.24c-.6.24-1.09.26-1.54-.23-.18-.19-.32-.39-.58-.48-.55-.19-.98.2-1.29.61-.25.33-.45.72-.67,1.08-.1.16-.23.5-.37.61l-.87.25c-.08-.05-.17-.1-.26-.14-.41-.09-.89-.31-1.18.16-.15.24-.05.46-.05.71,0,.97-1.17.89-1.84.76l.13.33c.69-1.2-.65-2.45-1.77-1.59-.23.17,0,.57.23.39.72-.56,1.62.17,1.15.97-.07.12-.01.3.13.33.63.12,1.36.25,1.92-.17.21-.15.38-.36.46-.61.03-.1.02-.2.05-.3-.09-.21-.02-.35.2-.44.16-.28.36-.28.6-.02.52.23.93.29,1.33-.18.54-.63,1.14-2.8,2.29-2.03.49.33.62.73,1.31.65.43-.05.8-.29,1.2-.42.62-.21,1.22-.15,1.81.12.92.43,1.55,1.26,2.2,2,.53.59,1.06,1.24,1.91,1.23.18,0,.27-.19.19-.34-.32-.62-.73-1.16-1.28-1.59-.47-.37-.8-.75-.76-1.36.02-.29-.03-.56-.14-.83-.54-1.27-4.04-2.73-2.98-4.3l-.31.08c.96.71,2.3,1.52,3.45.7.96-.68.11-1.78-.8-1.99-.24-.06-.45,0-.68,0-.91,0-.94-.24-1.4-.77-.38-.44-.8-.53-1.35-.61-.63-.09-.81-.32-1.31-.64-.26-.16-.49-.23-.8-.23-.33,0-.67.13-.99.2-.74.16-1.45.14-2.19,0-.28-.06-.4.38-.12.43h0Z"/>
          <path class="cls-2" d="M124.82,56.65c-.89.3-1.73.69-2.54,1.18-.16.1-.14.36.05.41.8.21,1.53.11,2.24-.32l-.34-.19c.1,1.32-.14,2.54-.75,3.72-.08.16.02.32.19.34.5.05.79-.19,1.29-.06.67.18.22.3.52.73.15.22.42.28.66.35.67.19,1.05.34,1.39,1.01.32.62.56,1.43,1.32,1.64.48.14.9-.06,1.2-.44.57-.74.46-1.92,1.72-1.9.43,0,.95.55,1.43.62.26.04.58.04.82-.1.19-.11.33-.27.4-.48.05-.14,0-.31.03-.44.15-.49.52-.45.9-.4.82.1,1.28.24,1.99-.31l-.32-.32c-1.25,1.18-1.19,3.53.79,3.87,1.19.2,1.58-.74,2.31-1.44l.19-.22c.32-.25.48-.22.46.11.12.13.08.31.22.46.19.2.45.27.72.25.81-.06,1.23-1.01,1.47-1.66.31-.83.34-1.63-.37-2.23-.31-.26-.57-.33-.74-.73-.1-.24-.08-.55-.17-.8-.18-.5-.53-.92-.9-1.29-1.14-1.16-2.42-2.2-3.63-3.29-.09-.08-.23-.1-.32,0-.82.94-1.96,1.42-3.21,1.25-.96-.13-1.84-.56-2.81-.67-.61-.07-1.21,0-1.71-.42-.25-.21-.44-.49-.69-.7-.36-.32-.69-.46-1.17-.4-.29.04-.16.47.12.43.81-.12,1.33,1.13,2.06,1.4.29.11.58.09.88.11.72.04,1.33.2,2.01.4,1.81.53,3.53.41,4.84-1.09h-.32c.78.7,1.55,1.39,2.33,2.09.67.61,1.59,1.24,1.99,2.08.33.67.22,1.17.76,1.7s.92.65.79,1.48c-.06.38-.23.84-.46,1.15-.19.43-.61.55-1.26.36-.02-.16-.06-.3-.13-.44-.08-.11-.11-.18-.27-.24-.33-.11-.59.15-.81.37-.69.68-1.16,1.89-2.36,1.48-1.44-.49-1.19-2.19-.29-3.04.22-.2-.1-.49-.32-.32-1.02.8-1.75-.37-2.65.07-.68.33-.05,1.37-.89,1.55s-1.54-1.05-2.51-.59c-.42.2-.63.62-.8,1.03-.13.28-.2.65-.4.89-.75.91-1.43-.17-1.73-.8-.28-.59-.55-1.11-1.2-1.34-.17-.06-.43-.04-.57-.13-.37-.21-.3-.57-.43-.84-.06-.13-.09-.26-.21-.36-.58-.49-1.34.22-1.94.16l.19.34c.64-1.25.91-2.55.81-3.95-.01-.16-.18-.29-.34-.19-.61.37-1.2.46-1.89.28l.05.41c.78-.47,1.57-.84,2.43-1.14.27-.09.16-.53-.12-.43h0Z"/>
          <path class="cls-2" d="M93.47,88.36c-1.11.36-1.93,1.13-2.78,1.9-1.02.93-2.33,1.93-3.79,1.46-.17-.05-.32.12-.28.28.24.88.8,2.12,1.93,1.84.68-.17,1.28-.81,1.85-1.2.51-.35.89-.33,1.47-.2.31.07.58.11.89.06.74-.11,1.4-.65,2.17-.57.84.09.65.95,1.29,1.27.25.13.52.11.79.13.51.04.81.35,1.2.64.24.17.5.32.79.36.1.01.21.02.31,0,.29-.08.13-.09.35-.32-.2.21.12.53.32.32s.13-.56-.19-.62c-.43-.08-.71.3-1.17.02-.31-.19-.55-.48-.87-.65-.24-.13-.48-.16-.74-.19-.45-.04-.55.03-.86-.48-.07-.11-.09-.25-.16-.36-.26-.41-.73-.58-1.2-.57-.69,0-1.27.4-1.92.55-.74.18-1.44-.34-2.17-.08-.67.24-1.21.86-1.8,1.23-1.09.68-1.6-.35-1.86-1.28l-.28.28c2.87.93,4.45-2.59,6.81-3.36.27-.09.16-.52-.12-.43h0Z"/>
          <path class="cls-2" d="M95.68,92.91h.09c.08-.03.13-.1.16-.17.12-.33-.12-.55-.45-.51s-.72.32-1,.46c-.42.22-.84.44-1.25.68-1.71.97-3.32,2.11-4.82,3.39s-2.85,2.75-4.12,4.28c-1.49,1.8-3.12,3.2-5.57,3.3-.29.01-.29.46,0,.45,1.61-.07,3.09-.64,4.3-1.71,1.32-1.17,2.32-2.68,3.54-3.95s2.66-2.53,4.14-3.6c.73-.53,1.49-1.02,2.26-1.49.41-.24.82-.48,1.24-.7.17-.09.34-.18.51-.26.09-.05.9-.61.86-.6-.29.05-.16.48.12.43h0Z"/>
          <path class="cls-2" d="M79.99,104.46c3.29-.02,5.81-2.39,8.24-4.31,3.11-2.45,6.35-4.72,9.71-6.82.25-.15.02-.54-.23-.39-3.02,1.88-5.94,3.91-8.75,6.08-2.64,2.03-5.4,4.97-8.97,4.99-.29,0-.29.45,0,.45h0Z"/>
          <path class="cls-2" d="M80.47,103.08c-.67-.11-2.69-.86-3.18-.02s.51,1.37,1.1,1.61v-.43c-1.16.36-2.33.71-3.49,1.07-.86.26-1.09.51-1.8-.53-.15-.22-.09-.37-.29-.59-.72-.77-2.57-.44-3.07.45-.27.48.06,1.06.22,1.54.24.74.36,1.37-.59,1.24-.54-.07-1.07-.51-1.61-.64-1.23-.31-2.13.26-2.22,1.47,0,.14.13.13.07.37-.04.17-.49.74-.59.85-.37.38-.85.64-1.42.55-.72-.12-1.23-.5-2-.47-.1,0-.21.1-.31.11l-.49-.08c-.38.09-.58-.04-.59-.38-.13-.1-.07-.16-.29-.26-.19-.09-.42.01-.61-.04-1.57-.45-.48-1.72.15-2.25.52-.44,1.07-.84,1.3-1.51.3-.85-.45-1.52-.15-2.34.14-.39.85-.89,1.14-1.19.36-.37.7-.77,1.09-1.12.22-.2.54-.48.83-.62,1.15-.54.73-.13,1.81.03.21.03.28.07.46.03.5-.1.93-.6,1.47-.73.72-.18,1.52-.1,2.24.03,1.1.2,2.16.58,3.29.63.88.03,1.59-.11,2.42.29.63.3,1.24.67,1.85,1,1.25.68,2.51,1.35,3.76,2.03.25.14.48-.25.23-.39-1.25-.68-2.51-1.35-3.76-2.03-.9-.49-1.9-1.23-2.94-1.37-.77-.11-1.53.07-2.31-.05-.61-.09-1.21-.26-1.81-.4-1-.23-2.06-.41-3.08-.16-.42.1-.73.31-1.1.49-.41.19-.13.29-.76.12-.13-.04-.26-.12-.39-.14-.94-.13-1.68.21-2.38.83-.85.75-1.95,1.72-2.57,2.67-.57.87.45,1.56.13,2.52-.38,1.17-3.19,2.01-1.88,3.69.18.23.38.34.66.39.53.11.56-.07.92.42.4.55.6.61,1.31.41s.94-.2,1.6.02c.33.11.63.29.98.32.68.08,1.68-.5,2.07-.98.56-.69-.19-2.08.92-2.35,1.17-.29,2.1,1,3.21.81.62-.11.73-.61.64-1.19s-.77-1.54-.33-2.06c.69-.81,1.89-.43,2.38.44.2.35.07.56.48.77.25.13.57.1.84.06,1.5-.19,3.07-.9,4.52-1.34.23-.07.2-.35,0-.43l.15-1,.64.1,1.06.17c.28.05.41-.39.12-.43h0Z"/>
          <path class="cls-2" d="M68.81,94.37l1.56.16c.34.03,1,.02.83.54-.14.42-.51.78-.77,1.12s-.6.7-.78,1.1c-.31.72.3,1.4.86,1.79.22.15.68.33.9.08.08-.04.07-.05-.03-.05,0,.03.02.06.03.1,0,.05.02.1.04.14.05.13.13.22.27.25.28.06.4-.38.12-.43.03.03.03.03,0-.03,0-.03-.02-.07-.02-.1-.02-.06-.04-.13-.07-.18-.07-.1-.17-.17-.29-.18-.17,0-.26.14-.42.15-.18.01-.38-.19-.51-.3-.31-.28-.67-.66-.45-1.1.19-.39.53-.74.79-1.08.37-.49,1.28-1.46.51-2.02-.29-.21-.68-.21-1.02-.24l-1.56-.16c-.29-.03-.29.42,0,.45h0Z"/>
          <path class="cls-2" d="M76.9,107.46c.41.56.51,1.24.73,1.89.18.54.43.85.83,1.22.49.45.39.8.07,1.34-.23.4-.58.74-.98.96-.46.25-1.14.38-.89,1.08.2.57.79.65,1.32.59.2-.02.4-.07.6-.07.49.01.54.16.82.53.19.26.3.37.61.51s.45.12.64.41c.16.24.16.42.21.69.07.37.23.68.44.99.46.67,1.57,1.81.65,2.58-.1.08-.07.23,0,.32.77.94,1.82-.01,2.22-.77.32-.59.62-1.2,1.1-1.69.26-.27.57-.49.94-.59.4-.11.81,0,1.22-.04.54-.05.85-.34,1.12-.79.3-.51.87-1.23.88-1.85,0-.45-.31-.64-.69-.75-.78-.22-1.62-.32-2.42-.42l.19.34c.42-.65.39-1.54-.15-2.12-.74-.8-1.91-.55-2.87-.5-.74.04-1.57-.05-2.13-.58-.34-.33-.49-.72-.47-1.19.01-.25.1-.51.02-.75-.09-.27-.31-.42-.56-.51-.23-.08-.48-.09-.71-.14-.48-.12-.84-.61-.44-1.08.19-.22-.13-.54-.32-.32-.46.53-.38,1.38.28,1.71.4.2,1.21.07,1.34.62.06.25-.1.61-.06.89.04.23.12.45.24.65.56.93,1.68,1.19,2.69,1.16.66-.02,1.38-.2,2.03-.01.86.25,1.19,1.2.71,1.95-.1.16.04.32.19.34.62.08,1.23.17,1.84.3.33.07.56.04.71.34.17.34-.12.64-.29.94-.12.22-.23.45-.36.66-.28.46-.51.63-1.09.66-.39.02-.74-.04-1.12.08-.67.21-1.17.75-1.56,1.31-.37.53-1.29,2.9-2.18,1.83v.32c1.47-1.23-.77-2.89-.98-4.1-.06-.32-.07-.62-.29-.88-.26-.32-.63-.28-.95-.49-.41-.26-.41-.74-.89-.93-.28-.11-.57-.09-.86-.06-.13.02-.27.04-.4.06-.36.09-.53-.14-.49-.67.03-.04.36-.16.4-.18.35-.19.66-.46.9-.76.34-.43.74-1.18.62-1.75-.07-.35-.35-.39-.61-.56-.34-.23-.5-.58-.62-.95-.23-.68-.33-1.4-.77-2-.17-.23-.56,0-.39.23h0Z"/>
          <path class="cls-2" d="M83.1,107.21c.63-.97,1.65-1.47,2.8-1.47.34,0,.69.01,1-.16.34-.19,1.11-1.51,1.42-.6.12.36-.04.77.09,1.14.13.34.41.55.76.63s.68-.02,1-.15c.27-.11.52-.26.77-.4.29-.16.63-.44.95-.52.21-.05.53-.04.68.09.08.07.13.2.19.29.08.12.16.25.26.34.24.22.54.31.86.29.61-.05,1.17-.53,1.35-1.11.29-.92-.15-1.95-.53-2.78-.33-.73-.79-1.37-1.62-1.52-.46-.08-.93-.02-1.39-.05-.43-.03-.72-.18-.99-.51-.16-.2-.28-.43-.48-.59-.45-.33-1.15-.21-1.23.4-.04.29.41.28.45,0,.02-.19.37-.07.43-.04.17.07.24.19.35.34.08.11.16.24.25.34.22.24.5.4.82.47.79.18,1.75-.18,2.4.43.61.56,1,1.69,1.13,2.48.09.52.03,1.08-.39,1.44-.49.42-.99.29-1.34-.21-.29-.42-.57-.78-1.13-.61-.84.26-1.88,1.44-2.8,1.09-.72-.27-.1-1.47-.75-1.93-.49-.36-1.01.06-1.32.44-.25.3-.43.51-.84.55-.24.03-.49-.01-.73,0-.37.02-.74.11-1.09.24-.72.29-1.31.79-1.74,1.44-.16.24.23.47.39.23h0Z"/>
          <path class="cls-2" d="M180.55,46.09c-2.91,4.49-7.1,7.88-11.2,11.24-2.14,1.75-4.32,3.41-6.77,4.7s-5.15,2.3-7.79,3.3c-10.1,3.84-20.32,7.47-30,12.3-4.64,2.31-10.36,4.77-13.16,9.38-.15.25.24.47.39.23,2.72-4.47,8.3-6.87,12.8-9.12,5.01-2.51,10.18-4.7,15.39-6.75s10.24-3.9,15.36-5.85c2.39-.91,4.78-1.82,7.05-2.99s4.24-2.6,6.19-4.16c4.44-3.56,9.01-7.21,12.14-12.04.16-.24-.23-.47-.39-.23h0Z"/>
          <path class="cls-2" d="M178.78,45.18c-3.34,3.68-6.7,7.38-10.54,10.57-4.18,3.48-8.9,5.79-13.84,7.99-9.87,4.41-19.96,8.31-29.82,12.76-2.75,1.24-5.49,2.51-8.19,3.87-1.83.92-3.71,2.02-4.34,4.1-.08.28.35.4.43.12.73-2.41,3.34-3.45,5.42-4.46,2.36-1.15,4.73-2.26,7.12-3.33,4.98-2.24,10.03-4.35,15.07-6.46s9.57-4,14.31-6.11,9.02-4.12,12.98-7.21c4.33-3.38,8.03-7.46,11.71-11.51.19-.21-.12-.53-.32-.32h0Z"/>
          <path class="cls-2" d="M173.05,44.96c-.92-.03-1.88-.67-2.68.06s-1.1,1.89-1.88,2.65c-.58.56-1.2.81-2.01.76-.55-.04-1.09-.21-1.64-.15-.84.1-1.34.65-1.65,1.4-.44,1.09-.56,2.14-1.29,3.11s-1.74,1.77-2.52,2.73c-.63.79-1.17,1.7-1.24,2.73-.02.35.06.68.05,1.03-.01.44-.2.8-.39,1.2-.35.74-.71,1.48-1.06,2.21-.12.26.26.49.39.23.3-.63.61-1.26.91-1.9.21-.43.5-.9.58-1.38.09-.58-.1-1.16.01-1.74.12-.64.45-1.23.82-1.75,1.28-1.78,3.15-2.89,3.79-5.1.39-1.34.69-2.47,2.37-2.28.89.1,1.69.24,2.5-.24.73-.43,1.25-1.15,1.7-1.86.14-.21.27-.43.4-.64.29-.47.37-.67.95-.79.66-.13,1.21.14,1.88.16.29,0,.29-.44,0-.45h0Z"/>
          <path class="cls-2" d="M178.71,43.29c-1.5.67-3,1.35-4.5,2.02l-1.07.48c-.21.09-.48.26-.71.27-.12,0-.24-.04-.36-.02-.2.03-.36.14-.5.27-.13.12-.32.43-.52.39-.28-.06-.4.36-.12.43.22.06.43.12.65.18.28.08.4-.36.12-.43-.22-.06-.43-.12-.65-.18l-.12.43c.49.11.68-.31,1.02-.56.23-.17.57-.04.84-.15.42-.16.82-.36,1.23-.55,1.64-.74,3.29-1.48,4.93-2.22.26-.12.04-.51-.23-.39h0Z"/>
          <path class="cls-2" d="M172.36,49.37l1.57,1.75c.08.09.24.08.32,0,.09-.09.08-.23,0-.32l-1.57-1.75c-.08-.09-.24-.08-.32,0-.09.09-.08.23,0,.32h0Z"/>
          <path class="cls-2" d="M182.12,24.77c-1.26,1.69-2.42,2.89-4.6,3.15-1.16.14-2.11.29-2.89,1.24-.42.51-.69,1.13-1.04,1.68-.21.33-.44.68-.75.93-.77.63-.94.43-1.92.41-.51-.02-1.03-.11-1.43.3-.31.31-.12.49-.3.81-.5.93-1.24.69-2.08.92-.44.12-.83.36-1.18.64-1.12.89-1.65,2.26-2.65,3.25-.55.55-1.22.68-1.77,1.14-.48.4-.51.9-.61,1.49-.3,1.88-.58,3.77-.87,5.66-.03.17.1.32.28.28.96-.25,1.17-1.27,1.56-2.07.31-.64.68-1.25,1.09-1.84.23-.32.62-1.21,1.11-.81.12.1.17.72.24.88.39.98,1.2,1.9,2,2.57.18.15.33.29.57.35.3.08.39-.02.68-.05.8-.08,1.41-.16,2.23-.04.18.03.37-.15.25-.33-.8-1.21-.15-2.5,1.12-2.93.51-.17.96-.19,1.26-.7.15-.25.13-.53.23-.8.25-.73.65-.95,1.08-1.49.37-.46.48-.83.4-1.4l-.33.25c.97.52,4.73,2.2,5.15.29h-.43c.1.45.46.63.91.56.8-.11,1.13-1,1.37-1.66.34-.94.63-1.64,1.62-2.05.61-.26,1.47-.47,2.14-.44,1.2.06,1.57,1.08,2.67.35.76-.5,1.18-.76,2.1-.84s1.3.31,1.91.9c.79.76,1.56,1.34,2.62,1.7,1.36.46,2.92.59,4.35.59.78,0,1.47-.11,1.9-.8l-.41-.05c.18.72.47,1.2,1.03,1.7.09.08.23.09.32,0,.53-.51.2-1.1-.11-1.66-.55-1.01-1.18-2.02-2.05-2.78-.96-.85-2.19-1.21-3.27-1.86-.79-.48-1.63-1.2-1.81-2.16-.13-.71.42-1.28.28-1.92s-.65-.65-1.18-.71c-1.38-.16-2.81-.25-4.04-.98-.88-.53-1.32-1.74-2.34-2-1.37-.36-3.17-.03-4.58.02-.29,0-.29.46,0,.45,1.29-.04,2.73-.23,4.01-.07,1.15.14,1.7,1.42,2.68,2,.79.46,1.68.7,2.58.85.44.07.88.12,1.33.16.48.04.48-.04.76.44.32.55.11.48.03,1.05-.26,1.77,1.42,2.97,2.79,3.66s2.5,1.25,3.41,2.48c.3.41.56.85.82,1.29.18.31.37.57.39.93.04.71-.56-.77-.61-.98-.05-.19-.31-.21-.41-.05-.71,1.13-3.7.48-4.69.28-1.31-.26-2.57-.81-3.45-1.85-.4-.48-.62-.96-1.27-1.07-.71-.12-1.8.05-2.45.34-.48.21-.7.42-1.22.56-.73.19-.74-.1-1.34-.29-.71-.23-1.65-.01-2.36.16s-1.4.47-1.87,1.05c-.21.26-.34.56-.46.87-.09.22-.15.45-.24.67-.05.16-.11.31-.19.45-.14.51-.55.72-1.23.64-.05-.21-.39-.21-.43,0-.31,1.4-3.91-.25-4.49-.56-.19-.1-.36.06-.33.25.14.97-.76,1.29-1.17,1.93-.18.28-.17.45-.31.73-.37.74-.74.99-1.46,1.26-.23.08-.43.18-.62.33-.98.76-1.15,2.18-.48,3.19l.25-.33c-.66-.1-1.3-.15-1.97-.05-.99.14-1.46-.19-2.1-.89-.56-.61-1.05-1.27-1.26-2.08-.08-.29-.04-.8-.38-.97-.58-.31-1.11.63-1.37.97-.43.57-.81,1.17-1.15,1.8s-.67,2.03-1.49,2.24l.28.28c.28-1.85.39-3.85.87-5.66.18-.69.47-1.13,1.07-1.56.2-.14.43-.23.63-.38.41-.3.75-.69,1.06-1.09,1.18-1.51,1.89-3.02,3.98-3.3.79-.1,1.11-.2,1.52-.86.02-.13.03-.25.03-.38l.85-.71c.22-.08.94.17,1.28.14.41-.04.77-.18,1.11-.41,1.2-.82,1.42-2.45,2.56-3.31,1.24-.95,3.05-.46,4.41-1.26,1.11-.65,1.91-1.72,2.66-2.74.17-.23-.22-.46-.39-.23h0Z"/>
          <path class="cls-2" d="M182.9,39.26c-.71.4-1.01,1-1.48,1.63-.6.8-1.28.7-2.17.74-.27.01-.43,0-.68.1-1.16.47-1.13,1.93-.45,2.79s2.17,1.57,3.2,1.07c1.52-.73,7.14-2.53,7.53.35.03.24.37.18.43,0,.54-1.51,2.34,1.01,2.63,1.37.32.4.64.75.82,1.23.13.33.13.69.29,1.01.34.69,1.14,1.02,1.88.98.98-.05,1.74-.73,2.31-1.48.65-.86.87-1.66,2.11-1.86.54-.08.89-.03,1.37-.34.08-.05.14-.16.1-.25-.16-.4-.73-2.49.38-1.67.1.07.11.28.21.37.43.43.8.72,1.38.91.83.28,2.47.69,3.06-.22.2-.31.16-.66.11-1-.11-.88-.26-1.93-.55-2.77-.15-.43-.21-.6-.63-.78-.47-.2-.91-.18-1.34-.52-.39-.31-.52-.76-.84-1.1-.74-.77-2.53-.02-3.32.24-.37.12-.73.26-1.09.41-.79.31-1.38.32-2.21.23-.77-.08-1.47-.12-2.25-.02-1.31.17-2.36.28-3.61-.18-.82-.3-1.58-.6-2.45-.7-1.95-.23-3.9.25-5.78.72-.28.07-.16.5.12.43,2.24-.56,4.61-1.14,6.89-.43.77.24,1.48.63,2.28.75,1.03.16,2.03-.12,3.05-.21s1.89.29,2.84.22c.88-.07,1.71-.6,2.54-.86.48-.15,1.01-.33,1.51-.36.31-.02.97,0,1.24.19.07.05.27.47.29.5.29.39.69.71,1.14.9.55.24.98.3,1.24.9.19.43.21,1.07.3,1.52.04.19.14.46.13.65-.01.28-.4,1.2-.72,1.34-.34.15-1.15-.1-1.51-.2-.7-.18-1.12-.43-1.51-1.01-.09-.14-.27-.63-.43-.75-.2-.14-.45-.25-.69-.14-.36.17-.43.79-.46,1.11-.03.29.05.58.02.87-.04.4.09.6-.46.78-.2.07-.48,0-.69.04-1.56.26-1.83,2.13-3.05,2.93-.86.57-2.11.49-2.58-.56-.17-.38-.13-.8-.34-1.19-.42-.76-1.18-1.57-1.78-2.2-.69-.73-1.95-1.17-2.38.05h.43c-.16-1.17-1.15-1.73-2.26-1.83-1.51-.13-3.4.12-4.82.66-1.06.4-1.74.87-2.89.25l-.59-.4c-.89-.74-.62-1.52.79-2.33.17-.03.53.13.73.11,1.41-.13,1.81-2.02,2.88-2.63.25-.14.02-.53-.23-.39h0Z"/>
          <path class="cls-2" d="M187.23,45.76c-.99.8-1.9,1.68-2.72,2.66-.15.17,0,.42.22.38.37-.08.88-.21,1.25-.06.4.16.56.65.84.94s.64.38,1.04.38c.78,0,1.85-.67,2.02.51.08.53-.12.98.16,1.5.22.41.55.54.87.83s.29.16.14.63c-.07.22-.2.38-.2.63,0,1.02,1.28,1.32,2.08,1.22,1.57-.2,2.73-1.66,4.37-1.57,1.45.08,2.69,1.23,4.19.8,1.05-.3,1.72-1.27,2.19-2.2.22-.44.48-.92.49-1.42,0-.23-.09-.43-.1-.65-.04-.99.46-1.13,1.23-.89s2.18.24,2.32-.92c.05-.39-.13-.42-.35-.67-.34-.38-.38-.53-.32-1.08.05-.5.11-.99.17-1.49.03-.29-.42-.28-.45,0-.08.7-.48,1.91-.12,2.56.14.25.45.3.53.55.15.32-.07.47-.66.44-.33.32-.67.38-1.01.18-.19-.03-.36-.14-.55-.17-.54-.08-1.09.04-1.29.6-.07.19-.04.38-.03.58.03.32.18.64.17.97-.01.39-.26.85-.43,1.19-.67,1.32-1.66,2.36-3.27,1.97-.97-.24-1.86-.79-2.89-.8s-1.77.51-2.61.95c-.36.19-.72.4-1.11.51-.64.18-2.16.47-1.96-1.05.04-.3.29-.58.33-.91.01-.09-.08-.2-.17-.22-1.09-.19-1.32-1.05-1.27-2,.02-.3.05-.61-.1-.89-.24-.45-.6-.52-1.07-.43-.88.17-1.35.62-2.2-.24-.19-.19-.22-.42-.47-.58-.54-.37-1.28-.24-1.88-.12l.22.38c.82-.98,1.72-1.86,2.72-2.66.23-.18-.09-.5-.32-.32h0Z"/>
          <path class="cls-2" d="M180.38,47.53c-.34.66-1.69,2.61-1.09,3.38s2.32.76,3.23.85c.63.06.93.21,1.35.71.19.23.16.35.4.53.35.25.8.23,1.21.25.48.02.84-.03,1.2.44.17.22.2.49.4.7.33.35.75.46,1.2.47l-.23-.23c.03.3.13.67.09.97.14.46-.1.76-.71.9-.26-.02-.52-.06-.77-.12-.81-.18-1.55-.51-2.26-.94-.15-.09-.33.03-.34.19-.03,1.14.25,2.23.89,3.18.33.49.77.91,1.05,1.42s.59,1.27-.17,1.67c-.22.12-.56.07-.8.16-.73.28-.85.94-.83,1.66,0,.22.08.52.03.74.05.43-.16.58-.61.44-.47.21-.71.06-.74-.46-.21-.49-.4-.99-.74-1.41-1.08-1.33-2.9-.93-3.06.82-.06.72.07,1.42-.27,2.1-.26.51-.77,1.03-1.23,1.36-.97.71-1.29.21-2.18.22-.38,0-.63.11-.88.4l.38.1c-.41-1.03-.46-1.97-.35-3.06.05-.52.13-1.08-.23-1.52-.7-.86-1.83-.25-2.66-.03-.22.07-.45.1-.68.11-.69.05-.86-.39-.52-1.35.16-.23.52-.41.73-.6.49-.44.78-.97.93-1.61.37-1.51-.12-3.59,1.46-4.51.25-.15.02-.53-.23-.39-1.2.7-1.39,2.05-1.49,3.32-.08,1.14-.19,2.19-1.12,2.96-.51.43-1.16.88-1.09,1.64.1,1.11,1.42,1.05,2.22.82.37-.11.73-.31,1.12-.33,1.29-.05,1.12,1.02,1.04,1.78-.1,1.01.04,1.94.41,2.88.06.14.26.24.38.1.53-.62,1.51.1,2.15-.05.4-.1.71-.4,1.01-.66.72-.62,1.34-1.31,1.47-2.28.08-.59-.1-1.31.13-1.87.77-1.92,2.37.09,2.73.91.26.59.54,1.7,1.41,1.55.62-.11.89-.85.93-1.4.07-.96-.36-1.55.86-2.05.37-.15.7-.08.98-.41.55-.65.1-1.64-.3-2.24-.92-1.37-1.76-2.37-1.72-4.13l-.34.19c.98.6,2.39,1.28,3.58,1.13s.82-1.42.74-2.33c-.01-.12-.09-.22-.23-.23-1.15-.03-1.11-1.37-2.15-1.57-.36-.07-.74,0-1.1-.07-.69-.14-.72-.72-1.18-1.09-.67-.54-1.81-.34-2.59-.49-.35-.07-.69-.16-1.03-.27-.61-.21-.62-.49-.43-1.09.22-.71.63-1.4.97-2.06.13-.26-.26-.49-.39-.23h0Z"/>
          <path class="cls-2" d="M199.11,56.38c-1.23.3-2.35.84-3.28,1.7-.62.57-1.07,1.15-1.95,1.34-.49.11-1.07.14-1.47.48-1.09.93-.57,2.48-2.18,3.15-1.13.47-1.45.58-1.78,1.83-.16.6-.94,2.16-.16,2.65.66.41,1.44-.53,1.82-.92.59-.6,1.19-1.21,1.78-1.81.29-.29.62-.77.97-.99l.13-.12c.4-.47.95-.38,1.65.26.07.54-.4,1.18.46,1.33.32.05.63-.14.88-.31.18-.13.32-.3.49-.45.54-.48.98-.45,1.67-.45,1.05,0,1.29-.1,1.74-.99.06-.11-.08-.36-.02-.42.34-.33.89.28,1.15.47.34.25.63.44,1.04.56,1.55.45,3.4.34,4.99.47.81.07,2.24.49,2.97,0s.4-1.32-.11-1.83c0,0-.54-.42-.54-.41-.36-1.34.91-.62,1.16-.5.42.21.84.48,1.33.47.57-.02,1.2-.39,1.18-1.02-.01-.54-.59-.92-.94-1.24-.68-.6-1.35-1.23-2.06-1.79-1.17-.93-2.65-1-3.93-1.72s-2.81-.7-4.27-.8c-1.22-.08-2.39-.02-3.35.81-.22.19.1.51.32.32,1.39-1.21,3.76-.64,5.43-.47.96.1,1.51.54,2.34.91s1.78.4,2.58.86,1.54,1.26,2.26,1.89c.34.3,1.57,1.12.66,1.76-.41.3-1.22-.35-1.64-.53-.74-.32-1.66-.36-2.03.49-.03.07-.05.16,0,.23.15.21.29.36.48.53.52.48.75.28.54,1.14-.19.75-.1.62-.7.58-1.37-.1-2.75-.22-4.12-.33s-2.46-.14-3.62-.98c-.53-.39-.98-.58-1.59-.28-.12.06-.13.2-.08.31.63,1.47-1.73.94-2.17,1.04s-.64.4-1,.6l-.22.21c-.81.24-1.09.13-.86-.35-.02-.13.09-.32.08-.47-.02-.31-.1-.53-.34-.74-.52-.44-1.23-.21-1.72.14-1.22.88-2.24,2.23-3.29,3.3-.16.16-.32.33-.49.49l-.85-.15c-.06-.12.28-1.09.32-1.23.26-1.02.75-1.6,1.72-1.97.85-.32,1.28-.99,1.58-1.82.33-.9.79-1.53,1.75-1.74.5-.11.92-.21,1.33-.51.57-.42.98-1.03,1.57-1.45.75-.54,1.6-.89,2.5-1.11.28-.07.16-.5-.12-.43h0Z"/>
          <path class="cls-2" d="M184.86,67.6c-1.35.47-2.48,1.32-3.42,2.38-.47.52-.89,1.09-1.29,1.66-.49.71-.92,1.68-1.53,2.29-.58.57-1.3.02-1.96.26-.45.16-.77.56-.83,1.03-.13.97.75,1.59,1.65,1.45,1.25-.19,2.03-1.3,2.7-2.26.74-1.06,1.52-.79,2.63-.7.86.06,1.68-.16,2.51-.3,1-.16,1.93.17,2.91.05.26-.03.48-.16.73-.19.9-.14.82.27,1.35.54.95.48,2.82.17,3.63-.46.9-.7,1.08-1.91.23-2.73-1.06-1.03-3.42-.92-3.74-2.6-.05-.28-.49-.16-.43.12.4,2.16,4.23,1.65,4.26,3.71.01,1-.99,1.48-1.85,1.61-.36.05-.72.07-1.08.06-.19,0-.46.02-.64-.04-.26-.09-.45-.37-.68-.51-.29-.18-.5-.25-.85-.21-.2.03-.38.12-.57.17-.56.15-1.06.05-1.63-.02-1.31-.16-2.53.37-3.83.37-1.03,0-2.07-.49-2.92.35s-1.34,2.41-2.77,2.59c-.24.03-.75-.02-.94-.21v-.6c-.2-.56-.02-.78.54-.66.79-.09.35.02.88.07.36.03.56-.03.82-.29.47-.46.81-1.17,1.17-1.71.47-.7.94-1.4,1.47-2.06.96-1.19,2.14-2.21,3.61-2.71.27-.09.16-.53-.12-.43h0Z"/>
          <path class="cls-2" d="M151.62,69.11c-.96.5-1.96.88-3.01,1.11-.72.16-1.53.19-2.17.59-1.31.81-.63,2.29.16,3.21.08.09.24.08.32,0,.79-.85,1.91-1.28,3.01-1.56.38-.1.44-.06.64.3.05.09.06.19.13.28.16.2.41.28.65.29.92.03,1.16-.96,1.75-1.46.92-.8,2.45-.54,3.56-.46s2.29.29,3.39.16c.73-.09,1.31-.45,1.43-1.21.1-.63.08-1.61-.51-2.02-.68-.47-1.75-.02-2.45.14s-1.45.34-2.19.36-1.32-.25-2.01-.44c-1.01-.28-1.88.36-2.61.97-.22.18.1.5.32.32.57-.47,1.27-1.03,2.06-.89.5.09.95.37,1.47.45,1.17.17,2.34-.16,3.48-.42.33-.08.84-.28,1.17-.23.62.1.82.48.85,1.05.05.91-.33,1.44-1.24,1.5-1.28.08-2.62-.15-3.9-.23-.91-.05-1.92-.1-2.74.37-.37.21-.62.51-.87.84-.18.25-.41.71-.76.75-.73.09-.47-.36-.64-.64-.37-.61-1.41-.11-1.88.05-.92.31-1.77.72-2.44,1.44h.32c-.58-.67-1.3-1.85-.25-2.5.45-.28,1.02-.34,1.53-.43,1.28-.24,2.5-.66,3.65-1.26.26-.13.03-.52-.23-.39h0Z"/>
          <path class="cls-2" d="M154.95,71.15c-.95.54-2.76,1.71-2.19,3.08.21.51.64.5,1.11.32.52-.2,1.15-.66,1.71-.72.18-.15.34-.11.48.1.28.09.36.27.24.55.06.32-.04.75-.05,1.07,0,.16.2.29.34.19.96-.69,1.19.85,1.2,1.38,0,.28-.02.55.02.82.05.37.16.78.41,1.07.22.24.18.11.42.31.08.04.17.07.26.09.28.26.39.55.34.88.03.4-.05.76.12,1.15.12.3.32.57.64.68.4.14,1.16-.32,1.41.08.03.04,0,.37.04.48.05.11.14.2.24.27.23.16.55.17.8.07.85-.32,1.09-1.75,1.18-2.5.04-.31.05-.63.04-.94-.01-.29-.16-.71-.12-.99.1-.72,1.27-.6,1.78-.6.72,0,1.62-.06,2.1-.68.45-.57.13-1.32.81-1.8.78-.55,1.82-.12,2.61.19.12.05.24-.05.28-.16.29-.95-.77-1.37-1.49-1.64-1.69-.62-3.39-1.2-5.09-1.81-.79-.28-1.58-.56-2.38-.84-.69-.25-1.54-.73-2.3-.68-.67.05-1.22.75-.76,1.35.17.23.56,0,.39-.23.35-.56.75-.73,1.2-.49.23.08.45.16.68.24.45.16.91.32,1.36.48.91.32,1.81.64,2.72.96s1.81.64,2.72.96c.57.2,2.81.65,2.53,1.56l.28-.16c-.99-.39-2.23-.79-3.15,0-.33.28-.43.58-.52.99-.14.61-.19.93-.82,1.15-.26.09-.54.12-.82.13-.72.04-2.14-.16-2.57.65-.21.38.1.98.12,1.4.02.61-.03,2.09-.53,2.58-.66.33-.96.27-.88-.18v-.06c-.09-.07-.11-.21-.2-.28-.31-.25-.61-.06-.94-.03-1.12.12-.99-.7-1.02-1.55-.01-.4-.1-.66-.39-.94-.08-.08-.21-.08-.29-.14-.69-.48-.76-.77-.78-1.57-.02-.51.05-1.05-.19-1.52-.32-.62-1.08-.97-1.69-.54l.34.19c.04-.88.42-2.64-1.02-2.24-.29.08-.57.23-.84.35-.19.08-.4.21-.6.25l-.3.13-.76-.55c-.11-.41.66-1.04.93-1.25.34-.27.7-.49,1.07-.7.25-.14.03-.53-.23-.39h0Z"/>
          <path class="cls-2" d="M165.51,79.8c.83.58,1.7,1.11,2.59,1.59.58.31,1.31.84,2,.61.34-.11.66-.34.98-.5.44-.21.9-.38,1.37-.5.22-.06.54-.18.77-.14.73.1.19.19.55.36.22.1.36.09.59.05.99-.19,1.99-.58,2.96-.86.65-.19,1.77-.29,2.23-.85.31-.38.23-.92-.04-1.3-.41-.56-1.13-.64-1.77-.69l.19.34c.1-.18.21-.36.31-.54.08-.15-.02-.34-.19-.34-1.92,0-3.82-.42-5.54-1.29-.46-.23-.85-.44-1.12-.89-.11-.18-.15-.37-.38-.45s-.44.02-.63.12c-.45.24-.87.52-1.3.78-.25.15-.02.54.23.39.37-.22.79-.57,1.19-.72.53-.2.44.14.71.46.44.52,1.28.81,1.88,1.06,1.57.66,3.25.98,4.95.98l-.19-.34c-.1.18-.21.36-.31.54-.09.16.03.32.19.34.35.03.75.06,1.07.23.19.1.44.33.47.56.09.6-.44.69-.79.8-.68.2-1.37.4-2.06.6-.39.11-.77.22-1.16.34-.29.08-.73.32-1.03.3-.25-.01-.36-.21-.55-.32-.17-.09-.37-.11-.56-.1-.53.02-1.09.22-1.58.41-.24.09-.47.19-.7.3-.27.13-.66.45-.96.48-.69.08-1.66-.63-2.23-.96-.66-.38-1.3-.79-1.93-1.22-.24-.17-.46.22-.23.39h0Z"/>
          <path class="cls-2" d="M148.11,80.17c-.79.33-1.32.09-2.09.02-.23-.02-.39.02-.61.1-1.06.43-2.07,1.07-3.08,1.59-.85.44-1.81.82-2.56,1.43s-.8,1.28-1.1,2.1c-.36.98-1.39,1.23-1.96,2.04-.32.45-.52,1.14-.11,1.61.38.44.82.19,1.26-.02,1.1-.53,2.19-1.08,3.28-1.61l-.34-.19c0,.85-.33,2.42.47,3.04.71.55,1.61.14,2.29-.22l-.34-.19c.07.97.73,1.61,1.58,2.01,1.32.62,2.54,1.01,3.67,1.99.11.1.27.08.35-.05.64-.97.66-2.07.9-3.17.13-.61.36-1.25.81-1.7.54-.54,1.1-.43,1.78-.52.63-.08.94-.34.92-.98-.01-.4-.12-.8.28-1.08.16-.11.39-.16.56-.25.29-.15.55-.32.69-.63.27-.6-.05-1.32-.55-1.69-.37-.28-.85-.39-1.3-.46-.54-.08-1.53,0-1.96-.4-.56-.51,0-.68.08-1.11.07-.33-.09-.68-.32-.92-.88-.91-2.29.14-3.23-.64-.22-.18-.54.13-.32.32.8.66,1.54.2,2.45.36.81.14.95.45.66,1.21-.03.08-.11.16-.13.25-.05.22.01.38.13.55.41.63,1.42.68,2.07.76s1.57.13,1.89.83c.45.97-.48,1.12-1.05,1.46-.21.12-.41.25-.51.49-.14.31.07.54.04.82-.08.83-.76.61-1.34.69-.33.05-.63.16-.9.36-1.66,1.23-1.01,3.64-2.05,5.21l.35-.05c-.75-.65-1.57-1.18-2.48-1.56-1.04-.43-2.53-.76-2.64-2.12-.01-.17-.18-.28-.34-.19-.28.15-.58.32-.89.38-.69.14-1.07-.41-1.19-1-.11-.55,0-1.25,0-1.82,0-.18-.19-.27-.34-.19-.8.39-1.59.78-2.39,1.17-.22.11-.97.63-1.19.59-1.35-.26.24-1.57.48-1.75.47-.35.9-.66,1.17-1.2.35-.7.31-1.46.91-2.05.56-.55,1.38-.86,2.07-1.22.79-.41,1.59-.82,2.38-1.24.38-.2.79-.48,1.19-.62.5-.17.77.04,1.26.1.55.06,1.04-.06,1.55-.27.27-.11.04-.5-.23-.39h0Z"/>
          <path class="cls-2" d="M149.74,80.14c.83.09,1.7.18,2.51-.09.7-.23,1.23-.73,1.78-1.19.29-.24.6-.48.95-.63.33-.15.69-.23,1.02-.36.28-.11.55-.25.76-.48.23-.25.29-.68.57-.88l-.33-.25c-.02.11-.05.22-.07.33-.06.28.37.4.43.12.02-.11.05-.22.07-.33.04-.18-.16-.37-.33-.25-.26.18-.36.43-.51.7-.17.32-.44.5-.77.63-.64.25-1.25.41-1.81.84s-1.09,1.01-1.78,1.28c-.79.31-1.68.21-2.51.12-.29-.03-.29.42,0,.45h0Z"/>
          <path class="cls-2" d="M154.75,82.71l1.79-2.53c.27-.38.53-.78.82-1.14.25-.32.55-.61.94-.72l-.22-.38s-.04.05-.08.05c-.28-.04-.41.39-.12.43.2.03.38,0,.52-.17s0-.44-.22-.38c-.88.26-1.38,1.15-1.88,1.85l-1.94,2.75c-.17.24.22.46.39.23h0Z"/>
          <path class="cls-2" d="M198.98,63.79c-2.02,4.47-4.15,9.17-7.9,12.48-4.12,3.64-9.68,4.62-14.92,5.51-.28.05-.16.48.12.43,5.21-.88,10.69-1.87,14.85-5.39,3.94-3.34,6.16-8.19,8.24-12.8.12-.26-.27-.49-.39-.23h0Z"/>
          <path class="cls-2" d="M196.94,72c2.19-.96,4.57-2.07,6.92-2.54.88-.18,1.38.1,2.09.49.27.15.42.23.74.27.9.1,1.9-.3,2.78-.45,1.2-.21,2.5-.29,3.59.35.54.32.88,1.25,1.48,1.44.19.06.25-.01.4,0,.12-.04.22-.09.31-.17.93-.35,1.58-.17,1.96.54.71,1.07,1.37,2.7.24,3.7-.11.1-.07.28.05.35.32.18.56.44.71.77l.13-.33c-1.91.32-2.02-1.74-3.6-1.96-.69-.1-1.22.3-1.32.99-.07.54.35,1.16.11,1.62-.4.78-1.81-.87-2.21-1.13-.44-.28-.59-.13-1.06-.24-.99-.22-.64-.76-1.19-1.31-.57-.58-1.4-.35-2.05-.06-2.02.92-3.47.13-5.32-.76-.44-.21-.88-.42-1.38-.44-.56-.02-1.05.25-1.61-.07-1.39-.78-.22-.65-.82-1.21-.75-.71-2.13-.41-3.01-.17-.28.08-.16.51.12.43.49-.13,1.11-.34,1.62-.22,2.07.47.73.45,1.32,1.07.27.28.48.51.88.64.59.19,1.21-.07,1.8.04.8.14,1.54.69,2.29,1.02,1.11.49,2.31.84,3.51.44.73-.24,1.35-.88,2.12-.44.54.31.46.88.92,1.25.26.21.51.17.82.23.84.16,1.22.68,1.91,1.12.46.29,1.44.84,1.87.26.19-.26.1-.53.04-.83-.07-.33-.32-.77-.24-1.12.62-.67,1.14-.76,1.54-.29.17.13.32.29.45.46.77.82,1.44,1.29,2.61,1.1.15-.02.2-.22.13-.33-.23-.4-.49-.68-.87-.94l.05.35c1.42-1.26.56-3.98-.82-4.98-.22-.16-.46-.28-.73-.32-.44-.07-.64.18-1.02.21-.92.09-1.78-1.18-2.7-1.48-1.1-.35-2.25-.22-3.36-.01-1,.19-2.13.64-3.09.09-.41-.23-.69-.46-1.17-.53-1.3-.18-2.78.57-3.96,1-1.42.51-2.82,1.07-4.2,1.68-.26.12-.04.5.23.39h0Z"/>
          <path class="cls-2" d="M190.48,79.16c2.29.64,4.18-.03,6.08-1.28,1.26-.82,2.49-.26,3.84-.55.6-.13,1.08-.59,1.7-.45.72.16,1.04.87,1.66,1.22.34.19.63.15.99.22.58.12,1.15.61,1.59,1.01.91.84,1.61,1.97,1.89,3.18.11.5.11.88-.36,1.22-.12.09-.33.08-.46.17-.23.14-.37.33-.41.6s.08.53.17.77c.07.2.25.44.25.65,0,.45-.39.65-.67.88-.33.27-.57.65-.68,1.06-.1.38.07.9-.12,1.22-.29.48-.99.31-1.31-.01-.3-.3-.58-.62-.84-.96-.57-.76-.96-1.61-.76-2.57.04-.17-.16-.38-.33-.25-.68.49-1.21,1.1-1.51,1.89-.21.53-.13,1.25-.89,1.34-.16.02-.72-.28-.88-.34-.29-.11-.59-.21-.88-.34-1.39-.59.42-2.11.53-3.03.04-.29.01-.59-.1-.85-.14-.34-.38-.41-.58-.67-.59-.77.46-.95.84-1.28.27-.23.44-.54.59-.86.18-.39.29-.81.49-1.19.3-.59.8-.82,1.24-1.28.36-.38.7-.99.35-1.49-.29-.42-.81-.44-1.17-.14-.22.19.1.5.32.32.5.29.6.56.31.82-.14.2-.32.37-.54.5-.13.11-.26.2-.38.32-.27.27-.45.58-.61.93-.17.39-.28.81-.49,1.18-.35.64-.82.66-1.35,1.05-.34.25-.57.68-.35,1.08.3.55.96.47,1,1.26.03.62-.39,1.15-.74,1.61s-.74,1.05-.33,1.62c.45.62,1.64.84,2.31,1.09.5.19,1.11.42,1.41-.19.18-.37.14-.84.27-1.23.26-.72.74-1.31,1.35-1.75l-.33-.25c-.28,1.33.37,2.46,1.22,3.44.32.37.79,1.04,1.31,1.17.54.13,1.01-.52,1.35-.83.06-.05.08-.15.06-.22-.14-.46-.13-.92.11-1.36.22-.4.56-.51.89-.78.26-.22.38-.46.36-.8-.03-.41-.34-.72-.38-1.1-.1-.85.75-.64,1.1-1.17.48-.72-.08-1.95-.4-2.63-.51-1.09-1.31-2.03-2.29-2.72-.37-.26-.77-.45-1.18-.6-1.05-.38-.98-.29-1.62-.88-.19-.18-.39-.36-.63-.47-.38-.17-.72-.15-1.11-.01-.33.12-.61.33-.96.42-.46.12-.94.08-1.4.06-.71-.03-1.4-.08-2.06.21-.51.22-.92.58-1.38.88-1.49.96-3.28,1.18-4.98.71-.28-.08-.4.36-.12.43h0Z"/>
          <path class="cls-2" d="M189.17,79.81c-1.09.43-2.76,1.48-2.87,2.8-.14,1.63,1.87.64,2.55.39.49-.18,1.01-.27,1.53-.29.24,0,.52-.04.73.1.25.17.24.33.28.62.08.57.14,1.18,0,1.74-.13.5-.44.89-.62,1.37s-.19.99.24,1.35c.34.28.69.29,1.02.02l-.35-.05c.15.29-.17.76-.13,1.09.03.25.16.48.31.67.36.45,1.07,1,1.67.99.67,0,1.09-.63,1.42-1.12s.59-.98.84-1.5c.27-.57.77-1.75,1.52-.57.39.62.33,1.32,1.12,1.62.39.15.83.08,1.23.2.56.18,1.01.59,1.54.84.57.27,1.28.42,1.82,0,.45-.35.57-.86.34-1.36-.12-.26-.5-.04-.39.23.21.47-.34.87-.74.95-.28.06-.71-.15-.94-.27-.33-.17-.63-.4-.96-.57-.61-.33-1.52-.22-2.05-.62-.67-.5-.49-2.31-1.8-2.01-.4.09-.64.44-.83.79-.34.64-.61,1.31-1.01,1.92-.11.18-.23.36-.37.52-.29.35-.37.42-.85.37s-.94-.29-1.22-.71c-.37-.57.15-1.12-.15-1.69-.07-.14-.25-.13-.35-.05-.67.53-.44-1.04-.39-1.17.07-.2.22-.38.3-.57.12-.28.21-.57.25-.87.12-.82-.04-1.66-.2-2.47-.01-.07-.09-.15-.16-.16-1.19-.2-2.24-.03-3.34.44-.32.13-1.46.78-1.39-.34.02-.31.42-.71.61-.92.52-.58,1.17-1.01,1.89-1.29.27-.11.15-.54-.12-.43h0Z"/>
          <path class="cls-2" d="M172.36,82.68c-1.24,1.06-2.77,1.55-4.32,1.96s-2.96.75-4.45,1.05c-3.25.66-6.52.95-9.83.71-.29-.02-.29.43,0,.45,3.47.25,6.9-.09,10.3-.8,2.87-.6,6.32-1.09,8.62-3.06.22-.19-.1-.51-.32-.32h0Z"/>
          <path class="cls-2" d="M175.4,82.75c-6.81,4.08-14.83,4.59-22.57,4.92-.29.01-.29.46,0,.45,7.81-.33,15.92-.86,22.79-4.98.25-.15.02-.54-.23-.39h0Z"/>
          <path class="cls-2" d="M137.39,85.65c-2.83-.47-5.69-.57-8.56-.5s-5.99.16-8.94.52c-4.87.6-9.26,2.73-12.54,6.41-.19.22.12.53.32.32,3.44-3.86,8.03-5.88,13.13-6.37,5.41-.52,11.09-.83,16.47.06.28.05.41-.39.12-.43h0Z"/>
          <path class="cls-2" d="M135.49,87.34c-7.19-.32-14.39.94-21.03,3.73-2.78,1.17-5.49,2.23-6.38,5.34-.45,1.57-.81,3.3-.83,4.94-.03,2.02.9,3.91.66,5.93-.03.29.42.28.45,0,.2-1.73-.46-3.28-.62-4.97-.17-1.79.24-3.66.68-5.39s1.29-3,2.9-3.88c1.52-.82,3.13-1.51,4.74-2.13,6.19-2.37,12.82-3.41,19.43-3.12.29.01.29-.44,0-.45h0Z"/>
          <path class="cls-2" d="M90.15,94.03c-8.26-1.8-16.58-2.31-25.01-2.02-4.15.14-8.32.4-12.48.4-1.93,0-3.9-.26-5.82,0-.63.08-1.24.28-1.87.33s-.98-.19-1.55-.34c-.3-.08-.34-.16-.6.04-.23.18.09.5.32.32-.13.1,1.5.45,1.65.44.87-.04,1.72-.32,2.58-.39,1.91-.17,3.87.07,5.79.06,4.07-.03,8.15-.27,12.22-.41,8.31-.28,16.51.24,24.65,2.01.28.06.4-.37.12-.43h0Z"/>
          <path class="cls-2" d="M41.8,92.41c-1.85.25-3.73.06-5.53-.41-.84-.22-1.66-.5-2.46-.81-.22-.09-2.75-1.08-2.7-1.26l-.16.16h.07c.28-.06.16-.5-.12-.45h-.07c-.08.03-.14.1-.16.17-.06.22.04.41.22.54.4.31.99.5,1.46.71,1.02.46,2.06.87,3.13,1.19,2.09.63,4.27.89,6.44.6.29-.04.16-.47-.12-.43h0Z"/>
          <path class="cls-2" d="M30.11,91.21c2.4,1.47,5.12,2.11,7.9,2.4,3.3.34,6.7.47,10,.1,7.11-.8,14.22-1.2,21.38-.98.29,0,.29-.44,0-.45-6.81-.21-13.63.08-20.4.87-3.18.37-6.32.35-9.51.13s-6.36-.77-9.13-2.46c-.25-.15-.47.24-.23.39h0Z"/>
          <path class="cls-2" d="M70.49,92.9c3.64.38,7.38.57,10.99,1.22,1.45.26,2.83.84,4.3,1.01.88.1,1.72.15,2.59.38.7.18,1.37.34,2.1.32.29,0,.29-.46,0-.45-.93.03-1.76-.28-2.65-.47-.76-.16-1.54-.14-2.31-.26-1.57-.25-3.05-.84-4.63-1.07-3.44-.51-6.93-.76-10.38-1.12-.29-.03-.29.42,0,.45h0Z"/>
          <path class="cls-2" d="M94.07,97.3c1.32.06,2.64.16,3.95.32.65.08,1.32.15,1.96.28.55.11.91.53,1.43.71.27.1.39-.34.12-.43s-.48-.29-.72-.43c-.22-.14-.45-.22-.71-.27-.64-.13-1.29-.2-1.94-.28-1.36-.17-2.73-.28-4.09-.34-.29-.01-.29.44,0,.45h0Z"/>
          <path class="cls-2" d="M108.13,108.37c1.12,3.46,1.1,7.21,1.27,10.81.08,1.71-.16,3.44-.01,5.14s.54,3.35.69,5.04c.29,3.39.25,6.81.77,10.19.2,1.31.62,2.55.62,3.88,0,.99-.13,2.01-.01,3,.03.28.48.29.45,0-.11-.99,0-2.01.01-3,0-1.16-.32-2.18-.52-3.32-.66-3.7-.56-7.48-.91-11.21-.16-1.67-.61-3.34-.67-5.02s.1-3.42.01-5.14c-.17-3.5-.18-7.12-1.26-10.49-.09-.27-.52-.16-.43.12h0Z"/>
          <path class="cls-2" d="M96.89,99.22l-.4-.88-.31.31c3.59,2.51,4.61,6.58,4.98,10.72.17,1.88.25,3.77.54,5.64.31,2.01.98,3.86.99,5.91s.16,4.2.4,6.3c.2,1.8.34,3.66.86,5.41.26.86.66,1.67.91,2.53.34,1.2.17,2.29.04,3.5-.2,1.8-.07,3.53.4,5.28.08.28.51.16.43-.12-.61-2.26-.39-4.22-.23-6.5.15-2.04-.9-3.71-1.34-5.65-.47-2.07-.64-4.27-.83-6.39s0-4.15-.27-6.18-.97-4.09-1.17-6.23c-.18-1.89-.25-3.8-.53-5.69-.53-3.58-1.91-6.8-4.95-8.91-.2-.14-.39.13-.31.31l.4.88c.12.26.51.03.39-.23h0Z"/>
          <path class="cls-2" d="M105.26,145.16c.1,2.04,0,4.09.22,6.13.1,1.02.33,2.02.44,3.04.25,2.35.42,4.71.6,7.06.28,3.66.53,7.32.8,10.98.6,8.35.49,16.72.9,25.09.14,2.78.29,5.55.55,8.32.14,1.51.18,3.24.74,4.67.1.27.54.15.43-.12-.49-1.28-.55-2.79-.68-4.14-.23-2.35-.38-4.72-.51-7.08-.28-5.1-.45-10.2-.54-15.3-.06-3.24-.1-6.44-.32-9.67-.25-3.64-.51-7.27-.78-10.91-.21-2.74-.41-5.47-.67-8.2-.08-.84-.2-1.66-.34-2.5-.4-2.44-.26-4.91-.38-7.37-.01-.29-.46-.29-.45,0h0Z"/>
          <path class="cls-2" d="M111.46,148.05c.72,2.71.92,5.61,1.21,8.39.5,4.72.9,9.46,1.29,14.2.82,10.12,1.51,20.24,2.3,30.36.25,3.15.42,6.33.87,9.45.04.29.48.16.43-.12-.39-2.71-.55-5.46-.76-8.18-.37-4.69-.71-9.39-1.06-14.09-.75-10.16-1.46-20.32-2.5-30.45-.33-3.2-.52-6.56-1.35-9.68-.07-.28-.51-.16-.43.12h0Z"/>
          <path class="cls-2" d="M63.39,29.96c.58.37,1.18.69,1.8.97.52.23,1.1.53,1.67.58,1.04.09,3.22-.65,3.59.84.07.28.5.16.43-.12-.34-1.37-2.05-1.33-3.16-1.23-.35.03-.7.1-1.04.02s-.71-.25-1.05-.39c-.7-.3-1.37-.66-2.01-1.06-.25-.16-.47.23-.23.39h0Z"/>
          <path class="cls-2" d="M123.17,8.26c1.12.79,1.89,2.07,2.04,3.44.03.28.48.29.45,0-.17-1.54-1-2.94-2.26-3.83-.24-.17-.46.22-.23.39h0Z"/>
          <path class="cls-2" d="M130.72,15.75c-.69,1.64-1.37,3.33-1.39,5.14,0,.29.45.29.45,0,.02-1.77.7-3.42,1.38-5.02.11-.27-.32-.38-.43-.12h0Z"/>
          <path class="cls-2" d="M74.63,22.27c-.34,2.89.17,5.78.62,8.63.04.29.48.16.43-.12-.44-2.81-.94-5.66-.6-8.51.03-.29-.42-.28-.45,0h0Z"/>
          <path class="cls-2" d="M71.39,21.86c1.19.66,2.36,1.35,3.52,2.05.25.15.47-.24.23-.39-1.16-.7-2.34-1.39-3.52-2.05-.25-.14-.48.25-.23.39h0Z"/>
          <path class="cls-2" d="M68.33,25.1c1.17.88,2.35,1.76,3.38,2.81.47.47.88,1.01,1.43,1.4s1.18.57,1.63,1.06c.2.21.52-.11.32-.32-.43-.47-1.03-.69-1.56-1.02-.62-.39-1.07-1.01-1.59-1.52-1.04-1.03-2.22-1.91-3.39-2.79-.23-.17-.46.22-.23.39h0Z"/>
          <path class="cls-2" d="M69.6,27.96c-.79.81-1.57,1.62-2.34,2.45-.18.2-.37.4-.55.6-.15.17-.39.36-.33.62.05.2.27.29.44.18s.21-.38.01-.47c-.26-.12-.49.26-.23.39l-.05-.05-.02-.17.3.06.02-.03s.06-.07.09-.1c.07-.07.14-.15.21-.22.13-.14.26-.28.39-.42.26-.28.52-.56.79-.84.53-.56,1.06-1.11,1.6-1.66.2-.21-.11-.53-.32-.32h0Z"/>
          <path class="cls-2" d="M106.65,81.34c.38.84.72,1.7,1.08,2.55.07.17.15.33.21.5.04.11.06.22.1.32.05.13.17.24.32.17.16-.07.15-.24.14-.39-.02-.29-.47-.29-.45,0,0,.03,0,.07,0,.11.01.05-.03.08.03-.04l.19-.11h0c.05.02.11.04.16.07.04.04.04.07.01,0-.01-.04-.03-.08-.04-.12-.03-.1-.07-.2-.11-.3-.14-.33-.28-.65-.42-.98-.28-.67-.55-1.34-.85-2-.12-.26-.51-.04-.39.23h0Z"/>
        </g>
        <path class="cls-2" d="M76.82,61.94c-2.34,2.64-4.63,5.33-6.86,8.06-.3.37.23.9.53.53,2.23-2.73,4.52-5.42,6.86-8.06.32-.36-.21-.89-.53-.53h0Z"/>
        <path class="cls-2" d="M66.76,73.5c-1.76,1.73-3.46,3.53-5.08,5.39-.32.36.21.9.53.53,1.62-1.86,3.32-3.66,5.08-5.39.35-.34-.19-.87-.53-.53h0Z"/>
        <path class="cls-2" d="M58.71,82.62c-2.63,2.99-5.38,5.87-8.25,8.65-.35.34.18.87.53.53,2.86-2.77,5.61-5.65,8.25-8.65.32-.36-.21-.89-.53-.53h0Z"/>
        <path class="cls-2" d="M47.63,94.74c-6.87,7.95-13.74,15.9-20.61,23.85s-13.06,15.53-20.19,22.72c-.34.34.19.87.53.53,7.13-7.19,13.57-15.07,20.19-22.72,6.87-7.95,13.74-15.9,20.61-23.85.31-.36-.21-.9-.53-.53h0Z"/>
        <path class="cls-2" d="M6.65,141.57c-.28,8.61-1.18,17.19-1.76,25.78-.03.48.72.48.75,0,.58-8.59,1.48-17.17,1.76-25.78.02-.48-.73-.48-.75,0h0Z"/>
        <path class="cls-2" d="M130.86,93.61c.4,4.46.35,8.95.74,13.41.33,3.76.85,7.45.83,11.24,0,.48.75.48.75,0,.03-3.79-.5-7.47-.83-11.24-.39-4.46-.34-8.95-.74-13.41-.04-.48-.79-.48-.75,0h0Z"/>
        <path class="cls-2" d="M113.6,102.73c5.78-3.22,11.71-6.17,17.76-8.86.44-.2.06-.84-.38-.65-6.05,2.68-11.98,5.64-17.76,8.86-.42.23-.04.88.38.65h0Z"/>
        <path class="cls-2" d="M113.06,102.41c0,4.34-.17,8.68-.21,13.02-.02,2.07-.02,4.15.01,6.22.02,1.62-.06,3.32.22,4.92.08.47.8.27.72-.2-.28-1.66-.18-3.45-.19-5.13-.02-1.99-.03-3.99,0-5.98.05-4.29.21-8.56.21-12.85,0-.48-.75-.48-.75,0h0Z"/>
        <path class="cls-2" d="M113.63,126.79c6.41-2.84,12.95-5.37,19.37-8.22.44-.2.06-.84-.38-.65-6.41,2.84-12.95,5.37-19.37,8.22-.44.2-.06.84.38.65h0Z"/>
        <path class="cls-2" d="M151.02,163.73c.55,3.07.85,6.16,1.2,9.25.29,2.5.75,4.98,1.09,7.47.63,4.59,1.02,9.23,1.81,13.8.08.47.81.27.72-.2-.79-4.57-1.18-9.2-1.81-13.8-.36-2.61-.84-5.19-1.13-7.81-.33-2.98-.64-5.95-1.17-8.91-.08-.47-.81-.27-.72.2h0Z"/>
        <path class="cls-2" d="M177.04,155.71c1,5.61,1.73,11.27,2.65,16.9s1.71,11.28,3.22,16.74c.13.46.85.27.72-.2-1.5-5.46-2.3-11.16-3.22-16.74s-1.65-11.29-2.65-16.9c-.08-.47-.81-.27-.72.2h0Z"/>
        <path class="cls-2" d="M151.48,164c8.65-2.74,17.33-5.39,26.02-8.02.46-.14.26-.86-.2-.72-8.69,2.63-17.36,5.28-26.02,8.02-.46.15-.26.87.2.72h0Z"/>
        <path class="cls-2" d="M155.59,194.31c9.31-1.26,18.56-2.9,27.78-4.69.47-.09.27-.82-.2-.72-9.22,1.8-18.47,3.43-27.78,4.69-.48.06-.27.79.2.72h0Z"/>
        <path class="cls-2" d="M167.04,132.58c-.03,1.56.1,3.11.39,4.63.05.25.35.33.55.22,1.1-.59,2.21-1.19,3.39-1.61.56-.2,1.13-.36,1.72-.46s1.14-.1,1.68-.34c.18-.08.24-.36.13-.51-.65-.93-.83-2.03-.88-3.14-.06-1.24-.04-2.49-.06-3.73,0-.22-.24-.46-.47-.36-2.21.92-4.49,1.66-6.83,2.21l.47.36c-.02.18.07.34.03.57-.03.21-.08.41-.09.62-.03.42.05.83.21,1.22.18.44.9.25.72-.2-.21-.53-.19-.97-.1-1.52.06-.36.08-.79-.2-1.08-.44-.47-1.25-.26-1.32.39-.03.25.26.41.47.36,2.33-.55,4.61-1.29,6.83-2.21l-.47-.36c.02,1.34-.02,2.7.07,4.04.08,1.13.3,2.27.97,3.21l.13-.51c-.55.24-1.25.2-1.83.32s-1.15.3-1.7.52c-1.12.43-2.19,1-3.25,1.56l.55.22c-.28-1.46-.4-2.95-.37-4.44.01-.48-.74-.48-.75,0h0Z"/>
        <path class="cls-2" d="M188.26,122.72c10.27-3.27,20.19-7.5,30.32-11.15.45-.16.26-.89-.2-.72-10.13,3.64-20.05,7.88-30.32,11.15-.46.15-.26.87.2.72h0Z"/>
        <path class="cls-2" d="M187.8,122.46c1.39,10.19,3.11,20.33,4.5,30.51.07.48.79.27.72-.2-1.39-10.19-3.11-20.33-4.5-30.51-.07-.48-.79-.27-.72.2h0Z"/>
        <path class="cls-2" d="M192.76,153.24c11.65-2.46,23.16-5.73,34.43-9.58.45-.16.26-.88-.2-.72-11.26,3.85-22.78,7.12-34.43,9.58-.47.1-.27.82.2.72h0Z"/>
        <path class="cls-2" d="M218.12,111.31c.46,2.62,1.27,5.16,1.84,7.75.5,2.29,1.1,4.55,1.64,6.84.7,2.99,1.66,5.96,2.54,8.91.41,1.35.54,2.81,1.04,4.13.56,1.48,1.27,2.88,1.55,4.45.08.47.8.27.72-.2-.24-1.39-.8-2.67-1.33-3.96-.6-1.44-.77-2.99-1.21-4.49-.89-3-1.87-6-2.58-9.04-.53-2.24-1.13-4.44-1.61-6.69-.57-2.64-1.41-5.23-1.87-7.9-.08-.47-.81-.27-.72.2h0Z"/>
        <path class="cls-2" d="M138.67,45.67c4.36-.5,8.53-1.92,12.81-2.83,3.16-.67,6.3-1.54,9.39-2.46.46-.14.26-.86-.2-.72-3.04.9-6.12,1.75-9.22,2.43-4.26.93-8.45,2.34-12.79,2.84-.47.05-.48.8,0,.75h0Z"/>
        <path class="cls-2" d="M195.3,32.16c2.97-.67,5.92-1.39,8.88-2.09s6.05-1.55,9.11-2.02c.48-.07.27-.79-.2-.72-3.07.46-6.1,1.3-9.11,2.02s-5.92,1.42-8.88,2.09c-.47.11-.27.83.2.72h0Z"/>
        <path class="cls-2" d="M212.84,27.79c3.59,10.15,5.29,20.95,7.58,31.44,2.76,12.69,5.67,25.31,9.23,37.81,2.42,8.49,4.97,16.93,7.03,25.51s4.1,17.63,6.29,26.41c1.18,4.71,2.4,9.41,3.81,14.05,1.02,3.39,2.1,6.82,3.65,10.02.21.43.86.05.65-.38-1.38-2.86-2.37-5.91-3.3-8.94-1.25-4.06-2.35-8.17-3.41-12.29-2.26-8.82-4.27-17.7-6.37-26.57-1.92-8.1-4.24-16.05-6.51-24.06-1.66-5.86-3.33-11.7-4.82-17.61-1.64-6.49-3.12-13.01-4.54-19.55-1.34-6.19-2.62-12.39-3.97-18.57s-2.6-11.79-4.61-17.47c-.16-.45-.88-.26-.72.2h0Z"/>
        <path class="cls-2" d="M188.16,122.74s.05,0,.08,0c.06,0-.08-.02.03,0,.09.02.17.04.26.07.21.06.42.14.63.22.53.2,1.04.43,1.55.66.88.39,1.73.84,2.63,1.19.45.18.64-.55.2-.72-.03-.01-.05-.02-.08-.03.11.04-.01,0-.03-.01-.08-.04-.17-.07-.25-.11-.21-.09-.41-.19-.62-.28-.54-.25-1.09-.5-1.63-.75s-1.1-.48-1.66-.69c-.34-.13-.73-.29-1.11-.29-.48.01-.48.76,0,.75h0Z"/>
        <path class="cls-2" d="M193.07,124.51c.55,4.5,1.39,8.92,2.07,13.39.34,2.24.66,4.48,1.18,6.69.56,2.36,1.17,4.69,1.44,7.11.05.47.8.48.75,0-.5-4.42-1.85-8.72-2.52-13.13-.71-4.7-1.6-9.34-2.17-14.06-.06-.47-.81-.48-.75,0h0Z"/>
        <path class="cls-2" d="M219.55,114.96c-8.83,2.81-17.47,6.13-26.21,9.19-.45.16-.26.88.2.72,8.74-3.07,17.39-6.38,26.21-9.19.46-.15.26-.87-.2-.72h0Z"/>
        <path class="cls-2" d="M113.34,102.77s.09.03.14.05c.03.01.07.03.02,0,.03.01.06.03.09.04.13.06.26.13.39.19.3.16.6.33.89.51.26.16.51.32.77.48.31.2.6.42.94.54.19.07.41-.08.46-.26.06-.21-.07-.39-.26-.46-.29-.1-.55-.32-.8-.49s-.53-.34-.8-.5c-.51-.31-1.05-.66-1.63-.82-.46-.14-.66.59-.2.72h0Z"/>
        <path class="cls-2" d="M116.95,104.49c4.78-2.49,9.54-5.01,14.47-7.19.44-.19.06-.84-.38-.65-4.93,2.18-9.69,4.7-14.47,7.19-.43.22-.05.87.38.65h0Z"/>
        <path class="cls-2" d="M116.39,104.37c0,2.8.12,5.62.16,8.42.03,2.16.21,4.32.23,6.48.01,1.89-.02,3.88.4,5.73.11.47.83.27.72-.2-.43-1.87-.37-3.89-.38-5.79-.01-2.19-.23-4.37-.23-6.55,0-2.7-.16-5.4-.16-8.1,0-.48-.75-.48-.75,0h0Z"/>
        <path class="cls-2" d="M151.39,164.01c1.56.12,3.07.63,4.59.96.47.1.67-.62.2-.72-1.59-.35-3.16-.87-4.79-.99-.48-.04-.48.71,0,.75h0Z"/>
        <path class="cls-2" d="M156.18,164.97c7.22-2.15,14.45-4.25,21.71-6.26.46-.13.27-.85-.2-.72-7.26,2.01-14.49,4.11-21.71,6.26-.46.14-.26.86.2.72h0Z"/>
        <path class="cls-2" d="M155.7,164.61c.25,2.02.82,4,.99,6.03s.33,4.01.55,6c.61,5.52,1.56,11,2.18,16.53.05.47.8.48.75,0-.61-5.52-1.57-11-2.18-16.53-.22-1.96-.4-3.93-.55-5.9-.16-2.07-.74-4.07-.99-6.13-.06-.47-.81-.48-.75,0h0Z"/>
        <path class="cls-2" d="M80.2,83.44c.15,1.54.19,3.09.18,4.63,0,.67-.08,1.34-.1,2.01-.01.85.11,1.7.12,2.55,0,.48.75.48.75,0,0-.83-.12-1.66-.12-2.49,0-.69.09-1.38.1-2.07.02-1.54-.03-3.1-.18-4.63-.05-.48-.8-.48-.75,0h0Z"/>
        <path class="cls-2" d="M89.51,115.31c.48,0,.48-.75,0-.75s-.48.75,0,.75h0Z"/>
        <path class="cls-2" d="M88.87,115.13v.04c.09-.12.18-.24.28-.36l.19.03.17.42s.51-.27.57-.3c.23-.13.45-.27.68-.4.49-.29.98-.58,1.47-.88,1.07-.64,2.13-1.28,3.19-1.93,1.98-1.21,3.96-2.43,5.88-3.74.4-.27.02-.92-.38-.65-2.05,1.39-4.17,2.69-6.29,3.98-1.1.67-2.2,1.33-3.31,1.99-.5.3-.99.59-1.49.88-.36.21-.92.4-1.05.83-.05.17.04.33.17.42.12.09.25.1.39.05.15-.05.28-.19.28-.36v-.04c-.02-.48-.77-.48-.75,0h0Z"/>
        <path class="cls-2" d="M81.82,82.47c.48,0,.48-.75,0-.75s-.48.75,0,.75h0Z"/>
        <path class="cls-2" d="M105.32,151.73c-8.25,3.16-16.44,6.48-24.55,9.97-.44.19-.06.84.38.65,8.06-3.46,16.19-6.75,24.37-9.89.45-.17.25-.9-.2-.72h0Z"/>
        <path class="cls-2" d="M112.08,150.51c.48,0,.48-.75,0-.75s-.48.75,0,.75h0Z"/>
        <path class="cls-2" d="M112.51,150.26c.08-.03.16-.07.24-.1s-.02,0,.05-.02c.05-.02.09-.04.14-.06.15-.06.3-.12.45-.18.31-.13.63-.25.94-.37.18-.07.33-.26.26-.46-.06-.19-.26-.32-.46-.26-.04.01-.08.02-.12.04-.18.06-.29.22-.27.41s.18.32.37.33c.1,0,.21-.03.3-.08.17-.1.25-.34.13-.51s-.33-.25-.51-.13c.03,0,.05-.02.08-.02l.1.74s.08-.02.12-.04l-.2-.72c-.67.25-1.34.52-2,.81-.18.08-.23.36-.13.51.12.19.32.22.51.13h0Z"/>
        <path class="cls-2" d="M80.59,162.07c-.24,7.49.23,14.98.19,22.47-.05,8.29.39,16.58.4,24.87,0,.48.75.48.75,0,0-8.29-.44-16.57-.4-24.87.04-7.49-.43-14.98-.19-22.47.02-.48-.73-.48-.75,0h0Z"/>
        <path class="cls-2" d="M81.65,209.77c2.96-.55,5.93-1.02,8.89-1.55,2.37-.42,4.63-1.14,6.98-1.61,1.91-.38,3.73-1.1,5.62-1.55,1.76-.42,3.55-.75,5.31-1.16.47-.11.27-.83-.2-.72-1.74.4-3.5.73-5.23,1.14-1.92.46-3.76,1.18-5.7,1.57-2.28.46-4.47,1.16-6.76,1.57-3.03.54-6.08,1.03-9.11,1.59-.47.09-.27.81.2.72h0Z"/>
        <path class="cls-2" d="M113.65,149.16c.27,10.65.59,21.3,1.12,31.93.12,2.33.24,4.67.44,6.99.04.48.79.48.75,0-.93-10.58-1.05-21.27-1.37-31.88-.07-2.35-.14-4.7-.2-7.04-.01-.48-.76-.48-.75,0h0Z"/>
        <path class="cls-2" d="M80.78,162.39c1.26.55,2.52,1.1,3.81,1.6.19.07.41-.08.46-.26.06-.21-.07-.39-.26-.46-1.22-.48-2.42-1.01-3.63-1.53-.19-.08-.4-.06-.51.13-.09.16-.05.43.13.51h0Z"/>
        <path class="cls-2" d="M84.87,163.96c3.29-1.43,6.7-2.6,10.08-3.82,3.6-1.29,6.99-3.04,10.57-4.36.45-.17.26-.89-.2-.72-3.67,1.35-7.14,3.13-10.82,4.45-3.35,1.21-6.73,2.38-10,3.8-.44.19-.06.84.38.65h0Z"/>
        <path class="cls-2" d="M84.31,163.63c.27,3.17.15,6.31.2,9.48.04,2.66.21,5.33.19,7.99-.02,4.33.16,8.67.21,13,.05,4.84.18,9.68.18,14.52,0,.48.75.48.75,0,0-4.84-.13-9.68-.18-14.52-.05-4.33-.23-8.67-.21-13,.01-2.66-.15-5.33-.19-7.99-.05-3.18.07-6.31-.2-9.48-.04-.48-.79-.48-.75,0h0Z"/>
        <path class="cls-2" d="M213.01,28.01c2.86,1.9,5.33,4.5,7.83,6.83s4.86,4.74,7.62,6.64c3.79,2.6,7.37,5.51,10.94,8.41,11.22,9.12,22.2,18.53,33.29,27.81,4.11,3.44,8.19,6.98,12.5,10.18.39.29.76-.36.38-.65-3.79-2.81-7.37-5.9-10.99-8.92-5.49-4.58-10.94-9.19-16.41-13.79s-11.15-9.36-16.78-13.97c-3.82-3.12-7.63-6.33-11.69-9.14-2.79-1.93-5.25-4.25-7.73-6.55-2.75-2.55-5.44-5.41-8.57-7.49-.4-.27-.78.38-.38.65h0Z"/>
        <path class="cls-2" d="M5.46,167.67c1.59-.79,3.18-1.55,4.78-2.32.8-.38,1.6-.77,2.4-1.15.39-.19.78-.38,1.17-.57.2-.1.41-.2.61-.3.05-.02.5-.26.43-.27l-.26-.26v.04c.02-.1.04-.19.05-.29l-.02.03.42-.17h-.03c-.47-.08-.68.64-.2.72h.03c.17.03.32-.02.42-.17.07-.11.09-.23.05-.36-.03-.12-.14-.24-.26-.26-.32-.06-.58.13-.86.27-.43.21-.87.43-1.3.64-.87.42-1.75.84-2.63,1.26-1.73.83-3.47,1.65-5.19,2.51-.43.22-.05.86.38.65h0Z"/>
        <path class="cls-2" d="M14.67,162.66c-.12,1.04-.21,2.09-.33,3.13-.08.64-.2,1.27-.29,1.9-.07.51,0,1.02-.14,1.52-.14.46.59.66.72.2.15-.51.09-.99.14-1.51.07-.66.22-1.32.31-1.99.13-1.08.22-2.17.35-3.25.06-.48-.69-.47-.75,0h0Z"/>
        <path class="cls-2" d="M4.87,173.93c3.16-1.5,6.33-3.01,9.56-4.36.44-.18.25-.91-.2-.72-3.29,1.38-6.52,2.91-9.74,4.44-.44.21-.06.85.38.65h0Z"/>
        <path class="cls-2" d="M4.32,173.51c-.48,2.13-.34,4.36-.84,6.51-.47,2.04-.4,4.04-.58,6.11-.28,3.27-.52,6.55-.96,9.81-.64,4.8-1.59,9.62-1.94,14.45-.03.48.72.48.75,0,.34-4.8,1.29-9.59,1.93-14.35.4-2.97.62-5.96.88-8.94.21-2.3.12-4.61.64-6.87s.36-4.38.84-6.51c.11-.47-.62-.67-.72-.2h0Z"/>
        <path class="cls-2" d="M5.68,167.87c.63-.04,1.22.13,1.82.31s1.24.37,1.86.55c1.2.36,2.41.72,3.61,1.07.46.14.66-.59.2-.72-1.25-.37-2.5-.74-3.75-1.12s-2.48-.92-3.75-.85c-.48.03-.48.78,0,.75h0Z"/>
      </g>
      <polygon class="cls-1" points="193.44 124.51 218.97 115.54 227.09 143.29 197.9 151.7 193.44 124.51"/>
      <path class="cls-1" d="M156.08,164.61l3.72,28.56s23.47-3.72,23.47-3.91-5.48-31.13-5.48-31.13l-21.71,6.48Z"/>
      <polygon class="cls-1" points="116.76 104.17 117.54 124.69 132.8 118.25 131.24 96.98 116.76 104.17"/>
      <polygon class="cls-1" points="84.68 163.63 85.47 208.62 108.35 203.54 107.6 176.69 106.21 155.04 84.68 163.63"/>
      <polygon class="cls-1" points="167.5 129.81 167.8 137.12 174.09 134.86 173.59 127.65 167.5 129.81"/>
    </g>
  </g>
</svg>