<?xml version="1.0" encoding="UTF-8"?>
<svg id="Capa_2" data-name="Capa 2" xmlns="http://www.w3.org/2000/svg" viewBox="0 0 335.43 231.83">
  <defs>
    <style>
      .cls-1, .cls-2 {
        fill: none;
      }

      .cls-1, .cls-2, .cls-3 {
        stroke: #fff;
        stroke-linecap: round;
      }

      .cls-1, .cls-3 {
        stroke-miterlimit: 10;
        stroke-width: .75px;
      }

      .cls-4 {
        fill: #fff;
        opacity: .3;
      }

      .cls-2 {
        stroke-linejoin: round;
        stroke-width: .5px;
      }
    </style>
  </defs>
  <g id="LA_PAJARERA" data-name="LA PAJARERA">
    <g>
      <g>
        <line class="cls-1" x1="260.68" y1=".38" x2="312.28" y2="81.73"/>
        <line class="cls-1" x1="312.28" y1="81.73" x2="334.95" y2="187.34"/>
        <line class="cls-1" x1="240.82" y1="144.81" x2="335.06" y2="187.25"/>
        <line class="cls-3" x1="146.79" y1="68.94" x2="179.37" y2="85.52"/>
        <line class="cls-3" x1="121.45" y1="98.23" x2="146.79" y2="68.94"/>
        <line class="cls-3" x1="146.85" y1="68.92" x2="146.16" y2="78.39"/>
        <line class="cls-3" x1="121.45" y1="98.23" x2="120.29" y2="107.06"/>
        <line class="cls-3" x1="120.29" y1="107.06" x2="146.09" y2="78.47"/>
        <g>
          <line class="cls-1" x1="260.68" y1=".38" x2="214.66" y2="53.6"/>
          <line class="cls-1" x1="214.66" y1="53.6" x2="217.83" y2="132.46"/>
          <line class="cls-1" x1="214.66" y1="53.6" x2="180.03" y2="86.14"/>
          <polyline class="cls-1" points="213.96 53.14 179.37 85.63 179.33 85.68"/>
          <line class="cls-1" x1="260.68" y1=".38" x2="199.55" y2="58.48"/>
          <polyline class="cls-1" points="180.96 49.42 179.37 85.63 179.37 85.63 179.37 85.65"/>
          <line class="cls-1" x1="202.57" y1="60.11" x2="180.96" y2="49.42"/>
          <polyline class="cls-1" points="202.57 60.11 179.37 85.63 179.33 85.68"/>
          <line class="cls-1" x1="157.48" y1="74.29" x2="180.96" y2="49.42"/>
          <line class="cls-1" x1="214.03" y1="53.07" x2="214.59" y2="53.63"/>
        </g>
        <line class="cls-1" x1="179.47" y1="85.82" x2="179.85" y2="86.1"/>
        <line class="cls-1" x1="180.09" y1="86.4" x2="180.09" y2="95.15"/>
        <line class="cls-1" x1="120.35" y1="107.19" x2="151.37" y2="120.22"/>
        <line class="cls-1" x1="144" y1="117.06" x2="131.21" y2="130.31"/>
        <line class="cls-1" x1="131.24" y1="130.36" x2="145.16" y2="117.75"/>
        <line class="cls-1" x1="131.68" y1="130.07" x2="130.75" y2="138.44"/>
        <line class="cls-1" x1="111.92" y1="155.18" x2="139.53" y2="130.59"/>
        <line class="cls-1" x1="110.15" y1="167.44" x2="138.19" y2="144.48"/>
        <line class="cls-1" x1="139.58" y1="130.54" x2="138.19" y2="144.48"/>
        <line class="cls-1" x1="139.58" y1="130.54" x2="178.4" y2="145.65"/>
        <line class="cls-1" x1="138.19" y1="144.48" x2="178.17" y2="159.13"/>
        <line class="cls-1" x1="178.4" y1="145.65" x2="178.17" y2="159.13"/>
        <line class="cls-1" x1="111.92" y1="155.18" x2="110.06" y2="167.5"/>
        <line class="cls-1" x1="110.15" y1="167.55" x2="147.02" y2="179.12"/>
        <line class="cls-1" x1="210.77" y1="138.92" x2="178.17" y2="159.13"/>
        <line class="cls-1" x1="126.54" y1="172.88" x2="124.71" y2="192.37"/>
        <line class="cls-1" x1="124.62" y1="192.31" x2="190.62" y2="210.66"/>
        <line class="cls-1" x1="147.02" y1="179.12" x2="124.71" y2="192.37"/>
        <line class="cls-1" x1="147.02" y1="179.12" x2="178.4" y2="159.36"/>
        <g>
          <polyline class="cls-1" points="146.09 78.47 180 95.23 180.11 95.29"/>
          <polyline class="cls-1" points="175.38 99.16 180 95.23 180.03 95.21"/>
          <line class="cls-1" x1="151.47" y1="120.17" x2="155.85" y2="116.36"/>
          <line class="cls-1" x1="175.27" y1="99.21" x2="173.28" y2="143.79"/>
          <line class="cls-1" x1="155.77" y1="116.56" x2="154.23" y2="136.12"/>
          <line class="cls-1" x1="157.01" y1="117.08" x2="175.14" y2="101.25"/>
        </g>
        <line class="cls-1" x1="157.01" y1="117.06" x2="155.85" y2="136.81"/>
        <line class="cls-1" x1="155.85" y1="116.36" x2="157.01" y2="117.06"/>
        <line class="cls-1" x1="159.11" y1="75.22" x2="178.4" y2="55"/>
        <line class="cls-1" x1="178.4" y1="55" x2="177.47" y2="84.52"/>
        <line class="cls-1" x1="178.4" y1="57.55" x2="160.73" y2="76.15"/>
        <line class="cls-1" x1="166.08" y1="109.15" x2="164.68" y2="140.3"/>
        <line class="cls-1" x1="169.34" y1="67.17" x2="168.87" y2="80"/>
        <path class="cls-1" d="M266.13,20.66c-4.32,6.06-8.39,12.29-12.83,18.27-4.46,6.02-8.66,12.22-12.94,18.35-2.41,3.45-4.85,6.87-7.39,10.23"/>
        <path class="cls-1" d="M232.94,67.51c1.13,15.59,1.82,31.19,3.08,46.68"/>
        <path class="cls-1" d="M266.03,20.6c2.17,3.59,4.14,6.86,6.32,10.44,2.44,4.01,4.89,8.02,7.34,12.03,2.56,4.18,5.12,8.36,7.68,12.53,2.54,4.15,5.09,8.29,7.63,12.44,2.33,3.79,4.65,7.58,6.97,11.37"/>
        <path class="cls-1" d="M317.76,156.5c-1.17-5.79-2.66-11.65-3.74-17.71-1.86-11.85-4.88-22.55-7.21-34.63-1.51-8.62-3.22-16.64-4.85-24.75"/>
        <path class="cls-1" d="M236.02,114.19c12.62,6.32,24.86,12.79,37.56,19.48,1.86.93,3.95,1.86,5.81,2.79,12.94,6.89,25.68,13.58,38.37,20.03"/>
        <path class="cls-1" d="M237.2,112.87c12.24,6.7,67.11,35.34,80.28,42.28"/>
        <line class="cls-1" x1="267.02" y1="208.47" x2="335.06" y2="187.25"/>
        <line class="cls-1" x1="211.27" y1="198.06" x2="211.17" y2="231.18"/>
        <path class="cls-1" d="M211.17,198.18c1.86-2.56,6.36-5.84,10.92-6.04,4.86-.22,7.95.56,9.99,1.39"/>
        <line class="cls-1" x1="256.03" y1="35.24" x2="266.26" y2="128.21"/>
        <line class="cls-1" x1="281.44" y1="54.33" x2="295.31" y2="143.55"/>
        <line class="cls-1" x1="237.2" y1="112.87" x2="236" y2="113.72"/>
        <line class="cls-1" x1="263" y1="25.01" x2="298.4" y2="81.14"/>
        <line class="cls-1" x1="298.4" y1="81.14" x2="311.35" y2="151.92"/>
        <line class="cls-1" x1="298.57" y1="81.03" x2="302.05" y2="79.4"/>
        <line class="cls-1" x1="248.75" y1="45.23" x2="295.15" y2="75.97"/>
        <line class="cls-1" x1="233.43" y1="74.7" x2="304.9" y2="116.66"/>
        <g>
          <path class="cls-2" d="M229.26,122.44c-1.26-.08-2.44-.9-2.96-2.05-1.05,1.21.85,3.09.29,4.59-.08.22-.22.43-.19.67.06.42.59.57,1.02.61.14.37.02.82-.28,1.07-.41-.6-1.08-1.02-1.8-1.12-.12.65-.17,1.32-.13,1.99-.36.14-.71.29-1.07.43.07-.51-.29-1.04-.78-1.17-.1.52-.13,1.05-.09,1.57-.34.06-.7-.18-.8-.51-.07-.24,0-.49-.02-.73-.04-.84-1.09-1.46-1.84-1.08s-.88,1.59-.22,2.12c.26.21.59.31.82.55.82.84-.3,2.17-.28,3.34-.35.83-1.82.74-2.06-.13-.74.24-1.46-.34-2.07-.82s-1.53-.89-2.1-.37c-.5.51.17,1.54.84,1.3.71.69.2,2.15-.79,2.24.78.85,1.26,1.97,1.34,3.13-.19.31-.67.26-.96.04s-.47-.55-.76-.77c-.46-.35-1.15-.35-1.6.02s-.61,1.04-.37,1.56c-.35-.57-.88-1.02-1.49-1.28-.2.88-.32,1.98.42,2.5.5.35,1.18.26,1.76.45s1.02,1.05.5,1.37c-.29.27-.56.58-.78.92.48-.03.96.23,1.2.64-.82.17-1.67.23-2.5.17-.11.24-.21.48-.32.71.65.13,1.32.17,1.98.12.28.84.2,1.8-.22,2.58-.47-.4-.97-.81-1.58-.89s-1.32.34-1.31.96c-.38-.2-.79-.34-1.22-.4-.11.81-.09,1.63.04,2.44-.47-.47-1.43-.14-1.52.52-.12.93,1.11,1.38,2.05,1.42s2.15.21,2.34,1.13c-.84.18-1.44,1.13-1.23,1.97.69-.38,1.41.58,1.39,1.37,1.1-.95,2.37-1.7,3.73-2.22.52-.2,1.09-.36,1.63-.2s.97.75.77,1.27c-.26.65-1.15.64-1.85.62s-1.62.33-1.5,1.02c1-.25,2.08-.14,3,.33.42.21.87.5,1.32.36.34-.11.56-.45.87-.63.45-.26,1.01-.14,1.54-.12s1.15-.15,1.29-.66c.11-.42-.19-.82-.28-1.25-.12-.58.21-1.23.76-1.47s1.25-.04,1.59.44c1.17-.23,1.76-1.53,2.73-2.23,1.4-1,3.54-.69,4.71-1.94.47-.5.72-1.2,1.28-1.6s1.62-.13,1.52.55c1.25-1.28,3.66-.74,4.87-2.06.39-.43.62-1.02,1.11-1.32.42-.26.94-.25,1.44-.24.88.03,1.76.05,2.64.08.63.02,1.3.03,1.85-.28s.92-1.04.6-1.59c-.12-.21-.33-.36-.41-.59-.28-.73.83-1.3.91-2.08.12-1.27-2.25-1.38-2.49-2.62.71,0,1.4-.38,1.79-.98-1.03-.42-2.24-.4-3.25.06-.62-.22-.18-1.19.4-1.49s1.38-.66,1.28-1.3c-.38.4-1.06-.26-.91-.78s.68-.83,1.11-1.17c1.16-.93,1.73-2.39,2.24-3.78-1.12.48-2.17,1.1-3.14,1.84-.26-.65-.27-1.39-.03-2.04-.82-.12-1.65-.17-2.48-.14.08-.73.15-1.48-.09-2.17s-.88-1.3-1.61-1.24c-.24.85.25,1.7.46,2.56s-.16,2.05-1.04,2.02c-.4-.86-1.31-1.54-2.25-1.39s-1.6,1.36-1.05,2.12c-.62.41-1.54.26-2.01-.31.26-.33.72-.4,1.1-.57s.72-.65.47-.98c-.11-.15-.31-.21-.47-.3-.56-.33-.65-1.25-.15-1.67-.55.01-.98.48-1.27.95s-.54,1-1,1.3-1.24.2-1.38-.33c1.21-.54,1.65-2.31.84-3.35,0-.22-1.45.12-1.52.15.26-.25.45-.63.74-.88-1.46.34-.71-1.08-1.13-1.73-.68-1.05-2.32-.43-1.89.92Z"/>
          <path class="cls-2" d="M241.27,163.97c-.32.65-1.37,1.04-1.71.4-.16-.29-.07-.65.02-.96.23-.83.44-1.7.21-2.53s-1.06-1.55-1.89-1.35c0,.37-.02.73-.03,1.1-.71-.16-1.23-.94-1.09-1.66l-3.73-.4c.21.68-.35,1.39-1.03,1.62s-1.4.1-2.1-.03c-.53,1.09-.85,2.28-.94,3.49,1.03.1,2.05.25,3.06.46-.37.36-.72.75-.88,1.24s-.07,1.09.33,1.4c.61.48,1.52.08,2.05-.48s.93-1.29,1.63-1.63c.81-.39,1.78-.13,2.56.31.25.14.5.31.79.38.65.16,1.13-.21,1.74-.26,1-.08,1.07.09,1.96.44.59.23,2.74.95,2.54-.23-.03-.2-1.29-1.32-1.47-1.67-1.09-2.07-1.05-1.58-2.02.35Z"/>
          <path class="cls-2" d="M229.21,159.35c0,.31-.48.38-.73.2s-.4-.48-.65-.66c-.31-.22-.72-.2-1.09-.27s-.79-.3-.8-.68c0-.17.08-.36.02-.52-.09-.22-.37-.25-.61-.28-.44-.05-.87-.2-1.29-.35-.62-.22-1.24-.44-1.85-.66"/>
          <path class="cls-2" d="M218.3,157.3c-.08.78.12,1.58.55,2.24-.04.94-1.12,1.67-2.01,1.37-.38-.13-.71-.41-1.1-.5s-.91.2-.83.6c.63.36,1.36.52,1.98.91s1.11,1.13.88,1.82-1.46.81-1.61.1c1.21.76,2.51,1.37,3.87,1.79-1.09.64-2.17,1.28-3.26,1.93-.33.19-.7.56-.49.88-.5,0-1,.01-1.49.02.22.77-.16,1.67-.87,2.05-.66.36-1.48.27-2.18.52s-1.27,1.23-.7,1.73c.42.06.87.14,1.17.44s.3.91-.1,1.07c-.17.07-.35.04-.53.07-.8.16-.64,1.52.12,1.83s1.6-.07,2.32-.45,1.53-.8,2.31-.56c.73.22,1.17.94,1.54,1.6-.77-.18-1.57-.19-2.34-.02,0,.26.01.52.02.78.89-.1,1.82.11,2.57.59-.47.03-.92.33-1.12.76.43.08.86.15,1.29.23-.39.6-1.23.86-1.89.58.5,1.28,1.26,2.46,2.23,3.44-.48.16-.95.32-1.43.48.35.44.62.94.79,1.47-.98.76-1.06,2.41-.17,3.27.77.2,1.32,1.04,1.19,1.83.56-.13,1.16-.26,1.69-.06s.92.89.61,1.37c-1.51.13-2.76,1.65-2.59,3.16,1.34-.65,2.68-1.3,4.02-1.95.21-.1.43-.21.57-.39.54-.71-.42-1.63-.46-2.52-.04-1.06,1.22-1.8,1.25-2.85,0-.31-.1-.65.05-.93.41-.74,1.68.13,2.36-.37.1.28.2.57.3.85.43,0,.86,0,1.29.01.23-1.14.46-2.27.68-3.41.05-.25.1-.51.26-.71.3-.37.84-.41,1.24-.67s.46-1.06-.02-1.06c1.05-.41,2.2-.55,3.32-.4.32-.88-.76-1.89-1.62-1.51,0-.31,0-.63,0-.94.41-.53,1.16.22,1.8.4.76.21,1.55-.63,1.38-1.41s-1.09-1.23-1.85-1.03c-.36.1-.72.31-1.08.22-.84-.21-.62-1.62-1.34-2.09-.53.7-1.06,1.41-1.59,2.11-.24.19-.61-.05-.69-.34s-.01-.61-.03-.91c-.05-.71-.64-1.3-1.3-1.56s-1.4-.26-2.11-.26c-.28.61-.55,1.22-.83,1.83-.27.18-.63.22-.94.12-.85-.81.88-2.69-.16-3.24-.29-.15-.68-.08-.91-.31-.36-.37.1-.95.52-1.26.54-.39,1.13-.79,1.79-.79s1.36.61,1.18,1.25c1.06.04,2.05.76,2.43,1.75.3.05.54-.29.52-.59s-.2-.56-.36-.82c-.43-.73-.61-1.67-.25-2.43s1.37-1.24,2.11-.82c.02-.41.05-.83.07-1.24.27,0,.55-.01.82-.02"/>
          <path class="cls-2" d="M189.58,215.61c.03.29-.01.58.05.86.08.35.33.64.57.92.28.33.58.66.97.85s.9.2,1.22-.1c.52-.49.21-1.34.26-2.05.06-.82.65-1.49,1.28-2.03.99-.84,2.64-1.99,1.97-3.52-.51-1.17-2.27-1.6-3.37-1.23-1.36.45-2.44,1.98-3.3,3.03-1.73,2.1.14,1.33.36,3.27Z"/>
          <path class="cls-2" d="M183.43,217.98c-.1.71-.07,1.49-.5,2.07.88.09,1.57-.71,2.08-1.44.66-.93,4.18-4.55,1.79-4.57-1.69-.01-3.16,2.54-3.37,3.94Z"/>
          <path class="cls-2" d="M202.14,205.41c1.31-.57,2.78-.88,4.19-.63-.25.98.23,2.1,1.11,2.61.28.16.6.26.86.46s.45.53.36.84c-.11.36-.55.5-.92.59-.65.15-1.31.3-1.96.45-.32.07-.7.19-.8.5-.05.14-.03.3-.02.45.04.85-.46,1.71-1.21,2.1-.06.22-.4.24-.57.08s-.21-.41-.26-.63c-.18-.73-.6-1.38-1.07-1.98-.42-.53-2.76-2.26-2.76-2.8,0-.76,2.45-1.76,3.06-2.02Z"/>
          <path class="cls-2" d="M187.62,223.97c-.08.21-.14.47,0,.64.16.19.47.14.7.24.34.15.44.58.49.95.08.55.16,1.11.24,1.66.03.22.07.45.19.63.2.3.59.41.95.44.61.06,1.23-.05,1.84-.03s1.27.18,1.67.64c.09.11.17.23.29.3.29.17.68-.08.79-.4s.02-.67-.07-.99-.17-.67-.06-.99c.1-.3.36-.52.54-.77.47-.64.46-1.5.44-2.3,0-.33-.03-.68-.23-.94-.23-.3-.65-.39-1.02-.48-2.68-.68-5.49-2.03-6.78,1.4Z"/>
          <path class="cls-2" d="M238.73,188.07c.36.05.72.1,1.08.16.1.01.2.03.28.09.34.27-.22.78-.16,1.21.04.31.41.46.72.49s.65-.02.92.15c.37.22.45.72.4,1.15s-.17.86-.06,1.28c.67-2.44,7.4-4.57,3.78-7.82-1.18-1.06-3.44-.71-4.83-.38-.82.19-1.92.45-2.23,1.36-.07.21.43,2.37.1,2.32Z"/>
          <path class="cls-2" d="M238.99,199.45c-.25.93-.59,2.08-1.54,2.25-.76-1.81-3.13-2.38-5.06-2.03-.66.12-1.31.31-1.92.58-.44.55-.23,1.5.4,1.81.29.14.62.16.93.26.84.27,1.41,1.21,1.27,2.08-.63-.34-1.35-.65-2.06-.51s-1.31.94-1,1.59c-1.34.15-2.57.78-3.77,1.41-.93.48-1.99,1.21-1.9,2.24.57.04,1.14.08,1.7.11-.31.81.14,1.75.83,2.26s1.57.71,2.41.89c1.05.22,2.09.44,3.14.66-.05-1.3.16-2.61.63-3.82.25-.63.56-1.28.5-1.95s-.72-1.35-1.36-1.12c1.04-.82,2.35-1.3,3.67-1.35,1.73-.06,3.4.6,5.01,1.24-.25-1.32-.68-2.6-1.27-3.8,1.19-.34,2.38-.67,3.57-1.01.37-.1.74-.21,1.05-.44.83-.61.87-1.81.84-2.84-2.19-.1-5.38-1.31-6.08,1.5Z"/>
          <path class="cls-2" d="M247.29,200.38c-.25.65-.36,1.36-.74,1.94-.37.57-.95.96-1.37,1.48s-.66,1.33-.23,1.86c.14.17.33.29.5.41,1.39.96,2.39,2.47,2.74,4.13,1.73-1.63,3.46-3.25,5.2-4.88.34-.32.69-.66.84-1.1s0-1.02-.42-1.21c.39.03.77.06,1.16.09.73.93-.62,2.52.18,3.39.31.33.82.38,1.17.67,1.12.91.02,3.4,1.39,3.83-.22-1.17.36-2.46,1.39-3.06.35-.21.76-.35,1.05-.63.28-.27.44-.65.63-.99.56-.98,1.46-1.72,2.21-2.56s1.39-1.93,1.21-3.05c.23.44.46.88.69,1.32.7-.72,1.72-1.12,2.72-1.09,1-1.33,1.65-2.92,1.87-4.57-1.34-.39-2.73-.65-4.12-.78-.99-.09-2.03-.11-2.94.29-1.62.71-2.48,2.79-1.83,4.43-1.46-.36-3.04-.23-4.41.38.46-1.26-.88-2.51-2.2-2.75-2.64-.47-5.6-.42-6.71,2.44Z"/>
          <path class="cls-2" d="M237.78,212.71c-.97-.03-1.95-.18-2.88.09-.47.14-.9.38-1.36.55-1.1.39-2.31.33-3.47.53s-2.38.82-2.71,1.94c1.25.38,2.49.76,3.74,1.14-.5.4-.27,1.36.35,1.5,1.06-1.72,2.67-3.1,4.55-3.86.02.44.05.87.07,1.31,1.59-.67,3.34-.93,5.05-.76-1.07.49-2.05,1.17-2.89,2,.65-.29,1.27.51,1.37,1.21s.02,1.51.52,2.02c.22.23.53.36.76.59.5.51.44,1.32.58,2.02s.83,1.46,1.45,1.12c1.5-2.46,3-4.92,4.5-7.37.33-.54.62-1.35.11-1.73.38,0,.71-.38.64-.75-1.54.24-3.17-.16-4.43-1.07,1.65-.08,3.29-.4,4.85-.93.53,1.02,1.45,1.78,2.34,2.51.77.63,1.67,1.29,2.65,1.15s1.63-1.64.77-2.14c1.37-1.58,1.49-3.84,1.55-5.93.03-1.04-8.16,2.69-8.7,2.88-2.88,1.03-6.36,2.07-9.42,1.99Z"/>
          <path class="cls-2" d="M233.48,225.99c-.22.51-.38,1.21.09,1.5.31.19.74.08,1.05.28.27.17.34.52.45.82.34.93,1.29,1.6,2.28,1.62.47,0,.97-.12,1.41.05.25.09.46.27.69.41.9.54,2.16.41,2.93-.32.26-.25.48-.61.36-.95-.06-.18-.2-.32-.31-.48-.95-1.32.25-3.43-.78-4.69-.19-.23-.44-.41-.61-.66-1.06-1.6-1.74-2.99-3.83-2-1.9.9-2.94,2.57-3.74,4.42Z"/>
          <path class="cls-2" d="M203.35,221.87c-.57.42-1.22,1.12-.86,1.73.35.6,1.47.62,1.5,1.31,0,.19-.08.38,0,.55.11.24.45.24.71.2,2.11-.34,4.18-.87,6.19-1.6.2-.07.4-.15.54-.31.22-.26.19-.63.24-.97.33-2.2,2.72-.79,2.71-2.97,0-1.5-.74-2.87-2.3-3.11-1.41-.21-2.78.63-3.73,1.58-1.56,1.55-3.21,2.29-5,3.59Z"/>
          <path class="cls-2" d="M226.95,204.69c-.8-.4-1.71.22-2.39.8-1,.86-2.01,1.72-3.01,2.57-.31.27-.63.53-.99.71-.39.19-.83.26-1.26.34-1.48.25-2.98.5-4.31,1.2-1.32.7-2.46,1.94-2.63,3.42-.03.29-.02.6.15.83s.56.31.75.08c-.06.27,0,.56.18.77,1.03-.79,1.86-1.83,2.85-2.67s2.24-1.53,3.54-1.39c.46,1.31.33,2.81-.36,4.01-.46.8-1.17,1.72-.71,2.53.39.67,1.58.6,1.87-.12-.04.52-.09,1.03-.13,1.55,1.23-.53,1.97-1.78,2.88-2.77.91-.99,2.41-1.77,3.56-1.07"/>
          <path class="cls-2" d="M246.24,219.62l-.27.38c.88.26,1.92-.62,2.66-.08.2.15.34.39.58.49.2.08.43.05.64.04.99-.02,1.92.83,1.98,1.82.23-.11.54.08.55.33-.57.17-1.14.34-1.7.51-.46.14-.93.28-1.31.58-.27.22-.48.51-.7.78-.74.95-1.65,1.78-2.65,2.44-.05-.7-.46-1.36-1.06-1.72-.5-.3-1.16-.43-1.44-.94"/>
          <path class="cls-2" d="M272.26,212.12c.57.44,1.31.58,2.02.71.36.07.75.15.99.42.13.15.21.33.3.51.48.97,1.42,1.71,2.48,1.96-1.39.21-2.8.42-4.19.24s-2.79-.82-3.58-1.98c-.44-.64-1.31-2.45-.55-3.12.96-.84,1.9.75,2.54,1.25Z"/>
          <path class="cls-2" d="M211.49,230.91c.05-.27-.36-.34-.63-.32-.76.08-1.54-.01-2.27-.26-.11-.04-.24-.09-.29-.2-.05-.11,0-.24.04-.35.63-1.52,1.31-3.12,2.64-4.08.63-.45,1.37-.74,2.14-.82,1.85,1.12,3.91,4.43,3.14,6.45"/>
          <path class="cls-2" d="M237.89,146.86c0,2.13,0,4.26,0,6.4,0,.65,0,1.32-.21,1.93-.18.54-.53,1.04-.61,1.6-.08.53.07,1.12-.21,1.57.07,0-1.04-.05-1.1-.07s-.09-.09-.1-.16c-.63-3.16-1.12-6.34-1.47-9.54-.05-.47-.12-.99-.45-1.33.05,0-.9.84-.85.84.57,1.2.93,2.45,1.31,3.73.14.48.27.97.32,1.47.05.55,0,1.1.02,1.65.01,1.16.26,2.32.71,3.39-.64-.41-1.53-.8-1.9-1.46-1.37-2.41-3.57-4.35-6.14-5.39.37-.21.82-.27,1.24-.17,1.59.38,1.46,1.94,2.55,3.16s1.82,2.73,2.36,4.28"/>
          <path class="cls-2" d="M238.12,165.31c.28,1.49.56,2.98.85,4.47.31,1.63.62,3.27.72,4.93.05.76.05,1.52.21,2.26.15.7.42,1.36.62,2.05.22.76.34,1.54.43,2.32.09.86.13,1.72.17,2.59,0,.1,0,.22-.1.25s-.13-.18-.04-.14"/>
          <path class="cls-2" d="M236.9,164.79c.26,1.42.53,2.83.79,4.25.2,1.06.39,2.13.5,3.2.1,1,.12,2.01.22,3.01.3,3.07,1.32,6.07,1.29,9.15"/>
          <path class="cls-2" d="M242.74,166.08c-.7,2.21-.22,4.6-.21,6.92,0,.33,0,.66-.12.97-.1.29-.29.55-.46.81-.59.88-1.06,1.84-1.39,2.84"/>
          <path class="cls-2" d="M234.87,178.03c1.11-.08,2.18.39,3.2.84.39.18.82.39,1,.78"/>
          <path class="cls-2" d="M231.03,181.69c1.69-.39,3.47-.52,5.17-.15.64.14,1.27.35,1.93.32.31-.01.65-.07.92.08.21.12.35.34.53.5s.48.26.66.1c-.16,0-.32.01-.48.02"/>
          <path class="cls-2" d="M232.88,180.5c.43-.04.84.16,1.23.36.84.44,1.68.88,2.52,1.32.34.18.69.37.99.62.39.33.69.77,1.12,1.04.36.22.84.37.95.78"/>
          <path class="cls-2" d="M241.81,183.63c.71-.54,1.46-1.77,2.29-1.99.94-.25,2.46.43,3.25.88.46.27.94.76.74,1.25-.68.15-1.17.87-1.07,1.56.85.88,1.96,1.51,3.15,1.77,1.2.27,2.52.2,3.58.82.31.18.65.42.98.3-.11-.43-.22-.86-.33-1.29-.03-.12-.06-.25-.11-.37-.35-.92-1.35-1.39-2.26-1.77-.28-.12-.57-.24-.85-.35-.58-.24-1.21-.48-1.81-.32.29-.69.99-1.19,1.74-1.22.38-.02.78.08,1.15-.04s.68-.57.45-.88c-.12-.16-.33-.22-.52-.27-.76-.18-1.52-.37-2.29-.55-.22-.05-.44-.1-.66-.07-.44.07-.99.45-1.25.09-.12-.17-.08-.44-.24-.58-.11-.1-.28-.1-.43-.09l-1.55.09"/>
          <path class="cls-2" d="M240.67,191.13c-.5.2-.8.69-1.23,1.02s-1.16.42-1.4-.06c-.08-.15-.08-.34-.19-.47-.31-.37-.9.08-1.37,0-.44-.09-.67-.64-1.11-.71-.33-.05-.62.18-.9.37s-.66.33-.92.12c.01.48-.07,1.08-.52,1.22-.37.11-.8-.16-1.12.05-.31.21-.23.69-.02,1s.5.59.54.96c.04.45-.32.82-.59,1.19s-.43.95-.07,1.22c.11.09.27.13.36.24.15.19.05.47-.09.67s-.33.39-.35.63.29.49.46.32c.06.26.11.53.17.79"/>
          <path class="cls-2" d="M246.47,188.86l-.13,2.03c.47.39,1.15-.11,1.49-.61s.77-1.13,1.37-1.03c.32.05.57.31.86.44s.76.02.76-.3c.21-.16.53-.07.73.11s.34.41.52.6c.68.69,1.8.57,2.76.72.17.03.35.07.46.19.09.1.12.23.18.34.2.35.65.45,1.05.45s.81-.07,1.19.06.68.58.49.93c-.14.25-.46.33-.7.48s-.44.52-.23.7c.62-.13,1.24-.22,1.88-.26.95-.06,2.08.09,2.57.91.23.39.27.87.3,1.32"/>
          <path class="cls-2" d="M242.52,191.77c-.15,1.07-.3,2.16-.04,3.21.21.85.7,1.65.66,2.52,0,.05-.02.12-.07.13s-.04-.1,0-.07"/>
          <path class="cls-2" d="M240.86,190.21c-.11,1.41-.2,2.89.37,4.19.13.29.28.56.37.87.17.59.04,1.24.26,1.81"/>
          <path class="cls-2" d="M244.02,201.18c-.09.93-.18,1.87-.05,2.79.12.87.41,1.7.59,2.55.32,1.54.25,3.12.18,4.69,0,.08-.01.16-.08.21s-.17-.04-.13-.1"/>
          <path class="cls-2" d="M242.29,201.65c.33,0,.4.46.37.79-.1,1.42.06,2.84.22,4.25.2,1.72.39,3.44.59,5.16"/>
          <path class="cls-2" d="M246.63,226.37c-.01.74-.02,1.48-.03,2.22,0,.53-.01,1.07.14,1.57.11.36.3.72.23,1.09"/>
          <path class="cls-2" d="M244.66,224.96c-.18,1.38.01,2.78.21,4.17.1.69.19,1.37.29,2.06"/>
          <path class="cls-2" d="M253.07,218.01c.06.32.24.62.5.82,0,.42.3.77.6,1.07.99,1.02,2.07,2.08,3.46,2.37.32.07.66.09.98.19.31.1.6.27.88.43.98.55,2.05.98,3.16,1.09.4.04.82.05,1.15.27s.49.75.19,1.02c.17-.96.35-1.91.52-2.87.03-.18.07-.37.02-.55-.07-.26-.29-.44-.49-.61-1.52-1.24-3.04-2.48-4.56-3.71-.56-.45-1.12-.91-1.78-1.18-1.52-.62-3.98.09-4.63,1.67Z"/>
          <path class="cls-2" d="M247.37,227.96c1.23-1.25,2.47-2.5,3.7-3.75.49-.5.98-1,1.52-1.44.71-.58,1.5-1.07,2.34-1.44"/>
          <path class="cls-2" d="M259.48,217.2c1.93-.78,3.63-2.11,4.85-3.79.59-.81,1.08-1.78.97-2.77"/>
          <path class="cls-2" d="M269.84,199.02c.8-.15,1.67.14,2.21.75.21.24.38.53.64.72.28.21.63.29.9.51.23.19.36.48.49.75.45.96.9,1.93,1.36,2.89-.2.36-.69.46-1.09.39s-.78-.27-1.18-.38c-.88-.24-1.81-.01-2.68.24-.19.05-.39.11-.58.06-.36-.1-.65-.59-.99-.43.22.48-.02,1.04-.25,1.52-.2.41-.43.84-.83,1.06-.21.12-.47.17-.63.35-.23.25-.18.64-.19.98-.02,1.17-.9,2.27-2.04,2.53-.61.14-1.3.07-1.83.42-.4.26-.63.7-.95,1.05-.48.51-1.18.78-1.87.82-1.32.06-2.67-.86-2.95-2.15"/>
          <path class="cls-2" d="M262.88,215.39c.9-.32,1.68-.9,2.44-1.48.66-.5,1.33-1.01,1.99-1.51.55-.42,1.11-.85,1.56-1.38.12-.14.24-.29.4-.37s.4-.05.49.11"/>
          <path class="cls-2" d="M237.66,221.21c.22-1.34.93-2.54,1.29-3.84"/>
          <path class="cls-2" d="M242.43,207.05c-.5-.22-1.07,0-1.57.23-1.15.54-2.28,1.11-3.39,1.73-.59.33-1.18.68-1.67,1.15-.42.41-.75.9-1.08,1.38-.41.61-.83,1.23-1.24,1.84"/>
          <path class="cls-2" d="M239.07,208.96c-.1-.38-.33-.72-.55-1.04-.61-.87-1.22-1.74-1.82-2.61-.15-.21-.31-.43-.56-.49,0,.06,0,.12,0,.18"/>
          <path class="cls-2" d="M218.8,218.41c-.3.07-.34.5-.19.77s.39.49.47.79c.21.8-.89,1.35-1.04,2.16-.06.31.03.63-.04.93-.16.69-1.11,1.2-.87,1.87.07.19.22.33.33.49.29.45.23,1.04.05,1.55s-.47.97-.61,1.48c.84.19,1.91.3,2.37-.43.17-.27.21-.6.3-.91.18-.61.58-1.16,1.11-1.51.2-.13.43-.25.57-.45.21-.31.14-.72.14-1.1.02-1.1.9-2.13,1.99-2.31,1.19-.2,2.45.5,3.58.07-.1-.58-.47-1.11-.99-1.4l-1.83-.92c.28-.42.53-1.23.95-1.51.1-.07.2-.13.28-.22.06-.07.09-.15.13-.23.32-.73.55-1.51.66-2.3.06.12.13.25.19.37"/>
          <path class="cls-2" d="M213.81,211l-.54-.44c-.13-.11-.26-.21-.41-.27-.22-.09-.45-.07-.69-.08-1.51-.06-2.92-1.03-4.42-.86"/>
          <path class="cls-2" d="M201.22,209.67c-1.97.51-3.9,1.17-5.77,1.98"/>
          <path class="cls-2" d="M199.22,208.23c-.77.19-1.51.47-2.25.74-.54.2-1.09.41-1.5.81"/>
          <path class="cls-2" d="M188.25,214.22l-.42.66"/>
          <path class="cls-2" d="M189.8,221.78c.25-.55.73-.99,1.3-1.18.27-.09.56-.12.83-.23.23-.09.43-.22.64-.34,1.79-.95,2.32-.06,3.35,1.3,2.19,2.91,3.62,6.39,4.08,10"/>
          <path class="cls-2" d="M214.61,220.93c-.11.19-.04.44.1.62s.33.29.52.41c.81.53,1.51,1.22,2.05,2.02"/>
          <path class="cls-2" d="M221.25,224.62c.35.75.06,1.63-.02,2.46-.13,1.32.3,2.64.27,3.96"/>
          <path class="cls-2" d="M220.31,225.61c.1.93.58,1.8.56,2.73,0,.22-.04.44-.07.66-.12.79-.24,1.58-.35,2.37"/>
          <path class="cls-2" d="M212.9,225.21c-.15-.03-.27-.14-.32-.28.66-.37,1.51-.07,2.1.4s1.05,1.1,1.69,1.51c.42.27.46.24.94.36.05.01.1.03.1.08s-.1.01-.06-.01"/>
          <path class="cls-2" d="M231.89,199.07c-1.82-1.49-4.34-1.72-6.69-1.76"/>
          <path class="cls-2" d="M230.66,167.05c1.19,1.72,2.75,3.19,4.54,4.28.41.25.84.48,1.17.84.31.34.51.76.7,1.18.47,1.03.94,2.06,1.41,3.09"/>
        </g>
        <g>
          <path class="cls-2" d="M130.17,87.5c-.37.13-.7-.25-.99-.51-.9-.82-2.38-.7-3.33-1.46-.2-.16-.37-.35-.6-.46s-.55-.07-.68.15c-.2.34.22.84-.03,1.15-.68.06-1.54.01-1.8-.62-.07-.16-.08-.34-.11-.52-.19-.95-1.1-1.71-2.08-1.72-.35,0-.8.33-.58.6.06.07.15.11.23.14.92.39,1.62,1.24,1.82,2.22-.12.19-.44.09-.58-.08s-.25-.41-.46-.5c-.17-.07-.36-.02-.53-.05-.77-.14-.67-1.41-1.34-1.83-.34-.21-.77-.14-1.17-.16s-.88-.23-.89-.63c0-.2.11-.43-.02-.59-.12-.15-.37-.09-.5.05s-.17.34-.24.52c-.38.94-1.51,1.26-2.5,1.46-1.01-.56-1.03-1.98-.9-3.13.04-.33.06-.71-.17-.95-.12-.12-.28-.18-.44-.24-.36-.13-.72-.26-1.09-.4-.2-.07-.44-.14-.61-.01-.23.18-.12.55.05.78s.42.46.4.75c-.03.44-.65.72-.59,1.16.36.09.59.44.78.76.36.61.73,1.22,1.09,1.83.08.13.16.27.29.36.36.25.84.02,1.21-.21.37.44.76,1.1.38,1.55-.13.16-.33.24-.49.36-.55.41-.61,1.2-.62,1.89-.37-.27-.75-.55-1.19-.69s-.97-.09-1.3.22c-.23.21-.35.53-.61.71-.33.23-.77.17-1.17.15s-.88.08-1.03.45c.14.24.44.34.67.5s.4.51.2.71c-.21.21-.62.02-.84.23-.11.11-.13.29-.26.38-.18.12-.41-.02-.61-.11-.75-.31-1.53.33-2.31.56-.36.11-.76.13-1.09.32s-.54.66-.31.95c1.07-.39,2.21-.56,3.34-.51.16,0,.32.02.47.09.16.07.29.21.41.35.67.78,1.16,1.72,1.42,2.71.67.1,1.1.99,1.76.88.36-.06.63-.41.99-.4.29,0,.51.24.72.45,1.02,1.02,2.39,1.69,3.83,1.86.2-.4.02-.9-.31-1.2s-.76-.45-1.18-.59c.35-.34.85-.53,1.34-.51-.24-.74-1.32-.68-1.97-1.11-.19-.13-.36-.32-.36-.55s.21-.46.43-.41c-.15-.44-.55-.73-.92-1.02s-.75-.62-.83-1.08.33-1,.77-.86c.14.04.25.14.39.17.76.17.79-1.53,1.57-1.47.15.01.28.09.41.18.51.33,1.02.66,1.53.99.14-.51.57-.92,1.09-1.05.34-.08.69-.04,1.04,0,.58.06,1.21.15,1.6.59.15.17.25.37.34.57.18.37.36.74.53,1.11.64.2,1.39-.03,1.81-.55.09-.11.18-.24.32-.25.2-.01.31.22.4.4.3.6,1.03.96,1.69.84-.15-.02-.3-.04-.44-.06"/>
          <path class="cls-2" d="M104.8,96.77c-.3.07-.61.09-.92.07-.08.54.1,1.23-.34,1.55-.15.11-.33.14-.51.18-.53.12-1.06.3-1.48.65s-.7.9-.61,1.44c-.12.23-.47-.05-.73,0-.15.02-.25.16-.35.27-.36.39-.91.59-1.44.52.3-.31.59-.63.89-.94-.38-.15-.74-.38-1.03-.66-.09.58-.78.82-1.35.94-.58.13-1.15.25-1.73.38-.54.12-1.22.42-1.15.97,1.02.04,2.04.2,3.03.49.13.04.27.09.32.21.08.2-.17.4-.39.39s-.41-.14-.62-.19c-.66-.16-1.32.65-1.04,1.26-.24.07-.45.26-.55.49.5-.16,1.01-.33,1.51-.49.15-.05.32-.1.46-.02.12.07.17.21.22.34.22.65.44,1.3.66,1.94.12.36.48.81.79.59-.03.33.26.61.57.7s.65.04.97-.02c.23-.81-.52-1.74-.08-2.45.24-.39.76-.51,1.21-.42s.83.35,1.21.61c.21.14.44.35.4.6.87-.09,1.69-.56,2.21-1.26.62-.02,1.25.19,1.73.57-.05-.88-.1-1.75-.03-2.63.03-.36.08-.74.28-1.04s.59-.51.93-.4c.17.06.31.18.49.2.23.03.44-.11.66-.2.98-.39,2.22.44,3.09-.15.56-.38.68-1.16,1.15-1.65-.53-.47-.98-1.02-1.34-1.63-.07-.12-.14-.25-.26-.33-.27-.19-.64-.07-.94.05-.78.32-1.57.65-2.35.97-.43.18-.88.35-1.33.28s-.89-.49-.79-.94c.17-.13.35-.26.52-.39-.16.12-.64-.84-.64-.98-.01-.52.33-.66.69-.94.53-.41.94-.64.37-1.25-.34-.36-1.14-.57-1.6-.34-.81.4-.73,1.88-.74,2.64Z"/>
          <path class="cls-2" d="M96.67,112.07c-.34.27-.72.5-1.13.66.15.36.17.78.06,1.16.22.09.47.11.7.06,0,.18-.2.29-.37.34-.7.24-1.4.48-2.1.73-.14.05-.27.09-.41.14-.39.14-.79.27-1.16.46-.26.13-.51.29-.62.56-.05.12-.06.26-.08.39-.03.32-.06.64-.09.96-.01.12-.02.26.05.36.15.23.5.1.77.09.86-.04,1.21,1.13,1.96,1.54.28.15.61.2.84.42.34.34.29.94.62,1.29.43.46,1.17.23,1.76.02.68-.24,1.38-.41,2.09-.5.43-.06.99,0,1.09.42.03.13,0,.28.06.4.1.23.41.25.66.25.47,0,.94-.02,1.38-.19s.82-.54.88-1c.22.02.45.04.67.06-.19-.47.06-1.04-.18-1.48-.32-.59-1.36-.72-1.33-1.39.02-.42.54-.67.95-.57s.72.44.99.75c.27.31.73.65,1.04.38.33-.28.01-.83-.38-1s-.87-.19-1.18-.49c.06-.24.09-.56-.13-.69-.13-.08-.3-.04-.45-.05-.41-.01-.76-.33-.94-.7s-.21-.79-.25-1.2c.55.02,1.12.05,1.58.36.39.27.71.74,1.18.72.26-.35.02-.88-.36-1.08s-.84-.16-1.27-.12c.04-.58-.63-.91-1.17-1.11s-1.18-.64-1.02-1.2c.16-.52-2.66-1.2-3.03-1.17-.89.09-2.24.3-1.69,1.43Z"/>
          <path class="cls-2" d="M142.42,118.02c-.67-.61-1.9.54-2.59-.05-.1-.08-.17-.19-.29-.23-.18-.07-.38.05-.55.15-.73.4-1.6.42-2.44.42-.25-.49-.99-.22-1.53-.28-.77-.08-1.27-.94-2.03-1.1-.37-.07-.8.01-1.09-.22-.17-.14-.24-.35-.4-.5-.47-.46-1.35-.1-1.84-.54-.35-.31-.34-.89-.67-1.2-.4-.38-1.09-.22-1.55-.53-.14-.09-.25-.22-.4-.29-.52-.24-1.03.42-1.6.48-.11-.78-1.05-1.32-1.78-1.01-.03-.42.15-.81.29-1.2s.26-.83.11-1.22-.66-.65-1-.41c.12-.7-.06-1.44-.48-2.01"/>
          <path class="cls-2" d="M120.82,98.48l-3.1.43c-.12.02-.26.04-.34.13-.1.12-.08.29-.05.45.14.76.27,1.53.41,2.29-.4,0-.82-.01-1.19.17s-.64.6-.51.98c.05.16.17.3.15.46-.03.41-.7.38-.93.72-.12.18-.09.43-.22.6-.21.28-.66.17-.98.31-.34.15-.49.56-.79.78-.38.28-.9.2-1.36.28s-.94.58-.67.97c.24-.15.55.09.65.36s.09.57.23.82c.26.45.86.52,1.36.67s1.02.67.75,1.11c.48.06.98.12,1.41.36s.76.7.7,1.19c-.51-.18-1.09.39-.94.9-.83.6-2.1-.99-2.87-.32.32-.41.31-1.05-.04-1.44s-.98-.48-1.42-.21c.54.48.71,1.32.42,1.97-.32.11-.58-.26-.87-.43-.31-.18-.78-.11-.95.21s.09.8.45.76c-.4-.02-.79-.04-1.19-.06-.03.52.65.72,1.17.76s1.2.29,1.11.8c-.45-.27-1.09-.14-1.4.28s-.24,1.07.15,1.42c.38.34,1.03.42,1.21.9.17.43-.11,1.07.29,1.31.12.08.28.08.42.12.3.09.54.38.57.69.29.23.75-.09.8-.46s-.14-.72-.29-1.06-.25-.76-.04-1.07c.35-.51,1.29-.36,1.54-.93.33-.15.71.21.73.58s-.21.69-.42.99c.45.16.9.31,1.34.47-.31.36.27.85.74.85s1.03-.14,1.35.21c.13.15.19.35.32.5.3.34.85.26,1.26.08s.82-.45,1.27-.4c0-.21,0-.42,0-.62.24-.1.49-.19.73-.29.26.4.53.83.53,1.3s-.38.99-.85.93c-.4-.05-.84-.44-1.12-.15-.08.08-.11.2-.14.31-.14.6-.28,1.2-.42,1.79-.24.05-.45.24-.53.48.57-.24,1.29-.05,1.66.44.37.49.37,1.23-.01,1.72.37.02.74.04,1.1.05.13.36.21.74.22,1.12-.44.06-.87.15-1.3.27-.11.2.27.23.49.2.51-.07.92.43,1.07.92s.14,1.03.37,1.48.85.79,1.25.47c.54,1.06,1.78,1.71,2.96,1.53.54.86,1.22,1.62,1.9,2.37.19.21.37.41.56.62.47.52.94,1.04,1.52,1.43"/>
          <path class="cls-2" d="M134.29,126.22c-.22-.19-.1-.55.08-.77s.42-.45.4-.74c-.02-.29-.32-.51-.33-.8,0-.27.23-.51.18-.78-.05-.3-.41-.42-.58-.66-.08-.11-.12-.24-.19-.35-.24-.36-.81-.38-1.14-.11s-.43.76-.33,1.18c.04.17.11.34.04.5-.05.12-.16.21-.25.3-.44.42-.58,1.06-.75,1.64s-.41,1.22-.95,1.5c-.1.05-.21.09-.27.18-.18.24.12.57.41.63s.62,0,.87.15c.31.18.44.64.79.71.06.01.14,0,.17-.05s-.06-.13-.09-.08"/>
          <path class="cls-2" d="M108.8,124.84c-.42.46-.35,1.26.13,1.66.22.18.51.28.79.27,0,.46-.43.87-.89.85s-.85-.48-.8-.93c0-.09.03-.19-.01-.27-.05-.1-.18-.12-.28-.13-.57-.08-1.13-.15-1.7-.23-.1-.01-.21-.03-.31.01-.28.11-.25.54-.04.76s.51.32.74.52.34.6.11.78c-.21.16-.5.04-.76,0-.58-.11-1.21.28-1.38.84.24.03.48.06.73.1-.12.38-.7.42-.98.14s-.35-.7-.34-1.1c.52-.37.7-1.13.46-1.73s-.82-1.02-1.45-1.13c-.29-.05-.62-.03-.84.15s-.29.59-.06.77c.19.15.49.12.64.31.26.32-.24.74-.25,1.15,0,.26.19.47.31.69s.15.57-.08.68c-.71-.92-1.88-1.45-3.04-1.4-.13.64-.1,1.31.09,1.93-.69-.06-1.4.4-1.62,1.06,1.7.1,3.4.09,5.09-.03.07.54-.66.78-1.21.82-.5.04-1.01.07-1.51.11-.39.03-.8.06-1.11.3s-.45.74-.18,1.01c.93-.11,1.86-.22,2.8-.33.42-.05.96-.02,1.09.38-.28.16-.59.27-.91.32-.14.34.29.77.07,1.06-.11.14-.32.15-.5.16-.59.02-1.17.16-1.71.4-.12.06-.25.12-.31.24-.14.25.11.58.39.64s.57-.05.85-.14c1.3-.39,2.76-.21,3.91.5.19.11.36.42.16.51.17.01.33.03.5.04-.29-.15-.66-.2-.93-.03s-.4.59-.19.84l1.96-.11c.11,0,.22-.01.32.03.15.07.24.23.34.36.58.71,1.74.45,2.54.9.33.18.77.47,1,.18.11-.15.08-.35.08-.54,0-.5.36-.99.84-1.14s1.05.03,1.35.43c-.05.28-.16.55-.34.78.53.17.91.74,1.46.75.68,0,1.03-.8,1.2-1.46.27-.02.43.3.43.57s-.1.54-.02.8c.08.25.3.41.52.56.88.6,1.84,1.09,2.84,1.46.29.25.78.18,1.03-.11.36-.42.24-1.05.26-1.6s.44-1.23.97-1.04c.26.09.43.37.7.39.47.04.59-.72.25-1.04s-.86-.35-1.31-.49-.91-.56-.76-1.01c.41-.01.96-.19.89-.59-.02-.13-.12-.23-.2-.33-.29-.32-.6-.65-1-.84s-.91-.18-1.23.11c-.12.12-.27.29-.43.22-.12-.05-.14-.2-.15-.32-.05-.53-.09-1.06-.14-1.59-.01-.17-.03-.34.05-.5.15-.31.55-.36.89-.43s.72-.34.62-.66c-.12-.37-.69-.3-.99-.55-.37-.31-.16-.94-.39-1.35-.27-.48-.95-.48-1.5-.47-.78.02-1.63-.12-2.14-.71.25-.12.55-.13.8-.03-.1-.54-.33-1.09-.76-1.42s-1.11-.39-1.52-.02c-.06.06-2.46-3.36-3.91-1.75Z"/>
          <path class="cls-2" d="M106.92,132.17c.19.09.31.28.42.46.35.59.69,1.17,1.04,1.76.18.3.38.63.71.75.29.11.62.04.91.16.37.15.57.54.73.91-.03-.78-.05-1.57-.08-2.35,0-.07,0-.14-.04-.2-.04-.09-.14-.14-.23-.19-.55-.29-1.1-.59-1.66-.88-.16-.08-.32-.17-.45-.29-.57-.5-1.11-1.34-2.06-.91-1.09.5.29.6.69.78Z"/>
          <path class="cls-2" d="M116.01,129.97c-.37.09-.86-.14-1.1.17-.1.13-.1.3-.1.45,0,.2,0,.41,0,.61,0,.06,0,.12.03.17.1.18.37.06.58.05.36-.02.66.37,1.02.32.15-.28.24-.58.26-.9.01-.21-.03-.47-.23-.54-.21-.08-.55.05-.61-.17"/>
          <path class="cls-2" d="M128.39,122.76c-.09.11-.18.23-.31.28-.12.04-.26.03-.38.07s-.21.21-.12.3c-.88,0-1.74.52-2.13,1.31-.12.25-.22.54-.45.68-.16.1-.36.12-.55.17-.28.07-.55.25-.7.5s-.14.6.05.83c.24.29.66.3,1.04.3.4,0,.8-.01,1.19-.11.41-.1.81-.3,1.23-.31.49-.02.97.23,1.25.63.1-.72.5-1.39,1.08-1.82.27-.2.62-.42.6-.76-.01-.27-.25-.46-.42-.67-.27-.35-.33-.85-.15-1.25.14-.33.17-1.23-.36-1.24-.37,0-.67.82-.86,1.08Z"/>
          <path class="cls-2" d="M99.1,139.18c.18.45-.19.93-.58,1.23s-.85.58-.97,1.05c-.14.57.23,1.3-.22,1.68-.14.12-.34.16-.49.27-.45.32-.3,1.07-.67,1.48-.16.18-.41.28-.54.49-.21.34,0,.79-.05,1.19-.11.91-1.49,1.45-1.23,2.33.12.41.65.63,1.02.43.22.78-.89,1.49-.65,2.26.16.51.88.89.66,1.38.43.16.87.33,1.22.63s.6.76.51,1.22c1.18.05,2.15,1.29,1.93,2.45.45-.26.97.18,1.45.39.97.42,2.09-.14,3.13.03.72.12,1.34.57,2.03.81s1.62.14,1.93-.52c-.85-.04-.86-1.52-1.66-1.79-.21-.07-.44-.04-.66-.03-.59.03-1.18-.09-1.71-.34.33-.31.65-.61.98-.92.18-.17.37-.43.22-.62-.06-.09-.18-.13-.28-.16-.35-.11-.71-.21-1.06-.32.23-.29-.06-.72-.4-.87s-.74-.17-1.02-.4c-.39-.33-.33-1.06.11-1.32.13-.07.27-.11.38-.21.36-.33.04-.93.12-1.41.04-.28.22-.51.39-.73.39-.5.78-1,1.17-1.5.32-.26.82-.18,1.14.08s.49.66.61,1.06c.05.16.1.33.24.42.16.1.36.04.54-.03.44-.16.89-.31,1.33-.47.13-.39-.16-.8-.5-1.04s-.74-.38-1.03-.68-.41-.83-.1-1.1c.09-.08.21-.13.26-.23s-.02-.28-.13-.24c.47-.08.93-.16,1.4-.24.63-.11,1.34-.28,1.63-.84.18-.36.13-.83-.14-1.14-.23-.26-.59-.41-.72-.73-.07-.17-.05-.36-.07-.54-.07-.92-.97-1.69-1.88-1.62.22.96.19,1.98-.08,2.92-.16.3-.65.16-.83-.13s-.2-.65-.37-.95c-.37-.63-1.26-.71-1.63-1.34s-.09-1.5-.66-2.06c-.45-.44-1.13-.46-1.6-.18-.16.1-.07.43-.25.54-.14.09-.57.04-.75.06-.14.02-1.49.29-1.47.33Z"/>
          <path class="cls-2" d="M108.63,101.72c.37.94-.21,2.01,0,3,.15.74.73,1.33.94,2.06.13.43.12.9.25,1.33.28.9,1.14,1.63,1.09,2.58"/>
          <path class="cls-2" d="M112.38,119.59c.41.83.3,1.83.65,2.68.21.51.58.94.76,1.46.34.95.03,2.06.48,2.96"/>
          <path class="cls-2" d="M118.46,123.08l.28-.06c-.58.61-.95,1.41-1.06,2.25-.02.16-.03.32-.11.46-.1.17-.29.27-.47.34-.13.05-.27.08-.41.04-.15-.04-.26-.16-.39-.26-.61-.45-1.54-.22-2.16-.67"/>
          <path class="cls-2" d="M115.73,117.97l-.12.11c-.2.19-.41.39-.58.6-.58.69-.87,1.57-1.16,2.43-.18.54-.36,1.07-.54,1.61"/>
          <path class="cls-2" d="M128.97,110.68c-.87.68-1.55,1.6-1.95,2.63"/>
          <path class="cls-2" d="M137.43,114.6c-.5.1-.97.28-1.4.54-.12.07-.23.15-.31.27-.08.12-.1.27-.13.41-.13.67-.41,1.31-.81,1.86,0-.1-.46.09-.46,0,0,.05-.02.11-.03.16.41-.25.62-.75.63-1.23s-.15-.95-.35-1.38c-.35-.75-.83-1.44-1.43-2.02"/>
          <path class="cls-2" d="M118.54,90.6c-.1,1-.21,2-.31,3-.18,1.74-.36,3.48-.54,5.22-.04-.12-.08-.24-.12-.36"/>
          <path class="cls-2" d="M114.01,98.32c.05-.06.13.03.15.11.2.91.41,1.82.61,2.73.22.97.44,1.95.5,2.95l-.29-.15"/>
          <path class="cls-2" d="M111.72,118.63c.1,2.19-.78,4.42-.2,6.53.08-.09.02-.26-.1-.28"/>
          <path class="cls-2" d="M106.89,117.37c.02.8.05,1.59.07,2.39,0,.25.02.51.11.75.19.47.7.75.91,1.21.12.25.14.54.25.79.33.75,1.32,1.05,1.62,1.82-.25-.12-.5-.24-.75-.36"/>
          <path class="cls-2" d="M97.07,121.5c.52.46,1.03.93,1.44,1.49s.68,1.23.67,1.93c0,.32-.08.64-.14.96-.22,1.22-.27,2.47-.13,3.7-.06-.12-.12-.23-.18-.35"/>
          <path class="cls-2" d="M98.81,133.09h.47s.1-.01.13.02c.04.03.04.08.05.13.19,1.95-.43,4.01.28,5.83"/>
          <path class="cls-2" d="M100.85,122.11c-.02,1.27-1.6,2.09-1.65,3.37,0,.1,0,.2-.04.28s-.15.15-.24.1"/>
          <path class="cls-2" d="M107.11,105.7l.21.77c.08.31.17.63.38.87.19.22.45.35.69.5.94.6,1.55,1.59,2.13,2.54"/>
          <path class="cls-2" d="M120.84,92.04c-.93.76-1.93,1.62-2.14,2.8-.03.19-.05.4-.15.57-.11.19-.32.3-.5.43s-.34.33-.32.54"/>
          <path class="cls-2" d="M127.37,123.79c.79.46,1.36,1.27,1.52,2.17"/>
          <path class="cls-2" d="M128.05,132c-.06-.02.02-.12.07-.09s.05.11.04.18c-.22,1.11-1.42,1.72-2.01,2.68-.3.49-.43,1.06-.56,1.61-.62,2.65-1.23,5.31-1.85,7.96"/>
          <path class="cls-2" d="M121.71,127.01c-.2.97-.14,1.97-.14,2.96,0,2.26-.34,4.51-.68,6.74"/>
          <path class="cls-2" d="M120.75,138.35c-.56,1.65-.19,3.45-.2,5.19-.01,1.68-.39,3.35-1.1,4.87.09-.19.18-.38.27-.56"/>
          <path class="cls-2" d="M124.83,130.86c.05,1.52.37,3.02.95,4.43"/>
          <path class="cls-2" d="M113.78,139.19c-.76,2.25-.72,4.68-.49,7.04.23,2.36.65,4.71.62,7.08-.06-.17-.13-.34-.19-.5"/>
          <path class="cls-2" d="M115.73,139.55c-.24,1.55-.38,3.12-.4,4.69,0,.43,0,.87-.09,1.3-.07.35-.19.69-.32,1.03-.29.79-.58,1.57-.87,2.36"/>
          <path class="cls-2" d="M108.03,148.46c.37,1.26.74,2.52,1.12,3.78.28.95.56,1.91.66,2.9.07.71.04,1.42.14,2.12.12.88.44,1.74.92,2.49.03.05.08.1.13.09s.03-.12-.02-.09"/>
          <path class="cls-2" d="M112.26,110.61c.19-.63.36-1.27.51-1.91-.23.65-.3,1.25-.51,1.91Z"/>
          <path class="cls-2" d="M114.23,109.58c-.6.67-1.15,1.39-1.63,2.15"/>
          <path class="cls-2" d="M101.95,105.27c.03.36,0,.72-.09,1.07-.03.12-.05.27.05.33.07.04.16,0,.24.04.07.04.1.12.14.19.15.27.54.31.83.2s.53-.32.81-.46c.5-.24,1.08-.21,1.63-.17.07,0,.15.01.2.06.04.04.06.1.09.14.09.15.27.21.44.26.29.08.59.16.88.25.16-.53.41-1.03.73-1.47.07-.1.15-.23.1-.34-.1-.19-.42-.03-.59-.15-.11-.08-.13-.24-.13-.37-.03-.87-.18-1.74-.45-2.57-.05.11-.1.23-.15.34"/>
          <path class="cls-2" d="M115.52,144.45c.41,1.26,1.31,2.29,2.1,3.36.33.46.66.95.75,1.5-.07-.02-.14-.04-.21-.06"/>
          <path class="cls-2" d="M129.25,134.67c-.42,1.18-1.01,2.28-1.6,3.38-.22.4-.43.81-.71,1.17-.22.29-.47.55-.73.81-.74.75-1.48,1.5-2.21,2.25"/>
          <path class="cls-2" d="M101.53,158.35c.33.7.26,1.51.48,2.25.13.42.35.8.45,1.23.1.46.05.94.04,1.41-.02.92.13,1.84.44,2.71-.09,0-.08-.49-.17-.49.23-1.13.63-2.24,1.35-3.14.33-.4.71-.76,1.09-1.12,3.58-3.52,5.75-8.21,7.69-12.84.15-.37.3-.79.11-1.14"/>
          <path class="cls-2" d="M100.53,176.05c.44,1,.88,2.01,1.32,3.01.18.42.37.85.71,1.16.28.26.64.42.96.62,1.98,1.22,3.55,3.92,5.69,4.83-.09.03.05.16.11.1s.02-.18-.02-.26c-1.66-3.38-1.55-7.43-3.24-10.8-.18-.36-.38-.71-.48-1.09-.13-.48-.09-.99-.15-1.48-.23-2-1.95-3.6-2.15-5.61"/>
          <path class="cls-2" d="M114.81,168.96l-.45.38c.6,1.06.46,2.37.35,3.58-.28,3.14-.25,6.3.1,9.44.12,1.05.27,2.13,0,3.15-.14.55-.4,1.06-.55,1.6-.16.54-.21,1.11-.27,1.68-.15,1.55-.3,3.09-.46,4.64-.01.12-.05.26-.16.28s-.11-.23-.01-.16"/>
          <path class="cls-2" d="M116.17,169.64c.05.63-.32,1.21-.48,1.82-.15.55-.13,1.12-.11,1.69.06,1.67.12,3.34.18,5.01"/>
          <path class="cls-2" d="M106.43,168.16l.23,1.41c.06.38.12.77.26,1.13.15.4.4.75.64,1.1.85,1.27,1.64,2.58,2.35,3.93-.06-.05.29-.1.23-.15-.19,3.29-.39,6.58-.58,9.87,0,.16-.06.36-.22.37"/>
          <path class="cls-2" d="M113.59,169.35c.08-.15.34-.15.41.01-.64.28-.97,1.1-.7,1.74.15.37.48.75.3,1.11-.56-.18-1.14-.37-1.73-.31s-1.19.43-1.32,1.01c-.19.05-.36-.13-.44-.31s-.09-.39-.22-.54c-.4-.47-1.46-.04-1.61-.63-.04-.17.04-.35.06-.53.08-.56-.38-1.04-.8-1.41-.62-.54-1.32-1.23-1.18-2.03-.66-.09-1.32-.23-1.96-.42.21-.4.52-.76.9-1.01-.2-1.04-.43-2.08-.68-3.11-.08-.04.09-.33.14-.41s.13-.13.21-.18c.49-.26,1.06-.38,1.62-.34.21.01.48,0,.54-.2.02-.08,0-.17,0-.25.02-.1.11-.17.18-.24.31-.3.51-.7.75-1.05.29-.42.8-.82,1.25-.6.25.12.39.38.61.54.36.25.91.16,1.16-.2-.08.06-.17.11-.25.17"/>
          <path class="cls-2" d="M106.74,178.98c.17,0,.34.01.51.02-.44-.18-.99,0-1.24.41-.13.22-.31.54-.53.42-.09-.05-.13-.15-.19-.23-.2-.25-.57-.2-.88-.22-1.03-.07-1.76-1-2.36-1.84-.41-.58-.93-1.21-1.64-1.23-.45-.01-.92.24-1.35.09-.24-.54.13-1.19.65-1.48s1.14-.3,1.73-.3c-.25-1.19-.89-2.3-1.8-3.12-.15-.13-.31-.3-.28-.49.06-.32.63-.5.47-.79-.47.03-.96.05-1.37-.17-.51-.26-.8-.9-.63-1.44s.82-.9,1.36-.71c-.3-.43-.13-1.1.33-1.35s1.11,0,1.3.48c.05-.09.38-.08.47-.03s.14.14.22.21c.48.44,1.43-.03,1.83.48-.05.05-.09.11-.14.16"/>
          <path class="cls-2" d="M118.77,170.4c.18.03.2.28.17.46-.41,2.74-1.6,5.35-3.4,7.45"/>
          <path class="cls-2" d="M120.44,171.04c-1.4,1.38-1.62,3.53-2.52,5.28-.47.92-1.15,1.76-1.45,2.75-.41,1.35-.08,2.79-.12,4.2-.08,2.31-1.17,4.49-1.22,6.8-.03,1.19.23,2.39.07,3.58-.1.79-.38,1.55-.61,2.31-.21.7-.39,1.43-.3,2.16.05.39.18.77.28,1.15.65,2.47.23,5.08-.2,7.6.03-.15.06-.29.09-.44"/>
          <path class="cls-2" d="M115.48,201.66c.27-1.55.54-3.09.81-4.64.33-1.86.65-3.73.83-5.61.15-1.57.21-3.19.88-4.62.45-.96,1.17-1.79,1.55-2.78.2-.54.3-1.1.39-1.67.33-1.95.66-3.9.86-5.87.06-.65.11-1.3.29-1.92.3-1.03.95-1.99.92-3.07.11-.15.78.73.79.91.09,1.35-.68,2.58-1.13,3.85-.34.96-.5,1.98-.65,2.99-.17,1.12-.34,2.24-.52,3.36-.12.77-.24,1.54-.49,2.27-.23.67-.56,1.3-.85,1.95-1.22,2.71-1.73,5.74-1.45,8.7"/>
          <path class="cls-2" d="M125.36,173.23c-.42,1.5-1.76,2.63-2.09,4.15-.12.54-.1,1.1-.28,1.63-.16.49-.48.91-.72,1.36-.44.82-.65,1.75-.83,2.67-.49,2.47-.82,4.98-1.37,7.44-1.29,5.79-3.76,11.43-3.66,17.37-.03-.08-.06-.15-.09-.23"/>
          <path class="cls-2" d="M110.73,175.95c-.33,5.05-.66,10.11-.99,15.16-.11,1.76-.21,3.62.58,5.2.57,1.13,1.54,2,2.49,2.83-.2-.11-.41-.21-.61-.32"/>
          <path class="cls-2" d="M113.12,193.44c.1.02.2.04.3.06-.24-.09-.49-.22-.61-.45-.07-.14-.09-.29-.11-.45-.23-2.14.14-4.34,1.06-6.28.38-.8.86-1.7.49-2.5-.52-.13-1.26-1.12-1.38-1.65-.05-.24-.05-.49-.09-.73-.05-.25-.15-.48-.25-.71-.45-1.05-.91-2.1-1.47-3.09-.15.14-.26.32-.32.52"/>
          <path class="cls-2" d="M99.97,176.55c.41,1.01.88,2,1.42,2.95.53.95,1.14,1.87,1.91,2.62,1.68,1.64,4.2,2.57,5.1,4.74.8,1.92.01,4.11.19,6.19.21,2.38,1.67,4.43,2.78,6.54.58,1.11,1.08,2.3,1.1,3.55"/>
          <path class="cls-2" d="M112.63,182.72c.43,1.14.85,2.44.32,3.54-.34.71-1.03,1.21-1.39,1.91-.37.72-.36,1.57-.22,2.36.23,1.24.77,2.41,1.05,3.64.35,1.54.27,3.17-.21,4.67"/>
          <path class="cls-2" d="M110.83,175.87c.04-.35.27-.67.58-.81.13-.06.28-.09.41-.17.32-.19.46-.61.8-.76.16-.08.36-.08.5-.2.07-.06.12-.16.16-.24.1-.2.2-.41.3-.61.05-.1.1-.24.02-.33-.05-.06-.15-.08-.17-.15,0-.04,0-.08.03-.11.21-.39.6-.65.98-.89.11-.07.22-.14.33-.21.04-.03.1-.05.14-.02s-.06.09-.05.04"/>
          <path class="cls-2" d="M116.52,208.16c-.35,1.29-.46,2.64-.59,3.97-.38,3.88-.92,7.74-1.47,11.59-.13.91-.26,1.81-.38,2.72"/>
          <path class="cls-2" d="M112.53,203.6c0,1,.01,2,.02,3,0,.44,0,.9-.21,1.28-.16.29-.44.53-.51.86-.06.26.02.52.08.78.65,2.58-.08,5.27-.36,7.91-.42,4.04.18,8.39-1.76,11.96-.24.45-.53.9-.56,1.41,0,.1-.02.22-.11.24s-.1-.18-.03-.13"/>
          <path class="cls-2" d="M113.49,231.11c-.05.15-.09.3-.14.45.1-.98.36-1.93.74-2.84,0-.02.26-.17.26-.19,0-.74-.27-1.39-.19-2.13"/>
          <path class="cls-2" d="M112.87,81.58c.79-.72,1.4-1.62,2-2.5.21-.32.43-.63.64-.95.2-.29.4-.58.53-.91.15-.36.21-.74.3-1.11.19-.81.54-1.65,1.26-2.07.4-.24.91-.34,1.21-.7.17-.2.25-.46.4-.67.32-.48.91-.69,1.37-1.05.52-.4.88-1.01.99-1.66-.73.11-1.33.61-2.02.87s-1.65.17-1.91-.52c.94-.17,1.17-1.41,1.18-2.36.02-1.61.03-3.26-.52-4.77-1.24,2.76-2.49,5.55-2.98,8.53-.09.55-.16,1.12-.42,1.62-.3.57-.83.99-1.15,1.55-.79,1.36-.3,3.38-1.51,4.38-.31-1.58-.12-3.25.54-4.71.1-.24.22-.47.27-.72.06-.32,0-.65-.06-.98-.17-1.12-.14-2.27.08-3.38-1.1,1.43-.77,3.55-1.69,5.1-.46.77-1.21,1.36-1.51,2.21-.08.23-.15.5-.37.62-.25.13-.56-.02-.74-.24s-.29-.48-.49-.69c-.88-.93-2.74.01-3.6-.93,1.11-.14,2.21-.4,3.28-.76.02.25.43.19.55-.03s.12-.5.3-.67c.16-.15.4-.16.62-.21.93-.24,1.17-1.71.38-2.24-1.23.19-2.06,1.36-3.22,1.8-.71.26-1.48.24-2.24.2-.19,0-.39-.02-.55-.11-.64-.35-.52-1.64-1.25-1.65-.01-.51.56-.84,1.06-.9s1.04.03,1.51-.18.75-.91.35-1.22c-.4.16-.8.31-1.2.47.04.09.2-.02.16-.11s-.16-.12-.26-.13c-.41-.04-.97-.25-.87-.65.06-.22.29-.32.49-.41,1-.45,1.84-1.2,2.65-1.94,1.03-.93,2.07-1.88,2.76-3.09-.24-.04-.47-.08-.71-.12.08-.65.1-1.31.08-1.96-.01-.27-.16-.64-.42-.56-.15.05-.21.23-.25.38-.47,1.68-1.75,3.11-3.36,3.77.58-1.15.91-2.41,1.23-3.66.11-.41.21-.82.32-1.23.26-1,.52-2,.63-3.03.15.08.29.16.44.24-.19-.63-.78-1.97-1.26-2.41-.44.77-1.26,1.31-2.15,1.41.62-.74,1.05-1.63,1.47-2.51.18-.37.36-.75.51-1.14.72-1.8.85-3.78.84-5.71l-1.64,3.79c-.25.58-.51,1.17-.87,1.7-.79,1.15-2.09,1.93-3.48,2.08-.34-.33-.9-.14-1.34.04s-1.06.26-1.28-.16c.55-.81,1.1-1.62,1.66-2.43.26-.38.53-.77.9-1.05.47-.35,1.12-.53,1.4-1.05.19-.35.16-.77.07-1.15-.3-1.42-1.27-2.76-.97-4.18-.54.19-.45.96-.41,1.53.06.9-.3,1.77-.64,2.6-.18.44-.38.89-.73,1.21s-.92.46-1.31.19c.32-.62-.5-1.21-.68-1.89-.11-.42.03-.86.17-1.27.33-.95.66-1.9.99-2.85.24-.7.49-1.4.7-2.11.33-1.12.59-2.26.76-3.42.06-.41.11-.85-.06-1.23-.13-.29-.38-.51-.51-.79-.55-1.15.89-2.73.05-3.7-1.15,1.78-2.33,3.69-2.35,5.81,0,.26.01.53-.09.77-.1.23-.29.4-.44.6-.85,1.15-.19,2.85-.75,4.16-.45,1.05-1.6,1.69-1.99,2.76-.37,1,.02,2.14-.25,3.17-.78-1.05-.07-2.96-1.22-3.59-.53-.29-1.39-.27-1.48-.86-.06-.41.35-.7.66-.97.83-.69,1.26-1.73,1.66-2.73.27-.68.53-1.36.78-2.05-.6.32-1.26-.43-1.34-1.11s.09-1.43-.26-2.01c-.15-.25-.38-.46-.45-.74s.23-.65.48-.5c-.2-.38-.12-.88.19-1.19s.81-.38,1.19-.18c.16-.5.22-1.03.17-1.55-.3-.04-.62.02-.88.18-.79-.97-.59-2.39-.38-3.63.35-2.14.58-4.3.66-6.47-.8,1.09-1.19,2.47-1.09,3.81.02.21.04.44-.07.62-.19.29-.6.28-.94.39-1.27.39-1.42,2.54-2.74,2.72-.31-.4.13-.93.46-1.31.39-.46.64-1.02.73-1.61.11-.77-.05-1.54-.03-2.32.03-1.72.92-3.37.76-5.09-.75,2.02-1.54,4.02-2.37,6.01-.21.5-.43,1.01-.77,1.44-.29.36-.67.65-.95,1.02s-.47.87-.3,1.3c-.12-.6-.1-1.23.04-1.83.71-2.99-.15-6.51-.15-9.58-.76,4.38-3.73,8.1-4.65,12.45-.08.36-.14.74-.35,1.05-.56.86-1.93.91-2.46,1.79.65-1.66.93-3.46.8-5.23-.06-.85-.21-1.7-.22-2.56-.04-2.35.93-4.73.31-7,.7,3.3-2.91,6.12-2.93,9.49-.27-.55-.96-.85-1.54-.67s-.99.82-.9,1.42c.35-.03.71-.05,1.06-.08.2.57.18,1.22-.06,1.77-1.04-.65-1.82-1.72-2.12-2.92-.29-1.15-.15-2.37-.35-3.54-.2-1.17-.93-2.41-2.11-2.58-.09,1.37-.18,2.74-.27,4.11-.02.34-.04.7.09,1.01.13.31.38.54.6.79,1.93,2.13,1.72,5.37,1.4,8.22-.34-.48-.68-.95-1.02-1.43-.57-.81-1.17-1.63-1.99-2.19s-1.94-.78-2.81-.32c.06.47.12.93.18,1.4.19,1.49.36,3.08-.35,4.4-.99,1.84-3.52,2.82-3.71,4.91-.57-1.76-.47-3.73.28-5.42.5-1.12,1.27-2.16,1.37-3.37.03-.42-.02-.86.1-1.26.12-.42.42-.76.63-1.13.73-1.31.46-2.93.16-4.4-.04,1.29-.61,2.56-1.56,3.44-.08-1.95-.17-3.89-.25-5.84-.03.72-.44,1.41-1.06,1.78.45-2.63.44-5.33-.04-7.96-.17,1.1-.35,2.21-.52,3.31-.54-.19-1.04-.5-1.46-.89.44,1.21.51,2.55.21,3.79l-.9.15c.29.45.07,1.05-.25,1.47s-.76.77-.98,1.25c-.19.42-.2.9-.24,1.36-.09.92-.34,1.82-.75,2.65-.12.25-.27.51-.52.64-.33.18-.74.08-1.11.14-.71.11-1.19.76-1.53,1.39s-.63,1.33-1.22,1.74-1.6.29-1.8-.4c-.07-.23-.03-.48,0-.73.27-1.72.55-3.44.82-5.16.36-2.24.71-4.52.34-6.76-1.41,2.62-1.95,5.61-2.48,8.55-.48-.09-.96-.18-1.44-.26-.27.42-.74.7-1.24.75.2.83-.78,1.68-1.58,1.37.17-.96-.38-2.01-1.27-2.42.8,1.02.86,2.56.13,3.63-.29.44-.7.79-.95,1.26s-.3,1.11.09,1.46c-.92.41-1.57,1.36-1.61,2.37-.25-.3-.75-.27-1.06-.04s-.49.61-.65.96c-.12.27-.25.55-.25.84,0,.52.36.95.64,1.38.77,1.23.89,2.75.99,4.21-.45-.08-.91-.16-1.36-.24-.44.54,0,1.51.7,1.53.23.94.46,1.88.7,2.82-1.08.36-1.94-.91-2.37-1.96-.99-2.42-1.99-4.95-1.83-7.55-1.05.77-.12,2.65-.94,3.65-.24.3-.62.48-.79.83-.52,1.12,1.59,1.86,1.64,3.1.01.32-.12.64-.04.94.08.34.4.58.56.9.61,1.22-1.31,2.28-1.49,3.63.5.01,1,.02,1.5.03.76.02,1.6.06,2.14.59s.42,1.7-.33,1.8c-.35.05-.69-.16-1.05-.2-.42-.05-.82.13-1.24.2-1.16.19-2.39-.58-2.73-1.71-.32,1.32-.8,2.6-1.44,3.8-.33.5-1.1.63-1.58.27-.43-.32-2.04-.5-2.58-.57.32-.8.21-1.76-.3-2.46-.16-.23-.37-.45-.44-.72-.07-.3.03-.6.11-.9.52-2.13-.63-4.34-.38-6.52.06-.53.2-1.08.03-1.58s-.84-.88-1.24-.53c-.31,1.4-.83,2.76-1.55,4-.13.23-.28.48-.24.74.03.2.16.38.23.57.23.62-.22,1.27-.59,1.82s-.67,1.34-.22,1.83c-.77.08-1.43.77-1.47,1.55.92.11,1.83.21,2.75.32.33.29,0,.85-.41,1.01s-.9.15-1.23.44c-.55.47-.09,1.56.62,1.51-.01,1.05,1.24,1.8,1.22,2.85,0,.31-.12.63-.06.93.07.33.35.67.2.98-.12.25-.44.29-.71.37-.8.23-1.38,1.07-1.32,1.89.07-.39.13-.8,0-1.17s-.53-.68-.91-.56c-.8.25-.31,1.66-.97,2.18-.29.24-.71.2-1.09.24s-.81.26-.81.63c-.59-.65-.32-1.67,0-2.48s.65-1.8.13-2.5c-.11-.14-.24-.26-.33-.42-.26-.45.07-1.11.58-1.18.25-.03.53.04.73-.12.26-.21.13-.61.15-.94.04-.6.61-.99,1.05-1.39s.8-1.11.4-1.56c-.57.4-1.17.77-1.77,1.12-.4.23-.98.41-1.27.05-.16-.2-.14-.47-.16-.72-.05-.82-.46-1.57-.72-2.35s-.33-1.72.19-2.35c.12-.14.26-.26.33-.42.29-.63-.55-1.36-.28-1.99-.54,0-.54.84-.88,1.27-.17.21-.44.32-.63.5-.44.42-.42,1.12-.37,1.72.09.96.18,1.92.28,2.88-.31.37-.89.36-1.35.22s-.91-.39-1.39-.39-1.02.39-.93.86c1.12-.21,2.34.48,2.72,1.55-.43.12-.78.51-.84.95-.38-.11-.83.05-1.05.39-.89-.52-1.96-.72-2.97-.56.04.47.42.88.88.97.27.05.55,0,.8.1.22.09.38.28.53.46.95,1.09,2.16,1.95,3.51,2.48.23.09.48.18.67.34.19.16.31.39.43.61.35.64.69,1.44.32,2.07-.3.5-.92.67-1.45.91s-1.07.75-.92,1.3c.63-.09,1.28-.19,1.91-.08s1.25.45,1.54,1.02c.24.48.2,1.08-.09,1.52.52.33.75.98.75,1.6s-.2,1.21-.36,1.8c-.06.22-.12.45-.09.68.05.36.29.65.48.97.35.59.5,1.3.4,1.98-.86.22-1.7-.39-2.31-1.03s-1.24-1.38-2.11-1.54c-.22-.04-.48-.05-.64-.21-.34-.34.05-.97-.19-1.39-.16-.33-.73-.22-.87.12s.05.74.33.98.63.37.95.55c1.44.81,2.22,2.64,3.81,3.09.38.11.79.12,1.13.32.96.54.81,1.95,1.3,2.94.6-.03.74-.86.66-1.45s-.08-1.39.49-1.57c.15-.05.31-.04.44-.11.23-.14.25-.47.42-.68.27-.35.84-.29,1.15-.6.22-.22.25-.55.4-.82s.55-.47.74-.23c.4-.45,1.79-1.66,2.19-2.11,1.62.18,3.23.35,4.85.53l.02-.72,1.37.39-.08-1.94c.59-.36.88-1.15.67-1.81-.76.42-1.87-.16-1.96-1.03-.08-.73.45-1.4.46-2.14.01-1.07-1.02-2.29-.28-3.06.43-.45,1.35-.55,1.33-1.17-.4.44.07,1.17.63,1.38s1.2.15,1.73.42c.72.37,1.04,1.36.67,2.08,1.34.15,2.52,1.29,2.7,2.63.33.31.87-.02,1.11-.4s.44-.87.88-.97c.46-.11.9.32.99.79s-.08.93-.24,1.38c1.15-.15,2.32-.11,3.45.13-.23.37.15.93.58.86.16-.03.3-.12.44-.19,1.01-.54,2.24-.26,3.34.03.23.72.47,1.44.7,2.15.18.55.37,1.12.76,1.54,1.08,1.15,2.96.65,4.47.19.5-.15,1.23-.16,1.32.36.03.15-.03.31-.06.46-.19.73-.06,1.53.35,2.16.54.85,1.5,1.32,2.4,1.76.34.16.7.33,1.07.29.36-.03.69-.25,1.05-.27,1.38-.08,1.82,2.49,3.19,2.3-.28-1.09-.3-2.25-.06-3.35.48.52,1.31-.31,1.27-1.02s-.42-1.46-.1-2.1c.2-.39.65-.77.47-1.17-.11-.24-.4-.33-.59-.52-.45-.43-.22-1.19.11-1.73s.75-1.12.59-1.72c-.32-1.19-2.46-1.03-2.77-2.22-1.19-.65-2.9.36-2.91,1.72-.68-.5-.92-1.39-1.36-2.11-.44-.72-1.43-1.31-2.09-.78.39-.33.35-.97.07-1.39s-.75-.68-1.2-.92c-.91-.49-1.83-.98-2.74-1.47-.21-1.41-2.46-1.79-2.65-3.2-.09-.68.31-1.54-.23-1.97-.21-.17-.5-.19-.72-.35s-.29-.56-.04-.64c-.72-.17-1.21-.99-1.02-1.7,1.12-.27,2.04-1.21,2.31-2.33,1.28.39,1.76,2.03,1.46,3.33-.06.26-.14.55-.02.79.12.24.39.35.63.47.74.38,1.31,1.08,1.52,1.89-.07.29-.14.57-.22.86.91.3,1.81.6,2.72.89.49-.12.89-.55.96-1.04.96-.31,1.92-.63,2.87-.94.55-.18,1.21-.35,1.68,0s.13,1.36-.4,1.12c.19,0,.39.01.58.02.81-1.54,1.87-2.94,3.12-4.15.35-.11.72.17.85.51s.07.72.01,1.08c-.25,1.52-.49,3.04-.74,4.56-.05.3-.1.61-.25.88-.24.44-.75.82-.68,1.32.06.4.45.63.73.92.77.81.63,2.08.72,3.19.09,1.11.86,2.45,1.95,2.2-.63.42-.07,1.47.65,1.71s1.56.12,2.2.53c.46.3.71.81,1.06,1.23s.9.78,1.41.58c.8-.31.76-1.67,1.57-1.95.29-.1.61-.03.91-.07s.63-.29.56-.59c.33-.22.75.17.85.56s.08.84.37,1.11c.27.26.69.24,1.06.34.49.13.9.47,1.35.69,1.66.82,3.94-.21,4.42-1.99-.31-.74.29-2.49,1.08-2.34.31.06.58.25.88.34s.69.05.84-.23c-.08.54.7.71,1.23.64,1.17-.16,2.32-.42,3.45-.77-.44-.33-.63-.96-.46-1.48.11-.34.34-.61.57-.88.34-.41.69-.81,1.03-1.22.22,1.29,1.2,2.43,2.45,2.83-.04.32-.08.65-.13.97,1.12.21,2.22.56,3.25,1.05-.18.6-.65,1.12-1.23,1.36.76.51,1.91.31,2.54.97.3.32.42.77.67,1.12s.8.6,1.12.3c.09.32.08.67-.03.99-.5.09-.99.18-1.49.26-.1.02-.23.06-.23.17s.22.05.14-.01"/>
          <path class="cls-2" d="M106.78,91.59c-.1-.25-.2-.5-.3-.74-.78.38-1.62-.32-2.4-.71-.9-.45-1.99-.51-2.92-.14-.21.08-.42.19-.65.22-.42.06-.83-.15-1.24-.29-1.19-.42-2.57-.3-3.67.32-.36.2-.71.46-1.12.5-.28.03-.55-.05-.82-.12-.55-.15-1.12-.32-1.51-.74-.26-.28-.42-.66-.72-.9-.41-.31-.97-.29-1.48-.28-1.33.04-2.67-.08-3.98-.35-.36-.07-.78-.23-.83-.59-.04-.24.12-.48.09-.72-.02-.17-.13-.31-.24-.43-.5-.53-1.23-.85-1.96-.86-.57,0-1.33.07-1.53-.47-.09-.23-.01-.5-.08-.73-.17-.53-1.02-.79-.89-1.34-.81.29-1.84.54-2.43-.09-.18-.19-.28-.44-.42-.66-.63-1.07-2.01-1.63-3.21-1.31.48-.13.63-1.51.36-1.93-.16-.24-.45-.42-.45-.71,0-.3.31-.48.46-.74.25-.45-.06-1.01-.41-1.38s-.79-.76-.82-1.27c0-.09,0-.19-.05-.26s-.18-.11-.22-.03c.05-.13.03-.29-.05-.41"/>
          <path class="cls-2" d="M102.22,78.55c.06-.35-.22-.67-.53-.84s-.67-.25-.96-.45c-.34-.24-.55-.62-.83-.93s-.71-.56-1.1-.42c-.44-.89-1.14-1.64-1.99-2.15-.76.47-.44,1.75-1.07,2.39-.66.66-1.99.27-2.51,1.04-.67,1,.92,2.53.13,3.43-.24.28-.63.36-1,.43-.84.16-1.73.32-2.53,0-.44-.18-.82-.49-1.25-.7s-.98-.28-1.36.01c-.21.16-.33.41-.54.57-.42.33-1.13.24-1.41.69-.26-.41-.87-.31-1.36-.31-1.06,0-2.04-.9-2.14-1.96-.02-.24,0-.48-.07-.71-.17-.66-.89-1.03-1.57-1.13s-1.38-.03-2.04-.21c-1.09-.3-1.91-1.25-3.01-1.51.16.15.32.3.48.45"/>
          <path class="cls-2" d="M63.8,60.5c-.07.41.12.82.28,1.2.35.87.58,1.78.67,2.71.1.97.04,1.96.2,2.92.12.73.35,1.44.59,2.14-.1-.16-.19-.32-.29-.49"/>
          <path class="cls-2" d="M58.59,62.64c.97.58,1.76,1.46,2.25,2.48.13.27.24.56.42.79.3.38.76.58,1.19.81.71.37,1.36.85,1.94,1.4-.11-.08-.22-.16-.33-.24"/>
          <path class="cls-2" d="M39.43,68.94c.34,2.42.68,4.85.64,7.29,0,.22,0,.46.09.66.14.29.46.44.73.62,1.03.68,1.53,1.92,2.34,2.85.86.99,2.08,1.63,2.84,2.7.54.76.8,1.67,1.05,2.57.03-.16.06-.33.09-.49"/>
          <path class="cls-2" d="M48.63,72.59c-.42,4.23-.85,8.47-1.27,12.7-.24,2.42-.49,4.87-.24,7.29"/>
          <path class="cls-2" d="M74.23,40.4c-.57,2.18-1.14,4.37-1.72,6.55-.11.41-.22.84-.14,1.26.09.49.42.89.67,1.32.7,1.19.79,2.71.25,3.98-.55-.89-1.11-1.77-1.66-2.66-.13-.2-.26-.42-.3-.65-.04-.27.04-.55.04-.82-.01-.82-.76-1.42-1.18-2.12-.07-.11-.13-.23-.12-.36,0-.19.15-.35.24-.51.26-.48.12-1.07.11-1.62-.03-1.57,1.08-2.89,2.15-4.04.34-.37.69-.74.93-1.18.23-.42.35-.89.47-1.36.16-.63.33-1.26.49-1.89.23,1.82.11,3.68-.36,5.46"/>
          <path class="cls-2" d="M80.81,42.51c-.72.92-1.43,1.84-2.15,2.76-.3.38-.6.78-.77,1.23-.15.41-.19.86-.32,1.28-.16.52-.45.99-.84,1.36-.25.24-.54.44-.75.72-.57.77-.31,1.85-.28,2.81.09,3.05-2.45,5.71-2.34,8.76.82.08,1.65.03,2.46-.13.26.13.52.27.78.4,1.21-1.75.56-4.3,1.75-6.06.51-.75,1.36-1.55.98-2.37-.2-.43-.72-.71-.76-1.19-.03-.43.35-.76.69-1.04,1.17-.96,2.14-2.17,2.83-3.53-.15,0-.31,0-.46,0,1.08-1.3,2.04-2.7,2.86-4.19.11-.2.22-.43.15-.65-.07-.22-.3-.34-.51-.44-1.02-.54-1.91-1.7-1.49-2.77-.21.52-.23,1.17-.53,1.65-.32.51-.92.89-1.3,1.38Z"/>
          <path class="cls-2" d="M92.65,72.34c-.09,2.73-.66,5.45-1.67,7.99-.12.3-.29.63-.6.68"/>
          <path class="cls-2" d="M77.23,82.08l-.73,4.47c-.14.89-.29,1.78-.52,2.66-.9,3.4-3.11,6.46-3.32,9.97,0,.12-.03.26-.14.29s-.17-.2-.06-.17"/>
          <path class="cls-2" d="M83.24,42.14c-.41.63-.9,1.19-1.34,1.8-.65.9-1.19,1.88-1.72,2.86-.53.98-1.06,1.96-1.59,2.94-.76,1.41-1.53,2.82-2.13,4.31-.83,2.08-1.37,4.38-2.94,5.97"/>
          <path class="cls-2" d="M88.1,90.29c-2.16,5.7-6.18,10.67-11.3,13.97-.91.59-1.86,1.12-2.79,1.69-1.42.86-2.79,1.78-4.13,2.77"/>
          <path class="cls-2" d="M87.51,88.74c-1.36,2.1-3.17,3.89-5.29,5.22-2.07,1.31-4.4,2.16-6.49,3.45-.9.56-1.74,1.19-2.53,1.89-.32.29-.64.6-.85.98-.21.39-.29.84-.37,1.28-.63,3.34-1.56,6.62-2.87,9.75"/>
          <path class="cls-2" d="M81.4,100.81c2.35-.39,4.71-.78,6.94-1.6,1.18-.43,2.32-.98,3.44-1.56,4.06-2.1,7.91-4.59,11.49-7.43.09-.07.19-.18.15-.29s-.26.02-.15.07"/>
          <path class="cls-2" d="M85.08,96.46c1.99-.37,3.8-1.41,5.76-1.93.86-.23,1.75-.35,2.61-.6,2.27-.66,4.2-2.19,5.81-3.92"/>
          <path class="cls-2" d="M55.92,76.78l.99,2.7c.18.48.35.97.39,1.48.05.66-.15,1.32-.14,1.98,0,.7.24,1.38.47,2.05,1.36,3.92,2.72,7.83,4.09,11.75"/>
          <path class="cls-2" d="M43.04,90.78c-.77.25-1.54.49-2.31.74-.28.09-.62.33-.48.58.09.15.29.17.46.19,1.21.14,1.99,1.3,2.61,2.35.52.87,1.03,1.75,1.55,2.62.08.14.17.3.12.45-.06.18-.27.26-.39.41-.32.4.09,1.19-.36,1.43-.24.13-.54-.04-.82,0-.57.06-.74.88-1.27,1.09-.48.19-.97-.19-1.41-.46-1.57-.96-3.58-.62-5.39-.25-.04.19-.07.38-.11.58,1.27.09,2.55.17,3.82.26.28.02.58.05.78.24.15.14.23.35.39.48.25.19.59.12.9.12,1.05,0,1.83.91,2.62,1.6s2.09,1.17,2.81.41c.23-.24.35-.56.6-.78.88-.77,2.31.41,3.39-.04.31-.13.55-.38.84-.54.53-.3,1.22-.27,1.72.05s.81.95.76,1.55c0,.08-.02.18.03.25.05.07.15.09.24.1,1.13.12,2.27.25,3.4.37.48.75.8,1.59.94,2.47.75.27,1.65.07,2.21-.5.37-.37.66-.91,1.18-.99.62-.09,1.16.56,1.79.49.82-.09,1.04-1.28,1.79-1.62.66-.3,1.62.1,2.04-.49.38-.53-.2-1.29-.84-1.4s-1.28.16-1.93.24c-1.19.16-2.44-.35-3.18-1.29.36-.32.8-.54,1.27-.65-.57-.81.29-2.06,1.28-2.04.43,0,.84.18,1.27.24s.93-.04,1.14-.41c.35-.62-.37-1.3-1.03-1.56-1.64-.63-3.55-.52-5.1.31.13-.52-.14-1.12-.62-1.37-.32-.17-.71-.19-1.01-.38-.38-.25-.54-.72-.8-1.09-.83-1.19-2.55-1.26-3.99-1.13-.9-.81-2.3-.42-3.42,0-.81.31-1.62.61-2.43.92-.02-.42-.03-.84-.05-1.26-.64.2-1.4-.06-1.78-.6-.17-.24-.28-.53-.48-.75-.34-.35-.99-.38-1.35-.57-.54-.28-.58-.61-1.37-.36Z"/>
          <path class="cls-2" d="M74.43,76.59l-1.96,3.83c-.55,1.07-1.09,2.14-1.51,3.27-.45,1.24-.74,2.53-1.2,3.76-.44,1.18-1.02,2.31-1.36,3.52-.29,1.07-.38,2.19-.5,3.3-.27,2.41-.72,4.8-1.36,7.14"/>
          <path class="cls-2" d="M73.11,76.44l-1.32,1.64c-.17.22-.35.44-.46.69-.09.21-.14.44-.23.66-.14.34-.37.64-.58.95-.41.63-.7,1.34-.84,2.08-.01.06-.03.14-.1.16s-.12-.09-.06-.11"/>
          <path class="cls-2" d="M66.29,104.54c0,1.09-.65,2.06-1.11,3.04-.53,1.13-.84,2.35-1.12,3.57-1.1,4.74-1.86,9.57-2.27,14.42,0,.08-.03.18-.11.2s-.08-.16-.01-.12"/>
          <path class="cls-2" d="M70.49,75.14c.09,1.75-.4,3.48-.88,5.16-.31,1.09-.62,2.18-.93,3.28-.81,2.85-1.62,5.71-2.58,8.52-.46,1.34-.95,2.67-1.48,3.99"/>
          <path class="cls-2" d="M63.29,99.43l.26-.18c-.08.99-.15,1.99-.23,2.98"/>
          <path class="cls-2" d="M71.38,77.79l-.08.33c.31-1.39.35-2.84.13-4.25-.12.11-.25.22-.37.34"/>
          <path class="cls-2" d="M62.53,106.01c.45.62.25,1.5-.1,2.18s-.83,1.33-.91,2.09c-.05.43.04.9-.16,1.28-.2.4-.65.61-.94.95-.58.67-.44,1.68-.42,2.56.02,1.08-.18,2.15-.38,3.21-.94,4.93-1.89,9.86-2.83,14.79-.24,1.25-.48,2.49-.72,3.74-.12.63-.24,1.25-.39,1.87-.27,1.06-.63,2.1-.92,3.16.02-.07.04-.13.06-.2"/>
          <path class="cls-2" d="M68.55,110.76c.5.75.63,1.73.35,2.58.95-.15,1.95-.02,2.83.38.59.26,1.12.64,1.73.84s1.35.19,1.82-.25c.93.59,2.04.91,3.15.91.51,0,1.05-.06,1.51.15.33.15.59.43.89.63.78.5,1.77.42,2.69.48s1.98.42,2.25,1.3c.07.23.08.47.19.69.15.3.45.48.65.74.35.46.34,1.09.38,1.67s.23,1.24.77,1.47c.53.23,1.16-.09,1.71.06.83.21,1.1,1.25,1.73,1.82.44.4,1.06.56,1.49.97s.49,1.31-.08,1.47c-.46.13-.92-.32-1.39-.22-.81.18-.6,1.62-1.36,1.95-.3.13-.69.03-.95.24-.34.27-.18.81-.29,1.24-.16.63-.94.9-1.58.78s-1.17-.52-1.73-.85-1.22-.59-1.84-.4c.43.63.54,1.42.81,2.13.27.71.73,1.37,1.36,1.8.33.22.71.38,1.04.6.64.42,1.11,1.08,1.3,1.82-.8-.06-1.57-.37-2.19-.88-.36-.3-.67-.66-1.04-.96-1.42-1.16-3.43-1.16-5.27-1.11-.53.01-1.05.03-1.58.04-.47.01-1,.06-1.27.44-.21.3-.19.72-.43,1-.22.26-.59.31-.91.42-1.3.45-1.87,1.9-2.56,3.09-.08.14-.17.28-.32.35-.13.06-.27.04-.41.03-1.2-.12-2.4-.25-3.6-.37-.29-.03-.62-.08-.81-.3-.36-.43.03-1.11-.18-1.63-.14-.33-.49-.51-.69-.81-.28-.42-.21-.98-.3-1.48s-.56-1.04-1.02-.84c-.95-1.52,1.75-3.52.81-5.04-.2-.32-.53-.54-.81-.8-.8-.75-1.15-1.85-1.46-2.9-.09-.29-.17-.62-.03-.89.07-.14.2-.25.26-.4.07-.18.03-.38,0-.57-.18-.84-.36-1.68-.55-2.51-.11-.49-.28-1.06-.76-1.21,1.13-.68,1.94-1.88,2.14-3.18.14-.93.04-2.01.71-2.67.5-.48,1.4-.74,1.37-1.43,0-.22-.12-.42-.19-.62-.15-.44.18-2.63.91-2.36.39.14.13.83.15,1.09.06.64.22.95.58,1.49Z"/>
          <path class="cls-2" d="M54.8,142.15c-.55,1.63-1.1,3.26-1.65,4.9-.25.73-.49,1.46-.6,2.23-.22,1.51.12,3.09-.31,4.56-.05-.3-.1-.61-.16-.91"/>
          <path class="cls-2" d="M64.45,126.57c-.92,2.63-2.03,5.2-3.33,7.66-.54,1.02-1.12,2.05-1.39,3.17-.18.73-.23,1.48-.33,2.23-.45,3.3-2,6.44-1.88,9.77-.02-.17-.04-.33-.05-.5"/>
          <path class="cls-2" d="M63.86,124.62c.15-.05.2.2.15.36-.63,1.95-1.26,3.92-2.26,5.71-.75,1.34-1.7,2.58-2.37,3.96-.36.74-.63,1.51-.9,2.28"/>
          <path class="cls-2" d="M47.29,103.61c.04-.18.01-.36-.07-.52-.61,1.49-.55,3.15-.68,4.75-.31,3.89-1.78,7.64-1.8,11.54-.01,2.46.55,4.89,1.11,7.28.73,3.11,1.47,6.26,2.85,9.14,1.56,3.25,3.93,6.17,4.75,9.68,0-.17,0-.34,0-.51"/>
          <path class="cls-2" d="M61.85,126.07c.18.42.04.89-.09,1.33-.4,1.4-.64,2.84-.71,4.3-.05-.09-.15-.14-.25-.13"/>
          <path class="cls-2" d="M46.52,104.07c-.92,3.51-1.76,7.04-2.53,10.58-.48,2.19-.93,4.46-.52,6.67.25,1.36.83,2.66,1,4.03.14,1.11,0,2.26.25,3.35.17.74.52,1.42.85,2.1,2.99,6.1,5.3,12.54,6.85,19.15"/>
          <path class="cls-2" d="M35.6,75.12c.81,1.31,1.61,2.62,2.42,3.93,2.49,4.05,5.08,8.2,8.93,10.99"/>
          <path class="cls-2" d="M31.5,75.3c.51.65.52,1.55.52,2.37-.01,1.18-.03,2.35-.04,3.53,0,.9-.02,1.81-.29,2.66-.31.98-.92,1.82-1.43,2.72-.69,1.23-1.18,2.57-1.43,3.96-.13.7-.2,1.41-.08,2.11.14.81.52,1.54.81,2.31.76,2.02.91,4.31,2.15,6.07.68.96,1.63,1.69,2.47,2.51.99.97,1.82,2.07,2.65,3.17,2.2,2.92,4.41,5.84,6.2,9.03.09.16.09.47-.1.43"/>
          <path class="cls-2" d="M26.7,77.52c.19.04.29.26.34.45.35,1.35.23,2.78.62,4.12.16.56.41,1.09.62,1.64.5,1.32.74,2.71.97,4.1.01.08.02.18-.05.22s-.13-.12-.05-.11"/>
          <path class="cls-2" d="M29.71,88.93c.62.33.82,1.1.96,1.79.85,4.21,1.71,8.42,2.56,12.63.88,4.32,1.75,8.65,2.96,12.89,1.64,5.76,3.9,11.34,6.73,16.63,1.22,2.28,2.54,4.51,3.86,6.73,1.72,2.89,3.44,5.79,5.16,8.68.12.2.23.5.05.65s-.38-.33-.15-.25"/>
          <path class="cls-2" d="M54.94,177.57c-.19.67-.69,1.38-1.38,1.32.05-.18.1-.36.15-.53-.02-.31-.52-.18-.7.06s-.45.59-.72.43c.19-.86-.65-1.77-1.52-1.66-.06-.38.05-.78.29-1.08-.81-.32-1.62-.63-2.44-.95-.09.23-.18.47-.26.7-.87-.04-1.67-.75-1.82-1.61-.07-.4-.04-.88-.36-1.12-.51-.38-1.16.24-1.48.79-.44-.52-1.05-.9-1.71-1.05-.05.43-.11.86-.16,1.29-.65-.02-.81-1-1.41-1.25-.26-.11-.54-.06-.82-.06-1.33-.02-2.46-1.32-3.77-1.13-.16.13-.31.27-.47.4.12.18.25.36.37.54-.35-.24-.71-.49-1.13-.54s-.9.16-1.01.56c.09.2.17.4.26.61-.48.37-.72,1.02-.61,1.62-.61-.67-1.44-1.13-2.32-1.31.36-.46.73-1,.65-1.58s-.94-.98-1.27-.49c-.44.36-.91.76-1.07,1.31s.17,1.27.74,1.29c-.71.16-1.49-.03-2.05-.5-.38-.33-.71-.8-1.21-.83-.46-.02-1,.35-1.33.03-.19-.19-.17-.51-.32-.73-.28-.43-.93-.28-1.45-.22-1.33.14-2.53-.76-3.56-1.62-.5.51-.84,1.18-.95,1.88-.44-.05-.9-.09-1.3.11s-.66.73-.41,1.09c.14.21.42.33.48.58.08.33-.28.58-.58.71-.67.29-1.38.48-2.1.59.29.6,1.1.89,1.7.59.34.26.08.86-.32,1.01s-.85.05-1.28.07c-1.07.04-1.95.8-2.74,1.52-.36.33-.75.82-.51,1.25,1.64-.1,3.29.13,4.84.67-.21.53-.63.98-1.15,1.22.31.22.7.31,1.08.26.32.55.09,1.35-.48,1.64-.2.1-.42.15-.6.29-.58.46-.16,1.55-.72,2.03.82-.07,1.63-.23,2.42-.47.48.66.64,1.54.42,2.32.51-.06,1.01-.13,1.52-.19.49.24.25,1.01-.16,1.37s-.96.71-.95,1.26c2.37.36,4.85-.02,6.99-1.08.09.33.17.66.26.99.59-.12,1.21-.07,1.77.13.35.12.67.31,1.04.36,1.16.19,2.09-.89,2.76-1.86-.68-1.06-2.56.12-3.56-.65-.23-.17-.37-.43-.59-.61-.39-.33-.94-.38-1.43-.53s-1-.55-.94-1.06c.54-.25,1.11-.52,1.47-1,.3-.4.43-.92.73-1.32s.92-.67,1.3-.34c-.26.44.24,1,.75,1.01s.95-.31,1.37-.6.91-.56,1.4-.45c.55.13.96.72,1.53.7.42-.02.74-.36,1.13-.52.5-.2,1.13-.05,1.48.37s.38,1.07.09,1.52c-.34.52-1.07.9-.96,1.51,1.72.11,3.42.45,5.05,1.01-.11.31-.21.61-.32.92.64.07,1.23.47,1.51,1.05.13.26.21.55.44.72.52.38,1.19-.23,1.55-.76.45.27.73.74,1.1,1.12s.93.67,1.4.45c-.38.42.44,1.04.92.73s.54-.97.56-1.54c-.62-.11-.58-1.08-.14-1.53.92-.95,2.73-1.04,3.11-2.31.06-.19.07-.39.19-.54.52-.68,1.73.57,2.39.03.18-.15.24-.38.35-.59.38-.76,1.39-1.13,2.17-.8.27.81,1.55,1.01,2.06.32s-.07-1.85-.93-1.86c.63-.67,1.3-1.47,1.21-2.38-.04-.33-.17-.67-.03-.97.16-.33.6-.46.74-.8.27-.64-.61-1.07-.88-1.52-.37-.61-.34-1.4-.98-1.83-1.54-1.04-2.06.92-2.37,2.02Z"/>
          <path class="cls-2" d="M.25,216.78c2.09.15,4.23-.52,5.87-1.82-.04-.55-.02-1.22.45-1.49.14-.08.32-.11.44-.22.6-.52-.67-1.39-.46-2.15.17-.62,1.11-.59,1.51-1.09.17-.21.23-.49.45-.65.34-.25.84-.03,1.11.3s.44.74.78,1c1.45,1.14,3.54-1.71,5.16-.83.33.18.64.52,1.02.45.31-.06.49-.37.74-.55.74-.54,1.76.18,2.27.95s1.01,1.73,1.92,1.84c-.32.26.07.83.49.79s.71-.39.98-.7.63-.63,1.04-.57c.26.04.47.24.64.44.43.54.68,1.21,1.1,1.75s1.17.95,1.8.67c-.44-.39.4-.99.95-.79s1.12.66,1.64.41c.09-1.18,1.35-2.13,2.51-1.9.27-.43.25-.98.44-1.45s.85-.83,1.19-.45c.13.15.15.36.19.56.22,1.09,1.17,2,2.27,2.18.27-1.03,1.08-1.89,2.08-2.23-.75-.36-.55-1.73.27-1.86.37-.06.74.09,1.1.2,1.32.38,2.73.09,4.07-.2.2-.04.4-.09.6-.13.64-.14,1.29-.28,1.93-.42-.04-.57.22-1.2.74-1.45s1.26.03,1.37.6c.67-.39.95-1.33.61-2.02,1.01.31,2.13.23,3.08-.22-.05-.81-.74-1.53-1.54-1.63-.14-.71-.94-1.21-1.64-1.01-.3-.74.25-1.69,1.04-1.78-1.3-1.05-2.96-1.64-4.63-1.64.01-.34.03-.68.04-1.03-1.18-.61-2.36-1.22-3.54-1.83,1.54-.84,3.26-1.35,5-1.48.41-.03.84-.03,1.18.2.63.43.58,1.41,1.11,1.96.6.62,1.63.41,2.48.56,1.9.32,2.89,2.4,3.56,4.22.74-1.2,2.73-.66,3.51.51.18.27.33.57.59.77.29.22.66.28,1.02.33l4.87.73c-.17.73.49,2.13,1.22,2.29-.73.52-1.58.87-2.46,1.04.33.49.66.99.76,1.57s-.11,1.25-.63,1.52c.86.69.81,2.21-.08,2.85.97.1.98,1.5.7,2.43-.96-.36-2,1-1.4,1.84-.8.34-1.67.52-2.55.5-.39.29-.08.91.3,1.2s.89.59.87,1.07c-.02.44-.48.72-.91.85s-.9.25-1.13.62.16,1.03.54.81c.05.69-.22,1.39-.71,1.87-.47-.5-1.36-.39-1.83.11s-.56,1.26-.41,1.93c-1.22-1.21-2.22-2.64-2.93-4.21-1.22-.41-2.43-.82-3.65-1.23-.31-.11-.67-.21-.97-.07-.69.32-.34,1.36.1,1.98-1.13.05-2.25.27-3.32.64-.42-.58-1.26-.7-1.94-.48s-1.23.71-1.76,1.19c-.59-.59-1.8-.23-1.98.59-.28.24-.73.04-.97-.25s-.38-.66-.68-.87c-.42-.3-1-.22-1.5-.11-.71.14-1.41.28-2.12.42-.26.05-.54.1-.8.04-.71-.16-1-1.11-.74-1.79s.89-1.15,1.48-1.59c-1.56-1.29-3.69-1.87-5.69-1.53-.66.11-1.34.31-1.99.15s-1.21-.9-.9-1.5c-.68-.3-1.39-.62-2.13-.58-.75.04-1.43.42-2.17.56s-1.66-.1-1.86-.82c-.09.94-1.02,1.61-1.96,1.73s-1.86-.19-2.75-.49c.11-.57.22-1.15.33-1.72-.95-.87-2.78-.24-2.99,1.03-.05.33-.02.68-.17.98-.27.52-.98.61-1.55.5s-1.15-.34-1.72-.22c-1.16.25-1.53,1.69-1.64,2.87s-.33,2.61-1.44,3.03c-.35.13-.77.14-1.05.39-.38.32-.37.9-.57,1.36-.76,1.68-3.53.67-5.01,1.76"/>
          <path class="cls-2" d="M24.79,197.74c-.94.16-2.08.51-2.28,1.45-.84-.56-1.88-1.13-2.79-.71-.3.14-.54.37-.82.53-1.31.75-3.22-.11-4.36.89,0,.29.11.58.3.79-.63-.14-1.16.46-1.47,1.02s-.63,1.23-1.25,1.39c-.59.15-1.52-.02-1.57.59-.03.47.61.64,1.08.61.67-.04,1.35-.14,2,.02s1.27.67,1.32,1.34c.93-.94,2.82.19,3.76-.75.2-.2.32-.48.52-.68.43-.44,1.21-.46,1.66-.04.29.28.46.71.85.83.57.17,1.02-.46,1.56-.71.99-.46,2.1.45,3.18.37.69-.05,1.28-.5,1.88-.84s1.39-.56,1.97-.19c.25.16.42.41.67.56.65.4,1.47.01,2.22-.11,2.32-.4,4.76,1.77,6.87.74-.05-.6.6-1.05,1.2-1.08s1.17.22,1.76.33,1.29.06,1.65-.42c-.64.01-1.28.14-1.88.36.96-.01,1.76-1.05,1.53-1.99-.22-.88-1.14-1.42-2.04-1.53s-1.8.11-2.7.23c-1.28.17-2.68.09-3.73-.68-.56-.41-1.03-1.01-1.72-1.09-.53-.06-1.22.16-1.5-.29-.51-.81-.02-1.24-1.06-1.78-.37-.19-1.64-.77-2.03-.72-.75.08-.95.75-1.7,1.03-.93.35-2.14.37-3.12.54Z"/>
          <path class="cls-2" d="M48.7,169.77l.21-.29c.07,1.59-.42,3.16-.9,4.68-.19.6-.38,1.21-.57,1.81"/>
          <path class="cls-2" d="M52.39,174.74l-.36,2.71c-.03.2-.06.41-.14.59"/>
          <path class="cls-2" d="M43.34,190.2c.38.63.16,1.44-.08,2.14-.91,2.71-1.82,5.42-2.73,8.13"/>
          <path class="cls-2" d="M49.94,187.75c-.73,1.43-1.15,2.99-1.55,4.54-.22.83-.44,1.66-.65,2.5"/>
          <path class="cls-2" d="M34.76,220.44c-.36.2-.52.61-.66.99-1.14,3.11-2.19,6.26-3.15,9.43"/>
          <path class="cls-2" d="M46.84,200.43c-.39.89-.72,1.81-.98,2.74-.21.75-.38,1.51-.74,2.2-.16.31-.35.59-.53.89-.61,1.05-.94,2.24-1.26,3.42"/>
          <path class="cls-2" d="M39.02,205.44l-1.17,2.26c-.2.38-.4.77-.57,1.16-.6,1.32-.99,2.74-1.15,4.19"/>
          <path class="cls-2" d="M40.31,224.42c-.85,2.14-1.37,4.4-1.56,6.69"/>
          <path class="cls-2" d="M71.44,138.31l-4.23,3.9c-1.22,1.12-2.45,2.26-3.92,3.03-1.18.62-2.54,1.05-3.37,2.09-.73.92-1.06,2.3-2.17,2.68-.13.04-.29.1-.3.24s-.14.14-.24.04c-.12-.99.39-1.93.88-2.79.97-1.7,1.95-3.41,3.24-4.88,2.01-2.27,4.68-3.84,7.4-5.17"/>
          <path class="cls-2" d="M75.52,140.51c-.56-.58-1.63-.18-1.99.53s-.24,1.57-.11,2.36c-.99.45-1.83,1.2-2.4,2.13-.55-.67-1.65-.42-2.38.05s-1.42,1.15-2.28,1.18c-.36.01-.74-.09-1.08.03-.62.21-.8,1.02-.75,1.67s.22,1.36-.09,1.94c-.17.32-.49.62-.43.98.06.44.64.66.7,1.1.04.26-.12.5-.25.72-.62,1.1-.68,2.49-.16,3.63-.32.07-.63.14-.95.21.11-.49-.45-.92-.95-.87s-.91.39-1.29.73c-.39-.06-.75-.3-.95-.64.9-.55,1.34-1.75,1.03-2.75.59.29,1.34-.54.98-1.1-.13-.2-.35-.33-.56-.46-.75-.44-1.66-.89-2.45-.51-.35.17-.61.48-.95.68-1.01.6-2.29.02-3.46.1-1.17.08-2.25.92-2.63,2.03-.09.27-.15.56-.36.75-.22.2-.54.23-.83.28-1.16.2-2.22.89-2.86,1.88-1.65-.69-2.4-2.97-1.48-4.51-.38.04-.67-.35-.71-.73s.06-.75.02-1.13c-.07-.91-1.03-1.63-1.93-1.5s-1.61,1.02-1.59,1.93c-1.09-1.31-2.51-2.34-4.09-2.98-.42-.9-1.7-.86-2.68-.68-.73.14-1.47.28-2.2.41-.34.06-.69.14-.94.37-.46.44-.4,1.33-.98,1.61-.22.11-.48.09-.72.12-1.27.14-2.03,1.43-2.6,2.58-.11.23-.23.48-.21.73.02.24.15.46.16.71.03.85-1.39,1.4-1.04,2.17,1.23-.41,2.53-.6,3.82-.56.68.02,1.42.1,2-.26.54-.33.89-1,1.52-1.09.33-.05.66.08.96.21,1.98.81,4.01,1.65,5.55,3.14.67.65,1.26,1.43,2.09,1.86.72.37,1.59.43,2.35.17.52.61.65,1.51.34,2.24,1.29-.07,2.59.79,3.01,2.02.07.21.13.43.26.61.3.4.86.45,1.36.54,1.72.32,3.19,1.74,3.58,3.45-.38.38-.53.96-.38,1.47.24.07.48.14.72.21.24,1.03.47,2.05.71,3.08.96-.6,1.31-1.8,1.92-2.75s2.01-1.68,2.82-.9c.44-.52.87-1.04,1.31-1.56.63-.74,1.27-1.51,1.61-2.42.31-.82.62-1.95,1.5-1.95.32,0,.64.18.94.06.27-.1.4-.41.5-.68.31-.83.62-1.66.93-2.48.85.07,1.18,1.14,1.29,1.98.18,1.32.35,2.63.53,3.95.31.03.61.07.92.1-.4.39-.06,1.2.5,1.2-.08-1.2-.16-2.44.28-3.56.84-2.1,3.27-3.17,4.27-5.2.33-.68.83-1.62,1.54-1.36.27.1.44.35.69.49,1.17.66,2.47-1.62,3.68-1.02.5-.97,1-1.94,1.5-2.92.15-.28.3-.58.56-.77.75-.54,1.76.13,2.43.77-.14.6.25,1.27.84,1.45-.55-1.66-.22-3.6.86-4.98.54-.69,1.29-1.35,1.31-2.22.63.45,1.45-.44,1.39-1.21s-.55-1.46-.61-2.23c-.04-.55.08-1.23-.36-1.55-.5-.37-1.21.1-1.82,0-.34-.05-.62-.26-.9-.46-1.84-1.33-3.94-2.31-6.15-2.87-.58-.15-1.24-.31-1.54-.83-.59-1.02-2.59.66-2.19,1.07Z"/>
          <path class="cls-2" d="M42.43,159.36h.1c.81.87,1.49,1.86,1.93,2.96.16.39.29.8.49,1.17.19.33.43.63.66.93.9,1.14,1.71,2.35,2.43,3.61.27.48.54,1,.49,1.55,0,.09-.05.21-.15.22s-.06-.2.01-.13"/>
          <path class="cls-2" d="M49.63,165.01l-.93,4.21"/>
          <path class="cls-2" d="M53.01,167.58v-.28c-.18,2.35-.36,4.7-.53,7.06"/>
          <path class="cls-2" d="M57.01,150.73c-.17.34-.31.7-.42,1.07-.02.07-.03.16.02.2s.14-.08.07-.09"/>
          <path class="cls-2" d="M34.72,183.33c-.01-.16.17-.29.32-.23-1.22,1.69-1.52,3.85-1.79,5.92-.34,2.63-.68,5.27-1.02,7.9-.02-.19-.04-.38-.06-.58"/>
          <path class="cls-2" d="M40.79,188.22c-.47.55-1.06.99-1.58,1.49-1.45,1.36-2.47,3.09-3.48,4.8-.36.62-.73,1.24-1.09,1.86-.47.8-.94,1.6-1.21,2.48-.18,0-.37.02-.55.03"/>
          <path class="cls-2" d="M31.16,204.29c-.44,3.23-.91,6.45-1.4,9.67"/>
          <path class="cls-2" d="M18.63,205.19c1.03,1.61,2.09,3.26,3.55,4.49.43.37.91.71,1.19,1.2.24.41.32.88.47,1.33.03.09.08.19.17.21s.17-.14.08-.16"/>
          <path class="cls-2" d="M27.41,190.02c.27,1.41.7,2.79,1.27,4.11.34.79.75,1.57,1.36,2.17"/>
          <path class="cls-2" d="M27.11,219.25c.93,1.87.72,4.12.1,6.12s-1.6,3.87-2.2,5.87c.08-.5.16-1,.24-1.5"/>
          <path class="cls-2" d="M30.46,219.93c.05.03.08-.09.03-.11s-.12.02-.17.06c-.65.55-1.14,1.28-1.4,2.08-.21.66-.27,1.35-.41,2.03-.51,2.43-2.11,4.64-1.98,7.12-.12,0-.23.02-.35.02"/>
          <path class="cls-2" d="M12.63,220.05c.4,1.15.84,2.29,1.5,3.31,1.24,1.92,3.18,3.26,5.06,4.56.6.41,1.21.83,1.81,1.24.48.33.96.66,1.46.94.61.34,1.37.78,1.34,1.48-.17-.04-.33-.08-.5-.12"/>
          <path class="cls-2" d="M16.85,218.84c.2.06.23.32.23.53,0,3,.77,5.99,2.23,8.61"/>
        </g>
      </g>
      <g>
        <polygon class="cls-4" points="232.94 67.51 263 25.01 298.4 81.14 311.11 151.81 237.2 112.87 236.02 114.19 232.94 67.51"/>
        <polygon class="cls-4" points="160.73 76.15 178.4 57.55 177.47 84.52 160.73 76.15"/>
        <path class="cls-4" d="M157.01,117.06c-.46.32,18.13-15.81,18.13-15.81l-1.86,42.54-17.43-6.97,1.16-19.76Z"/>
      </g>
    </g>
  </g>
</svg>