<?xml version="1.0" encoding="UTF-8"?>
<svg id="Capa_2" data-name="Capa 2" xmlns="http://www.w3.org/2000/svg" viewBox="0 0 228.68 267.87">
  <defs>
    <style>
      .cls-1 {
        opacity: .3;
      }

      .cls-1, .cls-2 {
        fill: #fff;
      }
    </style>
  </defs>
  <g id="AMANGIRI">
    <g>
      <path class="cls-2" d="M101.03,2.47c11.41-2.03,23.09-2.28,34.58-.73.47.06.68-.66.2-.72-11.63-1.56-23.42-1.32-34.97.73-.47.08-.27.81.2.72h0Z"/>
      <path class="cls-2" d="M100.57,2.14c-.01,9.46.32,18.91.32,28.38,0,.48.75.48.75,0,0-9.46-.33-18.91-.32-28.38,0-.48-.75-.48-.75,0h0Z"/>
      <path class="cls-2" d="M135.56,1.51c-.06,9.49.31,18.99.04,28.48-.01.48.74.48.75,0,.27-9.49-.1-18.98-.04-28.48,0-.48-.75-.48-.75,0h0Z"/>
      <path class="cls-2" d="M101.26,30.89c11.57.98,23.27.93,34.78-.64.48-.07.27-.79-.2-.72-11.44,1.57-23.09,1.59-34.58.62-.48-.04-.48.71,0,.75h0Z"/>
      <path class="cls-2" d="M136.26,4.8c4.62.38,9.24.81,13.87,1.19.48.04.48-.71,0-.75-4.62-.38-9.24-.81-13.87-1.19-.48-.04-.48.71,0,.75h0Z"/>
      <path class="cls-2" d="M149.75,5.61c.08,9.14.31,18.29.32,27.43,0,.48.75.48.75,0,0-9.14-.24-18.29-.32-27.43,0-.48-.75-.48-.75,0h0Z"/>
      <path class="cls-2" d="M117.55,33.4c5.69.9,11.5,1.03,17.25.99,5.22-.03,10.46-.23,15.66-.71.48-.04.48-.79,0-.75-5.08.47-10.18.67-15.28.71-5.81.05-11.69-.06-17.43-.96-.47-.07-.68.65-.2.72h0Z"/>
      <path class="cls-2" d="M101.36,30.88c11.19-2.38,23.2-2.31,34.48-.63.47.07.68-.65.2-.72-11.43-1.7-23.55-1.78-34.88.63-.47.1-.27.82.2.72h0Z"/>
      <path class="cls-2" d="M117.65,33.42c10.9-.59,21.77-.54,32.66.03.48.03.48-.72,0-.75-10.9-.58-21.76-.62-32.66-.03-.48.03-.48.78,0,.75h0Z"/>
      <path class="cls-2" d="M106.2,35.48c.12,9.58.05,19.16.06,28.74,0,13.13,0,26.25,0,39.38,0,3.6,0,7.19,0,10.79,0,.48.75.48.75,0,0-8.93.01-17.86.01-26.78,0-13.31,0-26.62-.01-39.93,0-4.06,0-8.13-.04-12.19,0-.48-.76-.48-.75,0h0Z"/>
      <path class="cls-2" d="M106.62,35.94c8.45-.8,17.07-.95,25.44.62.47.09.67-.63.2-.72-8.44-1.58-17.12-1.45-25.64-.64-.48.04-.48.8,0,.75h0Z"/>
      <path class="cls-2" d="M131.78,36.19c.21,3.97,0,7.99,0,11.96,0,5.08,0,10.16.03,15.24.06,10.39.21,20.77.4,31.15.11,5.89.24,11.77.37,17.65.01.48.76.48.75,0-.48-20.75-.81-41.51-.81-62.26,0-4.57.24-9.19,0-13.75-.03-.48-.78-.48-.75,0h0Z"/>
      <path class="cls-2" d="M106.35,114.65c.97,1.24,2.85,1.96,4.26,2.48,3.1,1.14,6.34,1.25,9.61.94,2.45-.24,4.86-.72,7.1-1.77s4.03-2.46,5.97-3.79c.39-.27.02-.92-.38-.65-1.73,1.19-3.42,2.47-5.28,3.45-2.19,1.14-4.58,1.71-7.02,1.97-3.15.34-6.31.31-9.34-.71-1.42-.48-3.42-1.2-4.39-2.44-.3-.38-.82.15-.53.53h0Z"/>
      <path class="cls-2" d="M133,37.31c2.04.11,4.09.22,6.13.33s3.96.24,5.89.7c.47.11.67-.61.2-.72-1.92-.46-3.9-.61-5.87-.72-2.12-.12-4.24-.23-6.36-.34-.48-.03-.48.72,0,.75h0Z"/>
      <path class="cls-2" d="M145.25,38.34c.52.14.08,3.5.06,3.98-.06,1.32-.11,2.64-.15,3.96-.09,2.47-.16,4.95-.22,7.42-.13,5.2-.21,10.4-.29,15.6-.14,9.67-.12,19.34-.26,29.01,0,.48.74.48.75,0,.23-16.44.16-32.87.67-49.31.07-2.39.16-4.78.27-7.17.05-1.04.27-2.24.12-3.27-.07-.51-.27-.81-.75-.94s-.67.6-.2.72h0Z"/>
      <path class="cls-2" d="M149.55,33.41c-1.17.94-2.4,1.79-3.62,2.68-.32.23-.63.46-.95.7-.16.12-.33.25-.49.37-.12.09-.27.18-.33.33-.29.7,1.18.75.8-.06-.21-.44-.85-.06-.65.38v.02c.01-.13.01-.25.01-.38l.38-.12.17.22v-.02c-.04.12-.07.24-.1.36.16-.19.44-.34.64-.49.23-.17.47-.35.7-.52.46-.34.92-.67,1.38-1,.87-.63,1.75-1.27,2.59-1.94.16-.13.13-.4,0-.53-.15-.16-.37-.13-.53,0h0Z"/>
      <path class="cls-2" d="M137.77,34.3c0,.15,0,.29,0,.44,0,.06-.01.13-.02.19,0,.04,0-.03,0,.04,0,.02,0,.05-.01.07-.04.21-.1.41-.17.6-.16.46-.32.91-.41,1.4-.04.2.05.4.26.46.18.05.42-.06.46-.26.09-.49.26-.95.42-1.43s.23-.99.23-1.51c0-.48-.76-.48-.75,0h0Z"/>
      <path class="cls-2" d="M113.8,31.5c.38,1.06.59,2.16.97,3.22.07.19.26.32.46.26.18-.05.33-.27.26-.46-.38-1.06-.59-2.16-.97-3.22-.07-.19-.26-.32-.46-.26-.18.05-.33.27-.26.46h0Z"/>
      <path class="cls-2" d="M124.24,31.18c-.4,1.16-.81,2.33-1.21,3.49-.07.19.08.41.26.46.21.06.39-.07.46-.26.4-1.16.81-2.33,1.21-3.49.07-.19-.08-.41-.26-.46-.21-.06-.39.07-.46.26h0Z"/>
      <path class="cls-2" d="M134.2,98.77c10.99-.09,21.97-.4,32.94-.93.48-.02.48-.77,0-.75-10.97.53-21.96.84-32.94.93-.48,0-.48.75,0,.75h0Z"/>
      <path class="cls-2" d="M.68,99.63c14.19-.35,28.4-.24,42.6-.2,12.76.03,25.52.12,38.28.19,8.04.05,16.08-.12,24.11-.3.48-.01.48-.76,0-.75-12.42.28-24.81.29-37.23.22-15.46-.09-30.92-.16-46.37-.12-7.13.02-14.26.04-21.39.21-.48.01-.48.76,0,.75h0Z"/>
      <path class="cls-2" d="M166.1,97.56c-1.06,1.67-1.95,3.47-2.88,5.22-1.84,3.48-3.65,6.98-5.45,10.48-5.36,10.43-10.65,20.9-15.92,31.38-6.24,12.41-12.45,24.83-18.62,37.26-5.38,10.84-10.74,21.68-16.04,32.56-2.91,5.98-5.99,11.94-8.56,18.08-.1.24-.2.48-.29.73-.16.45.56.65.72.2.65-1.78,1.53-3.5,2.33-5.21,1.64-3.5,3.32-6.97,5-10.45,5.09-10.5,10.25-20.96,15.44-31.41,6.15-12.4,12.33-24.78,18.54-37.15,5.46-10.87,10.94-21.74,16.48-32.57,3.09-6.03,6.06-12.16,9.46-18.03.14-.24.28-.49.43-.72.26-.41-.39-.79-.65-.38h0Z"/>
      <path class="cls-2" d="M166.83,97.87c6.05,12.23,12.42,24.3,18.46,36.53,6.06,12.27,12.14,24.52,18.03,36.87,3.27,6.86,6.53,13.72,9.86,20.56.21.43.86.05.65-.38-11.91-24.47-23.46-49.12-35.86-73.35-3.51-6.86-7.07-13.7-10.49-20.61-.21-.43-.86-.05-.65.38h0Z"/>
      <path class="cls-2" d="M213.13,191.64c0,9.7.14,19.39.19,29.09.06,10.64.09,21.28.02,31.91-.03,4.62-.05,9.25-.21,13.87-.02.48.73.48.75,0,.32-9.33.25-18.69.24-28.03s-.04-18.34-.12-27.52c-.06-6.44-.12-12.89-.12-19.33,0-.48-.75-.48-.75,0h0Z"/>
      <path class="cls-2" d="M112.29,261.69c15.18.37,30.33,1.51,45.47,2.62s29.91,1.69,44.89,2.23c8.56.31,17.12.64,25.66,1.14.48.03.48-.72,0-.75-14.93-.87-29.88-1.22-44.82-1.86s-30.1-1.95-45.16-2.9c-8.67-.54-17.36-1.03-26.05-1.23-.48-.01-.48.74,0,.75h0Z"/>
      <path class="cls-2" d="M55.41,267.26c-1.12-3.23-2.86-6.32-5.75-8.27-3.23-2.17-7.23-2.73-10.52-4.78l-.29.69c5.03.95,9.99,2.25,14.84,3.89.25.09.57-.2.46-.46-1.63-3.97-3.41-7.91-5.43-11.7-.38-.71-.78-1.42-1.3-2.05-.68-.83-1.68-1.37-2.02-2.44s-.43-2.15-.63-3.2c-.18-.94-.73-2.64.4-3.2l-.56-.32c-.06,4.91,2.87,9.02,5.71,12.78.17.22.63.27.69-.09.73-4.32-2.04-7.93-3.12-11.91-1.16-4.24.3-9.15-2.79-12.77-.28-.32-.82.1-.59.45,1.86,2.86,4.17,5.15,5.1,8.54.8,2.89,1.09,5.97,2.93,8.45.21.29.69.21.7-.19.06-3.99-.16-7.97-.66-11.93l-.74.1c.39,1.47.87,3.11,2.13,4.08,1.41,1.08,3.45.71,4.75,1.95.25.24.78,0,.63-.36-.64-1.53-1.28-3.06-1.91-4.59l-.46.46c1.26.21,2.19-.81,2.12-2.05-.09-1.63-1.62-3.33-2.59-4.54-.62-.78-1.29-1.52-2-2.22-.89-.88-1.95-1.63-2.41-2.84-.41-1.07-.45-2.29-.6-3.41-.16-1.23-.31-2.46-.47-3.68l-.64.27c2.53,3.23,3.76,6.88,5.4,10.58.65,1.47,1.43,2.9,2.54,4.07,1.2,1.28,3.31,2.05,3.85,3.83.11.36.61.35.72,0,.97-3.11-.46-6.02-1.64-8.85-.67-1.61-.97-3.08-1.23-4.79-.13-.82-.41-1.59-1.29-1.79-.31-.07-.59.26-.42.55.88,1.51,1.61,3.08,2.16,4.74.47,1.43.67,2.9,1.06,4.35.28,1.04.78,1.88,1.66,2.51,1.23.88,3.36,1.41,3.28,3.28l.74-.1c-1.19-3.8-2-7.71-2.35-11.68-.17-1.88-.24-3.77-.21-5.66.02-1.56-.33-4.63,1.24-5.54l-.56-.32c-.14,3.96-.02,7.71.94,11.58.49,1.97.91,3.92.68,5.96-.19,1.75-.58,3.44.05,5.15.1.27.4.36.63.17,1.93-1.65,3.05-3.93,3.2-6.46.03-.42-.65-.51-.74-.1-.26,1.22-.52,2.44-.78,3.65-.07.31.26.59.55.42.51-.29,1.02-.59,1.53-.88l-.56-.32c.05.98.85,2.89,2.07,1.76.65-.6.98-1.83,1.3-2.64.55-1.39.95-2.82,1.25-4.28l-.74-.1c-.18,2.76-.13,5.52.16,8.27.05.47.78.49.75,0-.23-4.09-.03-8.19.65-12.23.5-2.98,1.37-6.16-.21-8.96-.22-.38-.77-.12-.69.29.64,3.01,1.11,6.06,1.33,9.14.11,1.58.15,3.16-.42,4.66-.46,1.21-1.04,2.25-1.17,3.56-.16,1.5-.08,3.03-.1,4.53,0,.81-.29,2.1.39,2.74,1.48,1.41,2.84-.78,3.23-1.96.14-.42-.46-.62-.69-.29-.69.99-.96,2.07-.83,3.27.04.34.38.47.64.27.84-.66,1.67-1.32,2.51-1.98l-.64-.27c-.1,1.14-.2,2.28-.3,3.43-.04.45.59.46.74.1,1.16-2.93,2.32-5.86,3.48-8.8.55-1.39,1.1-2.78,1.65-4.17.58-1.47,1-3.36,2.12-4.51l-.59-.45c-1.66,3.05-2.92,6.3-3.7,9.68-.38,1.63-.64,3.29-.8,4.96-.18,1.84-.25,3.67-1.25,5.28-.13.21,0,.49.22.55.61.16,1.21.27,1.83.33l-.36-.47c-.27,1.11-.08,2.96,1.52,2.49.27-.08.37-.42.17-.63-.29-.3-.58-.32-.94-.13-.43.23-.05.88.38.65h.03c.06-.2.11-.4.17-.61-.63-.46-.83-.98-.6-1.57.06-.26-.12-.45-.36-.47-.57-.06-1.08-.16-1.63-.31l.22.55c1.7-2.75,1.3-6.47,1.93-9.54.74-3.64,2.04-7.12,3.82-10.38.2-.37-.28-.77-.59-.45-.87.89-1.23,2.09-1.68,3.22-.64,1.62-1.28,3.24-1.92,4.86-1.28,3.24-2.57,6.48-3.85,9.72l.74.1c.1-1.14.2-2.28.3-3.43.03-.36-.41-.44-.64-.27-.84.66-1.67,1.32-2.51,1.98l.64.27c-.12-1.08.1-1.99.72-2.89l-.69-.29c-.18.54-.6,1.98-1.5,1.79s-.66-1.53-.65-2.12c.01-1.22,0-2.45.04-3.67.03-1.31.3-2.4.83-3.6.37-.83.68-1.64.81-2.55.28-1.96-.02-4.01-.25-5.97-.26-2.2-.63-4.38-1.09-6.55l-.69.29c1.73,3.07.31,6.87-.13,10.11-.49,3.55-.61,7.12-.42,10.7h.75c-.29-2.75-.35-5.51-.16-8.27.03-.42-.65-.51-.74-.1-.27,1.31-.62,2.61-1.09,3.86-.25.67-.53,1.32-.84,1.96-.23.47-.15.67-.7.47-.51-.19-.48-.41-.51-.94-.01-.28-.31-.47-.56-.32-.51.29-1.02.59-1.53.88l.55.42c.26-1.22.52-2.44.78-3.65l-.74-.1c-.14,2.34-1.2,4.41-2.98,5.93l.63.17c-.66-1.79-.12-3.56.02-5.38s-.21-3.55-.64-5.28c-.48-1.95-.91-3.87-1.04-5.88s-.05-3.96.01-5.94c0-.29-.32-.46-.56-.32-1.29.75-1.43,2.24-1.51,3.6-.15,2.28-.14,4.56,0,6.84.28,4.51,1.13,8.97,2.48,13.29.13.41.72.33.74-.1.05-1.14-.6-2.01-1.51-2.65-1.45-1.04-2.94-1.37-3.46-3.33-.42-1.6-.65-3.2-1.2-4.77s-1.26-3.06-2.09-4.5l-.42.55c1,.23.84,2.37,1.01,3.14.24,1.13.68,2.2,1.13,3.26,1.09,2.57,2.38,5.27,1.5,8.11h.72c-.45-1.51-1.73-2.24-2.91-3.14-1.66-1.28-2.72-3.05-3.55-4.94-.76-1.72-1.35-3.51-2.13-5.22-.9-1.98-2.05-3.8-3.39-5.51-.19-.24-.68-.05-.64.27.23,1.83.45,3.67.71,5.5.18,1.31.51,2.48,1.43,3.47,1.07,1.16,2.28,2.16,3.29,3.39.61.74,1.19,1.52,1.71,2.33.19.29.38.58.54.89.39.76.71,2.7-.78,2.45-.24-.04-.58.17-.46.46.64,1.53,1.28,3.06,1.91,4.59l.63-.36c-1.04-1-2.36-1.02-3.66-1.45-1.95-.64-2.54-2.44-3.02-4.25-.11-.39-.79-.33-.74.1.5,3.96.72,7.94.66,11.93l.7-.19c-1.96-2.65-2.12-5.97-3.08-9.02s-3.23-5.3-4.96-7.97l-.59.45c2.94,3.44,1.49,8.38,2.6,12.44,1.04,3.81,3.82,7.39,3.12,11.51l.69-.09c-2.76-3.64-5.66-7.63-5.61-12.4,0-.3-.32-.45-.56-.32-1.43.71-1.03,2.53-.79,3.8.23,1.19.34,2.48.74,3.63.31.9.97,1.37,1.63,2.02,1.66,1.64,2.59,4.16,3.6,6.23,1.24,2.55,2.39,5.14,3.46,7.76l.46-.46c-4.85-1.64-9.8-2.94-14.84-3.89-.41-.08-.66.45-.29.69,2.96,1.84,6.45,2.48,9.49,4.15,3.3,1.81,5.25,4.98,6.44,8.45.16.45.88.26.72-.2h0Z"/>
      <path class="cls-2" d="M86.77,236.7c2-3.81,3.99-7.62,5.99-11.43.19-.36-.3-.79-.59-.45-1.52,1.75-2.14,3.93-2.58,6.17-.24,1.22-.54,4.06,1.62,3.42l-.47-.36c-.03.39-.05.79-.08,1.18s.51.49.7.19c.68-1.11,1.37-2.21,2.05-3.32l-.69-.29c-.46,1.2-.92,2.4-1.38,3.6-.04.11,0,.29.1.36,2.83,2.29,4.49-4.39,5.07-5.92l-.74-.1c-.21,1.61-.26,3.22-.15,4.85.03.39.67.54.74.1.81-5.03-.1-10.06-.86-15.04-.18-1.17-.28-2.39-.6-3.53-.3-1.06-1.09-1.91-1.37-2.96-.52-1.95,1.46-3.62.82-5.62-.12-.39-.76-.34-.74.1.19,4.35.37,8.71.56,13.06.15,3.53-.38,7.82,1.91,10.79.5.65,1.55,2.11,2.55,1.88,1.26-.29.35-2.43.28-3.15-.22-2.09.72-4.16,1.34-6.13s1.26-3.97,1.68-6.01c.92-4.48.25-8.92-.54-13.36-.07-.42-.75-.32-.74.1.14,5.1-.14,10.21-.88,15.26-.35,2.38-.8,4.75-1.34,7.09-.22.94-1.23,3.09.42,3.26,1.38.15,2.68-1.08,3.41-2.11,1.19-1.69,1.44-3.85,2.77-5.44,1.26-1.51,2.62-2.86,3.73-4.49,1.19-1.76,2.15-3.65,2.92-5.63.12-.3-.29-.61-.55-.42-2.66,1.92-3.11,5.18-3.69,8.19-.4,2.03-1.01,3.73-2.29,5.36-.79,1.01-1.53,2.02-.96,3.31.06.14.28.23.42.17,1.57-.63,3.02-1.42,4.37-2.43l-.51-.51c-.75,1.08-1.49,2.16-2.24,3.23-.16.23.05.57.32.56,5.02-.19,7.92-4.84,12.27-6.63l-.36-.63c-2.83,3.18-7.7,4.59-8.98,9.02-.06.2.07.4.26.46.98.3,1.95.43,2.98.42l-.27-.64c-.92.96-1.84,1.92-2.77,2.89-.55.58-1.53,1.29-1.67,2.17-.28,1.87,2.48.62,3.25.38,2.06-.66,4.04-1.49,5.76-2.82,1.17-.91,2.18-1.81,3.64-2.23,1.35-.39,2.78-.43,4.18-.47v-.75c-3.06.3-5.84,1.62-7.98,3.84-.18.19-.12.57.17.63.34.07.69.14,1.03.21l-.09-.69c-1.95,1.13-3.8,2.4-5.56,3.8-.23.19-.08.55.17.63,1.06.34,2.09.45,3.2.33l-.36-.28c.13.35-2.52,2.35-2.82,2.62-1.04.92-2.07,1.83-3.11,2.75-.33.29.09.79.45.59,1.41-.78,2.82-1.56,4.24-2.34s2.85-1.64,4.5-1.87l-.42-.55c-.68,1.14-1.63,1.91-2.91,2.3-.18.05-.34.27-.26.46.46,1.11,1.54.95,2.57.99,1.88.07,2.94,1.58,4.46,2.45s3.49.73,5.24,1.06c2.1.4,4.09,1.15,5.96,2.19l.19-.7c-1.93-.25-3.77-.94-5.68-1.28-1.61-.29-3.25-.41-4.88-.36-3.29.1-6.49.89-9.47,2.25-.44.2-.06.85.38.65,3.13-1.43,6.52-2.18,9.97-2.16s6.4,1.22,9.69,1.65c.38.05.49-.53.19-.7-1.54-.86-3.17-1.54-4.88-1.98s-3.53-.36-5.22-.82c-1.55-.42-2.54-1.7-3.91-2.46-.44-.25-.91-.43-1.41-.5-.64-.09-2.17.26-2.47-.48l-.26.46c1.45-.45,2.58-1.33,3.36-2.65.18-.31-.12-.59-.42-.55-1.56.21-2.89.96-4.26,1.71-1.55.86-3.11,1.71-4.66,2.57l.45.59c1.4-1.24,2.8-2.48,4.21-3.72.56-.5,2.27-1.44,1.91-2.38-.05-.14-.19-.29-.36-.28-1.04.12-2,.02-3-.3l.17.63c1.71-1.37,3.51-2.59,5.41-3.69.27-.15.23-.62-.09-.69-.34-.07-.69-.14-1.03-.21l.17.63c2-2.07,4.58-3.34,7.45-3.62.47-.05.49-.76,0-.75-1.77.05-3.61.12-5.27.81s-2.95,2.18-4.55,3.09c-.88.5-1.81.9-2.77,1.25-.71.26-2.03.94-2.81.89-.5.28-.63.09-.38-.59l.33-.34c.33-.49.89-.93,1.3-1.36.76-.79,1.52-1.58,2.28-2.38.22-.23.07-.64-.27-.64-.96.01-1.86-.12-2.78-.39l.26.46c1.22-4.23,6.07-5.64,8.79-8.69.22-.25.01-.78-.36-.63-4.24,1.75-7.22,6.42-12.07,6.6l.32.56c.75-1.08,1.49-2.16,2.24-3.23.21-.3-.21-.74-.51-.51-1.3.96-2.69,1.75-4.2,2.35l.42.17c-.63-1.41,1.61-3.19,2.21-4.4s.87-2.43,1.12-3.7c.54-2.76.88-5.96,3.35-7.74l-.55-.42c-1.42,3.66-3.6,6.59-6.19,9.49-1.17,1.3-1.57,2.79-2.28,4.34-.35.77-.78,1.52-1.36,2.14-.36.38-2.18,1.88-2.43.7-.05-.26.28-1.14.35-1.4.11-.47.22-.94.32-1.41.24-1.1.46-2.2.66-3.3.35-1.93.63-3.87.85-5.82.47-4.15.63-8.32.52-12.5l-.74.1c.85,4.83,1.44,9.48.23,14.31-.53,2.1-1.22,4.17-1.86,6.24-.57,1.82-1.1,3.44-.8,5.37.07.42.44,1.26.1,1.55-.36.31-.9-.47-1.17-.77-.73-.79-1.31-1.7-1.63-2.73-.67-2.16-.46-4.72-.56-6.95-.21-4.76-.41-9.53-.62-14.29l-.74.1c.57,1.8-1.17,3.39-.91,5.22.12.87.65,1.55,1.04,2.31.57,1.13.69,2.38.87,3.61.78,5.14,1.84,10.4,1,15.6l.74.1c-.11-1.63-.06-3.23.15-4.85.06-.45-.6-.46-.74-.1-.58,1.53-1.12,3.14-1.86,4.61-.21.42-.8,1.55-1.38,1.21-.47-.28-.21-.58-.05-.99l.95-2.48c.16-.41-.47-.64-.69-.29-.68,1.11-1.37,2.21-2.05,3.32l.7.19c.03-.39.05-.79.08-1.18.02-.24-.25-.43-.47-.36l-.93-1.02c.03-.3.07-.6.13-.9.04-.26.1-.51.15-.77.13-.64.27-1.28.45-1.91.39-1.37.96-2.65,1.9-3.73l-.59-.45c-2,3.81-3.99,7.62-5.99,11.43-.22.43.42.81.65.38h0Z"/>
      <path class="cls-2" d="M121.25,255.51c-3.72-2.86-8.82.94-11.94,3.02-1.96,1.3-3.84,2.72-5.63,4.25-.95.81-1.88,1.66-2.78,2.54-.56.55-1.72,1.3-1.71,2.16,0,.16.12.32.28.36.26.07.38.02.59-.15.13-.11.13-.31.06-.45l-.04-.08c-.23-.42-.88-.05-.65.38l.04.08.06-.45.14-.04.28.36c0-.35.85-1,1.09-1.23.36-.35.72-.7,1.08-1.05.73-.69,1.48-1.36,2.25-2.01,1.65-1.4,3.38-2.7,5.18-3.91,1.66-1.11,3.38-2.19,5.18-3.07,1.96-.96,4.3-1.49,6.16-.05.38.29.76-.36.38-.65h0Z"/>
      <path class="cls-2" d="M43.89,241.38c-4.19-.28-8.37.08-12.56-.31-1.75-.16-3.51-.24-5.26-.35-5.95-.37-11.9-.7-17.85-1.05-2.62-.15-5.24-.31-7.86-.48-.48-.03-.48.72,0,.75,10.18.67,20.38,1.05,30.55,1.85,1.32.1,2.63.27,3.96.3,3,.07,6.01-.16,9.01.04.48.03.48-.72,0-.75h0Z"/>
      <path class="cls-2" d="M1.36,227.6c14.87,1.13,29.77,1.71,44.67,2.3.48.02.48-.73,0-.75-14.9-.6-29.79-1.17-44.67-2.3-.48-.04-.48.71,0,.75h0Z"/>
      <path class="cls-2" d="M52.5,261.3c-.56,1.74-2.94,1-4.15.59s-2.47-.81-3.63-.22c-.85.43-1.35,1.01-2.42,1-.69,0-1.37-.17-2.07-.06-1.2.19-3.6,2.71-4.63,1.26-.19-.27-.57-.22-.69.09-.68,1.77-2.93,1.9-4.49,1.44-1.68-.49-3.25-1.64-5.02-1.8-.45-.04-.92-.01-1.3.26-.22.15-.3.37-.47.55-.73.76-1.14.81-2.04.76-2.12-.13-4.25-.27-6.37-.41-.43-.03-.5.63-.1.74.7.19,1.4.39,2.1.58.43.12.63-.45.29-.69-1.46-1.01-3.08-1.53-4.85-1.6-.21,0-.37.18-.38.38l-.04,1.31.28-.36c-2.98.86-8.79-2.95-10.6,1.26-.19.44.46.82.65.38.82-1.89,3.17-1.81,4.86-1.41,1.78.42,3.46,1.02,5.29.49.16-.05.27-.19.28-.36l.04-1.31-.38.38c1.65.06,3.12.56,4.48,1.49l.29-.69c-.7-.19-1.4-.39-2.1-.58l-.1.74c1.31.08,2.61.17,3.92.25,1.17.08,2.49.35,3.65.19.57-.08.83-.29,1.2-.69,1.34-1.44,2.72-.57,4.21.07,2.37,1.02,6.21,2.04,7.44-1.17l-.69.09c.79,1.11,2.17.91,3.22.27,1.15-.71,1.9-1.26,3.34-1.15.94.07,1.78.14,2.61-.36.64-.39,1.11-.84,1.91-.87.65-.02,1.31.21,1.92.42.79.27,1.55.56,2.39.6,1.25.05,2.47-.37,2.88-1.64.15-.46-.58-.66-.72-.2h0Z"/>
      <path class="cls-2" d="M2.06,81.09c7.65-.42,15.32-.19,22.92.72s14.56,2.47,21.94,3.04c3.73.29,7.41.13,11.14.13,1.66,0,3.36.17,4.81,1.04,1.3.78,2.25,2.03,3.61,2.72,2.54,1.28,5.05-.34,7.57-.8,3.27-.6,5.12,2.09,7.86,3.2,3.42,1.38,7.44-.68,10.79-1.42,4.29-.95,8.67-1.41,13.06-1.43.48,0,.48-.75,0-.75-3.67.01-7.33.34-10.94.99-1.71.31-3.41.69-5.08,1.15-1.86.5-3.78,1.27-5.73,1.17-3.06-.16-4.86-3.04-7.75-3.66s-5.55,1.81-8.43,1.23c-1.61-.32-2.68-1.69-3.95-2.63-1.13-.83-2.41-1.27-3.8-1.45-1.48-.19-2.97-.09-4.46-.04-1.93.07-3.87.06-5.8-.03-7.52-.33-14.87-1.86-22.31-2.9-8.43-1.17-16.95-1.51-25.44-1.04-.48.03-.48.78,0,.75h0Z"/>
      <path class="cls-2" d="M146.33,89.29c10.52,1.05,21.15.94,31.65-.38,5.12-.64,10.17-1.61,15.2-2.76,2.58-.59,5.21-1.14,7.87-1.12,2.82.03,5.58.69,8.31,1.31,5.96,1.35,11.91,2.71,17.87,4.06.47.11.67-.62.2-.72-5.39-1.23-10.78-2.45-16.18-3.68-2.45-.56-4.89-1.18-7.38-1.51s-5.09-.2-7.63.25c-5.19.92-10.28,2.27-15.51,3.03s-10.76,1.26-16.17,1.41c-6.09.18-12.18-.05-18.24-.66-.48-.05-.48.7,0,.75h0Z"/>
      <path class="cls-2" d="M145.39,98.12c-3.56,6.9-7.26,13.72-10.94,20.55-5.51,10.21-11.04,20.4-16.58,30.59-6,11.05-12,22.09-17.99,33.14-5.01,9.26-10.02,18.52-14.96,27.82-2.63,4.95-5.48,9.88-7.72,15.02-.09.22-.19.44-.27.66-.16.46.56.65.72.2.53-1.47,1.36-2.93,2.08-4.34,1.49-2.94,3.03-5.85,4.57-8.76,4.72-8.92,9.52-17.8,14.32-26.68,5.9-10.9,11.81-21.8,17.73-32.69s11.33-20.85,16.96-31.28c3.97-7.35,7.95-14.7,11.82-22.1.3-.58.61-1.16.91-1.75.22-.43-.43-.81-.65-.38h0Z"/>
      <path class="cls-2" d="M102.6,99.2c-9.74,16.66-19.48,33.32-29.21,49.99s-19.26,33.08-29.06,49.53c-5.54,9.3-11.14,18.57-16.8,27.8-.25.41.4.79.65.38,10-16.32,19.8-32.77,29.46-49.3,9.71-16.6,19.41-33.2,29.11-49.81,5.5-9.41,10.99-18.81,16.49-28.22.24-.42-.4-.8-.65-.38h0Z"/>
      <path class="cls-2" d="M43.55,99.06c-7.15,10.68-14.95,20.91-22.14,31.57-3.59,5.32-7.14,10.67-10.7,16.01-1.62,2.43-3.26,4.85-4.85,7.29-.53.82-1.11,1.64-1.56,2.51-1.12,2.22-2.57,4.25-3.95,6.31-.27.4.38.78.65.38,3.1-4.64,5.89-9.43,8.99-14.07,7.15-10.7,14.26-21.4,21.75-31.86,4.21-5.88,8.43-11.75,12.45-17.76.27-.4-.38-.78-.65-.38h0Z"/>
      <path class="cls-2" d="M23.69,128.64c16.15.65,32.3.52,48.46.53,4.55,0,9.1.03,13.65.1.48,0,.48-.74,0-.75-15.83-.23-31.66.07-47.49-.21-4.88-.09-9.75-.23-14.63-.42-.48-.02-.48.73,0,.75h0Z"/>
      <path class="cls-2" d="M67.2,161.43c14.7.63,29.43.62,44.14.63.48,0,.48-.75,0-.75-14.71-.01-29.44,0-44.14-.63-.48-.02-.48.73,0,.75h0Z"/>
      <path class="cls-2" d="M46.71,194.1c-11.6-.56-23.2-.74-34.81-1.12-3.85-.12-7.69-.28-11.54-.46-.48-.02-.48.73,0,.75,11.36.53,22.72.68,34.08,1.06,4.09.14,8.18.32,12.27.51.48.02.48-.73,0-.75h0Z"/>
      <path class="cls-1" d="M77.29,226l68.42-127.69,21.43-.84,46.36,94.16v74.87l-101.21-5.19h-6.23l8.44-5.42,3.58-1.02,2.98.96-7.14-5.21,6.33-1.85,12.31.9-9.4-2.39-6.31-2.84-1.89-1.58-.63-4.41s11.15-6.73,10.4-6.62-16.08,6.31-16.08,6.31c0,0,1.26-5.68,1.26-5.99s8.83-8.83,8.83-8.83c0,0-10.09,6.94-10.09,6.31s-4.1-1.58-4.1-1.58l2.21-7.25-8.2,10.4-11.98,5.36-6.31-5.04-3-5.52Z"/>
    </g>
  </g>
</svg>