<?xml version="1.0" encoding="UTF-8"?>
<svg id="Capa_2" data-name="Capa 2" xmlns="http://www.w3.org/2000/svg" viewBox="0 0 276.03 293.3">
  <defs>
    <style>
      .cls-1 {
        opacity: .3;
      }

      .cls-1, .cls-2 {
        fill: #fff;
      }
    </style>
  </defs>
  <g id="TEJIDA">
    <g>
      <path class="cls-2" d="M254.82,34.04c-18.88,8.05-37.62,16.43-56.32,24.89-3.46,1.57-6.92,3.17-10.44,4.58-.44.18-.25.9.2.72,6.61-2.66,13.05-5.76,19.52-8.72,8.81-4.03,17.75-7.8,26.6-11.73,6.92-3.07,13.85-6.14,20.81-9.11.44-.19.06-.83-.38-.65h0Z"/>
      <path class="cls-2" d="M210.89,151.54c2.87-6.5,5.43-13.14,8.04-19.74,3.8-9.64,7.55-19.31,11.27-28.98,3.38-8.76,6.73-17.54,10.08-26.31,1.54-4.04,3.08-8.08,4.61-12.13,3.2-8.46,6.35-16.96,9.26-25.53.42-1.23.83-2.45,1.22-3.69.15-.46-.58-.66-.72-.2-3.13,9.71-6.74,19.28-10.34,28.83-1.24,3.29-2.49,6.57-3.74,9.85-3.19,8.37-6.39,16.75-9.61,25.11-3.75,9.74-7.51,19.48-11.32,29.19-2.84,7.24-5.66,14.51-8.72,21.66-.22.52-.44,1.03-.67,1.55-.19.44.45.82.65.38h0Z"/>
      <path class="cls-2" d="M248.07,45.77c-3.27,1.48-6.47,3.11-9.7,4.67-4.34,2.1-8.76,4.02-13.15,6.01-9.09,4.11-18.11,8.37-27.05,12.79-5.2,2.56-10.37,5.18-15.53,7.83-.43.22-.05.87.38.65,9.01-4.63,18.08-9.15,27.24-13.5,8.94-4.25,18.06-8.13,26.99-12.4,3.74-1.79,7.43-3.68,11.2-5.39.44-.2.06-.85-.38-.65h0Z"/>
      <path class="cls-2" d="M182.1,65.3c.22,4.03.36,8.05.36,12.09,0,.48.75.48.75,0,0-4.04-.13-8.06-.36-12.09-.03-.48-.78-.48-.75,0h0Z"/>
      <path class="cls-2" d="M178.18,66.01c.19,3.88.07,7.77.26,11.64.01.21.16.36.38.38,1.34.08,2.67-.24,4-.27.48-.01.48-.76,0-.75-1.34.03-2.66.35-4,.27l.38.38c-.19-3.88-.07-7.77-.26-11.64-.02-.48-.77-.48-.75,0h0Z"/>
      <path class="cls-2" d="M.86,104.42c24.09-5.62,48.21-11.12,72.38-16.41,24.44-5.35,48.95-10.42,73.48-15.37,13.86-2.8,27.73-5.57,41.6-8.33.47-.09.27-.82-.2-.72-24.65,4.92-49.31,9.84-73.92,14.95-24.33,5.05-48.61,10.34-72.85,15.82-13.57,3.07-27.13,6.19-40.68,9.35-.47.11-.27.83.2.72h0Z"/>
      <path class="cls-2" d="M.86,114.73c24.29-5.84,48.74-11.06,73.2-16.14,23.54-4.89,47.09-9.73,70.61-14.74,11.3-2.4,22.62-4.73,33.99-6.82.47-.09.27-.81-.2-.72-21.21,3.89-42.25,8.65-63.36,13.03-24.54,5.1-49.12,10.06-73.61,15.37-13.64,2.96-27.26,6.03-40.83,9.29-.47.11-.27.84.2.72h0Z"/>
      <path class="cls-2" d="M134.28,86.25c2.75,1.93,5.22,4.19,7.86,6.27s5.12,4.35,7.71,6.47c.37.3.9-.22.53-.53-2.66-2.18-5.2-4.51-7.91-6.63s-5.08-4.31-7.81-6.23c-.4-.28-.77.37-.38.65h0Z"/>
      <path class="cls-2" d="M126.02,87.97c8,6.35,15.62,13.16,23.65,19.47.38.29.91-.23.53-.53-8.03-6.31-15.65-13.13-23.65-19.47-.37-.3-.91.23-.53.53h0Z"/>
      <path class="cls-2" d="M149.74,98.72c-.13,2.84,0,5.69,0,8.53,0,.48.75.48.75,0,0-2.84-.13-5.69,0-8.53.02-.48-.73-.48-.75,0h0Z"/>
      <path class="cls-2" d="M74.89,98.69c10.89,7.14,21.81,14.22,32.72,21.34.41.26.78-.38.38-.65-10.91-7.11-21.83-14.19-32.72-21.34-.4-.27-.78.38-.38.65h0Z"/>
      <path class="cls-2" d="M84.49,96.56c7.1,4.03,13.57,9.05,20.62,13.16.42.24.8-.4.38-.65-7.05-4.1-13.52-9.12-20.62-13.16-.42-.24-.8.41-.38.65h0Z"/>
      <path class="cls-2" d="M104.93,109.57v8.36c0,.48.75.48.75,0v-8.36c0-.48-.75-.48-.75,0h0Z"/>
      <path class="cls-2" d="M32.93,107.23c9.87,4.94,19.83,9.65,30.09,13.72.45.18.64-.55.2-.72-10.2-4.05-20.1-8.74-29.91-13.65-.43-.22-.81.43-.38.65h0Z"/>
      <path class="cls-2" d="M22,109.75c1.58.55,3.11,1.29,4.64,1.95,3.08,1.33,6.16,2.68,9.24,4.03,6.87,3.01,13.74,6.04,20.61,9.04,2.13.93,4.26,1.88,6.41,2.76.45.18.64-.54.2-.72-11.95-4.86-23.65-10.37-35.48-15.5-1.79-.77-3.57-1.64-5.41-2.28-.46-.16-.65.57-.2.72h0Z"/>
      <path class="cls-2" d="M62.66,120.88v6.18c0,.48.75.48.75,0v-6.18c0-.48-.75-.48-.75,0h0Z"/>
      <path class="cls-2" d="M105.51,118.05c12.64-2.25,25.29-4.49,37.87-7.08.47-.1.27-.82-.2-.72-12.58,2.6-25.23,4.83-37.87,7.08-.47.08-.27.81.2.72h0Z"/>
      <path class="cls-2" d="M63.71,126.8c10.75-1.3,21.24-4.16,31.98-5.48.47-.06.48-.81,0-.75-10.75,1.32-21.23,4.18-31.98,5.48-.47.06-.48.81,0,.75h0Z"/>
      <path class="cls-2" d="M19.35,136.42c10.29-2.83,20.76-4.94,31.28-6.72.47-.08.27-.8-.2-.72-10.52,1.78-20.99,3.89-31.28,6.72-.46.13-.27.85.2.72h0Z"/>
      <path class="cls-2" d="M105.51,110.22c12.64-2.25,25.29-4.49,37.87-7.08.47-.1.27-.82-.2-.72-12.58,2.6-25.23,4.83-37.87,7.08-.47.08-.27.81.2.72h0Z"/>
      <path class="cls-2" d="M63.09,120.78c11.33-2.54,22.74-4.58,34.14-6.76.47-.09.27-.81-.2-.72-11.4,2.18-22.81,4.21-34.14,6.76-.47.11-.27.83.2.72h0Z"/>
      <path class="cls-2" d="M19.35,128.24c10.14-2.37,20.31-4.65,30.58-6.4.47-.08.27-.8-.2-.72-10.27,1.75-20.44,4.03-30.58,6.4-.47.11-.27.83.2.72h0Z"/>
      <path class="cls-2" d="M.93,129.51c2.84,1.01,5.62,2.14,8.4,3.28,3.23,1.33,6.57,2.35,9.82,3.64.45.18.64-.55.2-.72-3.25-1.29-6.59-2.31-9.82-3.64-2.79-1.14-5.56-2.27-8.4-3.28-.46-.16-.65.56-.2.72h0Z"/>
      <path class="cls-2" d="M18.87,127.88c.06,1.08.02,2.18.03,3.27.01,1.61.03,3.23.11,4.84.03.48.78.48.75,0-.08-1.61-.1-3.22-.11-4.84,0-1.09.03-2.18-.03-3.27-.03-.48-.78-.48-.75,0h0Z"/>
      <path class="cls-2" d="M.63,121.08c5.83,3.19,12.24,5.08,18.52,7.16.46.15.66-.57.2-.72-6.22-2.07-12.57-3.93-18.34-7.09-.42-.23-.8.42-.38.65h0Z"/>
      <path class="cls-2" d="M245.41,47.42c-1.19,3.49-2.44,6.97-3.67,10.45-2.53,7.17-5.07,14.34-7.61,21.51-3.07,8.65-6.14,17.3-9.21,25.94-2.86,8.02-5.71,16.04-8.59,24.06-1.89,5.28-3.78,10.57-5.73,15.83-.13.35-.26.71-.39,1.06-.17.45.56.65.72.2,1.77-4.73,3.46-9.49,5.17-14.25,2.81-7.82,5.6-15.65,8.39-23.48,3.09-8.68,6.18-17.37,9.26-26.06,2.64-7.44,5.28-14.89,7.91-22.34,1.44-4.08,2.89-8.16,4.31-12.25.06-.16.11-.32.17-.49.16-.46-.57-.65-.72-.2h0Z"/>
      <path class="cls-2" d="M239.97,50.03c-7.98,22.99-16.02,45.95-23.84,69-2.2,6.48-4.4,12.96-6.64,19.43-.16.46.57.65.72.2,7.96-22.96,15.75-45.99,23.72-68.95,2.25-6.49,4.51-12.99,6.76-19.48.16-.46-.57-.65-.72-.2h0Z"/>
      <path class="cls-2" d="M248.39,37.88c-.21,2.74-.42,5.48-.63,8.22-.04.48.71.48.75,0,.21-2.74.42-5.48.63-8.22.04-.48-.71-.48-.75,0h0Z"/>
      <path class="cls-2" d="M50.88,122.19c-.55,23.89-.44,47.8-.81,71.7-.11,6.8-.2,13.6-.26,20.41,0,.48.75.48.75,0,.2-23.94.6-47.88.78-71.82.05-6.76.13-13.52.29-20.29.01-.48-.74-.48-.75,0h0Z"/>
      <path class="cls-2" d="M62.61,127.17c-.03,9.94.1,19.88.2,29.81.1,10.84.31,21.68.34,32.53.03,9.21-.06,18.42-.19,27.63,0,.48.74.48.75,0,.22-15.59.2-31.16-.01-46.75-.13-9.39-.2-18.78-.27-28.17-.04-5.02-.08-10.03-.07-15.05,0-.48-.75-.48-.75,0h0Z"/>
      <path class="cls-2" d="M152.95,82.02c-.18,17.45-.28,34.91-.31,52.36s.01,34.91.13,52.37c.06,9.81.15,19.62.26,29.42,0,.48.76.48.75,0-.2-17.45-.32-34.91-.37-52.36-.05-17.46-.03-34.91.07-52.37.05-9.81.13-19.62.23-29.42,0-.48-.75-.48-.75,0h0Z"/>
      <path class="cls-2" d="M143.34,102.28c.32,15.08.54,30.16.66,45.24.12,15.4.15,30.81-.01,46.21-.04,3.97-.15,7.93-.15,11.9s.21,7.67.22,11.51c0,.48.75.48.75,0,0-3.29-.17-6.57-.21-9.86-.04-3.61.07-7.22.11-10.83.09-7.48.13-14.96.14-22.44.02-15.59-.1-31.19-.32-46.78-.12-8.32-.26-16.63-.44-24.95-.01-.48-.76-.48-.75,0h0Z"/>
      <path class="cls-2" d="M96.75,112.95c.12,14.93-.05,29.87,0,44.8.03,10.49-.04,20.99-.01,31.49.02,6.41.04,12.83.19,19.24.01.48.76.48.75,0-.28-12.07-.21-24.15-.19-36.23.01-10.29-.03-20.58.01-30.88.04-9.47.08-18.95,0-28.42,0-.48-.75-.48-.75,0h0Z"/>
      <path class="cls-2" d="M107.42,119.7c.5,9.77.3,19.62.38,29.4.12,15.22.21,30.44.28,45.66.02,5.68.05,11.36.05,17.04,0,.48.75.48.75,0,0-12.13-.08-24.27-.15-36.4-.08-14.57-.17-29.13-.34-43.7-.05-4-.01-8.01-.22-12.01-.02-.48-.77-.48-.75,0h0Z"/>
      <path class="cls-2" d="M8.92,132.51c0,11-.43,21.99-.63,32.99-.16,8.95-.21,17.9-.29,26.85s-.14,17.72-.15,26.58c0,.48.75.48.75,0,0-14.04.15-28.09.31-42.13.1-8.97.27-17.93.46-26.9.13-5.79.29-11.59.29-17.39,0-.48-.75-.48-.75,0h0Z"/>
      <path class="cls-2" d="M20.98,135.98c.02,22.34-.57,44.68-.24,67.02.09,6.26.12,12.51-.09,18.76-.02.48.73.48.75,0,.39-11.07-.03-22.15-.03-33.23,0-10.63.16-21.25.26-31.88.07-6.89.11-13.78.1-20.67,0-.48-.75-.48-.75,0h0Z"/>
      <path class="cls-2" d="M.88,94.87c16.54-4.09,33.09-8.16,49.64-12.2,16.45-4.02,32.9-8,49.36-11.96,16.53-3.97,33.07-7.91,49.62-11.8,16.56-3.9,33.12-7.75,49.7-11.56s33.06-7.54,49.6-11.23c2.1-.47,4.2-.94,6.3-1.4.47-.1.27-.83-.2-.72-16.63,3.7-33.26,7.45-49.87,11.25-16.5,3.78-32.99,7.6-49.48,11.47-16.55,3.88-33.09,7.81-49.63,11.77s-33.07,7.96-49.6,11.99c-16.47,4.01-32.94,8.06-49.39,12.12-2.09.52-4.18,1.03-6.27,1.55-.47.12-.27.84.2.72h0Z"/>
      <path class="cls-2" d="M206.09,155.18c-17.46,2.87-35.07,4.68-52.52,7.55-.48.08-.27.8.2.72,17.46-2.87,35.07-4.68,52.52-7.55.48-.08.27-.8-.2-.72h0Z"/>
      <path class="cls-2" d="M206.03,155.89c7.17,5.7,14.4,11.34,21.44,17.2s14.37,12.53,21.47,18.88c.36.32.89-.21.53-.53-7.1-6.35-14.15-12.78-21.47-18.88s-14.27-11.5-21.44-17.2c-.37-.3-.91.23-.53.53h0Z"/>
      <path class="cls-2" d="M249.12,191.85c-.17,14.12-.15,28.24-.17,42.35,0,.48.75.48.75,0,.03-14.12,0-28.24.17-42.35,0-.48-.74-.48-.75,0h0Z"/>
      <path class="cls-2" d="M155.09,216.8c17.1-1.46,34.17-3.28,51.21-5.33.47-.06.48-.81,0-.75-17.04,2.05-34.11,3.88-51.21,5.33-.48.04-.48.79,0,.75h0Z"/>
      <path class="cls-2" d="M206.11,211.42c1.66.57,3.24,1.62,4.77,2.45,3.09,1.67,6.15,3.37,9.22,5.08,7.19,3.98,14.35,8,21.6,11.86,2.46,1.31,4.93,2.7,7.52,3.76.45.18.64-.54.2-.72-2.26-.93-4.41-2.14-6.56-3.28-3.38-1.79-6.74-3.63-10.1-5.48-6.95-3.82-13.87-7.71-20.84-11.51-1.8-.98-3.66-2.22-5.61-2.89-.46-.16-.65.57-.2.72h0Z"/>
      <path class="cls-2" d="M154.38,207.91c17.21-1.73,34.33-4.24,51.56-5.69.48-.04.48-.79,0-.75-17.23,1.45-34.36,3.96-51.56,5.69-.48.05-.48.8,0,.75h0Z"/>
      <path class="cls-2" d="M205.73,202.01c6.47,5.24,14.04,9.02,21.28,13.06s14.76,8.21,22.12,12.35c.42.24.8-.41.38-.65-7.23-4.07-14.48-8.08-21.73-12.13s-15-7.88-21.52-13.17c-.37-.3-.91.23-.53.53h0Z"/>
      <path class="cls-2" d="M205.57,201.85c0,3.09.35,6.16.36,9.25,0,.48.75.48.75,0,0-3.09-.35-6.16-.36-9.25,0-.48-.75-.48-.75,0h0Z"/>
      <path class="cls-2" d="M206.26,156.17c-1.51,14.08-1.74,28.27-.66,42.39.04.48.79.48.75,0-1.08-14.12-.85-28.31.66-42.39.05-.48-.7-.48-.75,0h0Z"/>
      <path class="cls-2" d="M125.91,114.01c-.26,13.16-.26,26.33-.28,39.5-.03,15.29-.04,30.58.2,45.87.04,2.57.09,5.15.18,7.72.05,1.23.01,2.53.26,3.74.1.47.82.27.72-.2-.2-.95-.18-2.11-.22-3.13-.09-2.15-.13-4.3-.17-6.45-.12-6.68-.17-13.36-.2-20.05-.08-16.11-.05-32.22.05-48.34.04-6.22.08-12.44.2-18.66,0-.48-.74-.48-.75,0h0Z"/>
      <path class="cls-2" d="M78.62,123.97c.08,10.75-.02,21.51-.05,32.26-.04,14.14-.09,28.29-.04,42.43.02,5.35.03,10.7.18,16.04.01.48.76.48.75,0-.31-11.26-.21-22.54-.2-33.81.01-14,.07-28,.11-42,.01-4.98.03-9.95,0-14.93,0-.48-.75-.48-.75,0h0Z"/>
      <path class="cls-2" d="M37.01,131.79c-.23,23.24-.57,46.48-.5,69.72.02,6.27.07,12.55.14,18.82,0,.48.76.48.75,0-.27-22.23-.1-44.46.13-66.69.08-7.29.15-14.57.23-21.86,0-.48-.75-.48-.75,0h0Z"/>
      <path class="cls-2" d="M187.55,143.18c7.31-1.57,14.59-3.34,21.99-4.47.48-.07.27-.8-.2-.72-7.4,1.13-14.68,2.9-21.99,4.47-.47.1-.27.82.2.72h0Z"/>
      <path class="cls-2" d="M209.61,138.44c-.12,6.56.15,13.11.23,19.67,0,.48.76.48.75,0-.07-6.56-.35-13.11-.23-19.67,0-.48-.74-.48-.75,0h0Z"/>
      <path class="cls-2" d="M187.07,142.82c.07,5.1-.07,10.19,0,15.29,0,.48.76.48.75,0-.07-5.1.07-10.19,0-15.29,0-.48-.76-.48-.75,0h0Z"/>
      <path class="cls-2" d="M177.07,110.95c.26,12.45.52,24.89.79,37.34.01.48.76.48.75,0-.26-12.45-.52-24.89-.79-37.34-.01-.48-.76-.48-.75,0h0Z"/>
      <path class="cls-2" d="M160.78,111.19c5.56,0,11.15-.24,16.71,0,.48.02.48-.73,0-.75-5.56-.24-11.15,0-16.71,0-.48,0-.48.75,0,.75h0Z"/>
      <path class="cls-2" d="M153.58,103.26c8.67-8.34,17.3-16.73,25.97-25.07.35-.34-.18-.87-.53-.53-8.67,8.34-17.3,16.73-25.97,25.07-.35.34.18.87.53.53h0Z"/>
      <path class="cls-2" d="M153.58,107.88c10.77-9.47,21.28-19.25,31.82-28.97,1.73-1.59,3.48-3.16,5.16-4.81.35-.34-.19-.87-.53-.53-3.96,3.88-8.14,7.56-12.23,11.3-6.12,5.61-12.26,11.2-18.41,16.78-2.11,1.91-4.21,3.82-6.34,5.7-.36.32.17.85.53.53h0Z"/>
      <path class="cls-2" d="M157.3,104.9c8.85,17.82,16.91,36.03,25.21,54.11.2.44.85.06.65-.38-8.3-18.08-16.36-36.3-25.21-54.11-.21-.43-.86-.05-.65.38h0Z"/>
      <path class="cls-2" d="M153.93,108.01c1.26,1.64,2.06,3.79,2.94,5.64,1.77,3.72,3.47,7.48,5.16,11.23,3.88,8.59,7.69,17.21,11.72,25.73,1.39,2.94,2.73,5.99,4.47,8.75.26.41.91.03.65-.38-1.47-2.33-2.62-4.88-3.8-7.35-1.92-4.01-3.77-8.07-5.61-12.12-3.79-8.34-7.47-16.72-11.36-25.01-1.06-2.25-2-4.89-3.53-6.88-.29-.38-.94,0-.65.38h0Z"/>
      <path class="cls-2" d="M178.31,131.89c4.7,3.01,9.23,6.25,13.59,9.73.37.3.91-.23.53-.53-4.41-3.52-8.99-6.8-13.74-9.84-.41-.26-.78.39-.38.65h0Z"/>
      <path class="cls-2" d="M178.08,124.81c4.81,3.65,9.35,7.7,14.52,10.87.41.25.79-.4.38-.65-5.17-3.17-9.7-7.22-14.52-10.87-.38-.29-.76.36-.38.65h0Z"/>
      <path class="cls-2" d="M192.05,72.76c-.03,8.86,0,17.72.15,26.58.13,7.9.25,15.79.3,23.69.03,5.88.05,11.77.27,17.65.02.48.77.48.75,0-.37-10.16-.27-20.34-.33-30.5-.05-8.27-.33-16.54-.37-24.81-.02-4.2-.03-8.4-.02-12.61,0-.48-.75-.48-.75,0h0Z"/>
      <path class="cls-2" d="M208.41,64.59c0,8.75.15,17.5.25,26.25.13,11.83.28,23.66.39,35.49.04,3.96.09,7.91.07,11.87,0,.48.75.48.75,0,.04-8.77-.12-17.55-.22-26.33-.13-11.82-.28-23.65-.4-35.47-.04-3.94-.09-7.88-.09-11.82,0-.48-.75-.48-.75,0h0Z"/>
      <path class="cls-2" d="M210.97,151.45c1.49,3.64,2.99,7.29,4.48,10.93.18.44.91.25.72-.2-1.49-3.64-2.99-7.29-4.48-10.93-.18-.44-.91-.25-.72.2h0Z"/>
      <path class="cls-2" d="M.27,64.67c1.39.24,2.65.03,3.87-.69.1-.06.2-.2.19-.32-.18-1.35.03-2.59.68-3.8.09-.16.05-.32-.06-.45l-1.13-1.36.06.45c1.72-4.05,1.72-8.52,0-12.58l-.42.55c1.32.21,2.55.59,3.75,1.19.15.08.33.06.45-.06,1.82-1.76,3.62-3.54,5.46-5.28,1.71-1.61,4.19-3.65,6.67-2.54.27.12.54-.02.56-.32.13-1.3.25-2.6.38-3.89.02-.17-.13-.31-.28-.36-1.85-.61-3.74-1.33-5.28-2.56-.7-.56-1.33-1.24-1.71-2.06-.51-1.09-.3-2.15-.4-3.3-.33-3.97-8.08-4.7-6.4-9.16l-.36.28c1.35.08,1.31,2.75,1.67,3.72.53,1.39,1.79,1.93,3.04,2.56,2.12,1.07,4.24,2.14,6.36,3.21.87.44,1.81.85,2.55,1.52.77.69,1.09,1.62,1.64,2.46,1.79,2.71,5.69,2.39,8.33,1.26,3.39-1.45,5.98-4.32,8.33-7.06l-.64-.27c.07,1.57,1.59,2.5,3.08,2.35,2.75-.28,4.33-3.9,7.27-3.25l-.26-.46c-.61,1.53-1.23,3.07-1.84,4.6-.09.23.14.48.36.47,2.28-.05,2.97,3.52,4.38,4.84.92.86,2.03,1.02,3.24.85.81-.11,1.77-.46,2.59-.27.7.16,2.16,1.57,1.01,2.15-.33.16-.18.73.19.7,3.08-.24,5.71-1.77,8.36-3.24,3.1-1.73,6.87-3.5,10.39-1.91.26.12.68-.08.55-.42-.6-1.56-1.21-3.13-1.81-4.69l-.36.47c2.74.31,5.12-2.92,3.98-5.46-.33-.73-.95-1.23-1.49-1.8-1.03-1.09-.74-2.22-1.32-3.46s-1.91-1.59-2.89-.58c-.89.92-1.45,1.54-2.84,1.52-1.03-.02-3.78-.32-3.93-1.68s1.49-2.13,2.42-2.73c.76-.48,1.4-1.05,1.85-1.83.97-1.7.89-3.71,1.52-5.52.35-1.02,1-2.12,1.97-2.67.18-.1.7-.34.96-.3.46.07.39.2.54.57.17.41.36.81.61,1.18.8,1.21,2.33,2.23,3.59.96,1.84-1.87,2.6-6.38,6.22-5.27l-.28-.36c-.06,2.51-2.38,4.87-1.2,7.41.62,1.34,1.92,2.46,2.89,3.55,1.33,1.49,2.65,2.98,3.98,4.48l.17-.63c-.52.22-1.04.43-1.57.65-.26.11-.76.19-.95.42-.36.44-.11,1.27.13,1.71.42.77,1.13,1.26,1.88,1.66.5.27,1.01.51,1.45.87.59.49,1.4,1.97.15,2.39-.18.06-.34.26-.26.46.52,1.39,1.91,1.83,3.31,1.78.98-.03,1.92-.37,2.89-.5.77-.1,1.59-.11,2.27.33.44.29.75.73,1.17,1.04,1.4,1.02,2.67.06,3.9-.74s2.69-1.03,3.6.32-.24,3.08-1.73,3.29c-.23.03-.36.37-.22.55,1.21,1.67,3.32,1.03,5.06.82,2.91-.35,5.79.95,7.47,3.34.07.1.19.2.32.19,1.43-.16,2.85-.33,4.28-.49.67-.08,1.39-.24,2.05-.21.94.03,1.41.46,2.05,1.05,1.53,1.4,3.48,2.09,5.54,2.03l-.38-.38c.07,1.56-1.29,2.91-2.88,2.69-.2-.03-.41.04-.46.26-.61,2.46,2.45,2.38,3.92,2.94,2.23.84,2.97,4.01,1.44,5.8-.15.18-.15.47.08.59,1.7.91,3.39,1.81,5.09,2.72l.19-.7c-2.6.08-5,1.65-6.1,4.02-.73,1.58-1.04,4.8,1.41,4.98l-.32-.56c-.38.59-.76,1.18-1.14,1.77-.26.41.39.78.65.38.38-.59.76-1.18,1.14-1.77.16-.26-.06-.54-.32-.56-1.33-.1-1.33-1.89-1.11-2.83.2-.84.59-1.61,1.12-2.28,1.14-1.45,2.83-2.33,4.68-2.39.36-.01.53-.52.19-.7-1.7-.91-3.39-1.81-5.09-2.72l.08.59c1.16-1.36,1.32-3.24.56-4.85-.37-.78-.94-1.48-1.69-1.91-1-.58-4.5-.46-4.05-2.3l-.46.26c2.05.28,3.92-1.31,3.83-3.42,0-.2-.17-.38-.38-.38-1.42.04-2.82-.28-4.02-1.05-.85-.55-1.5-1.53-2.45-1.89-1.16-.44-2.7.01-3.89.15-.71.08-1.43.16-2.14.24-.79.09-1.07.22-1.59-.31-1.49-1.52-3.1-2.64-5.25-3-.96-.16-1.9-.13-2.86.01-1.23.18-3.05.69-3.93-.52l-.22.55c1.7-.24,3.05-2,2.5-3.73s-2.53-2.45-4.1-1.74c-1.03.47-2.15,1.82-3.36,1.52-1.06-.27-1.61-1.44-2.74-1.72-1.94-.49-6.2,1.86-7.2-.78l-.26.46c1.29-.44,1.48-2.04.75-3.08-.52-.74-1.41-1.13-2.18-1.55-.37-.2-.76-.41-1.07-.7-.34-.32-.8-1.06-.57-1.55.13-.28,1.63-.67,1.96-.81.26-.11.37-.4.17-.63-1.11-1.24-2.21-2.49-3.32-3.73s-2.43-2.4-3.25-3.79c-1.36-2.32,1.06-4.98,1.12-7.38,0-.17-.12-.31-.28-.36-1.99-.61-3.77.57-4.9,2.15-.7.97-1.35,3.09-2.47,3.51-1.5.57-2.44-1.63-2.78-2.79-.03-.11-.14-.24-.26-.26-2.54-.36-4.1,2.09-4.6,4.29-.36,1.56-.44,3.28-1.3,4.67s-2.71,1.75-3.68,3.08c-.57.78-.86,1.9-.24,2.73.71.96,2.41,1.19,3.5,1.33s2.37.09,3.3-.65c.2-.16.36-.35.53-.55.09-.1.25-.4.37-.47l.68-.05c.48-.24.77-.14.89.3.54.73.36,1.81.73,2.62.7,1.55,2.61,2.2,2.37,4.16-.21,1.72-1.7,3.2-3.48,2.99-.23-.03-.44.26-.36.47.6,1.56,1.21,3.13,1.81,4.69l.55-.42c-6.94-3.13-12.54,4.53-19.12,5.05l.19.7c1.15-.58.84-1.92.1-2.73-1.57-1.71-3.66-.11-5.56-.52-3-.64-2.73-5.79-6.14-5.71l.36.47c.61-1.53,1.23-3.07,1.84-4.6.07-.18-.08-.42-.26-.46-1.54-.34-2.88.31-4.09,1.23-.9.68-1.78,1.54-2.88,1.88s-2.77-.06-2.83-1.48c-.01-.3-.42-.53-.64-.27-2.42,2.83-5.16,5.93-8.78,7.17-1.68.58-3.88.82-5.49-.08s-1.9-2.94-3.33-4.04c-1.5-1.16-3.41-1.88-5.1-2.73s-3.77-1.63-5.37-2.76c-1.76-1.24-.71-5.28-3.32-5.44-.17-.01-.31.13-.36.28-.75,1.98.52,3.8,2,5.04.88.74,1.92,1.25,2.82,1.95.58.45,1.16,1,1.41,1.71.27.76.09,1.57.13,2.35.22,4.03,4.67,5.88,7.95,6.95l-.28-.36c-.13,1.3-.25,2.6-.38,3.89l.56-.32c-2.21-.99-4.35.03-6.14,1.41-2.48,1.92-4.65,4.35-6.9,6.52l.45-.06c-1.25-.63-2.54-1.05-3.93-1.27-.34-.05-.56.24-.42.55,1.6,3.78,1.61,8.04,0,11.82-.07.17-.06.31.06.45l1.13,1.36-.06-.45c-.46.86-.76,1.76-.84,2.73-.05.66.18,1.13-.45,1.47-.77.41-1.77.41-2.6.26-.47-.08-.67.64-.2.72H.27Z"/>
      <path class="cls-2" d="M2.42,278.94c.48,0,.48-.75,0-.75s-.48.75,0,.75h0Z"/>
      <path class="cls-2" d="M2.62,279.68c2.07-.6,4.12-.39,6.03.62,1.21.64,2.19,1.19,3.6,1,.66-.09,1.3-.29,1.96-.41.57-.1,1.23-.22,1.72.21.4.35.44,1.07.62,1.52.39,1.01,1.15,1.5,2.19,1.69,1.42.25,2.82.05,4.21.56,1.3.48,2.58,1.2,4.02.88.93-.21,1.7-.86,1.77-1.85.07-.88-.39-1.7-1.28-1.89-.39-.09-.69.49-.29.69,5.47,2.65,12.64-.5,14.35-6.35l-.72-.2c-.29,1.71-.57,3.43-.86,5.14-.21,1.27-.73,2.78-.6,4.07.22,2.22,4.24,1.83,5.72,1.62,1.77-.24,3.3-1.12,5.02-.2,1.02.54,1.93,1.03,3.09,1.21,2.29.35,4.59-.4,6.28-1.96.26-.24.04-.61-.27-.64-3.4-.35-2.82-6.01-2.83-8.3,0-1.27.31-3.05-.66-4.07-.42-.44-1.02-.67-1.53-.99-.74-.46-1.4-1.04-1.96-1.71-1.14-1.35-1.89-3.05-2.07-4.81-.17-1.66.53-3.31.23-4.95-.5-2.79-5.74-5.33-3.76-8.36l-.69-.09c.54,2.48,2.11,4.55,4.36,5.74l-.17-.42c-1.26,3.77,3.32,5.47,4.66,8.29.6,1.25.45,2.74,2.12,3.03.79.14,1.58-.04,2.36.21,1.23.39,2.12,1.37,2.51,2.58.09.28.41.36.63.17,1.89-1.7,1.21-4.44.55-6.57-1.14-3.7-1.83-7.41-1.95-11.29-.18-5.76.4-12.13-3.4-16.94-.27-.34-.81.1-.59.45,2.55,4.16,4.52,8.64,5.8,13.36.67,2.48.99,7.33,4.43,7.51l-.32-.56c-.32.51-.79.79-1.39.83l.36.47c.91-2.27,4.55-2.16,5.49.01.16.37.68.14.7-.19.27-4.08.55-8.16.82-12.24l-.7.19c2.32,3.81,3.19,8.3,2.41,12.7-.03.19.05.41.26.46,3.59.81,6.56-1.82,8.91-4.2.11-.11.15-.32.06-.45-.5-.76-.72-1.49-.7-2.39l-.28.36c2.79-.63,5.62-.83,8.47-.6.13.01.26-.08.32-.19,1.6-2.54,3.2-5.09,4.8-7.63h-.65c1.77,3.02,5.61,1.96,7.89.23,2.13-1.62,5.81-4.75,3.97-7.75l-.13.51c1.06-.64,2.11-.91,3.35-.87l-.36-.28c1.24,3.87-4.39,5.72-5.63,8.78-.34.84-.13,1.97-.58,2.73-.36.62-1.09.94-1.7,1.26-.9.48-1.79.98-1.98,2.06-.03.18.03.31.17.42,2.31,1.76.07,5.99-.18,8.26-.12,1.1-.04,2.28.72,3.15.47.54,1.1.81,1.74,1.09,1.31.56,1.79,1.28,2.14,2.62.43,1.64.88,2.8,2.62,3.29,1.27.35,1.93.73,2.73,1.78.43.56.82,1.2,1.39,1.63,1.06.8,2.18.36,2.94-.62.8-1.04,1.2-1.93,2.73-1.44.91.29,1.67.53,2.64.41,1.77-.22,3.4-1.35,4.31-2.88.48-.82.5-1.58.73-2.46.09-.35-.17-.26.26-.56.31-.21,1.07-.15,1.38-.09.77.14,1.4.57,1.84,1.22.17.25.48.23.65,0,2.29-3.12,5.86-6.94,9.83-3.92,2.64,2.01,5.28.51,7.59-1.32h-.53c.63.72,1.26,1.44,1.89,2.16.32.36.85-.17.53-.53-.63-.72-1.26-1.44-1.89-2.16-.14-.16-.38-.12-.53,0-1.66,1.32-4.03,2.98-6.14,1.61-1.37-.89-2.28-1.73-4.04-1.64-3.36.16-5.52,2.92-7.35,5.42h.65c-1.06-1.57-3.06-2.07-4.74-1.16-.11.06-.2.2-.19.32.19,1.97-.93,3.79-2.66,4.7-.79.41-1.69.65-2.59.56-.94-.1-1.78-.73-2.74-.64-1.39.13-1.66,1.53-2.56,2.33-1.51,1.35-2.76-1.55-3.66-2.41-.44-.42-.94-.69-1.53-.86-1.23-.36-2.11-.57-2.56-1.89-.4-1.18-.48-2.56-1.49-3.42-1.21-1.03-3.03-.95-3.37-2.81-.23-1.24.18-2.57.48-3.76.55-2.18,1.46-5-.67-6.62l.17.42c.25-1.4,2.13-1.66,3.07-2.51,1.27-1.14.72-3,1.67-4.37,1.81-2.59,6.4-4.49,5.16-8.36-.05-.16-.19-.27-.36-.28-1.35-.04-2.57.28-3.73.98-.17.1-.24.34-.13.51,1.53,2.48-1.73,5.15-3.46,6.53-1.93,1.54-5.46,3.03-7.1.23-.15-.25-.5-.24-.65,0-.76,1.21-1.51,2.41-2.27,3.62-.42.67-.84,1.34-1.26,2.01-.31.5-.7,1.45-1.21,1.7s-1.54.02-2.12.02c-.72,0-1.44.03-2.15.09-1.39.11-2.76.34-4.12.64-.16.04-.27.2-.28.36-.02,1.02.24,1.92.81,2.77l.06-.45c-2.13,2.16-4.89,4.74-8.18,4.01l.26.46c.81-4.6-.06-9.28-2.49-13.27-.2-.33-.67-.17-.7.19-.27,4.08-.55,8.16-.82,12.24l.7-.19c-1.22-2.85-5.74-2.63-6.86.17-.08.21.13.5.36.47.89-.11,1.51-.47,2.03-1.2.18-.25-.06-.55-.32-.56-1.86-.1-2.55-2.24-2.94-3.76-.49-1.93-.92-3.86-1.54-5.76-1.27-3.85-2.99-7.52-5.11-10.97l-.59.45c3.64,4.61,3.01,10.9,3.18,16.41.09,3.08.5,6.14,1.28,9.13.62,2.37,2.59,6.17.34,8.2l.63.17c-.42-1.32-1.33-2.4-2.62-2.95-.49-.21-1-.32-1.53-.35-.45-.03-1.16.13-1.57-.07-.57-.29-.81-.97-.96-1.52-.39-1.43-1.27-2.47-2.32-3.48-1.45-1.39-3.4-3.09-2.66-5.33.05-.15-.03-.35-.17-.42-2.08-1.11-3.51-2.99-4.01-5.29-.07-.33-.52-.34-.69-.09-2.09,3.2,2.23,5.53,3.38,7.98.87,1.85-.2,4.16.1,6.16.23,1.6.89,3.13,1.86,4.42.52.69,1.12,1.3,1.81,1.82.62.47,1.53.76,2.05,1.34.73.8.44,2.52.44,3.54,0,1.09-.03,2.19.02,3.28.1,2.33.77,5.49,3.56,5.77l-.27-.64c-1.69,1.57-4.11,2.21-6.36,1.6-1-.27-1.77-.89-2.71-1.28-.84-.35-1.63-.33-2.51-.14-1.24.28-2.39.62-3.68.65-.71.02-1.43-.03-2.13-.15-1.09-.19-1.37-.91-1.33-2.02.05-1.28.44-2.65.65-3.92s.44-2.61.65-3.92c.08-.47-.59-.67-.72-.2-1.56,5.36-8.21,8.34-13.24,5.9l-.29.69c1.39.3.57,1.98-.32,2.26-.75.24-1.6,0-2.3-.24-1.13-.41-2.15-.92-3.36-1.02-1.1-.09-2.72.18-3.59-.65s-.47-2.19-1.64-2.8c-.73-.38-1.6-.21-2.37-.05-1.59.34-2.66.51-4.15-.3-2.26-1.24-4.58-1.71-7.1-.97-.46.14-.27.86.2.72h0Z"/>
      <path class="cls-2" d="M150.13,260.37l-2.11,1.09c-.27.14-.22.5,0,.65,2.01,1.35,4.3-.11,6.31-.72,1.66-.51,2.74-.26,4.11.81.89.69,1.71,1.34,2.89,1.06l-.42-.55c-2.02,3.38,1.33,6.35,3.9,8.05,1.23.81,2.79,1.73,4.31,1.18,1.01-.37,1.63-1.35,2.5-1.95,1.05-.72,2.25-1.1,3.51-1.21.41-.03.53-.62.1-.74-1.84-.52-3.41-1.47-4.73-2.86l-.17.63c2.36-.38,4.07-2.46,4.05-4.84l-.38.38c.85-.02,1.69-.04,2.54-.06.19,0,.4-.17.38-.38-.27-2.42-.56-4.92.13-7.3.54-1.85,1.67-3.57,1.67-5.55,0-1.4-.55-2.55-1.68-3.38-1.26-.93-2.04-1.68-1.68-3.36.19-.89.58-1.73.89-2.58.74-1.99.82-4.01.86-6.11.05-2.31.1-4.62.14-6.93.1-4.95.21-9.91.31-14.86l-.74.1c1.36,6.27.18,12.62-.97,18.82-.43,2.3-1.35,4.98-.23,7.2.89,1.78,3.35,3.55,2.78,5.76-.26,1-1.04,1.78-1.19,2.82-.18,1.19.54,2.14.97,3.18,1.09,2.61-.07,5.41-.66,8-.41,1.81-.88,4.28.32,5.91.6.81,1.55,1.11,2.47,1.39,1.46.43,2.94.82,4.45,1.02,2.77.37,5.35-.17,7.63-1.82,1.68-1.22,4.2-3.35,3.32-5.7l-.17.42c1-.66,2.33.47,3.46.24.98-.2,1.78-1.17,2.44-1.84,1.94-1.96,3.58-4.26,5.81-5.91,1.71-1.27,4.28-1.72,5.55-3.5.16-.22.25-.5.41-.72.37-.52.81-.77,1.44-.87.76-.13,1.69.03,2.47.04,1.81.03,3.62.06,5.43.09.42,0,.51-.63.1-.74-1.32-.34-2.38.35-3.22,1.34-1.04,1.22-1.92,3.81-3.92,3.53-.28-.04-.64.25-.42.55.38.53.78.73.28,1.29-.31.35-.86.55-1.27.75-.67.32-1.31.64-1.76,1.25-.66.89-.58,2.06.49,2.56.83.39,1.91.27,2.79.3,1.06.03,2.11.06,3.17.1,1.96.07,4.25.15,5.78,1.55,1.24,1.12,1.6,2.93,2.96,3.95s2.97.72,4.48,1.1c2.62.67,2.56,4.23,2.19,6.41-.14.83-.37,2.54-.99,3.09-.59.52-1.6.56-2.28,1.06-.19.14-.26.4-.08.59,3.12,3.16,6.94,6.22,11.62,6.08l-.36-.47c-.29,1.16-.59,2.33-.88,3.49-.05.22.07.38.26.46,1.14.48,2.25.59,3.46.4.48-.07.27-.79-.2-.72-1.08.16-2.06.01-3.06-.4l.26.46c.29-1.16.59-2.33.88-3.49.06-.23-.11-.48-.36-.47-4.48.13-8.11-2.84-11.09-5.86l-.08.59c.21-.17.43-.32.67-.44.43-.21.88-.32,1.36-.34.14-.07.2-.07.32-.19.58-.55.91-2.08,1.09-2.82.47-1.9.55-4.11-.1-5.98-.52-1.49-1.69-2.08-3.18-2.3-1-.14-2.08-.11-3.01-.55s-1.46-1.39-1.98-2.26c-.83-1.41-1.77-2.49-3.35-3.06-1.81-.66-3.83-.61-5.72-.67-1.16-.04-2.36,0-3.51-.12-.67.03-1.09-.33-1.25-1.08.19-.48.5-.85.92-1.12.36-.25.79-.39,1.18-.59.59-.3,1.23-.66,1.56-1.27.37-.7-.17-1.07-.59-1.65l-.42.55c1.26.18,2.19-.42,2.99-1.37,1.07-1.27,2.05-4.04,4.15-3.5l.1-.74c-1.81-.03-3.62-.06-5.43-.09-1.1-.02-2.91-.43-3.89.26-.39.27-.52.69-.74,1.09-.39.7-.87,1.18-1.56,1.6-1.11.67-2.35,1.07-3.44,1.78-2.28,1.48-3.97,3.65-5.79,5.62-.96,1.04-2.19,2.74-3.75,2.41-.98-.21-1.86-.7-2.78-.09-.13.08-.23.26-.17.42.92,2.48-2.88,5.04-4.75,5.91-2.62,1.22-5.49.78-8.18.08-1.19-.31-2.87-.54-3.63-1.59-.82-1.14-.61-2.93-.38-4.24.36-2.02,1.11-3.96,1.3-6.02.08-.89.05-1.8-.19-2.66-.36-1.28-1.54-2.51-1.13-3.9.5-1.67,1.66-2.69.96-4.53-.62-1.62-2.07-2.76-2.79-4.34-.64-1.4-.27-2.92,0-4.37s.52-2.82.78-4.23c1.02-5.65,1.81-11.42.58-17.1-.09-.42-.73-.31-.74.1-.1,4.95-.21,9.91-.31,14.86-.09,4.5.36,9.32-1.26,13.58-.53,1.39-1.18,3.09-.35,4.5.35.6.91.95,1.46,1.35,1.06.77,1.6,1.61,1.61,2.93.01,2.2-1.45,4.13-1.86,6.25s-.18,4.41.06,6.6l.38-.38c-.85.02-1.69.04-2.54.06-.2,0-.38.17-.38.38.01,2.08-1.46,3.78-3.5,4.12-.29.05-.34.44-.17.63,1.4,1.47,3.11,2.5,5.06,3.05l.1-.74c-1.33.11-2.59.48-3.73,1.21-.54.35-.98.77-1.46,1.2-1.06.95-2.1,1.1-3.39.49-2.65-1.24-7.01-4.48-5.01-7.83.17-.29-.11-.63-.42-.55-1.42.34-2.46-1.35-3.63-1.89-.79-.36-1.66-.37-2.5-.21-2.04.39-4.59,2.36-6.59,1.02v.65l2.11-1.09c.43-.22.05-.87-.38-.65h0Z"/>
      <path class="cls-2" d="M249.07,280.7c1.72-.49,3.47-.82,5.25-.92,1.58-.09,3.07,0,4.09,1.36.57.76,1.01,1.7,1.85,2.2,1,.6,2.1.28,3.15-.02,1.39-.41,3.78-1.12,4.68.57.62,1.16-.44,2.51.17,3.7.53,1.04,2.02,1.77,2.92,2.44,1.43,1.06,2.87,2.13,4.3,3.19.39.29.76-.36.38-.65-1.5-1.11-3-2.23-4.5-3.34-.78-.58-2.16-1.28-2.53-2.21-.29-.71.23-1.65.2-2.4-.09-2.35-2.74-2.79-4.58-2.37-.77.17-1.51.5-2.29.63-1.24.2-1.83-.3-2.49-1.22s-1.16-1.81-2.2-2.27c-1.11-.5-2.43-.41-3.61-.32-1.7.13-3.37.45-5,.92-.46.13-.27.86.2.72h0Z"/>
      <path class="cls-2" d="M8.13,219.63c4.29.81,8.48,2.2,12.8,2.84.47.07.68-.65.2-.72-4.32-.65-8.51-2.03-12.8-2.84-.47-.09-.67.63-.2.72h0Z"/>
      <path class="cls-2" d="M50.06,214.77c2.51.59,5.02,1.26,7.56,1.7,1.87.33,3.77.58,5.62,1.03.47.11.67-.61.2-.72-1.85-.45-3.75-.71-5.62-1.03-2.54-.44-5.05-1.11-7.56-1.7-.47-.11-.67.61-.2.72h0Z"/>
      <path class="cls-2" d="M97.08,209.11c1.94.65,3.89,1.45,5.88,1.95.94.24,1.92.23,2.87.4s1.89.5,2.81.83c.46.16.65-.56.2-.72-.92-.33-1.84-.66-2.81-.83s-1.93-.16-2.87-.4c-1.99-.5-3.94-1.29-5.88-1.95-.46-.15-.66.57-.2.72h0Z"/>
      <path class="cls-2" d="M9.46,220.49c.11,8.38.27,16.75.42,25.13.16,9.3.33,18.6.46,27.9.03,2.27.15,4.56.07,6.83-.02.48.73.48.75,0,.21-5.83-.14-11.72-.24-17.55-.17-10-.35-20-.51-30-.07-4.1-.14-8.21-.2-12.31,0-.48-.76-.48-.75,0h0Z"/>
      <path class="cls-2" d="M17.1,222.12c.45,19.34.96,38.64.59,57.99-.01.66-.02,1.32-.04,1.98,0,.45-.15,1.18-.01,1.59.12.35.41.6.8.52.92-.18.43-1.43-.46-1.17-.46.13-.27.86.2.72.49-.14.26-3.64.27-4.13.03-1.32.05-2.64.08-3.97.05-2.48.09-4.96.11-7.44.05-5.13,0-10.27-.09-15.4-.19-10.23-.46-20.46-.7-30.69-.01-.48-.76-.48-.75,0h0Z"/>
      <path class="cls-2" d="M19.7,223.88c10.29-1.73,20.57-3.71,30.95-4.81.48-.05.48-.8,0-.75-10.44,1.1-20.8,3.1-31.15,4.83-.47.08-.27.8.2.72h0Z"/>
      <path class="cls-2" d="M19.17,231.85c19.71-3.87,39.79-4.98,59.75-6.85,5.65-.53,11.29-1.12,16.92-1.84.47-.06.48-.81,0-.75-20.02,2.58-40.22,3.4-60.24,6.03-5.57.73-11.12,1.61-16.64,2.69-.47.09-.27.82.2.72h0Z"/>
      <path class="cls-2" d="M95.64,210.45c.58,11.35.55,22.7.67,34.05,0,.48.76.48.75,0-.12-11.36-.08-22.71-.67-34.05-.02-.48-.77-.48-.75,0h0Z"/>
      <path class="cls-2" d="M103.86,211.09c.01,8.97.62,17.96.99,26.92.07,1.75.15,3.51.2,5.26.01.48.75.48.75,0v-.32c0-.48-.75-.48-.75,0v.32h.75c-.23-8.76-.76-17.52-1.05-26.28-.07-1.97-.13-3.93-.13-5.9,0-.48-.75-.48-.75,0h0Z"/>
      <path class="cls-2" d="M107.63,221.52c.05,4.92.21,9.85.49,14.76.03.48.78.48.75,0-.27-4.92-.44-9.84-.49-14.76,0-.48-.75-.48-.75,0h0Z"/>
      <path class="cls-2" d="M108.7,242.5c.05,9.27.21,18.53.49,27.8.01.48.76.48.75,0-.28-9.26-.44-18.53-.49-27.8,0-.48-.75-.48-.75,0h0Z"/>
      <path class="cls-2" d="M104.79,246.42c.05,6.9.21,13.79.49,20.69.02.48.77.48.75,0-.28-6.89-.44-13.79-.49-20.69,0-.48-.75-.48-.75,0h0Z"/>
      <path class="cls-2" d="M21.66,231.76c.09,15.15.31,30.29.3,45.44,0,2.31.06,4.64-.08,6.95-.03.48.72.48.75,0,.32-5.57.07-11.22.04-16.79-.05-8.53-.12-17.05-.19-25.58-.03-3.34-.06-6.68-.08-10.02,0-.48-.75-.48-.75,0h0Z"/>
      <path class="cls-2" d="M51.6,227c-6.49,15.78-13.29,31.45-19.36,47.41-1.09,2.86-2.25,5.74-3.05,8.7-.13.47.6.67.72.2,1.59-5.9,4.16-11.63,6.41-17.3,2.77-6.95,5.64-13.87,8.52-20.78,2.5-6.01,5.01-12.01,7.49-18.03.18-.45-.54-.64-.72-.2h0Z"/>
      <path class="cls-2" d="M54.8,227c-6.12,15.21-12.39,30.36-18.43,45.61-1.44,3.64-2.89,7.27-4.27,10.94-.17.45.55.65.72.2,5.57-14.83,11.67-29.47,17.61-44.16,1.67-4.14,3.42-8.25,5.08-12.39.18-.45-.54-.64-.72-.2h0Z"/>
      <path class="cls-2" d="M58.56,227.01c2.14,4.94,4.27,9.89,6.41,14.83l3.15,7.3,1.58,3.65.79,1.83c.17.38.6,1.93.99,2.07.46.16.65-.57.2-.72-1.73-.6-1.1,2.43.17,1.2.76-.74-.5-2.44-.81-3.15l-2.37-5.48c-3.15-7.3-6.31-14.61-9.46-21.91-.19-.44-.84-.06-.65.38h0Z"/>
      <path class="cls-2" d="M54.84,227.29c4.73,10.08,9.19,20.29,13.35,30.62.18.44.9.25.72-.2-4.18-10.39-8.66-20.66-13.42-30.8-.21-.44-.85-.06-.65.38h0Z"/>
      <path class="cls-2" d="M56.94,232.33c-2.76,7.62-6.21,14.99-8.81,22.67-.16.46.57.65.72.2,2.6-7.68,6.05-15.05,8.81-22.67.16-.45-.56-.65-.72-.2h0Z"/>
      <path class="cls-2" d="M47.03,257.7c-2.57,7.37-5.66,14.56-8.22,21.93-.16.46.57.65.72.2,2.57-7.37,5.66-14.56,8.22-21.93.16-.46-.57-.65-.72-.2h0Z"/>
      <path class="cls-2" d="M61.2,226.48c2.74,7.43,6.2,14.59,9.65,21.7.21.43.86.05.65-.38-3.42-7.06-6.86-14.16-9.57-21.52-.17-.45-.89-.25-.72.2h0Z"/>
      <path class="cls-2" d="M63.34,217.51c10.81-.84,21.58-2.35,32.36-3.56.47-.05.48-.8,0-.75-10.78,1.21-21.55,2.72-32.36,3.56-.48.04-.48.79,0,.75h0Z"/>
      <path class="cls-2" d="M105.31,221.78c13.77-1.33,27.53-2.7,41.3-3.99,2.35-.22,4.71-.47,7.07-.63.48-.03.48-.78,0-.75-5.58.37-11.15,1.01-16.71,1.55-8.1.78-16.19,1.57-24.28,2.36-2.46.24-4.91.48-7.37.72-.48.05-.48.8,0,.75h0Z"/>
      <path class="cls-2" d="M105.31,213.6c12.8-.94,25.57-2.22,38.36-3.21.48-.04.48-.79,0-.75-12.79.98-25.56,2.27-38.36,3.21-.48.04-.48.79,0,.75h0Z"/>
      <path class="cls-2" d="M145.13,217.75c-1.34,3.49-2.93,6.88-4.44,10.29-1.71,3.84-3.3,7.72-5.01,11.56-3.8,8.54-7.78,17.01-10.78,25.87-.15.46.57.65.72.2,3.08-9.1,7.2-17.78,11.09-26.55,1.65-3.73,3.2-7.5,4.85-11.22,1.47-3.3,2.99-6.58,4.29-9.95.17-.45-.55-.65-.72-.2h0Z"/>
      <path class="cls-2" d="M149.04,217.4c-6.67,15.85-13.53,31.62-20.45,47.36-.19.44.45.82.65.38,6.95-15.8,13.83-31.63,20.53-47.54.19-.44-.54-.64-.72-.2h0Z"/>
      <path class="cls-2" d="M153.31,216.68c-2.83,6.77-5.91,13.43-8.89,20.14-3.75,8.45-7.49,16.9-11.24,25.35-.19.44.45.82.65.38,3.81-8.6,7.63-17.21,11.44-25.81,2.93-6.61,5.97-13.19,8.76-19.86.19-.44-.54-.64-.72-.2h0Z"/>
      <path class="cls-2" d="M249.32,233.83c-27.63,1.61-55.25,3.57-82.8,6.3-8.09.8-16.17,1.67-24.24,2.59-.47.05-.48.8,0,.75,27.66-3.16,55.39-5.56,83.16-7.41,7.96-.53,15.91-1.02,23.87-1.48.48-.03.48-.78,0-.75h0Z"/>
      <path class="cls-2" d="M203.84,237.22c-3.07,6.65-6.16,13.29-9.23,19.94-.2.44.45.82.65.38,3.07-6.65,6.16-13.29,9.23-19.94.2-.44-.45-.82-.65-.38h0Z"/>
      <path class="cls-2" d="M199.22,237.57c-4.36,8.94-8.28,18.2-13.78,26.52-.27.4.38.78.65.38,5.5-8.32,9.42-17.58,13.78-26.52.21-.43-.44-.81-.65-.38h0Z"/>
      <path class="cls-2" d="M134.01,243.8c-8.19,1.69-16.62,1.25-24.87,2.42-.48.07-.27.79.2.72,3.77-.54,7.64-.6,11.44-.88,4.48-.33,9.02-.63,13.43-1.54.47-.1.27-.82-.2-.72h0Z"/>
      <path class="cls-2" d="M9.55,223.89c-2.97.59-5.98.86-8.97,1.3-.48.07-.27.79.2.72,2.99-.44,6-.71,8.97-1.3.47-.09.27-.82-.2-.72h0Z"/>
      <path class="cls-2" d="M9.92,232.57c-3.15.36-6.29.86-9.4,1.49-.47.1-.27.82.2.72,3.04-.62,6.11-1.11,9.2-1.46.47-.05.48-.8,0-.75h0Z"/>
      <path class="cls-2" d="M50.9,215.3c-.06,2.04-.06,4.09-.06,6.13,0,1.12,0,2.24.01,3.36,0,.6-.01,1.21.07,1.8.07.48.79.27.72-.2.02.13,0-.14,0-.18,0-.13-.01-.27-.01-.4-.01-.41-.02-.81-.02-1.22-.01-1.1-.01-2.2-.01-3.29,0-2,0-4,.06-6,.02-.48-.73-.48-.75,0h0Z"/>
      <path class="cls-2" d="M58.37,216.25c-.06,1.74-.06,3.48-.06,5.22,0,.95,0,1.91.01,2.86,0,.51-.01,1.04.07,1.55.08.48.8.27.72-.2.01.09,0-.07,0-.14,0-.11-.01-.23-.01-.34-.01-.35-.02-.69-.02-1.04-.01-.93-.01-1.87-.01-2.8,0-1.7,0-3.41.06-5.11.02-.48-.73-.48-.75,0h0Z"/>
      <polygon class="cls-1" points="9.29 132.51 8.23 219.27 21.03 221.76 21.36 135.98 19.04 135.98 9.29 132.51"/>
      <polygon class="cls-1" points="37.39 131.79 37.03 220.34 51.28 218.7 51.21 214.65 50.16 214.29 51.11 129.34 37.39 131.79"/>
      <polygon class="cls-1" points="51.25 122.19 50.16 214.29 63.54 217.12 62.99 127.17 51.25 122.19"/>
      <polygon class="cls-1" points="78.99 123.97 79.08 215.36 95.7 213.58 96.59 120.59 78.99 123.97"/>
      <polygon class="cls-1" points="97.2 113.28 97.18 208.75 108.74 211.92 107.79 119.7 97.2 113.28"/>
      <polygon class="cls-1" points="126.29 114.01 126.64 211.37 144.27 210.02 143.87 110.36 126.29 114.01"/>
      <polygon class="cls-1" points="160.78 110.81 177.49 110.81 178.23 148.29 160.78 110.81"/>
      <polygon class="cls-1" points="153.01 107.61 153.03 163.09 178.56 159.18 154.26 107.82 153.01 107.61"/>
      <polygon class="cls-1" points="187.45 142.82 209.5 138.2 210.21 158.11 206.3 155.54 187.45 158.11 187.45 142.82"/>
      <polygon class="cls-1" points="192.43 72.76 192.78 135.35 178.23 124.48 177.49 110.81 160.78 110.81 157.28 104.06 189.8 73.83 192.43 72.76"/>
      <polygon class="cls-1" points="153.01 81.71 153.31 102.99 179.28 77.92 178.56 76.68 153.01 81.71"/>
    </g>
  </g>
</svg>