<?xml version="1.0" encoding="UTF-8"?>
<svg id="Capa_2" data-name="Capa 2" xmlns="http://www.w3.org/2000/svg" viewBox="0 0 419.18 161.16">
  <defs>
    <style>
      .cls-1 {
        opacity: .3;
      }

      .cls-1, .cls-2 {
        fill: #fff;
      }

      .cls-3 {
        stroke-linejoin: round;
      }

      .cls-3, .cls-2, .cls-4 {
        stroke: #fff;
        stroke-linecap: round;
        stroke-width: .5px;
      }

      .cls-3, .cls-4 {
        fill: none;
      }

      .cls-2, .cls-4 {
        stroke-miterlimit: 10;
      }
    </style>
  </defs>
  <g id="ACUARELA">
    <g>
      <g>
        <g>
          <path class="cls-4" d="M80.1,67.45c0,6.26-.04,10.77-.11,17.03"/>
          <path class="cls-4" d="M79.99,41.64c.07,7.32.11,16.64.11,23.96"/>
          <line class="cls-4" x1="79.7" y1="41.49" x2="117.45" y2="42.36"/>
          <line class="cls-4" x1="117.66" y1="44.77" x2="155.79" y2="18.84"/>
          <line class="cls-4" x1="117.74" y1="44.69" x2="170.6" y2="46.43"/>
          <g>
            <line class="cls-4" x1="79.7" y1="41.49" x2="113.68" y2="19.42"/>
            <polyline class="cls-4" points="117.57 42.26 117.57 42.29 117.45 96.68"/>
            <polyline class="cls-4" points="117.51 42.33 117.57 42.29 155.79 16.81"/>
            <line class="cls-4" x1="113.68" y1="19.42" x2="155.79" y2="16.81"/>
            <line class="cls-4" x1="155.85" y1="18.89" x2="203.6" y2="17.07"/>
            <line class="cls-4" x1="203.58" y1="20.21" x2="170.59" y2="44.19"/>
            <line class="cls-4" x1="213.02" y1="13.35" x2="207.49" y2="17.39"/>
          </g>
          <line class="cls-4" x1="170.6" y1="44.11" x2="170.31" y2="110.33"/>
          <line class="cls-4" x1="170.6" y1="44.11" x2="253.67" y2="47.01"/>
          <line class="cls-4" x1="301.3" y1="9.26" x2="253.67" y2="47.01"/>
          <line class="cls-4" x1="301.3" y1="9.26" x2="339.01" y2="46.52"/>
          <line class="cls-4" x1="213.02" y1="13.28" x2="301.3" y2="9.26"/>
          <line class="cls-4" x1="253.67" y1="47.01" x2="252.22" y2="131.24"/>
          <path class="cls-4" d="M110.03,94.7c9.29,2.33,18.58,4.67,27.85,7.1,4.58,1.2,9.15,2.42,13.71,3.7s9.16,2.05,13.7,3.23c9.25,2.41,18.49,4.87,27.75,7.25s18.53,4.81,27.83,7.1c9.32,2.29,18.63,4.62,27.9,7.11,1.14.31,2.27.61,3.41.93"/>
          <line class="cls-4" x1="336.44" y1="117.88" x2="252.22" y2="131.24"/>
          <path class="cls-4" d="M339.06,46.43c-.73,13.21-.79,25.86-1.45,38.92"/>
          <line class="cls-4" x1="155.79" y1="16.81" x2="158.7" y2="18.84"/>
          <path class="cls-4" d="M79.99,71.12c-19.2,4.13-37.2,11.13-56.2,11.13-8,1-17,3-23.54,7.97"/>
          <path class="cls-4" d="M203.71.54c-.05,7.75-.1,15.49-.16,23.24.29.14,1.12.49,2.19.29.91-.17,1.5-.65,1.74-.87V.54c-.43-.13-1.02-.27-1.74-.29-.86-.02-1.57.14-2.03.29Z"/>
          <path class="cls-4" d="M333.25,40.62c5.23-1.16,10.3-1.4,14.61-2.44,2.2-.53,4.42-1.02,6.63-1.51,9.75-2.19,19.45-4.64,29.07-7.34,11.98-3.36,23.89-7.12,35.16-12.38"/>
          <line class="cls-4" x1="172.93" y1="18.26" x2="133.43" y2="45.27"/>
          <line class="cls-4" x1="191.39" y1="17.53" x2="150.85" y2="45.85"/>
          <line class="cls-4" x1="145.92" y1="25.52" x2="197.58" y2="24.49"/>
          <line class="cls-4" x1="137.18" y1="31.57" x2="188.04" y2="31.57"/>
          <line class="cls-4" x1="127.91" y1="37.72" x2="177.87" y2="38.88"/>
          <line class="cls-4" x1="117.74" y1="48.46" x2="170.6" y2="51.08"/>
          <line class="cls-4" x1="117.45" y1="58.34" x2="150.85" y2="61.24"/>
          <line class="cls-4" x1="117.45" y1="67.92" x2="150.78" y2="71.73"/>
          <line class="cls-4" x1="117.46" y1="77.58" x2="150.58" y2="83.13"/>
          <line class="cls-4" x1="117.46" y1="87.19" x2="150.85" y2="94.35"/>
          <line class="cls-2" x1="79.99" y1="43.24" x2="117.74" y2="44.69"/>
          <line class="cls-2" x1="170.56" y1="47" x2="253.67" y2="50.5"/>
          <line class="cls-2" x1="253.58" y1="50.63" x2="301.01" y2="13.03"/>
          <line class="cls-2" x1="301.01" y1="13.03" x2="339.06" y2="49.63"/>
          <line class="cls-2" x1="73.02" y1="100.16" x2="116.83" y2="96.54"/>
          <line class="cls-2" x1="259.19" y1="158.83" x2="73.02" y2="100.16"/>
          <line class="cls-2" x1="259.19" y1="160.86" x2="73.02" y2="101.32"/>
          <line class="cls-2" x1="73" y1="100.09" x2="73" y2="101.32"/>
          <line class="cls-2" x1="259.19" y1="158.83" x2="343.41" y2="142.28"/>
          <line class="cls-2" x1="259.21" y1="160.91" x2="343.41" y2="144.31"/>
          <line class="cls-2" x1="259.18" y1="158.86" x2="259.19" y2="160.86"/>
          <line class="cls-4" x1="336.15" y1="125.72" x2="335.57" y2="140.24"/>
          <line class="cls-4" x1="335.57" y1="140.24" x2="343.41" y2="142.28"/>
          <path class="cls-4" d="M339.87,126.68c4.27.93,8.92,2.38,13.13,3.4"/>
          <path class="cls-4" d="M336.15,125.72l1.98.51"/>
          <line class="cls-4" x1="372.17" y1="125.43" x2="353" y2="130.08"/>
          <path class="cls-4" d="M338.22,125.35l-2.06.37"/>
          <path class="cls-4" d="M366.94,120.2c-9.15,1.31-18.15,3.63-27.08,4.85"/>
          <path class="cls-4" d="M409.05,101.03c-3.61,1.88-8.57,4.5-11.76,6.83-3.49,2.9-6.1,6.39-9.58,9.58-.58.58-1.45.87-2.03,1.45-5.52,3.78-11.33,4.65-16.85,8.42-2.32,1.74-4.36,3.78-6.97,4.94-3.78,6.1-7.55,12.2-13.36,16.69"/>
          <line class="cls-2" x1="343.41" y1="142.28" x2="343.39" y2="144.19"/>
          <line class="cls-2" x1="367.64" y1="104.03" x2="380.01" y2="105.68"/>
          <line class="cls-2" x1="367.52" y1="103.94" x2="366.94" y2="121.65"/>
          <line class="cls-2" x1="380.08" y1="105.59" x2="379.72" y2="121.94"/>
          <line class="cls-2" x1="367.52" y1="103.94" x2="380.59" y2="103.07"/>
          <line class="cls-2" x1="380.01" y1="105.68" x2="407.31" y2="101.9"/>
          <line class="cls-2" x1="380.59" y1="103.07" x2="389.3" y2="103.94"/>
          <line class="cls-2" x1="376.63" y1="123.28" x2="366.88" y2="121.63"/>
          <line class="cls-4" x1="353" y1="130.08" x2="352.71" y2="145.18"/>
          <line class="cls-4" x1="343.34" y1="144.3" x2="351.26" y2="146.34"/>
          <line class="cls-4" x1="124.72" y1="74.02" x2="142.43" y2="76.64"/>
          <line class="cls-4" x1="142.43" y1="76.64" x2="170.29" y2="74.84"/>
          <g>
            <line class="cls-4" x1="133.72" y1="77.51" x2="133.72" y2="100.74"/>
            <line class="cls-4" x1="134.01" y1="49.34" x2="134.01" y2="73.15"/>
            <polyline class="cls-4" points="150.85 78.38 150.85 104.98 150.85 105.1"/>
            <line class="cls-4" x1="150.85" y1="50.21" x2="150.85" y2="71.99"/>
            <line class="cls-4" x1="153.18" y1="78.09" x2="153.18" y2="104.81"/>
            <line class="cls-4" x1="153.18" y1="50.21" x2="153.18" y2="71.99"/>
            <line class="cls-4" x1="153.18" y1="104.81" x2="150.85" y2="104.98"/>
            <line class="cls-4" x1="124.72" y1="76.06" x2="142.43" y2="78.67"/>
            <line class="cls-4" x1="142.43" y1="78.67" x2="170.6" y2="76.93"/>
          </g>
          <line class="cls-4" x1="142.43" y1="76.64" x2="142.43" y2="78.67"/>
          <line class="cls-4" x1="124.72" y1="74.02" x2="124.72" y2="76.06"/>
          <line class="cls-4" x1="124.72" y1="74.02" x2="170.31" y2="70.83"/>
          <path class="cls-4" d="M340.74,102.66l12.59,1.56c3.93.49,7.87.97,11.8,1.46l2.39.3"/>
          <path class="cls-4" d="M337.02,102.19l1.9.24"/>
          <path class="cls-4" d="M340.39,114.53c8.98,1.75,17.98,2.91,26.55,4.8"/>
          <path class="cls-4" d="M336.7,113.86l1.88.34"/>
          <line class="cls-4" x1="277.19" y1="86.51" x2="319.02" y2="83.32"/>
          <line class="cls-4" x1="277.19" y1="86.51" x2="277.19" y2="89.71"/>
          <line class="cls-4" x1="277.19" y1="86.51" x2="341.09" y2="94.64"/>
          <line class="cls-4" x1="277.19" y1="89.71" x2="341.09" y2="98.42"/>
          <line class="cls-4" x1="341.09" y1="94.64" x2="382.33" y2="90.87"/>
          <line class="cls-4" x1="341.09" y1="98.42" x2="382.33" y2="93.62"/>
          <line class="cls-4" x1="341.09" y1="94.64" x2="341.09" y2="98.42"/>
          <line class="cls-4" x1="382.33" y1="90.87" x2="382.33" y2="93.48"/>
          <line class="cls-4" x1="319.02" y1="83.32" x2="382.38" y2="90.8"/>
          <line class="cls-4" x1="380.88" y1="95.51" x2="380.92" y2="102.9"/>
          <line class="cls-4" x1="380.88" y1="95.51" x2="389.41" y2="96.03"/>
          <line class="cls-4" x1="389.3" y1="96.1" x2="389.28" y2="103.9"/>
          <line class="cls-4" x1="389.3" y1="103.94" x2="418.93" y2="99.58"/>
          <line class="cls-4" x1="389.3" y1="96.1" x2="418.8" y2="93.41"/>
          <path class="cls-3" d="M381.96,94.85c-.3-.35.12-.99.56-.86.2-.32-.27-.61-.51-.9-.27-.34-.21-.88.11-1.17s.83-.34,1.21-.14c.16-.82.91-1.48,1.74-1.55.58-.61,1.33-1.06,2.15-1.25.25-.06.53-.09.75.04s.32.48.13.64c.82,0,1.63,0,2.45,0-.02.19-.04.37-.06.56l1.6.52c.05-.26.04-.54-.05-.79.96.12,1.84-.47,2.62-1.03.24-.18.5-.36.62-.64s.04-.66-.24-.77c.55.15,1.15.11,1.68-.11.32-.13.61-.33.94-.42s.73-.05.94.22c-.08-.63.32-1.29.92-1.5.42-.15.88-.09,1.31-.17s.89-.42.84-.86c-.01-.11-.05-.22,0-.32.05-.1.17-.14.28-.17.38-.1.77-.21,1.15-.31-.28.27.11.77.5.74s.7-.31,1.04-.5.85-.25,1.05.08c.21.34-.07.76-.33,1.05,1.23.21,2.52.12,3.71-.26.24-.07.49-.16.72-.08s.37.43.18.58c.81-.04,1.61-.33,2.25-.83.1-.08,0-.32-.03-.19.45.15.57.84,1.04.92.57.1,1.16-.81,1.59-.42.08.36.58.41.93.29s.7-.34,1.05-.24c.39.12.67.61,1.06.51-.1.42.31.87.74.82"/>
          <path class="cls-4" d="M107.29,44.4c-.14,15.55-.13,30.93,0,46.47"/>
          <path class="cls-4" d="M84.51,68.21c.03,6.18.07,10.66.13,16.85"/>
          <path class="cls-4" d="M84.34,43.53c.07,7.13-.06,14.09-.02,21.22"/>
          <line class="cls-4" x1="85.22" y1="47.01" x2="107.03" y2="48.28"/>
          <line class="cls-4" x1="85.16" y1="43.61" x2="85.16" y2="47.07"/>
          <path class="cls-3" d="M110.3,94.79c.21-.1-.05-.39-.17-.59-.34-.55.53-1.48-.03-1.81-.36-.1-.66-.41-.73-.78-.33.08-.69.15-.98-.02-.16-.1-.26-.25-.4-.38-.47-.46-1.2-.51-1.86-.49-.18,0-.36.01-.53-.04-.2-.06-.37-.2-.53-.33-.6-.5-1.2-1-1.79-1.5.08-.25.25-.46.49-.58-.15-.43-.75-.38-1.19-.32-.85.13-1.73.01-2.52-.32-.45-.19-.9-.45-1.38-.38-.17.02-.33.09-.5.04-.27-.08-.36-.42-.39-.7-.06-.49-.13-.98-.19-1.46.82-.64,2.22-.42,2.78-1.3-.43-.52-.86-1.03-1.3-1.55-.53-.64-1.24-1.34-2.06-1.18-.51.1-.91.58-.94,1.09-.01.27.05.59-.15.77-.11.09-.26.11-.4.13-.37.04-.74.08-1.12.11-.15.53-.5.99-.96,1.29-.28-.19-.44-.55-.38-.88.06-.33.3-.66.16-.96-.05-.12-.16-.21-.25-.29-.2-.17-.4-.34-.62-.48-.68-.45-1.53-.64-2.34-.52l-.07.38c-.31.11-.62.26-.79.54s-.15.69.12.87c.16.1.37.12.49.26.16.19.05.51-.16.64s-.48.12-.73.09c-.23-.03-.47-.08-.65-.24s-.25-.44-.11-.63c-.32-.06-.81.04-.74.36-.26-.17-.61-.2-.9-.07-.09.23-.17.47-.26.7-.22.04-.44.08-.66.12l-.08.53c-.97.01-1.93.48-2.55,1.23-.54-.31-1.13-.52-1.73-.62.34-.43-.05-1.11-.58-1.25s-1.08.09-1.57.32-1.01.5-1.55.44c-.22-.03-.45-.11-.67-.08-.2.03-.39.16-.49.34"/>
          <path class="cls-4" d="M76.03,86.12l.4.63c.31.48.63,1.05.43,1.58-.05.14-.15.3-.09.44.07.16.29.18.47.18.33-.01.65-.02.98-.03.02.22.04.45.07.67.41-.21.91.03,1.28.31s.77.6,1.24.57c.32-.03.6-.23.89-.38s.66-.24.92-.05c.1.58.83.75,1.41.83s1.31.37,1.27.96c-.02.24-.17.45-.15.69.01.21.15.39.28.55.35.45.7.89,1.06,1.34.32.05.53-.31.65-.61.16-.4.31-.8.47-1.19.15-.37.5-.83.85-.62-.04.37.35.71.71.64.18.58.08,1.23-.26,1.72l1.81.02c.07.32.48.4.81.41.56.02,1.12.04,1.69.06.15,0,.31.02.41.13.09.1.09.24.12.37.15.68.99.91,1.68,1,.83.12,1.7.23,2.5-.02.72.81,1.81,1.27,2.89,1.22"/>
          <line class="cls-4" x1="232.18" y1="49.63" x2="230.72" y2="125.43"/>
          <line class="cls-4" x1="185.13" y1="47.88" x2="184.55" y2="113.81"/>
          <line class="cls-4" x1="186" y1="53.11" x2="232.18" y2="55.73"/>
          <line class="cls-4" x1="186" y1="47.59" x2="186" y2="53.11"/>
          <path class="cls-4" d="M86.74,68.5c-.07,5.81-.07,9.87-.07,15.1"/>
          <path class="cls-4" d="M86.83,47.2c-.01,5.76-.01,11.3-.08,17.23"/>
          <line class="cls-4" x1="187.74" y1="53.4" x2="187.25" y2="114.33"/>
          <line class="cls-4" x1="201.97" y1="53.98" x2="201.1" y2="118.17"/>
          <line class="cls-4" x1="217.07" y1="55.14" x2="215.91" y2="121.65"/>
          <line class="cls-4" x1="187.63" y1="83.56" x2="231.24" y2="89.96"/>
          <line class="cls-4" x1="78.54" y1="65.89" x2="102.06" y2="69.38"/>
          <line class="cls-4" x1="78.49" y1="67.12" x2="102.06" y2="71.12"/>
          <line class="cls-4" x1="102.06" y1="69.38" x2="102.06" y2="71.12"/>
          <line class="cls-4" x1="102.06" y1="71.12" x2="107" y2="70.54"/>
          <line class="cls-4" x1="102.06" y1="69.38" x2="107" y2="68.79"/>
          <line class="cls-4" x1="78.54" y1="65.89" x2="78.54" y2="67.05"/>
          <line class="cls-4" x1="86.67" y1="64.44" x2="107.29" y2="67.05"/>
          <line class="cls-4" x1="86.67" y1="64.44" x2="78.54" y2="65.89"/>
          <line class="cls-4" x1="83.81" y1="57.16" x2="77.5" y2="57.43"/>
          <line class="cls-4" x1="77.39" y1="57.48" x2="100.7" y2="60.02"/>
          <line class="cls-4" x1="100.75" y1="60" x2="108.16" y2="59.79"/>
          <line class="cls-4" x1="78.54" y1="57.76" x2="78.54" y2="65.89"/>
          <line class="cls-4" x1="100.61" y1="60.08" x2="100.61" y2="69.09"/>
          <line class="cls-4" x1="97.83" y1="47.64" x2="97.83" y2="65.75"/>
          <line class="cls-4" x1="91.65" y1="69.46" x2="91.65" y2="81.44"/>
          <line class="cls-4" x1="100.49" y1="71.01" x2="100.49" y2="87.62"/>
          <line class="cls-4" x1="101.89" y1="71.2" x2="101.89" y2="87.91"/>
          <line class="cls-4" x1="339.06" y1="98.13" x2="337.61" y2="140.53"/>
          <line class="cls-4" x1="341.04" y1="98.45" x2="339.35" y2="141.11"/>
          <line class="cls-4" x1="288.29" y1="91.26" x2="258.41" y2="93.32"/>
          <line class="cls-4" x1="258.52" y1="93.32" x2="257.74" y2="130.37"/>
          <path class="cls-4" d="M307.4,122.53l.58-28.75,29.04,4.07-.58,20.04c.11-6.82.28-12.96.58-20.04"/>
          <polyline class="cls-4" points="337.02 97.84 336.44 117.88 307.35 122.42 304.19 121.9"/>
          <polyline class="cls-4" points="257.74 129.21 304.21 121.94 304.79 93.48 304.21 121.94"/>
          <line class="cls-4" x1="380.13" y1="93.96" x2="380.13" y2="102.97"/>
        </g>
        <polygon class="cls-1" points="230.72 125.43 252.22 131.24 257.74 130.37 258.52 93.32 288.29 91.26 277.19 89.71 277.19 86.51 319.02 83.32 337.61 85.35 339.06 46.43 301.3 9.26 213.02 13.28 208.07 16.92 207.49 23.2 205.75 24.07 203.56 23.78 203.58 20.21 170.6 44.11 170.31 110.33 187.25 114.33 187.74 53.4 232.18 55.73 230.72 125.43"/>
        <path class="cls-1" d="M155.79,16.81l-42.11,2.61-33.69,21.88v42.97h1.05l.29.78-.11.47,1.69.59.77-.63,1.48-.56.67-.6.84-.73.07-15.1,4.91.96v11.98l1.15.75.45.45-.14,1.3.36.54.68-.69.28-.6,1.52-.24.18-.97.91-.89.8.1,1.56,1.44.99,1.18-.85.61-1.7.55-.2.45.2,1.4.35.46.5-.04,1.38.38,1.84.37v-16.8l5.35-.63.05,20.3,1.09.72.98.02.45.66.56.47-.35,1,.81,1.16,6.62,1.66.21-51.8,38.13-25.93,2.62-.2-2.62-1.84ZM86.75,64.44l.08-17.23,20.43.98.03,18.87-20.54-2.61Z"/>
      </g>
      <polygon class="cls-1" points="304.79 93.48 304.19 121.9 307.4 122.53 336.44 117.88 337.02 97.84 304.79 93.48"/>
    </g>
  </g>
</svg>