<?xml version="1.0" encoding="UTF-8"?>
<svg id="Capa_2" data-name="Capa 2" xmlns="http://www.w3.org/2000/svg" viewBox="0 0 319.15 225.8">
  <defs>
    <style>
      .cls-1 {
        opacity: .3;
      }

      .cls-1, .cls-2 {
        fill: #fff;
      }
    </style>
  </defs>
  <g id="NIEBLA">
    <g>
      <g>
        <polygon class="cls-1" points="154.23 116.77 215.96 117.36 215.96 123.56 154.23 122.68 154.23 116.77"/>
        <polygon class="cls-1" points="153.94 159.6 178.45 159.3 178.64 187.86 153.99 187.97 153.94 159.6"/>
        <polygon class="cls-1" points="211.96 160.56 222.46 160.48 222.76 171.71 211.86 171.65 211.96 160.56"/>
      </g>
      <path class="cls-2" d="M215.88,111.45c.12,4.03,0,8.07,0,12.11,0,.48.75.48.75,0,0-4.04.12-8.07,0-12.11-.01-.48-.76-.48-.75,0h0Z"/>
      <path class="cls-2" d="M144.6,111.21c18.31-.63,36.64.05,54.94.41,5.57.11,11.14.19,16.72.21.48,0,.48-.75,0-.75-19.31-.07-38.61-.87-57.92-.85-4.58,0-9.16.08-13.74.24-.48.02-.48.77,0,.75h0Z"/>
      <path class="cls-2" d="M144.49,122.76c18.57.69,37.16.75,55.74,1.04,5.34.08,10.69.14,16.03.14.48,0,.48-.75,0-.75-9.45,0-18.9-.19-28.35-.35s-19.05-.1-28.57-.31c-4.95-.11-9.9-.34-14.84-.52-.48-.02-.48.73,0,.75h0Z"/>
      <path class="cls-2" d="M144.11,110.86c.3,3.84.08,7.68,0,11.52,0,.48.74.48.75,0,.08-3.84.3-7.68,0-11.52-.04-.48-.79-.48-.75,0h0Z"/>
      <path class="cls-2" d="M216.09,124.01c2.78.67,5.46,1.67,8.21,2.44.47.13.66-.59.2-.72-2.75-.77-5.43-1.78-8.21-2.44-.47-.11-.67.61-.2.72h0Z"/>
      <path class="cls-2" d="M224.15,114.41c.08,4.04-.06,8.08,0,12.11,0,.48.73.48.75,0h0c.02-.48-.73-.48-.75,0h0c.25,0,.5,0,.75,0-.06-4.04.08-8.07,0-12.11,0-.48-.76-.48-.75,0h0Z"/>
      <path class="cls-2" d="M216.26,111.83c-.12,0,.02,0,.09.02.1.03.2.06.3.09.28.09.57.18.85.28.83.28,1.66.58,2.49.88,1.49.54,2.98,1.08,4.45,1.67.45.18.64-.55.2-.72-1.5-.59-3.02-1.15-4.54-1.7-.82-.3-1.64-.59-2.47-.87-.43-.15-.91-.37-1.37-.39-.48-.03-.48.72,0,.75h0Z"/>
      <path class="cls-2" d="M211.45,160.48c0,3.64,0,7.29,0,10.93,0,.48.75.48.75,0,0-3.64,0-7.29,0-10.93,0-.48-.75-.48-.75,0h0Z"/>
      <path class="cls-2" d="M211.86,172.02c1.3-.06,2.61.02,3.91.06.96.03,1.92-.02,2.88,0,.77.02,1.55.05,2.32.06.62.01,1.27.05,1.88-.08.47-.1.27-.82-.2-.72-.58.12-1.23.06-1.81.05-.76-.01-1.52-.05-2.29-.06-.93-.02-1.85.04-2.79,0-1.3-.04-2.61-.13-3.91-.06-.48.02-.48.77,0,.75h0Z"/>
      <path class="cls-2" d="M222.09,160.48c.1,1.56.1,3.14.14,4.71.06,2.17.11,4.34.16,6.52,0,.48.76.48.75,0-.05-2.17-.1-4.34-.16-6.52-.04-1.57-.04-3.14-.14-4.71-.03-.48-.78-.48-.75,0h0Z"/>
      <path class="cls-2" d="M211.96,160.93c3.5-.06,7,.07,10.5-.07.48-.02.48-.77,0-.75-3.5.14-7,.01-10.5.07-.48,0-.48.76,0,.75h0Z"/>
      <path class="cls-2" d="M180.15,157.23c0,10.05.38,20.08.59,30.13.01.48.76.48.75,0-.22-10.05-.59-20.07-.59-30.13,0-.48-.75-.48-.75,0h0Z"/>
      <path class="cls-2" d="M151.58,157.9c5.46,0,10.92.07,16.37,0,2.04-.03,4.08-.14,6.12-.22,2.15-.08,4.31.06,6.45-.08.48-.03.48-.78,0-.75-2.09.13-4.21,0-6.31.07s-4.18.19-6.26.22c-5.46.08-10.92,0-16.37,0-.48,0-.48.75,0,.75h0Z"/>
      <path class="cls-2" d="M151.2,157.53c0,4.64-.03,9.27.07,13.92.08,4.16.16,8.32.21,12.48.02,1.34.09,2.69.02,4.03-.03.48.72.48.75,0,.17-3.17-.05-6.39-.1-9.56s-.08-6.55-.19-9.82c-.12-3.69-.01-7.36,0-11.04,0-.48-.75-.48-.75,0h0Z"/>
      <path class="cls-2" d="M144.3,122.71c2.37,1.06,4.71,2.19,7.09,3.25.44.19.82-.45.38-.65-2.37-1.06-4.71-2.19-7.09-3.25-.44-.19-.82.45-.38.65h0Z"/>
      <path class="cls-2" d="M151.65,125.98c18.94.18,37.88.75,56.82.83,5.35.02,10.7.04,16.05.08.48,0,.48-.75,0-.75-18.8-.17-37.6-.48-56.4-.73-5.49-.07-10.99-.14-16.48-.19-.48,0-.48.75,0,.75h0Z"/>
      <path class="cls-2" d="M123.02,85.85c-.1,14.94-.53,29.87-.63,44.81-.07,11.59-.1,23.19-.13,34.78-.01,6.86-.01,13.73-.01,20.59,0,.48.75.48.75,0,0-12.05.02-24.1.06-36.16.03-9.57,0-19.15.21-28.71.26-11.77.43-23.54.5-35.31,0-.48-.75-.48-.75,0h0Z"/>
      <path class="cls-2" d="M122.93,86.13c17.3-.48,34.63-.34,51.93.09,18.19.45,36.37,1.17,54.56,1.49,10.48.18,20.97.24,31.45.09.48,0,.48-.76,0-.75-18.53.27-37.06-.13-55.58-.68-17.71-.52-35.42-1.15-53.14-1.27-9.74-.06-19.48,0-29.22.27-.48.01-.48.76,0,.75h0Z"/>
      <path class="cls-2" d="M260.48,87.53c.33,17.14.24,34.29.08,51.43s-.38,34.61-.29,51.91c.05,9.66.19,19.32.51,28.97.02.48.77.48.75,0-.55-17.12-.58-34.25-.47-51.37s.36-34.62.4-51.93c.02-9.67-.03-19.34-.22-29.01,0-.48-.76-.48-.75,0h0Z"/>
      <path class="cls-2" d="M113.1,122.09c.1,7.78-.25,15.58-.3,23.36-.03,4.61-.2,9.22-.27,13.83-.07,4.36-.04,8.72-.17,13.07-.16,5-.31,10-.15,15.01.02.48.77.48.75,0-.28-8.72.23-17.47.3-26.19s.2-17.14.39-25.7c.1-4.46.25-8.92.19-13.38,0-.48-.76-.48-.75,0h0Z"/>
      <path class="cls-2" d="M122.51,85.71c-2.16,10.59-5.2,21.03-8.06,31.44-.44,1.61-.89,3.22-1.33,4.84-.13.47.6.67.72.2,2.57-9.41,5.19-18.81,7.54-28.28.66-2.65,1.31-5.31,1.85-7.99.1-.47-.63-.67-.72-.2h0Z"/>
      <path class="cls-2" d="M140.86,221.57l.73,1.03c.1.14.29.14.39,0,1.38-1.96,1.92-4.26,1.59-6.63-.03-.22-.39-.21-.43,0-.65,3.1-.97,6.23-.95,9.4,0,.26.36.29.44.06.89-2.53,1.91-5.01,3.07-7.43l-.42-.11.11,4.32c0,.22.31.32.42.11.9-1.66,1.34-3.42,1.32-5.3h-.45c.09,1.61.19,3.23.28,4.84.01.21.31.32.42.11,1.45-2.74,2.44-5.66,2.94-8.72l-.44-.06c-.09,2-.04,4.01.19,6,.12,1.04.25,2.23,1.26,2.79,1.07.59,2.46.21,3.59.04.97-.15,1.95-.3,2.92-.44.27-.04,1.2-.35,1.46-.22.46.23.4.81.49,1.29.02.12.17.19.28.16,2.53-.72,5.14-1.07,7.77-.97,1.36.05,2.69.27,4.04.47.8.12,1.62.21,2.41-.02,3.95-1.15,3.22-6.17,2.48-9.15l-.38.22c1.92,2.43-.62,5.86,1.31,8.41.56.73,1.42,1.14,2.34.86,1.12-.34,1.72-1.53,2.14-2.52l-.41-.17c-.08.59-.02.99.24,1.52.05.1.21.15.31.08.61-.37,1.07-.23,1.39.41.03.07.12.12.19.11,1.12-.11,2.23-.27,3.32-.52.56-.13,1.13-.37,1.7-.46,1.19-.19,2,.7,1.81,1.92-.03.17.1.32.28.28,1.44-.32,2.87-.64,4.31-.96.64-.14,1.28-.28,1.91-.43,1.15-.26,1.25-.17,1.56.93.05.18.25.2.38.1.3-.24.79-.77,1.14-.92.5-.21.87.02,1.35.1.56.1,1.15.12,1.72.05,1.59-.18,1.84-.54,2.51-1.92,1.34-2.77,2.14-5.74,2.45-8.79.03-.29-.42-.28-.45,0-.2,1.89-.41,3.78-.61,5.68-.1.94-.24,1.89-.3,2.84-.04.51-.08,1.08.3,1.49.75.8,2.56.5,3.52.45,1.72-.09,3.41-.41,5.05-.92l-.28-.28c-.2.54-.21.98-.02,1.52.05.15.25.23.38.1,1.12-1.22,2.09-2.54,2.92-3.97h-.39l.86,1.82c.06.14.25.13.35.05,1.54-1.39,2.77-3.01,3.72-4.86l-.41-.17c-.95,2.42-.53,5.06,1.06,7.11.06.08.19.08.27.04,1.71-.91,3.56-1.46,5.5-1.53,1.38-.05,2.83.15,4.12-.47,1.03-.49,1.8-1.39,2.43-2.32.25-.37.76-.94.82-1.38.02-.19-.2-.7-.24-.89-.11-.55-.11-1.11-.08-1.67l-.44.06c.14.61.27,1.21.41,1.82.05.21.4.22.43,0,.24-1.52.49-3.05.73-4.57l-.43-.12c-.45,3.32-.57,6.64-.35,9.98.02.25.36.3.44.06,1.26-3.66,2.52-7.33,3.79-10.99l-.44-.06-.06,8.18c0,.19.25.3.38.16.39-.4,1.72-2.21,2.33-2.03.33.1.82,1.17.87,1.4.12.53.04,1.2.05,1.74,0,.18.25.31.38.16.63-.71,1.26-1.41,1.89-2.12l-.35-.27c-.46.81-.24,1.73.44,2.36,1.13,1.05,2.92.64,4.29.5,4.36-.43,8.75-.27,13.07.43.28.05.41-.39.12-.43-2.94-.48-5.9-.72-8.88-.69-1.52.02-3.03.11-4.54.26-.72.07-1.46.21-2.18.16-1.11-.08-2.69-1.02-1.92-2.37.12-.22-.18-.47-.35-.27-.63.71-1.26,1.41-1.89,2.12l.38.16c-.02-.63.17-1.67-.07-2.24s-.92-1.14-1.29-1.59c-.08-.09-.24-.08-.32,0l-2.34,2.4.38.16.06-8.18c0-.26-.36-.29-.44-.06-1.26,3.66-2.52,7.33-3.79,10.99l.44.06c-.22-3.3-.11-6.59.33-9.86.04-.28-.39-.41-.43-.12-.24,1.52-.49,3.05-.73,4.57h.43c-.14-.61-.27-1.21-.41-1.82-.06-.26-.43-.18-.44.06-.05.83.39,1.99.16,2.76s-1.18,1.8-1.74,2.32c-1.73,1.6-4.01,1.01-6.14,1.28-.88.11-1.74.31-2.57.6-.38.13-.87.44-1.27.51l-.39.19c-.34-.1-.57-.3-.7-.62-1.19-1.56-1.03-4.11-.36-5.82.09-.24-.3-.4-.41-.17-.92,1.81-2.14,3.4-3.65,4.77l.35.05-.86-1.82c-.07-.16-.31-.14-.39,0-.81,1.4-1.76,2.68-2.85,3.88l.38.1c-.2-.43-.2-.86.02-1.28.06-.16-.12-.32-.28-.28-1.39.43-2.79.73-4.24.86-.69.06-1.39.09-2.08.07-.25,0-.7.06-.92-.04l-1.08-1.1c.01-.2.03-.41.05-.61.27-2.76.59-5.52.89-8.28h-.45c-.3,3.05-1.12,6.02-2.48,8.76-.35.7-.66,1.22-1.47,1.39s-1.72.19-2.56-.02c-.29-.07-.65-.32-.96-.24-.49.13-1.16.93-1.56,1.26l.38.1-.4-1.41c-.03-.12-.16-.18-.28-.16-2.55.57-5.1,1.14-7.66,1.7l.28.28c.13-.81-.07-1.62-.7-2.19-.87-.77-1.49-.32-2.5-.04-.71.19-1.43.35-2.15.48-.4.07-1.06.32-1.47.2-.98-.28.12.06-.55-.33-.28-.16-.47-.32-.81-.35-.66-.05-.98.59-.78-.83.03-.22-.3-.43-.41-.17-.52,1.24-1.63,3.12-3.22,2.11-.99-.63-1.3-2.12-1.27-3.21.05-1.99.78-4.01-.59-5.73-.15-.19-.43.02-.38.22.55,2.23,1.18,4.8-.11,6.91-1.45,2.36-3.7,1.73-6.01,1.42-1.87-.25-3.77-.28-5.64-.1-.95.09-1.89.23-2.82.43-.19.04-1.19.39-1.36.33-.43-.16-.37-.82-.45-1.24-.02-.13-.17-.17-.28-.16-1.38.21-2.76.42-4.14.63-1.21.18-3.29.86-4.32-.13-.9-.87-.79-2.85-.86-4-.09-1.39-.09-2.77-.02-4.16.01-.25-.4-.31-.44-.06-.5,3.02-1.47,5.9-2.9,8.61l.42.11c-.09-1.61-.19-3.23-.28-4.84-.02-.29-.45-.29-.45,0,.02,1.81-.4,3.49-1.26,5.08l.42.11-.11-4.32c0-.21-.32-.33-.42-.11-1.18,2.45-2.22,4.96-3.12,7.53l.44.06c-.02-3.13.29-6.22.94-9.28h-.43c.31,2.26-.24,4.42-1.55,6.28h.39l-.73-1.03c-.17-.23-.56,0-.39.23h0Z"/>
      <path class="cls-2" d="M127.1,223.91c-.02-1.35.1-3.47,1.98-3.36.13,0,.22-.11.23-.23.08-1.31.3-2.6.71-3.85.27-.82.28-.94,1.13-.86.36.03.98.18,1.2.38.3.27.18.63.7.81s.99-.12,1.45-.33c1.67-.76,4-.77,5.27-2.25.33-.39.82-1.2.6-1.75-.02-.04-.37-.71-.37-.4.6-.05,1.05.19,1.34.72.08.14.17.27.26.4.57.78,1.35,1.63,2.36.96.25-.17.42-.41.6-.64.61-.75.99-1.02,1.96-1.23.67-.14.92-.28,1.41-.71.1-.09.08-.35.17-.42.89-.73,1.49.12,2.08.68s1.2.93,2.02,1.06c2.06.33,4.44-.34,6.49-.61.28-.04.29-.48,0-.45-1.82.21-6.03-.46-6.43-2.63-.22-1.21-.52-2.08-1.72-2.66-.22-.1-.47.17-.27.35.7.66,1.69.63,2.31-.14.06-.08.09-.18.04-.27-.77-1.21-1.26-2.51-1.49-3.92-.01-.08-.09-.14-.16-.16-1.5-.43-2.95-.27-4.33.47l.33.13c-.19-.74-.14-1.35.2-2.04.09-.19-.06-.36-.25-.33-.77.12-1.16.51-1.83.75-.07.05-.13.11-.19.17-.3.36-.58.16-.85-.58,0-.3.51-.94.69-1.2.71-.99,1.45-1.65,2.7-1.82.42-.06.89-.08,1.23-.37.22-.19.33-.4.38-.69.21-1.18-1.02-1.37.69-2.59.69-.49,1.5-.58,1.34-1.63l-.28.28c1.69.48,3.4-.48,3.88-2.17.06-.21-.22-.39-.38-.22-1.18,1.27-2.78-.29-2.34-1.67.18-.56.68-.99.72-1.61.02-.33-.1-.59-.21-.89-.19-.48-.32-.78-.32-1.29,0-.24.09-.54,0-.78-.2-.53-.76-.76-1.3-.68-.86.13-1.01.83-1.38,1.48-.57,1-.95.44-1.68-.02-.26-.17-.57-.31-.88-.32-.76-.03-.69.65-1.34-.04-.6-.64-.87-1.37-1.79-1.6-.74-.18-1.45-.11-2.18-.4-.78-.32-1.41-.82-1.94-1.47-.12-.14-.32-.04-.38.1-.34.97-1.9.67-2.44,1.6-.28.48-.24.89.21,1.2v-.39c-.79.51-2.77,2.31-3.75,1.66-.42-.28-.54-.91-.97-1.2-.78-.53-.94.15-1.32.66-.72.94-2.57-.27-3.48-.63-.78-.3-1.99-1.09-2.87-.87-.54.13-.86.71-1.16,1.12-.74,1-1.47,1.99-2.21,2.99h.39c-1.2-1.91-3.01-3.21-5.2-3.73-.15-.04-.27.07-.28.22-.07.8-.19,1.59-.4,2.37-.16.59-.44.97-1.16.89-.16-.02-.37-.23-.54-.29-.97-.34-1.69.47-2.66.43s-1.91-.55-2.87-.05c-.25.13-.36.32-.57.46-.06.04-.08.27-.15.3-.52.2-.85-.89-.92-1.13-.48-1.76-1.51-1.74-3.13-1.85-.8-.05-1.25-.24-1.68-.97-.15-.27-.22-.57-.46-.78-.21-.19-.39-.26-.67-.31-1.01-.19-1.8-.08-2.49-1.07-.1-.14-.29-.14-.39,0-1.02,1.46.66,2.56,1.91,2.88s2.63.66,3.56,1.74c1.02,1.19,1.04,2.85,1.1,4.33.01.33.14.91-.03,1.13-.1.14-.53.23-.68.39-.42.44-.38.84-.29,1.39.09.59.3-.26,0,.88-.21.77-.33.64-.95.9-.31.13-.59.24-.84.46-.47.41-.65.85-.34,1.41l.35-.27c-1.13-1.04-3.75-2.66-4.59-.32-.08.23.04.7-.03.86-.19.42-.97.8-1.33,1.11-1.12.95-2.08,2.06-2.9,3.28-.1.15.07.4.25.33l1.25-.51c.26-.11.17-.5-.12-.43-.9.19-2.12.22-2.94.63-.38.18-.47.17-.52.71-.11,1.09.9,1.84,1.84,2.09.84.23,1.74.15,2.56.46.9.33,1.24.93,1.31,1.88.02.3-.02.62.06.91.33,1.17,1.4,1.03,2.36.77,1.22-.33,2.13.1,3.3.3.79.13,1.59.09,2.37-.03.94-.14,1.86-.4,2.77-.64.65-.17,1.51-.37,2.03.29.2.25.16.88.31,1.2.57,1.19,2.1,1.95,3.13,2.68,1.13.81,2.26,1.89,3.74,1.7.18-.02.36-.06.54-.09.82-.14,1.52.33,1.95,1.05.15.25.2.55.37.8.32.46.79.77,1.27,1.03.63.34,1.35.57,1.93,1.01.72.55.66.81.2,1.55-.35.56-.75,1.1-1.12,1.65-.05.07-.03.16,0,.23.94,1.89,3.7.82,5.2,1.86.24.17.46-.22.23-.39-1.13-.78-2.46-.52-3.73-.8-.34-.07-1.08-.26-1.19-.67-.1-.37.65-1.14.86-1.45.38-.56.87-.88.59-1.51-.5-1.11-2.05-1.43-2.99-2.01s-.97-1.27-1.48-2.14c-.26-.44-.6-.69-1.12-.76-1.11-.15-1.97.5-3.11-.11-.93-.5-1.78-1.23-2.64-1.84-.92-.66-1.96-1.24-2.36-2.35-.19-.54-.12-1.18-.67-1.52-.37-.23-.77-.14-1.16-.06-1.22.24-2.39.68-3.62.86-1.32.2-2.4-.03-3.67-.34-.86-.2-1.4,0-2.24.14-2.13.36-1.4-1.16-1.79-2.28-.21-.58-.67-.96-1.21-1.21-1.1-.52-2.47-.21-3.5-.87-.27-.18-.86-.56-.86-.97,0-.61.64-.77,1.07-.86.68-.14,1.36-.29,2.04-.43l-.12-.43-1.25.51.25.33c1.15-1.7,2.57-3.12,4.28-4.27.11-.07.13-.19.08-.31-.69-1.49,1.37-1.83,2.29-1.42.57.26,1.05.73,1.51,1.15.19.17.48-.05.35-.27-.55-.98,1.88-1.38,2.35-1.96.17-.21.26-.41.25-.68,0-.18-.1-.29-.12-.45l-.02-.05c-.45-.52-.25-1.06.6-1.63.11,0,.24-.1.23-.23-.15-1.89.09-4.07-1.08-5.7-.53-.74-1.3-1.26-2.13-1.62-1-.42-4.84-.84-3.5-2.75h-.39c.72,1.04,1.41,1.04,2.53,1.28s1.12,1.59,2.27,1.95c1.39.44,2.96-.37,3.56,1.47.28.85.47,1.8,1.56,1.74.09,0,.2-.07.22-.17.08-.5.84-.93,1.3-.95.42-.02.84.12,1.25.19.35.06.72.13,1.08.09.76-.08,1.47-.56,2.28-.36.31.07.53.37.86.42,1.52.23,1.56-2.98,1.65-3.92l-.28.22c2.09.49,3.8,1.7,4.93,3.52.1.15.29.14.39,0,.64-.87,1.29-1.75,1.93-2.62.24-.33.48-.65.73-.97.59-.28,1.15-.28,1.67.01.47.12.94.36,1.4.54.88.34,2.09,1.1,3.03,1.16.37.02.57-.03.79-.33.09-.13.11-.4.2-.51.66-.79.83-.16,1.14.25.23.3.45.64.8.81.38.18.68.09,1.05-.09.99-.48,1.92-1.22,2.85-1.82.15-.1.14-.29,0-.39-.96-.67,1.6-1.38,1.82-1.52.34-.21.49-.41.61-.78l-.38.1c.87,1.06,2.03,1.74,3.4,1.91,1.2.14,1.65.49,2.34,1.35.33.41.62.68,1.14.81.11.03.25-.03.28-.16.16-.81,1.74.58,2.12.7.34.1.68.16.97-.1.08-.08.11-.2.17-.3.07-.35.18-.7.33-1.03,1.29-.57,1.83-.45,1.61.34.11.73.55,2.09.35,2.7-.36,1.05-1.05,1.91-.2,3,.71.91,2.01.89,2.77.08l-.38-.22c-.41,1.45-1.89,2.26-3.33,1.85-.18-.05-.3.11-.28.28.16,1.08-1.51,1.01-2.03,1.67-.32.41-.29.83-.2,1.32.16.85.05,1.58-.98,1.73-.23.03-.46.04-.68.09-.72.17-1.29.61-1.78,1.15-.64.72-1.92,2.13-1.21,3.17.18.26.55.54.9.45.24-.06.16-.13.41-.36.59-.53,1.19-.81,1.97-.93l-.25-.33c-.39.79-.47,1.53-.25,2.39.04.14.2.2.33.13.73-.4,1.47-.63,2.3-.66,1.07-.05,1.47.11,1.73,1.13.13.5.3,1,.5,1.47.11.25.29.51.37.77.27.21.28.43.06.64-.2.53-.61.52-1.25-.04l-.27.35c1.34.64,1.25,1.58,1.55,2.82.15.63.47.94,1.05,1.22,1.77.87,3.79,1.53,5.77,1.3v-.45c-1.3.17-2.6.34-3.9.51-1.37.18-2.88.38-4.03-.57-.87-.72-1.94-2.09-3.1-1.01-.02.01-1.1,1.39-.4.55-.47.57-.52.44-1.17.58-.4.09-.76.17-1.09.42-.18.14-.33.32-.47.5-.17.2-.29.48-.49.65-.44.37-1.37.23-1.77-.13-.8-.72-1.53-2.57-2.88-1.51-.09.07-.09.25,0,.32,1.83,1.5-1.57,2.83-2.66,3.09-.58.14-1.16.26-1.71.49-.24.1-2.38,1.33-2.17.07.02-.12-.03-.25-.16-.28-.79-.19-1.57-.37-2.36-.56-.13-.03-.23.04-.28.16-.45,1.1-.8,2.22-1,3.39-.05.29-.02,1.19-.17,1.38-.29.37-.1.04-.56.28-1.53.8-1.71,2.11-1.68,3.75,0,.29.46.29.45,0h0Z"/>
      <path class="cls-2" d="M129.63,222.78c1.46.43,2.94.48,4.45.35s3.01-.35,4.49.05l-.09-.69c-.11.07-.22.14-.33.21-.41.25-.03.9.38.65.11-.07.22-.14.33-.21.27-.17.23-.6-.09-.69-1.44-.38-2.9-.24-4.36-.1-1.56.15-3.06.16-4.58-.29-.46-.14-.66.59-.2.72h0Z"/>
      <path class="cls-2" d="M51.52,55.83c-.56,1.64-2.38,5.21-4.58,3.07-.1-.1-.28-.08-.35.05-.24.45-.49.9-.73,1.35l.35-.05c-2.26-1.92-5.58-1.95-7.88-.08-.15.12-.03.39.16.38,1.8-.1,3.25,1.4,3.08,3.2l.28-.22c-1.51-.49-4.5-.69-4.1,1.78l.28-.28c-1.94-.29-5.05-.25-5.05,2.46,0,.13.1.21.23.23.64.08,1.28.13,1.92.13.55,0,1.23-.21,1.76-.02,1.18.41,1.71,2.66,1.76,3.76s-1.06,3.5.49,4.1c1.1.43,2.42-.66,3.44-.92,2.02-.53,1.91,2.14,3.62,2l-.11-.42c-2.44,1.12-4.6,2.68-6.44,4.64-.08.08-.1.24,0,.32,1.87,1.52,4.7,1.09,6.01-.94h-.39c1.22,1.74,3.32,1.52,5.06,2.36.68.33,1.37.87,1.67,1.59.48,1.12-.28,1.59-.86,2.31-.36.45-.56.89-.38,1.46.22.71.68.88.67,1.69s-.39.99-.7,1.66-.26,1.32.11,1.95c.49.83,1.33,1.3,2.17,1.71.6.3,1.26.58,1.75,1.06.3.3.56.71.58,1.15.02.6-.37,1.55-1.22,1.38-.19-.04-.35.15-.25.33.99,1.85,3.79,1.91,4.89.14l-.35.05c1.17,1.42,1.97,3.01,2.41,4.79l.22-.28c-2.02.18-5.46.9-5.9,3.34-.14.75.22,1.36.99,1.5.5.09,1.09-.25,1.56-.15,1.09.25.93,2.39,1.02,3.27s.54,2.15-.43,2.62c-.44.21-1.05.12-1.53.22-.58.12-1.15.38-1.19,1.05-.07,1.23,1.71,1.46,1.81,2.65.12,1.39-1.52,2.05-2.61,1.89s-2.02-.81-2.9-1.42c-.08-.05-.21-.03-.27.04-.75.8-1.61,1.78-2.74,2-.51.1-1.11.06-1.57-.2-.86-.47-.79-1.31-.87-2.14-.1-1-.38-1.79-1.34-2.24-1.89-.89-4.02.44-3.95,2.54.02.56.17,1.11.44,1.6s.84.8,1.05,1.21c.41.83-1.69,1.78-2.1,2.53-1.25,2.28,2.29,2.33,3.54,1.94l-.28-.22c-.09,2.23-.73,4.3-1.92,6.19-.05.08-.04.21.04.27.93.86,2.1,1.13,3.31.74l-.28-.22c.26,3.57,3.41,5.76,6.29,7.34.98.54,2.95,1.76,3.9.52.5-.65.35-1.79-.54-1.94-.23-.04-.42.28-.17.41,1.12.58,2.38.61,3.53.07,1.28-.6,1.84-1.68,2.23-2.98.21-.7.35-1.54.8-2.14.74-.99,1.74-.22,2.65-.69.68-.35,1.18-1.24,1.65-1.8.77-.94,1.55-1.89,2.32-2.83.69-.84,1.62-2.47,2.86-2.52,1.12-.04,2.46,1.05,3.26,1.74,1.56,1.36,2.69,3.21,3.22,5.21.25.95.3,1.9.34,2.88.02.6.08,1.2.45,1.7.43.58,1.09.78,1.35,1.54.19.56.04,1.24-.05,1.79-.12.7-.3,1.4-.22,2.11.39,3.47,4.75,4.32,6.72,1.65l-.42-.11c0,3.01,3.51,4.04,5.85,4.72,1.03.3,2.06.6,3.09.9.33.1.9.15,1.07.44.04.06.02.5.05.58.3.99,1.54,1.44,2.47,1.39,1.06-.05,2.05-.66,3.13-.59.94.06,1.7.72,2.62.82,1.25.13,1.88-.8,2.27-1.85.43-1.15,1.04-3.13,2.65-1.67.46.41.75.99,1.26,1.38,1.12.85,2.29.77,3.49.11.25-.14.03-.53-.23-.39-1.23.68-2.34.57-3.35-.41-.54-.52-.85-1.52-1.55-1.8-.94-.38-1.86.63-2.23,1.37-.34.67-.4,1.49-.84,2.12-1.02,1.44-2.39.16-3.62-.07-.71-.13-1.4.03-2.09.2-.59.15-1.21.39-1.83.35-.85-.06-2.01-.69-1.65-1.74.04-.12-.05-.24-.16-.28-2.02-.59-4.09-1.09-6.07-1.78-1.73-.61-3.87-1.66-3.87-3.78,0-.24-.29-.28-.42-.11-1.56,2.11-4.98,1.76-5.77-.88-.47-1.57.67-3.19.07-4.72-.24-.6-.74-.84-1.15-1.3-.8-.9-.52-2.21-.66-3.32-.2-1.51-.73-2.99-1.53-4.28s-1.79-2.34-2.99-3.18c-1-.7-2.38-1.56-3.59-.89-.61.33-1.03.92-1.46,1.45-.72.88-1.45,1.76-2.17,2.64-.63.77-1.22,1.72-1.96,2.38-.95.85-1.61.24-2.53.62-1.1.46-1.35,1.95-1.65,2.95-.32,1.07-.74,1.98-1.74,2.56s-2.3.62-3.36.07l-.17.41c.87.94.52,1.44-1.06,1.5-.41-.12-.8-.29-1.18-.49-.42-.21-.84-.44-1.25-.68-.83-.47-1.64-.98-2.4-1.57-1.67-1.29-3.04-2.94-3.2-5.13-.01-.14-.14-.26-.28-.22-.64.21-2.59.37-2.62-.7,0-.41.69-1.31.86-1.73.56-1.39.84-2.84.9-4.33,0-.14-.15-.26-.28-.22-.67.21-1.51.39-2.21.2-1.27-.35-.99-1.49-.18-2.17.7-.59,1.51-1.04,1.71-2,.02-.1-.01-.2-.1-.25-1.89-1.18-2.34-4.86.54-4.99.94-.04,1.89.42,2.19,1.35.28.86-.07,1.79.46,2.59.61.93,1.93,1.12,2.93.8.68-.22,1.27-.68,1.79-1.15.41-.38.53-.71,1.11-.49.45.17.86.55,1.31.75,1.25.55,2.68.66,3.68-.4.7-.74.92-1.8.24-2.61-.46-.55-2.19-1.68-.64-2.2.6-.2,1.28-.1,1.89-.32.27-.1.67-.25.77-.54.13-.38-.11-1.07-.15-1.48-.07-.64-.14-1.29-.21-1.93-.14-1.32,0-2.88-1.72-2.72-.19.02-.39.09-.58.09-.75,0-1.32-.47-1.11-1.2.17-.6.68-1.12,1.19-1.45,1.23-.78,2.76-1.15,4.19-1.27.15-.01.25-.13.22-.28-.47-1.87-1.3-3.51-2.53-4.99-.1-.12-.28-.07-.35.05-.92,1.49-3.28,1.4-4.11-.14l-.25.33c1.68.34,2.19-1.91,1.32-3.01-.77-.97-2.04-1.25-3.04-1.91-1.15-.76-1.62-1.87-.84-3.09.24-.37.55-.72.6-1.18.06-.5-.16-.85-.42-1.26-.33-.52-.39-.44-.23-1.19s.26-.72.67-1.21c.54-.65.7-1.37.35-2.16-1.26-2.82-5.15-1.68-6.76-3.97-.1-.14-.29-.15-.39,0-.65,1-1.71,1.59-2.9,1.64-.52.02-1.22-.03-1.68-.32-.57-.35-.42-.49,0-.91,1.64-1.6,3.54-2.87,5.62-3.82.2-.09.1-.44-.11-.42-.89.07-1.28-1.24-1.88-1.71-.48-.38-1.03-.44-1.62-.33-.78.15-1.47.57-2.21.84-.45.16-1.05.36-1.46-.02-.59-.56-.09-1.68,0-2.35.15-1.04.03-2.11-.33-3.09-.27-.73-.8-1.92-1.51-2.34-.32-.19-.81.02-1.11.05-.58.05-1.64.22-2.16,0-1.06-.46.38-1.64,1.08-1.87.93-.31,1.98-.14,2.91,0,.18.03.31-.1.28-.28-.35-2.14,2.46-1.58,3.54-1.23.15.05.27-.08.28-.22.18-2.03-1.5-3.76-3.53-3.65l.16.38c2.1-1.71,5.18-1.67,7.24.08.11.09.28.09.35-.05.24-.45.49-.9.73-1.35l-.35.05c.86.84,2.08.86,3.1.27,1.26-.73,1.78-2.24,2.22-3.54.09-.27-.34-.39-.43-.12h0Z"/>
      <path class="cls-2" d="M55.46,54.86c1.43-.9,2.85-1.79,4.28-2.69.06-.04.12-.12.11-.19-.21-2.38,2.05-3.82,2.67-5.95.36-1.26.25-2.62-.91-3.38l-.17.41c.93.29,1.63-.19,2.2-.91.61-.78,1.91-4.45,3.51-3.01.18.16.41,0,.38-.22-.24-1.74.92-3.3,2.62-3.65.15-.03.19-.21.13-.33-.37-.8-.99-1.4-1.85-1.66-.52-.16-.79-.06-1.03-.62-.31-.75-.43-1.72-.62-2.51-.02-.09-.12-.17-.22-.17-.56,0-1.29.13-1.84.01-.4.12-.67-.02-.81-.43.03-.44.18-.81.47-1.11,1.02-1.34,2.88-1.07,4.33-.85.17.03.31-.1.28-.28-.21-1,.12-1.86.98-2.46l-.33-.13c.68,1.8,3,2.39,4.62,1.46.39-.22.71-.53.94-.91.11-.18.18-.37.25-.58.08-.25.12-.5.19-.75.17-.65.15-.81.83-1.04.85-.29.49-.09.55.64.02.27.07.55.14.81.21.85.65,1.64,1.15,2.36.66.95,1.72,2.59,2.85,3.02,1.34.51,2.57-1.29,3.36-2.07.73-.71,1.42-1.55,2.22-2.18,1.29-1.01,1.88.12,2.54,1.13.7,1.08,1.43,1.38,2.65.9,1.3-.52,2.7-1.22,3.56-2.36.2-.26.36-.53.48-.83.07-.18.1-.81.21-.94.22-.27,1.04-.15,1.35-.16.67-.03,1.35-.06,2.02-.09.17,0,.28-.18.19-.34-.64-1.16-1.39-2.25-2.28-3.23-.45-.5-1.07-.92-1.47-1.44-.57-.74.78-1.58,1.38-1.93.15-.09.14-.3,0-.39-.84-.53-1.75-1.1-2.27-1.98-.64-1.08-.29-3.05,1.32-2.91.11.01.24-.11.23-.23-.29-2.92-.1-5.81.56-8.67h-.43c.35,1.9,2.73,2.83,4.26,1.65l-.27-.35c-.46.52-.27,1.05.28,1.44.9.64,1.69.22,2.6-.13.39-.15,1.11-.5,1.44-.09.04.05-.07.32-.04.4.15.39.22.64.55.93.38.33.78.44,1.26.47.44.03.87-.07,1.31-.08.4-.04.8,0,1.19.15.6.4.68.87.24,1.41-.13.07-.15.25-.05.35.94.97,2.2.57,3.17-.17,1.45-1.1,2.41-4.2,4.64-3.63.11.03.25-.04.28-.16.36-1.58,1.97-2.65,3.58-2.38.73.12.89.2.54.92-.18.38-.49.69-.76,1.01-.43.5-.92.96-1.32,1.48-1,1.29-1.57,3.64.19,4.56v-.39c-1.15.58-2.29.85-3.57.87-.12,0-.23.1-.23.23.07,2.12,1.94,3.36,3.9,3.59.59.07,1.18.06,1.77.03.36-.02.74-.13,1.09,0,.4.16.36.45.7.69.26.18.19.11.68.14.81.05,1.62.12,2.43.21.76.08,2.17,0,2.84.4.36.22.24.29.47.64.29.45.91.64,1.42.64.73,0,1.24-.41,1.67-.97.67-.87,2.08-3.95,3.53-2.25.1.11.28.07.35-.05.68-1.09.4-2.39-.61-3.16v.39c1.05-.48,2.28-.87,3.23-1.51.5-.34.7-.77.72-1.37.04-1.09-.26-2.26-.4-3.33-.08-.64-.19-1.28-.24-1.92-.07-.87.39-2.97,1.8-2.05l-.05-.35c-2.07,2.17.92,5.2,3.13,3.17l-.35-.05c.95,2.03,2.62,3.49,4.74,4.18l-.05-.41c-1.32.9-2.64,1.79-3.97,2.69-.15.1-.15.37.05.41,1.48.32,1.47,2.34,2.03,3.47.44.88,1.21,1.57,2.1,1.97s1.92.56,2.89.35c.69-.15,1.33-.62,1.37.6.02.63-.29.68-.8.76l-1.46.24c-.09.01-.17.13-.17.22.12,1.15.9,2.09,2.04,2.39.41.11,1.16-.12,1.47.07.29.17.4,1.53.38,1.76-.08.88-.48,1.11-.97,1.6-1.01,1.02-.78,1.79.05,2.87.59.77,1.26,1.48,1.99,2.12.4.35.71.42.74.97.02.42-.52,1.24-.68,1.63-.05.11.05.25.16.28,1.16.31,2.32.63,3.48.94.54.15,1.08.29,1.62.44.26.07.51.14.77.21.72.11.92.59.63,1.44-.2.06-.23.39,0,.43.74.13,1.56.38,2.08.96.83.94.26,2.99-1.21,2.4-.14-.06-.28.09-.28.22,0,.46-.02.92-.02,1.38,0,.07.04.16.11.19,1.1.52,2.21,1.01,3.29,1.56.54.28,1.11.6,1.48,1.09.57.76.61,2.52-.84,2.37-.22-.02-.32.33-.11.42,1.26.53,2.39,1.21,3.44,2.09.22.18.54-.13.32-.32-1.08-.9-2.23-1.61-3.53-2.16l-.11.42c1.39.14,2.07-1.53,1.51-2.65-.42-.84-1.28-1.33-2.08-1.73-.63-.32-1.29-.61-1.93-.91-.91-.43-1.09-.73-1.07-1.75l-.28.22c1.06.43,2.14-.47,2.26-1.55.17-1.59-1.59-2.44-2.88-2.67v.43c1.3-.39.6-1.8-.3-2.19-1.13-.49-2.46-.7-3.65-1.02-.41-.11-1.88-.27-2.09-.57-.32-.45.35-1.41.55-1.88.04-.1-.03-.2-.1-.25-.87-.66-1.67-1.4-2.39-2.23-.48-.56-1.48-1.51-1.03-2.38.19-.36.62-.62.89-.91,1.02-1.11.64-2.45.13-3.73-.04-.1-.15-.21-.28-.16-.94.37-2.21.11-2.73-.84-.37-.69-.13-.84.53-.94l1.46-.24c.09-.01.17-.13.17-.22-.04-.81-.22-1.48-.61-2.18-.06-.11-.2-.14-.31-.08-2.16,1.18-4.96.11-5.79-2.21-.43-1.21-.63-2.84-2.1-3.16l.05.41c1.32-.9,2.64-1.79,3.97-2.69.16-.11.14-.35-.05-.41-2.02-.66-3.58-2.05-4.47-3.97-.06-.14-.26-.14-.35-.05-1.77,1.64-4.15-.78-2.49-2.53.1-.11.08-.27-.05-.35-.58-.38-1.25-.31-1.79.14-.74.61-.74,1.63-.66,2.5.14,1.48.43,2.94.58,4.41.2,1.94-2.25,2.48-3.68,3.14-.17.08-.12.3,0,.39.83.62.98,1.69.45,2.54l.35-.05c-.68-.79-1.75-.61-2.53-.03-.52.39-.82.95-1.15,1.5-.25.42-.49.9-.87,1.22-.54.46-2.24.74-2.1-.55,0-.09-.08-.2-.17-.22-1.7-.31-3.42-.53-5.14-.66-.54-.04-.96-.03-1.37-.42-.14-.13-.22-.42-.38-.5-.36-.18-1.04.02-1.44.04-1.8.1-3.99-.15-4.92-1.95-.63-1.2.41-1,1.23-1.18.72-.16,1.39-.43,2.04-.76.15-.07.15-.31,0-.39-1.81-.94-.64-3.25.31-4.34.84-.95,1.71-1.78,2.16-2.99.03-.09-.02-.21-.1-.25-.96-.56-2.05-.62-3.08-.21-.48.19-.93.47-1.29.84-.22.22-.42.48-.57.75-.05.09-.2.56-.25.6-.27.2-.84.05-1.19.17-.57.21-1.04.64-1.45,1.08-1,1.07-2.95,4.67-4.77,2.8l-.05.35c.68-.39.65-1.18.21-1.77-.3-.4-.68-.56-1.16-.63-.31-.04-.61,0-.92,0-.29.03-.58.06-.87.07-.94.08-1.43-.4-1.46-1.42.06-.11.03-.24-.08-.31-.52-.3-.97-.31-1.55-.14-.31.09-.59.23-.89.35-.41.26-.85.34-1.32.25-.59-.09-.82-.42-.7-.98.16-.18-.06-.52-.27-.35-1.31,1-3.3.25-3.6-1.39-.04-.22-.39-.21-.43,0-.42,1.83-.68,3.68-.72,5.56-.01.62,0,1.23.03,1.85.01.27.2.95.05,1.13-.11.14-.81.24-1.02.42-2.24,1.9.41,4.3,2.03,5.33v-.39c-.84.5-1.47,1.14-1.98,1.97-.05.08-.04.21.04.27,1.71,1.39,3.09,3.04,4.15,4.97l.19-.34c-1.2.05-2.39.11-3.59.16-.12,0-.22.1-.23.23,0,1.32-.84,2.25-1.88,2.95-.81.54-2.48,1.66-3.44,1.2-1.2-.57-1.35-3.08-3.17-2.71-.7.14-1.2,1.02-1.68,1.49-.51.5-1.03,1.01-1.54,1.51-.4.4-.84,1-1.33,1.29s-1.58.3-2.04-.03c-.21-.15-.39-.4-.56-.59-.45-.49-.9-1-1.29-1.54-.9-1.25-1.52-2.65-1.3-4.22.01-.09,0-.21-.1-.25-1.71-.81-2.03,1.41-2.44,2.48-.79,2.04-4.13,1.97-4.9-.06-.05-.12-.2-.23-.33-.13-1.01.71-1.43,1.76-1.18,2.97l.28-.28c-1.4-.21-3.03-.46-4.25.44-.87.64-1.29,1.63-1,2.67.03.09.12.17.22.17.74,0,2.14-.33,2.66.27.22.26.26,1.06.34,1.37.11.46.23.91.34,1.37.02.09.12.17.22.17,1.14-.05,2.05.51,2.53,1.54l.13-.33c-1.97.4-3.2,2.23-2.93,4.2l.38-.22c-2.61-2.35-3.67,4.5-5.9,3.8-.25-.08-.38.28-.17.41,2.56,1.67-.64,4.96-1.49,6.62-.4.79-.33,1.94-.96,2.5-1.04.92-2.52,1.58-3.69,2.32-.24.15-.02.54.23.39h0Z"/>
      <path class="cls-2" d="M135.64,82.61c.25.32.69.26.91-.08.18-.26.11-.71.21-1,.19-.54.37-.69.93-.86.31-.09.64-.1.96-.13,1.09-.08,3.27-.46,2.7-2.06-.03-.07-.08-.14-.16-.16-.39-.07-.88-.04-1.08-.46-.32-.66.51-.82.97-.81.12,0,.22-.1.23-.23l.02-.95c.51-.6,1.1-.69,1.76-.28.12.05.23.03.31-.08.23-.34.62-1.27.97-1.45s.59.05.99.13c.77.14,1.49-.04,2.17-.41.1-.06.14-.21.08-.31-.62-1-.26-2.53.85-3.06.83-.4,1.28.18,2.04.37,1.23.3,2.57-.18,3.23-1.27.78-1.3.39-2.52-.38-3.68s-.7-2.72-.84-4.08c-.03-.32-.06-.64-.1-.97.1-.28.3-.34.6-.19.54-.07,1.21.09,1.75.13.12,0,.23-.11.23-.23-.02-1.94-.01-3.89-.06-5.84-.03-1.08-.11-2.13-.96-2.89l-.1.38c1.22-.42,2.4-.94,3.52-1.58.3-.17,1.42-1.18,1.77-1.16.54.03.3,1.25.3,1.65-.03,1.85,1.37,2.07,2.87,1.3.85-.43,1.56-1.12,2.01-1.96.09-.17.14-.36.24-.52l.19-.46c.85-.1,1.27.15,1.25.74.17.57-.02,1.18.25,1.74.86,1.78,3.38.62,4.4-.32.93-.85,1.54-1.96,2.37-2.89.99-1.1,2.75-2.19,4.17-1.07.88.7.41,1.93,1.26,2.62.66.54,1.65.5,2.39.18,1.02-.45,1.74-1.4,2.66-2.02s2.02-1.04,2.67-1.96c.4-.56.64-1.33.47-2.02-.14-.59-.46-.52-.06-1.01.75-.92,1.59.6,2.03,1.1,1.48,1.69,3.12.7,4.82-.08.58-.26,1.31-.61,1.97-.42.75.21.95,1.03,1.49,1.5.73.63,1.71.73,2.59.39l-.28-.22c.32,2.49,3.2,2.16,4.72,1.01,2.49-1.89,4.09-4.89,4.7-7.91l-.33.13c1.11.8,1.3,2.36.42,3.4-.16.19.04.47.27.35l1.15,1.5c-.12.33-.25.66-.41.97-.08.19-.18.38-.25.57-.13.37-.26.78-.23,1.17.05.64.38,1.11.94,1.41,1.14.63,2,.45,2.74,1.8.5.92.94,1.8,1.71,2.54,1.22,1.17,2.97,1.77,4.61,1.22.38-.13.73-.49,1.09-.59.56-.15,1.09.53,1.38.97.56.82.76,2.04-.2,2.64-.63.39-1.68.36-1.96-.45-.05-.15-.26-.24-.38-.1-.38.43-.88,1.37-.49,1.95.15.21.36.22.62.31.84.27,1.69.54,2.53.82,1.64.53,4.64,2.19,6.17.65l-.38-.1c.43,1.04.85,2.29.59,3.43-.44,1.92-2.26,1.1-3.6,1.57-.89.31-1.69,1.83-.55,2.34l.05-.41c-1.5.46-3.97,1.58-3.36,3.58.22.73.83,1.19,1.45,1.58.42.26.87.48,1.28.76.11.07.86.59.85.79-.01.33-.42.24-.71.28-.07.01-.14.09-.16.16-.24,1.01.13,1.83.65,2.68.34.56.75,1.1,1.03,1.7.39.87.07,1.59.18,2.46.05.37.19.71.44.99.36.39.79.34,1.19.57,1.13.68.98,3.38.89,4.52-.03.29.43.29.45,0,.15-1.74-.15-3.2-.75-4.83-.03-.09-.11-.17-.22-.17-1.81.17-1.35-1.49-1.45-2.62-.05-.56-.28-1.07-.55-1.56-.32-.58-.73-1.11-1.05-1.69-.16-.3-.38-.64-.41-.99-.07-.81.24-.86.94-.96.11-.02.2-.17.16-.28-.47-1.16-1.55-1.58-2.54-2.22-.91-.58-1.78-1.48-1.05-2.62.6-.94,1.84-1.4,2.85-1.71.17-.05.24-.33.05-.41-.39-.18-.36-.68-.17-.99.36-.6.92-.59,1.51-.63.41-.02.81.01,1.22-.06.67-.12,1.21-.45,1.55-1.05.73-1.3.19-3.07-.33-4.34-.06-.15-.25-.23-.38-.1-1.14,1.15-3.33.01-4.58-.39-.69-.22-1.38-.45-2.07-.67-.93-.3-2.75-.63-1.54-2.02l-.38-.1c.44,1.25,2.06,1.3,2.96.48,1.57-1.43-.14-3.58-1.49-4.37-.09-.05-.2-.03-.27.04-1.83,1.71-4.43.84-5.87-.91-1.02-1.25-1.2-2.86-2.84-3.44-.39-.14-.84-.21-1.2-.42-.99-.56-.66-1.7-.29-2.54.28-.64.66-1.3.54-2.02-.15-.92-1.07-1.5-1.9-1.06l.27.35c1.08-1.28.85-3.13-.51-4.11-.11-.08-.3,0-.33.13-.4,1.97-1.19,3.83-2.4,5.45-.68.91-1.51,1.84-2.47,2.46-1.16.76-3.42,1.06-3.68-.88-.02-.13-.13-.28-.28-.22-.82.32-1.58.2-2.23-.41-.35-.32-.54-.76-.89-1.08-.4-.36-.91-.5-1.44-.45-1.58.14-2.87,1.65-4.49,1.5s-2.1-3.02-3.97-2.26c-.35.14-.7.47-.64.89.04.3.38.47.48.75.29.81-.24,1.72-.81,2.25-.75.7-1.77,1.08-2.58,1.72-.85.67-2.61,2.69-3.88,1.64-.8-.66-.49-1.84-1.2-2.56-.48-.49-1.19-.7-1.86-.71-1.74-.04-2.9,1.27-3.87,2.55-.8,1.05-1.56,2.18-2.8,2.76-1.1.51-2.56.13-2.67-1.23-.04-.48,0-.93-.22-1.38s-.63-.87-1.16-.82c-.8.08-.94,1.15-1.26,1.7-.36.61-.87,1.12-1.47,1.48-.28.17-.7.46-1.04.45l-1.42-.49c-.03-.19-.04-.38-.04-.58-.01-.83.16-1.62-.33-2.35-.06-.09-.21-.16-.31-.08-1.69,1.28-3.52,2.27-5.52,2.96-.15.05-.23.26-.1.38,1.28,1.14.84,3.7.86,5.25v1.22c.01.21.14,1.29.03,1.46-.31.47-1.86.1-2.39.06-.11,0-.24.11-.23.23.13,1.29.22,2.58.39,3.87.13,1.05.51,1.51,1.04,2.4.66,1.12.43,2.71-.7,3.46-.59.39-1.35.49-2.02.33-.46-.11-.73-.48-1.15-.59-1.01-.26-2.05.78-2.4,1.6-.21.48-.3,1.02-.19,1.53.09.47.36.47-.15.78-.61.38-1.65.03-2.19-.27-.11-.06-.24-.02-.31.08-.22.33-.63,1.28-.97,1.45-.36.19-.23.04-.67.02-.6-.03-1.03.01-1.58.26-.07.03-.11.12-.11.19,0,.39.11.95-.21,1.21-.15.12-.79.2-1.02.31-.1.05-.12.16-.1.25.06.41.12.81.18,1.22.01.07.09.14.16.16.26.05.52.09.79.14.14.61-.01.98-.47,1.11-.38.24-.84.25-1.27.28-.55.04-1.1.04-1.63.23-.35.13-.69.31-.9.63-.06.1-.12.21-.16.32s-.15,1.21-.29,1.03c-.18-.23-.5.09-.32.32h0Z"/>
      <path class="cls-2" d="M41.16,121.55c-2.75-2.26-7.81-5.36-5.7-9.57.1-.19-.11-.43-.31-.31-2.58,1.58-4.73-1.75-5.67-3.72-.81-1.69-1.64-3.42-3.45-4.2-.14-.06-.36,0-.34.19.13,1.5.38,2.98.78,4.43.24.86.52,1.7.86,2.52.24.61.79,1.3.88,1.92.16,1.1-1.57,2.47-2.03,3.5-.29.65-.15,1.06-.96.99-.86-.07-1.74-.3-2.59-.45-.15-.03-.28.06-.28.22-.03.52-.16,1.04-.34,1.52-.09.25-.25.69-.44.92-.45.54-1.23.45-1.63-.15-.97-1.46-.89-3.41-.8-5.07.14-2.53.37-5.87-2.3-7.2-.16-.08-.33.02-.34.19-.19,2.61-.13,5.29.22,7.88.08.62.45.88-.43,1.31-.49.24-1.17.28-1.69.48-.93.35-1.76.85-2.53,1.47l.35.27c.2-.41,0-.56-.35-.27l.38.22c.61-2.26-1.61-3.25-3.51-3.23-1.56.02-3.15.62-4.71.32-1.38-.26-2.58-1.15-3.94-1.52-.28-.08-.4.36-.12.43,1.82.5,3.26,1.67,5.22,1.59s7.64-1.43,6.62,2.28c-.06.23.21.36.38.22.22-.18.52-.4.57-.7.01-.1,0-.2-.1-.25-.4-.22-.7.43-.82.68-.12.24.15.43.35.27,1.22-.98,2.53-1.44,4.03-1.83.63-.16,1.01-.28.94-1-.26-2.89-.62-5.69-.41-8.63l-.34.19c4.31,2.15.66,8.67,2.94,12.12,1.67,2.53,3.15-.91,3.25-2.52l-.28.22c1.15.2,2.3.4,3.45.6.11.02.26-.03.28-.16.24-1.49,1.16-2.57,2.08-3.71.58-.7.52-.95.13-1.82-1.21-2.69-2.05-5.3-2.31-8.27l-.34.19c2.61,1.12,2.94,4.15,4.53,6.19,1.2,1.55,3.14,2.9,5.05,1.73l-.31-.31c-2.25,4.47,2.81,7.69,5.77,10.12.22.18.54-.13.32-.32h0Z"/>
      <path class="cls-2" d="M260.87,157.02c2.03-.56,4.06.09,5.48-1.85,1.07-1.46,1.34-3.41,1.35-5.17h-.45c0,.12.13.98.05,1.05l.38.1c-.06-.37,0-.79.02-1.15h-.45c.02,1.65.03,3.33.49,4.93.21.72.42,1.2,1.21,1.3.47.06.98-.06,1.43-.18.72-.19.91-.5,1.61-.82s1.63-.41,2.39-.62c.84-.23,1.68-.48,2.5-.75,2.49-.83,5.28-1.77,6.58-4.2.27-.51.5-1.06.82-1.54.54-.82,1.34-1.26,2.17-1.73,1.35-.76,2.65-1.5,3.77-2.59l-.35-.27c-.07.16-.39.61-.23.7s.42-.3.58-.43l-.38-.22c-.35,1.07.26,1.76,1.29,2.03,1.63.42,3.43-.25,4.96-.75,3.4-1.12,7.02-3.34,7.17-7.31,0-.2-.25-.29-.38-.16-.85.86-.75,2.11-.04,3.04.88,1.15,2.53,1.28,3.83,1.06,1.96-.33,3.83-1.05,5.6-1.95,1.08-.55,2.04-1.4,3.28-1.25,1.11.13,2.21.47,3.31.64.28.05.41-.39.12-.43-.84-.13-1.67-.3-2.5-.47-.48-.1-1.25-.42-1.73-.36s-1.14.64-1.59.89c-.68.37-1.36.73-2.06,1.05-1.56.71-3.24,1.3-4.95,1.5-.96.11-1.51-.11-2.34-.53-1.04-.53-1.52-1.97-.61-2.88l-.38-.16c-.12,3.2-2.8,5.32-5.56,6.42-.87.35-7.98,2.79-6.97-.26.08-.23-.22-.35-.38-.22-.29.24-.89.75-.72,1.2.04.1.11.15.22.17.45.05.74-.82.86-1.09.1-.22-.16-.46-.35-.27-1.04,1.02-2.24,1.72-3.5,2.42-.87.48-1.73.91-2.33,1.73-.69.93-.98,2.11-1.76,2.99-.96,1.08-2.62,1.7-3.94,2.23s-2.58.91-3.89,1.28c-1.07.3-2.34.41-3.27,1.02-.4.27-.74.44-1.22.54-.95.2-1.43.09-1.81-.88-.57-1.44-.45-3.28-.47-4.81,0-.29-.44-.29-.45,0-.02.41-.07.86,0,1.27.03.18.26.2.38.1.27-.25.1-1.07.08-1.37s-.45-.29-.45,0c0,1.6-.23,3.36-1.13,4.73-1.31,1.98-3.4,1.32-5.37,1.86-.28.08-.16.51.12.43h0Z"/>
      <path class="cls-2" d="M153.86,116.77c0,1.97-.03,3.94,0,5.91,0,.48.76.48.75,0-.03-1.97,0-3.94,0-5.91,0-.48-.75-.48-.75,0h0Z"/>
      <path class="cls-2" d="M154.23,117.15c13.73.26,27.46.59,41.2.59h20.53c.48,0,.48-.75,0-.75-17.02,0-34.02-.05-51.04-.38-3.56-.07-7.12-.14-10.69-.21-.48,0-.48.74,0,.75h0Z"/>
      <path class="cls-2" d="M154.42,116.45c-1.52-.77-2.89-1.86-4.3-2.8-1.76-1.18-3.57-2.34-5.53-3.15-.45-.18-.64.54-.2.72,1.96.8,3.75,2,5.5,3.17,1.36.91,2.69,1.95,4.15,2.7.43.22.81-.43.38-.65h0Z"/>
      <path class="cls-2" d="M153.94,159.97c8.17-.07,16.35,0,24.51-.3.48-.02.48-.77,0-.75-8.17.29-16.34.23-24.51.3-.48,0-.48.75,0,.75h0Z"/>
      <path class="cls-2" d="M178.08,159.3c0,9.35,0,18.7.18,28.05,0,.48.76.48.75,0-.18-9.35-.18-18.7-.18-28.05,0-.48-.75-.48-.75,0h0Z"/>
      <path class="cls-2" d="M153.56,159.6c0,4.56-.13,9.14.01,13.7.15,4.79-.19,9.57-.01,14.36.02.48.77.48.75,0-.17-4.79.16-9.57.01-14.36s-.01-9.14-.01-13.7c0-.48-.75-.48-.75,0h0Z"/>
      <path class="cls-2" d="M151.87,188.33c3.95.21,7.96,0,11.92-.03,5.85-.04,11.71-.09,17.56-.06,1.72,0,3.48-.07,5.19.13l-.38-.38c-.1.77-.12,1.54-.12,2.32,0,.48.75.48.75,0,0-.78.02-1.55.12-2.32.03-.22-.19-.35-.38-.38-1.42-.16-2.89-.11-4.32-.12-2.68-.02-5.37-.02-8.06,0-5.81.02-11.63.07-17.44.1-1.62,0-3.25.07-4.87-.02-.48-.03-.48.72,0,.75h0Z"/>
      <path class="cls-2" d="M155.71,190.89c2.21.08,4.42-.08,6.62-.16,2.64-.1,5.3-.04,7.94-.06,5.29-.03,10.57-.06,15.85.02.48,0,.48-.74,0-.75-5.29-.08-10.57-.05-15.85-.02-2.6.01-5.21-.04-7.81.05-2.25.08-4.51.25-6.76.17-.48-.02-.48.73,0,.75h0Z"/>
      <path class="cls-2" d="M185.87,190.34c-.75.59-1.53,1.14-2.35,1.63-.86.52-1.74,1.02-2.6,1.56-.41.25-.03.9.38.65.87-.54,1.77-1.05,2.64-1.59s1.66-1.11,2.45-1.72c.16-.13.13-.4,0-.53-.16-.16-.37-.12-.53,0h0Z"/>
      <path class="cls-2" d="M150.99,195.26c10.03-.82,20.06-1.36,30.12-1.03.48.02.48-.73,0-.75-10.06-.33-20.1.21-30.12,1.03-.48.04-.48.79,0,.75h0Z"/>
    </g>
  </g>
</svg>