<?xml version="1.0" encoding="UTF-8"?>
<svg id="Capa_2" data-name="Capa 2" xmlns="http://www.w3.org/2000/svg" viewBox="0 0 430.28 234.36">
  <defs>
    <style>
      .cls-1 {
        fill: #fff;
        opacity: .3;
      }

      .cls-2 {
        stroke-width: .75px;
      }

      .cls-2, .cls-3 {
        stroke-linejoin: round;
      }

      .cls-2, .cls-3, .cls-4 {
        fill: none;
        stroke: #fff;
        stroke-linecap: round;
      }

      .cls-4 {
        stroke-miterlimit: 10;
      }
    </style>
  </defs>
  <g id="ADOBE">
    <g>
      <g>
        <g>
          <line class="cls-4" x1="166.38" y1="74.24" x2="132.98" y2="97.47"/>
          <line class="cls-4" x1="166.38" y1="76.78" x2="132.98" y2="100.01"/>
          <line class="cls-4" x1="166.38" y1="74.24" x2="323.23" y2="8.88"/>
          <line class="cls-4" x1="168.32" y1="76.84" x2="324.8" y2="10.82"/>
          <line class="cls-4" x1="205.59" y1="126.88" x2="357" y2="50.64"/>
          <line class="cls-4" x1="205.35" y1="129.34" x2="357" y2="52.67"/>
          <line class="cls-4" x1="323.23" y1="8.88" x2="357" y2="50.64"/>
          <line class="cls-4" x1="166.38" y1="74.24" x2="205.59" y2="126.88"/>
          <line class="cls-4" x1="166.38" y1="76.78" x2="205.35" y2="129.34"/>
          <line class="cls-4" x1="135.43" y1="98.35" x2="136.81" y2="126.5"/>
          <line class="cls-4" x1="137.01" y1="126.69" x2="176.12" y2="145.16"/>
          <line class="cls-4" x1="204.44" y1="128.28" x2="204.19" y2="139.66"/>
          <line class="cls-4" x1="132.75" y1="97.76" x2="132.75" y2="99.84"/>
          <line class="cls-4" x1="357" y1="50.64" x2="357" y2="52.67"/>
          <line class="cls-4" x1="351.14" y1="77.6" x2="351.92" y2="77.18"/>
          <line class="cls-4" x1="336.86" y1="85.4" x2="339.15" y2="84.15"/>
          <line class="cls-4" x1="299.49" y1="105.8" x2="306.24" y2="102.12"/>
          <line class="cls-4" x1="233.07" y1="142.07" x2="297.96" y2="106.64"/>
          <line class="cls-4" x1="228.82" y1="140.82" x2="268.22" y2="119.31"/>
          <line class="cls-4" x1="224.82" y1="119.73" x2="224.37" y2="143.52"/>
          <line class="cls-4" x1="272.37" y1="95.45" x2="271.39" y2="121.14"/>
          <line class="cls-4" x1="269.07" y1="97.12" x2="268.14" y2="119.15"/>
          <line class="cls-4" x1="268.14" y1="119.15" x2="271.31" y2="121.07"/>
          <line class="cls-4" x1="327.97" y1="82.49" x2="291.89" y2="97.22"/>
          <line class="cls-4" x1="328.06" y1="82.58" x2="389.31" y2="102.19"/>
          <line class="cls-4" x1="389.31" y1="102.19" x2="355.54" y2="118.93"/>
          <line class="cls-4" x1="291.89" y1="97.22" x2="355.54" y2="118.93"/>
          <line class="cls-4" x1="354.42" y1="54.13" x2="351.92" y2="77.18"/>
          <path class="cls-4" d="M356.9,118.26c-.35,2.89-.69,5.79-1.04,8.68l-1.98,16.49c-.25,2.12-.51,4.24-.76,6.36"/>
          <line class="cls-4" x1="381.25" y1="106.19" x2="378" y2="131.71"/>
          <line class="cls-4" x1="383.14" y1="105.25" x2="379.68" y2="132.4"/>
          <path class="cls-4" d="M354.95,118.73c-1.36,10.16-2.08,20.33-3.61,30.35"/>
          <path class="cls-4" d="M327.43,109.34c-1.11,10.1-1.32,18.46-2.38,28.8"/>
          <path class="cls-4" d="M325.8,108.79c-.57,1.58-.21,3.39-.57,4.84-.67,8.05-1.03,15.8-1.83,23.83"/>
          <line class="cls-4" x1="299.8" y1="99.92" x2="298.35" y2="127.37"/>
          <line class="cls-4" x1="298.34" y1="99.42" x2="296.89" y2="126.76"/>
          <path class="cls-4" d="M351.34,149.08c.59.25,1.18.49,1.77.74"/>
          <path class="cls-4" d="M323.4,137.46c.5.2,1,.4,1.5.6"/>
          <path class="cls-4" d="M296.89,126.76c.48.21.97.41,1.46.6"/>
          <path class="cls-4" d="M378,131.71l1.68.71"/>
          <line class="cls-4" x1="328.8" y1="67.16" x2="327.95" y2="82.59"/>
          <line class="cls-4" x1="313.99" y1="74.62" x2="313.09" y2="88.41"/>
          <line class="cls-4" x1="324.62" y1="69.08" x2="323.71" y2="84.23"/>
          <line class="cls-4" x1="255.63" y1="104.19" x2="254.73" y2="126.71"/>
          <line class="cls-4" x1="240.42" y1="111.55" x2="240.42" y2="134.79"/>
          <g>
            <line class="cls-4" x1="274.58" y1="63.34" x2="284.02" y2="59.04"/>
            <line class="cls-4" x1="274.41" y1="63.47" x2="285.38" y2="77.94"/>
          </g>
          <line class="cls-4" x1="284.02" y1="59.03" x2="292.73" y2="70.6"/>
          <line class="cls-4" x1="275.67" y1="64.43" x2="284.02" y2="60.44"/>
          <line class="cls-4" x1="281.48" y1="61.65" x2="281.48" y2="65.88"/>
          <line class="cls-4" x1="277.85" y1="67.7" x2="281.63" y2="65.81"/>
          <line class="cls-4" x1="281.63" y1="65.81" x2="294.6" y2="71.41"/>
          <line class="cls-4" x1="285.47" y1="75.69" x2="294.52" y2="71.41"/>
          <line class="cls-4" x1="285.47" y1="77.87" x2="294.52" y2="73.49"/>
          <line class="cls-4" x1="294.56" y1="71.36" x2="294.55" y2="73.55"/>
          <line class="cls-4" x1="285.47" y1="75.69" x2="285.56" y2="77.84"/>
          <line class="cls-4" x1="284.02" y1="58.99" x2="284.02" y2="60.44"/>
          <line class="cls-4" x1="285.47" y1="75.76" x2="282.2" y2="73.51"/>
          <line class="cls-4" x1="205.59" y1="126.88" x2="205.23" y2="129.42"/>
          <line class="cls-4" x1="204.45" y1="20.09" x2="219.88" y2="14.35"/>
          <line class="cls-4" x1="204.45" y1="20.09" x2="204.24" y2="43.44"/>
          <line class="cls-4" x1="219.88" y1="14.35" x2="265.9" y2="27.76"/>
          <line class="cls-4" x1="204.5" y1="20.14" x2="249.87" y2="33.94"/>
          <line class="cls-4" x1="204.14" y1="43.37" x2="207.05" y2="44.46"/>
          <line class="cls-4" x1="249.87" y1="33.94" x2="265.9" y2="27.73"/>
          <line class="cls-4" x1="249.89" y1="33.93" x2="249.89" y2="39.38"/>
          <line class="cls-4" x1="265.86" y1="27.76" x2="265.86" y2="32.84"/>
          <line class="cls-4" x1="120.39" y1="6.04" x2="137.7" y2=".5"/>
          <line class="cls-4" x1="120.39" y1="6.04" x2="167.92" y2="20.13"/>
          <line class="cls-4" x1="137.7" y1=".5" x2="183.58" y2="14.75"/>
          <line class="cls-4" x1="167.92" y1="20.13" x2="183.58" y2="14.75"/>
          <line class="cls-4" x1="121.72" y1="6.34" x2="122.82" y2="28.86"/>
          <line class="cls-4" x1="167.83" y1="20.14" x2="168.42" y2="44.46"/>
          <line class="cls-4" x1="183.45" y1="14.69" x2="183.67" y2="37.66"/>
          <line class="cls-4" x1="168.42" y1="44.46" x2="183.67" y2="37.65"/>
          <line class="cls-4" x1="168.56" y1="44.46" x2="122.82" y2="28.86"/>
          <line class="cls-4" x1="380.87" y1="132.14" x2="353.33" y2="150.6"/>
          <line class="cls-4" x1="149.59" y1="106.14" x2="150.31" y2="128.11"/>
          <line class="cls-4" x1="152.86" y1="107.59" x2="153.46" y2="126"/>
          <line class="cls-4" x1="149.59" y1="106.14" x2="167.04" y2="113.26"/>
          <line class="cls-4" x1="167.04" y1="113.26" x2="167.82" y2="135.63"/>
          <line class="cls-4" x1="150.34" y1="128.11" x2="167.82" y2="135.63"/>
          <line class="cls-4" x1="153.6" y1="125.93" x2="167.7" y2="131.99"/>
          <line class="cls-4" x1="150.22" y1="128.04" x2="153.31" y2="126.16"/>
          <line class="cls-4" x1="120.39" y1="147.75" x2="132.98" y2="141.04"/>
          <line class="cls-4" x1="120.63" y1="147.94" x2="158.03" y2="166.82"/>
          <line class="cls-4" x1="132.91" y1="141.07" x2="168.2" y2="159.2"/>
          <line class="cls-4" x1="158.17" y1="166.85" x2="165.29" y2="162.46"/>
          <line class="cls-4" x1="105.02" y1="156.29" x2="112.28" y2="151.93"/>
          <line class="cls-4" x1="112.14" y1="151.92" x2="149.32" y2="171.9"/>
          <line class="cls-4" x1="119.55" y1="170.92" x2="135.88" y2="179.17"/>
          <line class="cls-4" x1="135.88" y1="179.17" x2="149.32" y2="171.9"/>
          <line class="cls-4" x1="120.28" y1="174.99" x2="136.25" y2="183.16"/>
          <line class="cls-4" x1="136.25" y1="183.16" x2="149.32" y2="175.9"/>
          <line class="cls-4" x1="149.32" y1="171.9" x2="149.32" y2="175.9"/>
          <line class="cls-4" x1="135.88" y1="179.17" x2="135.88" y2="182.97"/>
          <line class="cls-4" x1="120.27" y1="147.58" x2="120.63" y2="150.85"/>
          <line class="cls-4" x1="120.63" y1="150.85" x2="158.03" y2="170.45"/>
          <line class="cls-4" x1="158.03" y1="166.82" x2="158.17" y2="170.29"/>
          <line class="cls-4" x1="158.12" y1="170.55" x2="159.85" y2="169.52"/>
          <path class="cls-4" d="M228.45,139.9c.02.15-.24.29-.32.44-.06.12-.11.33-.16.46"/>
          <path class="cls-3" d="M386.96,103.91c.66.55,1.25,1.19,1.95,1.71,1.08.8,1.9-.27,3.16-.14-.54-.21-.98-.38-1.4-.78-.34-.32-.44-.84-.72-1.1-.67-.61-1.91.21-2.7.22.17-.06.34-.08-.29.09Z"/>
          <path class="cls-3" d="M393.13,103.17c.9.52,1.6,1.26,2.39,1.84.69.5,2.42.21,3.32.15-.36-.6-1.75-1.44-2.44-1.88-.76-.49-2.58-.85-3.27-.11Z"/>
          <path class="cls-3" d="M399.74,102.58c.17.49,1.83,1.51,2.34,1.64.77.19,1.91.03,2.7-.01.07-.44-1.63-1.51-2.11-1.74-.71-.33-2.36.36-2.94.11Z"/>
          <path class="cls-3" d="M403.98,101.76c1.47.47,2.97,1.35,4.52,1.7.39-.45,1.05-.59,1.37-1.03-.78-.46-1.75-.93-2.6-1.35s-2.14.07-3.29.69Z"/>
          <path class="cls-3" d="M409.11,100.27c.18.23.86.36,1.22.59.5.32.83.72,1.43.88.9.23,1.93.06,2.67-.45-.87-.56-1.92-.88-2.83-1.36-.53-.28-.66-.32-1.15-.26-.38.05-1.02.35-1.34.59Z"/>
          <path class="cls-3" d="M411.41,98.49c.45.36,1.46.38,2.07.65.55.25,1.08.69,1.65.83.75.18,1.98-.33,2.29-1.03-.84.07-1.71-.48-2.48-.76-.82-.29-2.06-.19-2.71-.73-.22.32-.66.74-.82,1.03Z"/>
          <path class="cls-3" d="M408.29,89.94c.96.08,1.9-.7,2.79-.66.78.03,1.14,1.02,1.95,1.03-.85-.06-2.16.26-2.94.51-.31-.45-1.09-.83-1.63-.96.14,0,.22.05-.17.08Z"/>
          <path class="cls-3" d="M411.26,92.84c1.56,0,3.09-.11,4.64-.15.12.25.36.53.48.81-1.17.08-2.32-.07-3.41.47-.39-.46-1.5-.44-1.71-1.12Z"/>
          <path class="cls-3" d="M412.6,96.93c.67-.1,2.04.15,2.86.38.59.17,1.34.16,1.89.35.04-.64.08-1.12.28-1.71-1.65.04-2.84-.95-4.49-.88-.2.58-.55,1.14-.53,1.85Z"/>
          <path class="cls-3" d="M175.42,153.18c-.52-.37-1.11-.69-1.63-1.06s-.54-.53-1.13-.39c-.82.2-3.56,1.19-3.87,2.04.36.09,2.4.93,2,1.28"/>
          <path class="cls-3" d="M169.82,149.3c-1.37.36-2.76,1.25-3.94,2.01-.16-.49-1.08-.5-1.53-.74-.4-.21-.73-.62-1.15-.75.8-.36,2.85-.79,3.05-1.78.86-.05,2.76.51,3.28,1.25-.14.1-.29.15.28,0Z"/>
          <path class="cls-3" d="M158.63,145.57c-.88.71-1.94,1.36-2.76,2.15.62.04,1.28-.07,1.89.05.53.11,1.03.47,1.57.56.92.16,2.56-.9,3.24-1.55-.76-.08-1.43-.36-2.11-.68-.55-.26-1.37-.31-1.84-.53Z"/>
          <path class="cls-3" d="M153.19,140.87c-.5.91-3.75,1.91-3.57,3.04.65.24,1.19.14,1.8.53s1.25.97,1.93,1.27c.76-1.37,2.43-1.57,3.35-2.66-.75-.41-1.55-.4-2.26-.94-.41-.32-.9-1.02-1.24-1.24Z"/>
          <path class="cls-3" d="M146.63,138.49c-.81.64-2.21,1.15-2.9,1.92.54.1,1.01.33,1.48.61.33.2,1,1.04,1.34,1.05.21,0,.98-.84,1.26-1.02.55-.35,1.57-.68,1.94-1.21-1.3.02-1.93-.93-3.12-1.36Z"/>
          <path class="cls-3" d="M142,135.35c-.74.37-3.05,1.19-3.13,2.15.51.05,1.07.23,1.51.51.58.38.47.58,1.02.41.67-.2,1.4-.78,2.05-1.1.43-.21.88-.38,1.28-.63-.74-.43-2.1-1.3-2.73-1.34Z"/>
          <path class="cls-3" d="M135.36,133.04c-.97.67-2.03,1.24-3.06,1.85-.47.27-1.14.44-1.18,1.05,1.11.04,2.04.72,3.03,1.12.27-.6,1.35-.9,1.9-1.24.76-.47,1.62-.8,2.34-1.29-1.4.13-2-.98-3.03-1.49Z"/>
          <path class="cls-3" d="M125.59,132.3c1.06.03,2.35-.86,3.4-1.12.72-.18,1.43-.27,2.1-.58.46.68.32,1.48.96,2.08-1.59.17-2.86,1.01-4.36,1.48-.7.22-.99.14-1.36-.39-.29-.43-.77-1.17-.75-1.46Z"/>
          <path class="cls-3" d="M126.64,127.45c1.48.58,3.37.7,4.97.67-.6.38-.73,1.13-1.24,1.59s-.78.28-1.45.2c-.62-.08-1.27-.03-1.91-.07-.8-.04-.94-.25-1.5-.74.42-.47.91-1.04,1.13-1.64Z"/>
          <path class="cls-3" d="M131.26,123.87c-.47.75-1.56,1.05-1.93,1.78.58.23,1.28.03,1.9.24.55.18.96.45,1.54.54.74.11,1.09.16,1.55-.37.38-.43.59-.96,1.02-1.37-1.46.02-2.66-.13-4.08-.82Z"/>
        </g>
        <g>
          <path class="cls-2" d="M179.4,151.9c.08-.78-.46-1.09-.7-1.62-.17-.39-.05-1.2-.76-1.05-.03.76-.28,1.23-.45,1.93-.15.64.02,1.45-.69,1.84-.25.14-.64-.12-.87.08-.28.24-.01.46-.17.71-.43.69-1.02.69-1.89.71-.28.59-1,.48-1.57.5-.54.03-1.59-.09-1.82.61-.17.53.21.79.76.7.02.13.03.28,0,.4-.72.19-.83.29-1.28.73s-1.06.83-1.29,1.32c-.05.1.37.31.26.49-.18.3-.75.14-.97.37-.49.52,0,.88-.82,1.36-.63.37-2.71,1.32-.88,1.93.8.27,2.83-1.06,3.35-.52.37.39-.64,2.15-.87,2.48-.13.18-.94.93-1.16,1.08-.73.48-1.97.4-1.17,1.68-.65.06-1.12-.05-1.61-.42-.33-.25-.12-.65-.64-.62.44-.89-.36-1.27-1.22-.92-.04,1.11.03.99-1.08,1.28-.79.21-1.44.56-1.65,1.29,0-.03.05.6.04.69-.03.36-.34.61-.26,1,.1.5.41.5.78.8,1.33,1.07.31,2.26.86,3.49.5,1.11.62.8.44,1.94-.1.65-.15,1.16-.3,1.73-.37,1.42.74.74,1.64,1.26.74.42.51.85.67,1.47-.44.74-2.1.74-2.79,1.22-.63.44-.73.59-.78,1.45s-.05.58-.61,1.34-.71,1.58-1.34,2.28c-.5.56-.9.99.21.65.95-.29,1.02-.82,2.01-.35.38.18.73.51,1.1.55.36.52.99.65.72,1.2-.17.35-.86.52-1.22.51-.12.72.13.84.49,1.3.14.17.69.83.88.95.94.62,1.75-.38,2.41-.9s.79-.36,1.58-.49c.66-.11,1.01-.72,1.6-.78,1.34-.14,1.44,1.95,1.86,2.64.36.59.96.7,1.46.57.28-.08-.05-.46.44-.44s.64.39.53.86c.35.12,1.08.03,1.33.23.32.26.17.88.32,1.18.31.61.92.79.86,1.62.78-.15,1.16,1.24,1.17,1.82s-.33.65-.41,1.15c-.08.45.02,1.9.18,2.3-1.18.37-1.33-.81-1.94-.65-.85.22-.05,1.65-.14,2.14-.46,0-.71.44-.94.77-.44.63-.2.76-1.12.87-.7.08-3.05-.6-2.6.79.08.26.43.32.57.55.21.35.24.71.3,1.16.12.83-.09,1.52.84,1.49.82-.03,1.2-.64,2.17-.35.42.12,1,.69,1.49.43.43-.23.33-.96.85-1.28.27-.17.82-.24,1.15-.41.69-.34,1.97-.65,1.03-1.59,1.17-.54,2.5.39,3.26,1.14.6.59.42.36,1.3.39.61.02.77.39,1.31.53.42-.72.7-.98,1.52-1.11,1.29-.2,1.3.22,1.88,1.06.7,1.01,2.82,2.09,2.46,3.63.52.18.76-.21,1.24-.28.31-.04.67.15.95.1.83-.16.5-.79,1.22-1.34.64-.5,1.13-.05,1.71-.47.47-.35.19-.8.43-1.17.17-.26.68-.46.94-.58.17.76-.28,1.42.02,2.17.38.96.89.57,1.79.61,0-1.22,1.22-2.01,2.44-2.07-.13-.82.62-.95,1.24-.78.69.19.66.92,1.69.27.66-.41.69-1.18.94-1.83.46-1.21.86-1.12,1.86-1.48,0-.11.02-.22.02-.32,1.21.14,1.69-1.7,2.71-1.09.56.34.93,1.62,1.88.45.43-.52.14-.87-.1-1.28-.01-.02-.35-.29-.43-.42-.23-.35-.38-1.04-.36-1.47-.28.03-.55-.06-.82-.09-.28-.85,1.22-.66.83-1.71.94-.09.86-.77.87-1.51.02-.99.28-.91.89-1.39-.37-.52-.97-.04-1.32-.35-.57-.5.23-.92.19-1.43-.09-1.11-.63-.75-1.22-.76-.94-.01-1.94.25-2.81.22-.52-.01-1.41-.15-1.56-.63-.12-.39.18-.96.48-1.17-1.31-.04-3.61-1.73-2.34-3.14-.72-.42-1.65-.53-1.3-1.69.21-.72.76-.71,1.38-1.07-.06-.73-.68-.97-.78-1.64-.07-.46.32-1.08-.08-1.47-.21-.21-.54-.06-.73-.18-.4-.26-.38-.34-.63-.79-.32-.58-.46-1.11-.82-1.68-.4-.64-.67-.74-1.2-1.08-.27-.17-.35.02-.61-.32-.29-.38.04-1.07-.27-1.4-.64-.68-1.57-.02-2.25.08-.98.14-1.52-.49-2.39-.57.03-.36.13-.71.33-1-.24-.29-.66-.28-1.03-.18-.25-1.54.76-1.89,2.01-1.97,1.43-.09,2.27-.88,3.59.02.94-.64,2.68-3.14,4.04-2.26.11-.1.34-.4.31-.67-.08-.73-.74-.35-1.24-.55.47-1.17.87-1.65-.16-2.36-.38-.26-.76-.35-1.06-.74-.35-.45-.15-.45-.32-.82-.17-.34-.52-.68-.67-1.01-.21-.47.02-.48-.04-.91-.14-.86-.68-1.17-1.11-2.01-.22-.42-.42-.66-.78-1.08-.3-.35-.38-.93-.65-1.22-1.2-1.3-.96.22-1.07.92-.04.22-.29.28-.33.45-.03.13.1.46.06.54-.19.32-.32.71-.82.56s-1.17-1.12-.89-1.49c-.25-.23-.64-.2-.9-.42-.66-.55-.21-.22-.3-.9-.08-.61.1-.79-.4-1.29-.78.55-1.59.18-1.1-.78-1-.19-.83-.4-1.12-1.15-.17-.44-.06-.72-.7-.62-.14-.85-.74-.57-1.31-.83-.21-.1-.25-.26-.47-.4-.17-.1-.25-.35-.44-.45-.15-.08-.4.05-.52-.02-.84-.5-.21-.21-.29-1.14-.04-.54-.35-1.02-.8-1.12-.7-.15-.96.53-1.58.65-.66.14-1.12-.46-1.77-.29-.55.14-.5.49-1.14.51-.51.02-.82-.24-1.29-.27.12.05.23.11.16-.07Z"/>
          <path class="cls-2" d="M204.05,137.01c.29.44.56,1.21.6,1.72-.17-.04-.41.06-.58.02.13.61.23,1.11.25,1.64.02.58-.2.27.17.82.2.29.63.43.82.71.3.45.07.73.23,1.25.24.75,1.25,1.16,1.39,1.97,1.3.08,2.73-1.29,2.93.67.08.75-.62,1.55-.3,2.12.26.47.9.74,1.21,1.2.49.73.28.99.49,1.85.07.26.32.39.39.63.06.22-.05.53.03.72.15.37.15.68.61.62"/>
          <path class="cls-2" d="M177.49,150.17c0-.45.13-1.11-.19-1.47-.29-.33-.72-.32-1.07-.61-.82-.66-.64-1.75-1.09-2.6.17-.18.4-.06.53-.18-.13.12.55-.21.45-.17.16-.07.19-.35.41-.44.21-.08.48.14.61.11.85-.14.66-.2.94-1.15.14-.5.41-1.02.38-1.54.33-.17.62-.16.69.23.56.15.77-.51,1.23-.29.36.18.34.83.34,1.15,1.18-.07.94.48,1.61,1.12.81.77,1.24.19,1.39-.75.03-.17.2-.41.24-.62.02-.1-.28-.31-.25-.52.05-.39.44-.44.45-.97,0-.68-.71-.82-.88-1.28-.24-.64.25-.71.43-1.29-.39-.02-.8,0-1.19-.03-.1-.58.5-.88.27-1.48-.11-.3-.45,0-.57-.23-.15-.28,0-.62-.06-.91-.31-1.56-1.01-.03-1.98.11-.09-.36.04-.76.24-1.04-.54-.17-.55-.66-.43-1.14.2-.79.48-.8.35-1.73-.1-.7-.3-1.44-.16-2.17.04-.2.14-.74.34-.83.64-.3.49.38.77.62.48.41.77.22,1.25.41.25.1.96.87,1.25.83,1.11-.15.24-1.38.43-2,.26-.83,1.24-.62,1.99-.93-.04-.63.42-.87.79-1.29.48-.54.57-.73.6-1.6.03-.64-.34-.47.27-1.01.44-.39,1.12-.46,1.64-.67,0,.14.15.38.15.51,1.07.06.92-.88,1.5-1.13s1.17.46.95,1.05c-.08.22-.55.21-.69.49-.24.48-.02.61.24.96.3.4.97.34.53.95.78.35,1.01.15,1.5.84.26.38,0,.86.65.81-.33-.48-1.25-.36-1.8-.32-.07.32.12.91.25,1.18.3.69.21.62,1.19.63-.04.97.83,1.33,1.58,1.11.71-.2.82-.63,1.05-1.11.26-.53.21-1.22.86-1.46.39.32.58.05.87-.11.58-.33.92-.79,1.73-.97-.2-.06-.47-.32-.61-.4,1.5-.39.8,1.71,1.39,2.3-1.03.3.08,1.11,0,1.59-.1.57-1.06.58-.68,1.3.47.88,2.22.55,2.4,1.9.12.88-.76,1.45.19,2.17.53.39.87.24,1.28.86"/>
          <path class="cls-2" d="M227.79,140.21c-.74-.5-1.13.89-1.65,1.26-.85.61-.9.82-1.14,1.93-.85.19-2.31.26-2.34,1.39-.91.21-1.94.03-2.76.43-.55.27-.31.13-.61.63-.24.4-.55,1.05-.62,1.55-.75-.1-1.31,1.27-1.81,1.65-.33.25-1.14.55-1.39.84s-.24.93-.38,1.36c-.17.5-.39,1-.73,1.35-.55.57-1.13.46-1.69,1-.6.58-1.2,2.94-2.28,2.75-.38.88-.48,1.75-.18,2.76.13.42.51.42.42,1.03-.07.47-.15.8-.77.71.08.59.99.98,1.48,1.29,1.01.63.91,1.19,1.39,2.19s1.5,1.08,1.58,2.48c.03.46-.23.91-.04,1.44.23.66.83,1.03.31,1.7.09-.12-.61.21-.65.25-.13.1-.68.8-.78.96-.54.83.32,1.16-.08,1.93-.07.13-.56.32-.7.51-.23.33-.17.76-.38,1.02-.51.63-1.44.52-1.1,1.54-.48-.06-.77.31-1.16.33-.64.02-.34-.34-.73-.58-1-.61-.83.65-1.35,1.09-.61.52-1.38,0-1.78.47-.25.28-.09.71-.52,1.04-.48.37-1.13.32-.95,1.11-.55.03-.84-.01-1.3.22-.53.27-.87.61-1.47.85.41.29,1.3.08,1.8.07.46-.01.78.06,1.22-.08.06.46-.47,1.05-.51,1.63-.02.23.23.39.19.67-.05.3-.53.53-.53.85.01.56.45.31.78.55.48.36.51,1.13,1.31.96.37,2.65,2.77-1.08,4.53-.18.13.07,1.02,1.12,1.08,1.35.2.68-.37.86-.78,1.34"/>
          <path class="cls-2" d="M209.96,189.04c.13.35-.19.93-.09,1.39.06.25.54.68.53.86-.01.13-.87,1.17-.96,1.3"/>
          <path class="cls-2" d="M211.08,203.93c-.04-.06-.13-.14-.16-.23.56.66.31,1.35.5,2.12-.61.15-2.15-.08-1.54,1.05,1.01-.11,1.67.8,1.8,1.64-1.39-.17-1.21,2.97-.55,3.57-1.52-.34-1.27.49-1.37,1.55-.07.72-.99,2.12-.53,2.76s1.7.39,2.3,1.11c.18.22.21.74.47.89.64.36.59-.52,1.22-.51.28,1.08,1.87.63,1.91,2.14-.4.27-.28,1.26-.17,1.73-.56-.05-.92.32-.75.86.39.07,1,.48,1.33.71.89.61,1.92,1.17,2.82,1.82.24.17.27.45.58.54.53.15.2,0,.74-.26.45-.23,1-.72,1.36-.01.88.15.58,2.27,1.99,2.08.99-.13.87-1.23,1.82-.31.26.25.42.85.86.99.66.2,1.48-.6,2.16-.68,1.06-.13,3.09.01,1.67-1.89.81.07.75,1.03.84,1.64.11.73.44,1.27.52,1.99.09.85-.46,3.33.85,3.24.04.8-.19,1.08.54,1.36.47.18,1.72.21,2.23.16.1-.58-.52-1.06-.33-1.59.2-.58.91-.47,1.53-.55.16.67.79.4.91-.18.39.02,1.16-.04,1.55-.13.92-.22.7-.59,1.02-1.41-.34-.24-.71-.43-1.1-.55-.02-.34-.03-.48-.18-.74.45-.69.92.02,1.49-.64.51-.58.25-1.29,1.48-.98.34.08.4.47.89.47.45,0,.82-.3,1.11-.61s.76-.87.13-.96c.13-.09.12-.2.33-.26.17-1.87-1.66-2.54-1.48-4.2.1-.88,0-.71-.58-1.4-.49-.59-.44-.78-1.3-.87.11-1.19.24-2.37.06-3.55-.05-.35-.09-.84-.14-1.16-.08-.53-.36-.77-.62-1.28-.11-.21-.34-.42-.27-.69.08-.32.59-.46.63-.69.1-.66-.43-.93-.1-1.74.14-.34.38-.63.54-.96.2-.41.17-.77.32-1.15.22-.54.39-.85,1.03-.95-.06-1.16,1.9-.34,2.42-.52.48-.16.46-.53.79-.68.78-.34.61.16,1.31.26.45.07,2.18-.54,2.17-1.1,0-.39-.89-.52-1.14-.98-.33-.61-.03-1.08-.94-1.24.22-.56.08-1.26.26-1.88.13-.43.06-.92.57-1.16,1.05-.5.97.86.99,1.62.52.12,1.41-.37,1.93-.53.69-.21,1.32-.45,1.93-.39,1.55.16,1.17.45,1.77-.83.48-1.04,1.29-1.58,2.16-2.26-.78-.64-1.29-.9-1.32-2.07-.02-.89.35-1.73.36-2.61s-.28-1.9-1.35-1.73c-.14-.48-.28-.73-.56-1.1s-.63-.17-.59-.8c.03-.51.73-.74.6-1.34-.09-.38-.58-.69-.95-.75-.18-.81,1.07-1.82-.48-2.23-.81-.22-.88.45-1.43-.6-.27-.51.06-.72-.54-1.23-.24-.21-.64-.24-.93-.42.34-.11,1.2-1.02,1.56-1.13s.28.3.73-.04c.67-.5.76-1.52.66-2.19.44-.15.51-1.26.32-1.66-.32-.68-1.03-.72-1.3-1.45-.08-.23-.26-.51-.24-.82.03-.58.51-.7.61-1.15.19-.94-.55-.78-1.2-.57,0-.76-1.07-.92-1.57-1.37-.77-.7-1.27-1.09-.98-2.17.08-.29.49-.15.36-.58-.08-.25-1.02-.43-1.2-.74-.15-.27.07-.78-.19-.99s-.61.11-.92.14c-.14-.5.16-.61.31-.96.2-.45.22-.87.37-1.32.21-.62.76-1.29,1.45-1.36.17-2.04-.95-1.85-2.33-1.55-.12-.3-.09-.66-.09-1-.11.01-.29-.06-.41-.04-.15-1.47,1.25-1.31,2.07-1.59.59-.21,1.2-.53,1.82-.79.48-.2.51-.42,1.01-.12.43.26.31,1,1.08.76.55-.17.54-1.18.87-1.55-.49-.58-.16-1.53-.19-2.24-.07-1.79-.66-.33-1.63-.45-.38-.83.24-1.62-.47-2.49-.49-.61-.8-.49-1.53-.54-.18-.99.73-1.22.68-2.24-.03-.58.32-1.41.16-1.97-.14-.5-1.1-1.37-1.62-1.31-.07.39-.5.58-.88.43-.55-.21-.12-.53-.56-.78.13.08-.78.09-.77.09-.25.03-.59-.48-.67.16-.67.12-1.82-.37-2.13-.95.04.26-.04.51.04.78-.88.05-1.23.15-1.63-.54-.07-.12.17-.29.09-.45-.17-.33-.38-.23-.61-.43-.33-.29-.52-.64-.99-.63-.09-.2-.13-.4-.13-.62"/>
          <path class="cls-2" d="M237.14,144.89c-.21.02-.39.15-.59.19.15.84-.55.95-1.21.95-.24.65-1.18.27-1.15-.36.02-.36.46-.64.51-1.06.02-.2-.21-.62-.17-.92-.31,0-.63-.12-.85-.36-.33-.36-.05-.64-.26-.96-.29-.44-.87-.52-1.4-.62-.89-.17-2.97-.63-3.45-1.11"/>
          <path class="cls-2" d="M209.84,188.38h.53"/>
          <path class="cls-2" d="M101.48,153.75c.19-1.02,1.49-.62,2.24-.79.91-.21,1.73-1.03,2.78-.67s.28,1.06,1.78.43c.8-.34.92-.59,1-1.24.07-.55-.14-1.23-.4-1.7-.24-.44-.39-.54-.55-.76-.2-.3-.46-.14-.64-.63-.15-.41.68-1.2-.15-1.49-.49-.17-.56.67-.93.68-.39.02-.56-.24-.78-.28-.7-.12-.4-.64-1.33-.37-.51.15-.85.86-1.18,1.17-.62.57-1.48,1.26-2.49,1.16-.26-.89,1.78-2.25,2.28-3.07.67-1.09.32-3.02,2.05-3.73-1.5.22-1.43-.96-1.73-2.11-.9.04-1.75-.5-2.33.47-.34-.82-.94-2.37-.29-3.09-.91-.37-2.2-.86-2.89-.43-1.3.79-.7,1.61-.27,2.51-1.4.23-.6,1.84-2.08,2.25-.09.46-.02.9.23,1.27-.98.22-1.14-.82-2.08-.65.06-.26-.09-.62-.03-.89-.3.07-.63-.07-.92.07.03-1.59,2.9-1.53,1-3.09-.63-.52-1.18.01-1.04-.95.07-.51.83-.65.97-1.05.08-.23-.33-.71-.27-.79.87-1.25,2.01.03,2.11-1.62.04-.61-.44-1.05-.32-1.54.14-.59,1.15-1.42,1.75-1.46-.06-1.04,1.03-2.71,1.87-3.23.91-.57,3.3.36,3.4-1.23-.59-.07-1.17.16-1.69.38-.21-.85-1.81-.55-1.06-1.94-.64-.08-1.95.42-2.35-.15-.7-1,.77-.83,1.17-1.27.66-.73.56-1.94,1.2-2.81-1.94-.21-2.77,2.08-4.77,1.28.38-.26.66-.73.99-.92.23-.13.7-.01.89-.21.95-.97.04-1.01-1.04-1.23.68-.02,1.44.2,1.97-.01.58-.23.21-1.1,1.15-.79-1.17-.8-2.41-.91-2.07-2.77.18.38.24-1.04.1-.63-.2.15-.56.65-.82.76-.62.27-.48-.05-.96-.04.05,0-1.03-.13-.98-.12-.2-.05-.67.15-1.04-.19-.16.71-1.28,1.04-.54,1.83-.66.71-1.04-.35-1.84-.24-.32,1.02,1.28,1.52,1.41,2.73-1.56-.18.26,1.61-1.17,1.98-.43.11-.34-.66-.85-.65-.41,0-.54.51-1.09.51-.47-.93-.56-1.72-.44-2.72-.72-.38-.02-.94-.37-1.47-.67-1-.58.15-1.18.19-1.29.08-1.66-1.41-3.4-.82-.15.81.79,1.05.5,1.88-.21.61-1.8,1.21-1.73.08-1.3.15-.85-.38-1.42-.88-.49-.42-1.45-.71-1.68-1.38-.25.64.16,2.39-.33,2.9-.98,1.02-1.31-1.93-2.76-.66.84.79,1.51,1.66,2.53,2.2-1.02.47-2.28-1.1-2.27.41-.54.07-1.04-.14-1.54-.23-.08.47-.03.96.11,1.4-.54.21-1.1.36-1.67.43.17.1,1.4,1.66,1.41,1.87.08,1.4-1.04.46-1.46-.31-.32.47-1.07.47-1.18,1.08-.22,1.21,1.78,1.04,1.56,2.61-.48-.1-.69.03-1.02-.48-.15.98-1.42.42-2.01.89.3.26.44.42.81.51-1.04-1.18-2.81.35-3.7,1.03,1.87-.42.72,1.6,1.97,1.77.23.87-.78,1.63-1.55,1.77-.02-.06-.02-.11,0-.17-.47.98-1.12.7-1.98.35-1.02-.42-.88-.04-.96-1.43-.77-.12-1.48.17-2.2.37.07-.3-.09-.7-.02-1-.3-.1-.85-.11-1.17-.03,0,.53-.33.65-.44,1.03-.18.63.15,1.1.09,1.53-.12.94-1.08,1.15-1.26,2.15-1.77-.16-1.22.96-1.68,1.86-.3.59-1.93,1.36-1.19,1.82,1.05.64,1.97-1.01,1.09.66.03-.06-.68.67-.72.71-.36.34-1.03.93-1.27,1.36-.14.25.11.67,0,.92-.13.27-.52.49-.62.8-.4,1.25.3,2.04.22,3.14-.11,1.45-.5.74-1.39,1.2-.72.37-1.52,1.19-2.28,1.63-.01-.08-.03-.15-.04-.23-1.5-.18-.63,1.16-.66,1.78-.02.38-.54.92-.34,1.24.29.46,1.31.27,1.68.1.21.83.81.61,1.43,1.01.39.25,1.03.59,1.09,1.1.03.29-.43.47-.42.51,0,0-.27.31-.25.49.02.25.7.57.8.99.45,1.98-1,.63-1.72.38-.29.83.28,2.56-1.21,1.85-.45-.21-.15-1.02-.81-1.03-.41,0-.82.6-.92.9-.69-.44-.88-1.6-1.78-1.59-1.22,0-.88,1.03-2.01.56-.56-.24-1.47-1.9-1.97-.57.42.19.64.58.62,1.06-1.81.35-.05,2.57-1.75,3.31-.33.14-.9-.17-1.18,0s-.35.71-.61.96c-.66.65-.62.84-1.81.73-.11-.18-.03-.11-.16-.27-.64.61-1.66.71-2.49.41-.62-.22-1.13-1.15-1.56-1.34-1.38-.6-2.27.33-3.57-.43-.72-.42-2.01-1.72-2,.35.82.16.61.59.8,1.24.08.29-.2.64-.04,1.03.12.29.68.32.88.6.35.48.86,1.21,1.15,1.72.27.48.15,1.21.39,1.65.3.54.99.6,1.58,1.12.91.81,1.18,2.36,2.01,3.17.36.35.95.24,1.28.66.4.51.29,1.4.39,2.04-1.9.05-2.9,2.49-5.08,2.02-1.34-.29-.84-1.08-1.96.25-.29.34-.84,1.09-.83,1.48,1.23.39,3.21.12,2.72,2.24-.11,0-.2-.05-.26-.15.53-.25,1.44-.09,1.74.41-1.38.25-2.91,1.07-4.11.91,1.81.39,2.28-.53,3.78.97.2.2.9,1.11,1.04,1.2,1.13.65.73-.28,1.57-.62,1.04-.43,1.84.32,2.91-.47.42.3.84.61,1.28.89.33-.42.77-.73,1.2-1.02.89,1.29,1.87-.25,2.85.33.5.3.05,1.09.55,1.38.42.24,1.45-.12,1.95-.11.06.04,0,.29.03.36.09,0,.39-.01.47.02.42,1.51-1.7,1.14-2.47.91-.56,1.02.54,1.18,1.29,1.2.41,1.56.42,1-.84,2.31-1.11,1.15-.81,1.77-2.81,1.11-.89,1.78,2.44,2.89,1.03,4.61.44.09.92-.12,1.34-.01-.7-.38-.8,2.02-1.82,1.99-.26,2.12,4.61.4,3.65,3.25-.56.16-.87.75-1.23,1.08-.3.28-.48-.22-.76.25-.19.31-.12.97-.07,1.31,1.13-.78,2.86,1.62,4.49,1.05.94-.33,1.51-1.31,2.47-1.56,1.31-.34,2.44-.34,3.8-.83-.52-1,1.35-2.23,2.19-2.59.79-.34,1.24-.13,1.78-.79.33-.41.18-1.16.53-1.67-.02.98-.14,1.39-.41,2.24-.18.58-.45,1-.37,1.65,1.05.87,1.3,1.39,2.86.42.16,1.36.08,1.5,1.44,1.19.94-.21.68-.9,1.32-.04.13.18.2.91.15,1.15-.17.86-.81.57-1.06,1.58-.19.75.61,1.75.55,2.56.16,0,.33.03.49.03.13.93-.31,1.51.24,2.2.05.06.83.11.96.16.24.1.47.51.79.65,1.08.46,3.42,0,3.18-1.7.95,0,1.63-.13,2.46-.56.05-.17.11-.65.1-.78-.86.1-1.8-4.26-.02-4.21,1.03.03.67,1.26,1.09,1.95.35.57,1.11.74.97,1.59.88.24,2.66-1.08,1.31-1.31.27-1.39,1.23-1.08.38-2.62-.44-.8-1.17-1.45-1.44-2.36-.82-2.67,2.04-.54,2.26.65.55.3,1.19.37,1.57-.22.18.96,1.69,1.98,2.47,2.37.98-.88,1.97-1.02,3.05-1.71.41-.26.5-.78,1.04-.93.82-.23.71.28,1.22.35.83.12,1.99.12,2.74-.23.81-.39,2.02-2.4.42-2.13-.08-1.27.39-2.45,1.94-2.05.1,1.71,2.06.96,2.95,2.05.4.5.24.94.81,1.2.53.24,1.45-.06,1.68-.51.2-.03.42-.04.64-.02-.71-.52-1.67-2.59-2.31-3.02-.51-.34-1.28-.22-1.65-.66-.16-.19-.14-1.24-.28-1.57-1.24-.03-2.72-.41-3.8-.98-1.37-.72-.52-2.71-2.1-2.88.98-1.24,1.19-2.28,1-3.91-1.46.27-1.02-1.33-.42-1.8,1.12-.87,1.27-.4,1.58-1.92,1.05.29,1.35-1.11,1.88-1.87.36-.52,1.47-2.15,1.76-.38.92.03,2.41.04,2.72,1.2.19.71-.53.99-.47,1.55.08.78.51.42.74.95.62,1.37.81,2.81.55,4.32,1.6.38,2.29,1.56,3.75,2.33.41.21,1.68.98,1.78,1.38.15.61-.69,1.19-.53,1.96,1.23-.19.58,1.28,1.04,1.87.41.53,1.54.51,2.11.78.26.12.18.73.52.8.49.11.8-.5,1.09-.52.31-.02.7.4.75.38.48-.13.82-.45,1.32-.67-.63-.35,2.58-1.64,2.83-1.71,1.05-.28,1.53-.77,1.41-1.96.42-.14.73-.41,1.05-.68-.92-.82.13-1.94.78-.95-.03-.97-.03-.97.28-1.61.24-.5.64-1,.91-1.6.33-.72,1.09-2.61,1.94-2.58.21-1.17-.73-1.46-.91-2.34-.12-.61.76-2.84,1.42-1.34-1.68-.04-.59-4.71-.63-5.89-.21.05-.55-.09-.77-.04-.02-.73.01-1.48-.03-2.2-.18,0-.56-.11-.63-.11,1.19-.43,1.54-.56,1.84-1.78.24-.99-.17-1.07-.39-1.75-.1-.32.13-.77-.02-1.08-.22-.47-.59-.39-.77-.94-.38-1.12.22-2.71.08-3.81-.47-.04-1.31.53-1.66.74-.18.11-.49-.2-.78.05-.16.15.11.62-.02.77-.31.36-1.19,1.41-1.95.8-.58-.46.14-1.46-.22-1.79-.56-.51-1.62.28-2.15.46-.39.14-.84.06-1.21.27-.43.24-.83,1.09-1.18,1.24-1.96.81-1.18-1.98-2.72-1.79-.05-.9.55-1.53.85-2.35.18-.5.22-.69.29-1.17.05-.37-.16-.83.04-1.35.28-.75.63-.48.63-1.21,0-.11-.62-1.32-.7-1.6-.24-.8-.35-.92-.73-1.43-.43-.57-.48-1.13-1.46-1-.69,1.76-1.94-2.09-2.1-2.52-1.52.04-.92,1.98-.97,3.01-.54-.03-1.43-.12-1.82.28-.5.51.02,1.08-.26,1.55-.67,1.13-1.95.49-3.02.4-.02-.7.33-1.79-.55-1.83-.16-.53-.15-1.11-.12-1.68,1.31-.12,1.8-.97,2.89-1.2.09.33-.14.24-.26.39"/>
          <path class="cls-2" d="M42.39,119.32c.03.62,1.17,2.48-.36,1.87-.05.32.14.74.06.99-.12.38-.63.72-.84,1.04-.68-.73-.81.56-1.02.75-.24.22-.34.4-.75.38-.54-.03-.41-.42-.63-.52-.83-.38-2.23.23-3.34-.12.03.17.17.66.09.82-.24.42-.73.41-.95.77-.44.72.22.83.27,1.46-1.46-.29-.89,2.61-.93,3.45-.52-.32-.77-1.43-1.36-1.4-.32.02-.53.47-.76.66-.32.28-.62.29-.89.61-.35.42-.25.77-.42,1.2-.16.4-.32.4-.5.74-.33.6-.43,1.25-.95,1.74s-1.16.48-1.71.84c-.95-1.07-1.14.79-1.63.92s-.89-.58-1.48-.64c-.24-.03-1.15.24-1.37.36-.15-.36-.25-.72-.29-1.11-.33.05-.65.16-.99.17.04-1.49-2.09-.35-2.62-1.2-.11-.17.1-.53,0-.7-.23-.41-.41-.26-.73-.52-.07-.06-.38-.15-.49-.23-.15-.12-.07-.52-.39-.7-.67-.36-.9.52-1.66.47s-.58-.61-.92-.84c-.82-.56-2.93-.12-2.89-1.48.59.04,1-.77.93-1.31-.13-.98-1.07-.59-1.23-1.76s.46-.44,1.03-1.04c.76-.79-.37-1.44.8-1.96.13-.06.36.26.59.19.54-.19.87-.94,1.3-1.26.68-.51,1.73-.97,2.52-1.14.96-.21,2.19-.23,2.5-1.4.17-.66-.3-1.89.84-1.86.17,1.22,1.22,3.32,2.61,3.54-.12.16-.2.46-.44.63,1.22.18,2.24-.97,3.54-.9.61.03.61.2,1.21-.03.16-.06.72-.48.92-.59,1.16-.64,1.12-.96,1.49-2.09.11-.33.35-.43.39-.84.03-.33-.25-.62-.21-.93.08-.63.46-1.01,1.13-.94,0,.55-.02,1.14.03,1.67.79-.18.75.67,1.6.47s.78-1.19,1.91-1.03c.53.08.63.58,1.41.47.66-.1,1.16-.73,1.83-.71.14.86-.58,1.4-.45,2.19.76.01.55.31.73.76.23.57.27.81.55,1.3.19.34,1.25,1.83,1.04.4.76-.34,1.22-1.38,1.98-1.33-.32.03-.64.07-.13-.27Z"/>
          <path class="cls-2" d="M12.13,128.35c-1.03-.19-1.92-1.64-2.8-.75s0,1.59,1.01,1.6c-.01.1.01.23,0,.34-.81-.12-.57.87-.98,1.21-.43-.84-1.11-.07-1.71-.55-.52-.42-.17-1.16-.19-1.75-1.4-.29-.2-.72-.64-1.36-.22-.31-1.29-.13-1.66-.23.02.29-.05.62-.03.91-1.05-.13-1,.55-1.54.95-.68.51-1.31.33-2.18.38.15.72-.41.37-.73.77-.39.48-.54,1.62.35,1.55.23,1.22-1.34,1.93.56,2.06-.08.63.09.75.46,1.02.65.47.61.04,1.33-.12.23-.05.42.31.67.22.34-.13.4-.58.72-.7.48-.19.95-.05,1.11.47-.93.4-.27.74-.08,1.29.07.21-.12.59-.01.77.12.2.36.14.46.27.25.33.61.55.84,1.02-1.23-.09-.63.71.36.68.66,1.87-1.32.69-1.3,1.73-.96.23-1.55-.45-1.96.96-.22.75-.4.34.32.74.18.1.42-.18.62-.05.28.18.19.6.28.84.14.36.07.48.35.83.24.3.56.37.74.65.54.82-.09,1.28.79,1.77.8.45,1.18-.27,1.75-.02.43.19.28.73.46,1.01.16.25.37.35.58.57.71.77,1.22.97,2.13.57,1.09-.48.62-.6.55-1.44-.06-.7.52-1.48,1.27-.74.5.49-.24,1.1.99.87.26-.05.29-.38.53-.46.3-.1.81-.06,1.13-.08.26,1.42,2.45-.19,2.06,1.84.65.06,3.23-.56,3.07.57-.11.72-1.17.69-1.54,1.17-.43.57-.14,1.29-.71,1.84-.46.43-1.11.18-1.53.55s-.29.95-.36,1.42c-.13.97-.97,1.25-.88,2.27.16-.02.39.06.55.02-.07.57-1.45,2.71.38,2.05.14.86,1.53,1.13,2.11,1.77.26.29.27,1.24,1.15.81.46-.23.29-1.03.69-1.33.28-.21.49-.04.77-.14.63-.22,1.57-.72,2.22-.47.3.12.3.46.59.64.42.25.8.12,1.22.33.31.16.55.44.75.71.35.45.24.52.82.91s.97,1.2,1.76.92c.63-.22,1.14-1.23.87-1.81.3-.1.61-.2.92-.28-.77-.52-2.37-2.03-1.94-2.87.31-.61,1.09-.36,1.49-.73.55-.51.24-1.13.48-1.74-.53-.42-1.34-.24-1.98-.36-1.23-.24-1.08-.98-1.69-2.01-.18-.3-.98-1.09-.44-1.61.36-.35.9.21,1.28-.31.56.34.51,1.27.94,1.56.13.09,1.47.1,1.62,0,.54-.33.27-.82.55-1.3.35-.58.26-.22.74-.52.51-.33,1-.44.97-1.2-.68-.43-2.55-.14-2.4-1.03-.62.3-1.12.58-1.87.47-.59-.08-.94-.45-1.49-.58-.76-.18-1.82.51-2.3-.08-.12-.15-.09-.92-.15-1.12-.12-.44-.4-1.24-.68-1.58-.45-.54-1.85-1.34-1.33-2.28s1.17-.03.8-1.35c-.15-.55-.45-1.02-.7-1.5-.11-.21-.04-.54-.21-.71-.15-.16-.49.01-.65-.16-.81-.89-.76-2.14-1.47-2.96-.4-.47-1.21-.73-1.43-1.08-.14.04-.38.02-.54.06.01-.45-.19-.86-.48-1.2.3-.07.45-.28.65-.45"/>
          <path class="cls-2" d="M39.41,124.53c-.23,1.36-.62,2.8-1.37,4-.98,1.56-2.52,2.68-3.56,4.19-1.96,2.85-3.88,5.68-4.96,8.94-.45,1.35-1.09,2.64-1.09,3.91"/>
          <path class="cls-2" d="M23.58,136.82c.54.34.67,2.49.93,3.17.51,1.35,1.09,2.77,1.91,3.96s1.46,2.41,1.64,3.86"/>
          <path class="cls-2" d="M28.7,146.13c.29.18.38,1.4.37,1.86"/>
          <path class="cls-2" d="M29.35,151.35c.4.5.19,1.74.19,2.42"/>
          <path class="cls-2" d="M28.42,150.7c0,.75-.07,1.9.19,2.51"/>
          <path class="cls-2" d="M22.56,135.43s-.17-.14-.1-.1c.24.48.59.92.94,1.31"/>
          <path class="cls-2" d="M36.8,124.35c.57,1.25.37,3.74.37,5.21"/>
          <path class="cls-2" d="M32.15,129.47c-.15,1.45-.96,2.9-1.03,4.41-.05,1.13.19,2.16.19,3.31"/>
          <path class="cls-2" d="M25.54,135.52c.88.43,1.34,3.56,1.49,4.56.22,1.45,1.4,3.1,1.4,4.65.1-1.59-.43-3-.28-4.66.14-1.56,1.05-4.09.47-5.49"/>
          <path class="cls-2" d="M145.91,86.32c-.36-.48-.64-1.41-.5-1.91-.61-.21-2.3-.61-2.68-1.01-.25-.26.04-.67-.2-.93-.27-.28-.88-.28-1.17-.59s.06-.58-.48-.78c-.38-.13-.69.34-1.07.2-.52-.2-.63-1.1-1.06-1.55-.58-.6-.94-.62-1.93-.58-1.12.05-2.3,1.45-2.16-.19.09-1.02.58-1.8.05-2.74-.38-.67-1.45-.91-1.77-1.62s-.05-1.56-.94-1.96c-.84-.37-.19.15-.89.22-.44.04-.84-.18-1.25-.29-.17.42-.24.89-.22,1.34-.12.05-.53.11-.64.1-.08-.64-.62-2.22-1.3-2.38-.64-.15-.83.3-1.43.46s-1.54-.33-1.37.66c-.55,0-1.11.02-1.63.23.1,1.17-.33,1.15-1.36,1.5.25-1.02-2.48-.94-1.84.39-.46-.14-.68-.32-1.24-.35s-1.31.57-1.48-.3c-1.01-.04-.85.87-1.14,1.45s-.81.52-1.18,1.05c-.85,1.22.86,1.92-.36,2.86-.42.32-.91.27-1.34.71s-.35.95-.5,1.42c-.18.57-.58,1.13-.59,1.75,0,1.05.51.75-.23,1.4-.14.12-.49-.06-.68.1-.28.23-.48.89-.35,1.26.18.52,1.1.42.49,1.14.69.03.98.51,1.54.6.59.09,1.28-.11,1.9-.09.11.53-.19,1.07-.06,1.61.14.64.54.74.39,1.39-.1.43-.51.51-.78.67-.2.12-.57.02-.78.16-.49.35-.16.4-.39.8-.14.25-.22.45-.39.69-.1.14-.39.17-.51.38-.41.71.13,1.09.25,1.75s-.08,2.55-.69,2.81c-.04.34-.51.96-.42,1.27.19.65,1.01.66,1.09,1.55.11,1.22-.5.69-1.14,1.4s.47,1.18,1.03,1.71c.42.4.85.91,1.13,1.41.15.26.44.64.43.95,0,.28-.33.47-.33.64,0,.47.4.83.38,1.26-.03.62-.83.58-.72,1.3,1.28.06,2.86-.27,3.08,1.45.09.67-.32,1.21-.29,1.93-.9-.23-.79.61-1.54.81,0,.09,0,.17-.02.25-.44,0-.84-.27-1.25-.4-.26.36-.39.91-.18,1.28-.51-.23-1.07-.87-1.98-.77-.46.05-.84.3-1.31.29.04,1.08.09,1.02-.84,1.65-.49.33-1.12.44-.9,1.3,1.02,0,.9.58,1.25,1.26.06.11-.06.28,0,.39.12.21.52.2.63.41.19.34.44.31.25.77-.45,1.08-2.46.49-.89,2,.37.36.66.36.95.85.14.24.18.75.32,1.04s.39.27.54.56c.23.44-.17,1.03.6,1.1.4.03.56-.55,1.02-.51s.74.62,1.06.91c.45.41.93.68,1.28,1.17.13.17.17.8.49.84.76.1.61-1.89,1.17-2.33.44-.34.98-.3,1.47-.65.57-.41.95-.87,1.57-1.18,1.32-.68,3.53-.87,3.23-2.96-.38-.07-1.06-.41-.76-.9.22-.34.96-.11,1.25-.21.42-.15.44-.32.79-.53.54-.32.75-.38,1.41-.63.34-.13,1.05-.61,1.16-.93.19-.51-.4-1.07-.16-1.57.22-.45,1.1-.84,1.36-.32.49-.74,1.03-.63,1.82-.68,1.05-.06,1.11-.08,1.75-.87.69-.85,1.2-2.7,2.59-2.34.44-.74,1.07-1.09,1.53-1.72-.1-.01-.18.02-.26.09"/>
          <path class="cls-2" d="M164.1,75.58c-.58-.05-1.2.32-1.74.19s-.45-.5-.79-.66c-.75-.35-.9.24-1.14-.7-.11-.44.14-1.01.1-1.5-.12-1.41-1-1.43-2.13-1.69-.58-.14-2.68-.48-2.82-1.05-1.58.09-1.6-1.11-2.71-1.74-.43-.24-.9.03-1.27-.49-.25-.36-.05-.87-.38-1.25-.41-.07-.77.11-1.1,0-.43-.15-.95-.59-1.3-.83-.57-.39-.26-.58-.89-.24-.43.23-.52.73-1.18.87s-.86-.05-1.38.39c-.4.34-.46.84-.99.97-.31.07-.92-.13-1.06-.4-.13-.24.36-.53.2-.77-.22-.33-.37-.03-.66-.19-.31-.17-.45-.03-.75-.38-.23-.27-.09-.45-.24-.69-.35-.55-.18-.62-1.05-.59-.05-.81.08-1.57-1.06-1.32-.02.87-.56,1.19-1.22,1.39-.36.11-1.62.35-1.99.19-.23-.1-.19-.61-.47-.73-.7-.32-.93.28-1.27.49-.59.37-1.29.95-2.02.94-.53,0-1.08-.56-1.67-.38-1.06.34-.94,1.49-2.22,1.12-.65-.18-.9-.78-1.5-.14-.32.34-.13.49-.24.87-.16.53-.09.6-.37,1.07-.15.26-.43.42-.57.77-.09.22-.08.65-.14.77-.19.39-.93.93-.85,1.35"/>
          <path class="cls-2" d="M111.77,108.76c-.67-.88-1.84-.43-2.24-1.82s.93-1.56-.94-1.87c-.05-1.12.07-2.25-.78-3.09-.45-.44-.92-.77-1.35-1.25-.35-.39-.82-.89-1.35-.86.41,1.64-2.05.58-2.7.38-.02.15-.13.28-.13.46-.96.05-2.23-.54-2.88.3-.43.57-.21,1.55-.03,2.12-.52.02-1.57.23-2.01-.06-.51-.33-.35-.8-.49-1.34-.24-.95-.65-1.22-1.73-1.08.16,1.58-.99,1.28-2.23,1.34-.39.87.48,1.74-.03,2.58-.25.41-.7.44-.85,1.03-.08.32-.03.84,0,1.16.04.37.1.56.09.99-.02.74-.04.88.39,1.65.32.57.45.31.41,1.15-.02.47-.17.89-.1,1.36.71.26.34.81.34,1.37,0,1.15.07.87.94.77,1.26-.14,3.59-.13,3.25,1.73,1.77-.13.82,1.6,1.92,2.37.82.58,2.64-.24,2.43,1.31.59-.02.4.4.76.58.47.23.91.17,1.48.3,1.01.23,1.26,1.25,2.03,1.53.99.37,1.55-.91,2.58-.08"/>
          <path class="cls-2" d="M110.42,87c0-.48-1.05,0-1.53-.28-.43-.25-.57-.78-.95-1.08-.19-.14-.55-.17-.8-.38-.4-.33-.55-.98-1.11-1.22-.43-.18-5,.35-3.04-1.59-.8-.83-.72-2-1.52-2.9s-.9-.47-1.81-.41c-.74.05-1.49-.33-2.2-.47-1.04-.21-1.78-.32-1.75-1.53-.99-.05-1.27-.09-1.63.81-.48,1.18-.56,1.84-2.35,1.61.63-.96-1.1-.78-1.34-1.35-.85,0-1.06-.81-1.73-.9-.3-.04-.49.35-.76.4-.41.08-.94,0-1.35-.02.18-.33.08-.37.54-.29-.05-.1-.27-.33-.35-.57-.19.05-.35.15-.49.3-.04-.32-.88-.86-.78-1.14-2.18.3-.18-2.33-1.6-2.45-.19-1.14-.86-2.62-1.76-3.49-.4-.39-1.13-.69-1.47-1.28s-.1-1.33-1.24-1.1c-.12.64.79,1.05.28,1.51-.45.42-.89-.12-1.36.55-.19.28-.35.98-.48,1.31-.1.24.18.36.05.62-.09.19-.6.35-.75.65-.31.63.1,1.38.31,1.97.05.14.31.5.28.63-.1.56-.32.17-.59.55-.81,1.12-.26,1.95-.45,3.23-.17,1.21-1,.91-1.73,1.35-.53.31-.49.64-.56,1.34,1.11-.23.67.89.52,1.44-.07.25-.11.51-.24.72s-.44.44-.51.58c-.36.64.1,1.1-.1,1.65-.14.38-.75.52-.96.85-.19.29-.17.5-.29.84-.15.43-.05.79-.38,1.18-.17.2-.68.3-.78.47-.51.9.26.95.59,1.67.63,1.34-1,1.06-.99,2.03,0,.66,1.12.46.86,1.54-1.12-.11-.63,1.39-.47,1.85"/>
          <path class="cls-2" d="M43.39,119.11c1.37-.48,1.26.96,2.6.95.03-.09,0-.17.03-.26.59.13.74,1.08.74,1.62-.46.16-1.01.35-1.26.8,1.07.77.06.75-.28,1.17-.88,1.08,1.07.63,2.01.68.05.42.02.89.04,1.32.57.11,1.01-.25,1.52-.36.33,1.3.86,1.01,1.36.09.31-.57.04-.81.93-1.06.39-.11.89-.04,1.3-.12.02-.82-.39-.99.53-1.47.51-.27,1.06-.19,1.59-.24.83-.08,1,.08.9-.85-.02-.15-.44-.21-.4-.53s.48-.25.53-.49c.35-1.41-1.1-1.29-1.88-1.75-.55-.32-.91-1.02-1.47-1.42-.61-.43-1.07-.35-.57-1.34-1.2-.41-2.36-.49-3.28-1.49-.3-.32-.47-1.1-.77-1.32s-1,.06-1.36-.03c-.7-.18-1.06-.62-1.74-.88-1.36-.5-.64-.66-1.23-1.72-.41-.73-1.63-1.94.07-2.15.59-.07.78.17,1.4-.03s.85-.63,1.62-.46c.43.1,1.03.32,1.43.56.8.48,1.37,1.15,2.53,1.51.55.17,1.59.17,2.03.52.4.32.28,1.28.66,1.54.21.14,1.07.1,1.33.02,1.11-.34.53-.75,1.02-1.46.61-.88,1.36-.72,1.32-2-.05-1.32-.31-1.34,1.27-1.57-.1-.74.32-1.43.28-2.2-.19.04-.39,0-.55.07.12-.66,1.34-1.08,1.81-1.54-.12-.26-.06-.44-.26-.65.95-.16,2.01-.41,2.85-.89.45-.26.87-.95,1.28-1.1.58-.21.93.31,1.44.32.46.01,1.43-.4.93-1.1-.17-.23-1.11-.21-1.36-.29-.35-.11-.6-.5-.83-.64-.71-.42-.95-.41-1.81-.41-.51,0-1.23.18-1.19-.55-.03.07-.13.13-.16.27.63-.22.03-.86.2-1.32s.86-.65.95-1.2c.02-.13-.56-.17-.56-.28,0-.36.11-.61.24-.99.16-.43.44-.87.56-1.25s-.17-.7.22-1.09,1.17-.33,1.64-.64c.63-.41,1.6-1.82,1.97-2.51.63-.12.56.34.94.65.77.63.73.53,1.86.4.76-.09,1.88.05,2.51-.39.22.03-.14-.59-.02-.57.25-.99-1.03-.43-1.41-.89-.47-.58.44-.86.43-1.39s-.85-1.16-1.21-1.51c.04.27-.07.33-.11.59-.66-.79-1.56-.89-2.27-1.55.14-.23.16-.57.33-.79-.31-.23-.67-.39-.83-.74-.8-.04-1.13.16-1.79.28-.83.14-1.18-.28-1.9-.42-.3-.06-4.15.13-2.39-1.2-1.13-.68-1.16-1.29-2.37-.89-.45.15-1.57.53-1.3-.65-.55-.14-1.43.02-1.27-.79-.99.14-1.67.54-2.69.46.07-.55-.26-.94-.2-1.48.09-.8.64-1.2.57-2.17-.49.2-.28.83-.54,1.27-.42.71-1.13.64-1.7,1.13.41-.02.82-.1,1.19-.27-.77.2-.45,1.32-.84,1.83-.6.78-1.88.24-2.6.72-.51.34-.61,1.01-1.39,1.2-.4.1-.9-.02-1.27-.03-.87-.04-1.77.16-1.56-1-.98-.12-1.02.2-1.54.86-.43.55-2.51,1.49-2.42,0-.33,0-.68.06-.95.21.05.06.12.18.17.24-.87.35-2.53.54-2.33,1.75-1.58.23-.52-2.32-1.72-2.1.3.76-.2.85-.35,1.48-.24,1.03.28.52.73,1.31.48.85-1.06,2.68-1.47,1.76-.17-.05-.38-.02-.55,0-.07.58.4,1.73-.26,2.01-.32.14-1-.51-1.4-.48-1.36.11-.11.5-.18,1.06-.04.3-.64.84-.78,1.19-.18.44.09,1.74-.39,1.82-.1.02-.18-.01-.28.01-.18.54-.11.97-.21,1.54-.05.27.14.68-.1.87-.53.42-.71-.26-.96-.26-.46.01-.94.07-1.35.15-.61.13-1.57.58-.3,1.09-.27.83-.58,1.25-.45,2.18.1.71.55.89-.4,1.47-.36.22-.75.2-1.15.31.05.23-.05.45.06.67-.26-.07-.58.03-.84,0,.06,2.01-1.12.54-1.94,1.36.87.49.79,2.4.28,3.03-.27.33-.6.11-.81.53-.26.51.15.53.05.91-.19.75-.34.77-1.14.73-.07.45-.35.75-.79.69.04.1.38.54.38.6,0,.25-.13.62-.1.89.12,1.13.51.92,1.45,1.31.04.73.1,1.77-.3,2.38-1.04.04-1.15.14-1.8.91-.58.68-.99.95-1.75.37.01.45.76,1.2,1.07,1.63.4.58,1.73,1.17,1.63,1.84"/>
          <path class="cls-2" d="M57.8,106.92c.06.97-.54,1.98-1.06,2.76-.8,1.19-1.14,2.19-1.46,3.58-.41,1.73-.25,3.5-.28,5.28.1.12.03-.06.1-.11"/>
          <path class="cls-2" d="M50.06,109.82c.33.37.51,1.55.77,2.13.3.67.42,1.34.58,2.03.24,1.02.79,2.01.87,3"/>
          <path class="cls-2" d="M91.26,105.57c-1.01.5-1.21-1.87-2.19-1.93-.31-.02-.27.37-.5.39-.07,0-.41-.03-.5-.01-.31.05-.97-.1-1.26-.16.07-.03.13-.07.18-.13-.24-.48-.79-.49-1.13-.87-.43-.48-.09-.55-.67-.89-.44-.26-1.08-.13-1.38-.48-.57-.68.36-1.24.12-1.82-.62-1.51-2.34.42-2.72-.67-.18-.54.78-1.12.88-1.77.07-.48-.1-1.25-.63-1.32-1.34-.16-1.34,1.59-1.25,2.39-.71.01-1.37.38-2.02.18-.83-.25-.97-.9-2.02-.27-.2-1.21-1.01-3.11-2.61-2.79.01.64-.79,1.07-1.37,1.13-.25.02-.4.18-.68.11-.17-.04-.11-.55-.35-.59-1.05-.2-.43.52-.7,1.09-.35.75-.9.68-1.64.69-.42,1.48-1.34.55-2.23.97-.26.48-.15.94-.1,1.44.03.27-.07.59.03.84.13.31.69.37.66.79-.03.45-1.25,1.3-1.45,1.87-.18.51.17,1.28-.67,1.24-.42.73.27.82.84.77.21,1.15-.43.88-1.03,1.53-.5.54-.47,1.38-.58,2.04.29-.12.61-.22.92-.29.16,1.21,1.81,1.46,1.47,2.84-.14.56-.64.37-.56,1.15.05.5.63.93.66,1.47s-.58,1.05-.46,1.5c.13.47.32.13.71.3.94.42,1.31.58,1.32,1.82.7.03,1.23.03,1.81-.36-.08.96.5,1.1.93,1.73.18.26.33.63.44.87.05.1.41.91.52,1.01.61.53.76-.28,1.44-.16.45.07.63.5.94.8"/>
          <path class="cls-2" d="M64.28,109.24c-.34.51-1.02.52-1.55.75-.75.32-1.28.78-1.83,1.38-.84.92-1.63,1.8-2.66,2.47-1.25.8-2.49,1.62-3.09,2.94.07-.1.15-.19.23-.28"/>
          <path class="cls-2" d="M62.05,109.53c-.44-1.39.87-2.54,1.22-3.92.36-1.42-.19-2.87-.04-4.28.11-.06.4-.22.37-.21"/>
          <path class="cls-2" d="M57.89,114.66c.74-.69,2.32-1.06,3.25-.58.78.4,1.26,1.22,2.08,1.63.71.36,1.07.59,1.66,1.09s1.16.42,1.74.76c-.03.1-.1.17-.21.2"/>
          <path class="cls-2" d="M54.98,78.93c1.19-.71,1.32-.69,1.55-2.09.14-.84.35-1.21.2-2.2-.12-.8.1-2.56-1.07-1.86-.7.42-.66,1.64-1.83,1.36-.21-.61-.04-1.43.18-2.03.32-.9.37-1.06.08-2.04-.32-1.07-.09-1.12.46-1.99.31-.48.25-.39.34-.83.12-.59-.03-.79.28-1.36-.72.02-.51-.72-.98-.97-.68-.36-.71.32-1.24.37-.38.04-1.15-.33-1.18-.78-.07-1.11.82-.22,1.31-.3,1.01-.15.43-.66.64-1.44.17-.61.76-.8.58-1.42-.17-.56-.62-.6-.65-1.31-.03-.48.21-.79.08-1.34-.19-.82-.96-1.49-.4-2.35.11.4.54.89.8,1.16.17.18.66.45.75.64.13.29-.16.89.01,1.14.93,1.28.82-1.46,1.64-1.4-.05.22.08.53.03.75.29.12,1.48,1.77,1.46,2.04.63.03,1.04-.8,1.48-1.18.52-.46,1-.68,1.71-.74-.42,1.78,4,.4,2.93,2.17-.21.35-.87.14-1.05.64-.25.7.35.52.51.92.42,1.04-.44,1.23-.32,2.18.19-.04.46.07.65.03.53.95-1.04.85-1.15,1.72,1.45.11.68.17,1.35,1.2.27.41,1.08.83,1.56.77-.04.55-.42,2.18.2,2.6,1.25.84.6-2.03.78-2.56.09-.26.37-.41.45-.63.05-.13.22-1,.24-1.02.62-.61,2.17.13,2.17-1.41.19,0,.37-.12.54-.13-.02-.98-.74-1.71-.36-2.73.56,1.25.65,2.61,2.08,1.18.33-.33.89-.79.89-1.18,0-.53-.65-.74-.54-1.53.91-.25.47.58.76,1.06.32.55,1.07.66,1.65.57-.16-.9,1.7-1.33,1.58-2.6,1.25-.52,1.68-.27,2.04-1.82.19-.8.55-.85.86-1.47.13-.26.09-.46-.18-.7.23,1.27-.6,3.42,1.11,3.04.36-.08.67-.5,1.1-.34s.08.59.4.78c.89.52,1.71-.36,2.14-.99.47.22.63,1.39.63,1.86.59.03,1.52-.26,2.1-.09.62.19.42.44.93.68,1.31.62,1.94-.39,1.41-1.65-.22-.53-.89-.7-.69-1.27-.25-.17-.44-.47-.68-.61.48-.57,1.06-.15,1.42-.71.21-.32.05-1.32.25-1.79.14-.34.49-.6.47-1-.03-.56-.61-1.08-1.05-.67-.27-.3-.68-.37-1.08-.3.91-.49,1.21-.46,1.46-1.51.14-.57.08-2.45,1.05-2.1-.09.02-.19,0-.27.04-.2.65-.19,1.53.3,2.03.27.27.78.22.95.38.36.34.15.77.51,1.12.4.4.92-.1,1.17.53-.42-.09-.74.06-.75.48.17,0,.36.13.53.13-.04.16.08.46.03.64.66.09,1.48-.2,1.93.44.32.46-.06,1.12.12,1.63.28.77.98.63,1.37,1.46.11.23-.02.62.09.88.14.36.46.45.59.87.5-.97,1.41-1.75,1.46-2.78.03-.59-.02-1.24.11-1.89.32.2.51.63.59,1.06.23-.44.37-1.21.48-1.73.2-.11.42-.15.65-.1.11.81-.56,1.87-.18,2.57.2.37,1.6,1.22,2.04,1.13.03.09,0,.18.03.26.58.1.85-.41,1.43-.36-.14,1.03.92.98,1.66.94-.24-.77-.12-1.38.4-1.96.14-.16.5-.13.64-.35.22-.36.04-.67.14-1.03.13-.43.48-.75.62-1.16.16-.47-.01-.99.11-1.46.14-.55.42-1.09.52-1.61.08.88-.16,1.81.32,2.58.33.53.44.48.68,1.07.18.46-.23.96.57.84.28.6,1.29-.08,1.18.96"/>
          <path class="cls-2" d="M126.86,66.08c-.41-.56-.75-1.14-1.17-1.68-.51-.68-.5-.68-1.31-.75-.89-.08-1.72-.09-2.49-.61-.34-.22-1.36-1.29-1.18,0-.48-.06-.96-.44-1.54-.28-.91.25-.31,1.01-.98,1.36-.34.17-1.35-.37-1.79-.39-.57-.03-1.04.2-1.59.2.29-.04.57.06.85.11-.1.39-1.18.79-1.54,1.2-.18.2.11.44-.19.66-.32.23-1.08.06-1.46.08-.09.42.06,1.31-.3,1.6-.45.37-1.91-.25-1.55,1,.09.03.17,0,.26.03.04.16.05.49,0,.65-1.63-.12-1.05-.18-1.35.98s-.94,1-1.86,1.26c-.14.67.49.66.57,1.08.09.5-.42.87-.27,1.32.1.31.68.36.85.92.1.34.02.8,0,1.15-1.01-.08-1.3.26-1.27,1.27-.61.06-1.09-.07-1.53.13-.49.22-1.08,1.2-1.42,1.3-.8.24-2.05-.34-2.57.72-.08-.15,0-.12.08-.19"/>
          <path class="cls-2" d="M169.23,72.51c-.18-.09-.93-.44-1.3-.59-1.24-.5-1.27-.21-1.75-1.26-.59-1.3-1.78-.84-2.18-2.12-.15-.49,0-1.06-.32-1.46-.39-.49-.78-.13-.98-.9-.37-1.46,1.99-2.66.52-4.1-.36-.35-.93-.41-1.32-.75s-.63-.76-.88-1.17c-.28-.46-.51-1.23-.85-1.62s-.78-.4-.97-.79c-.25-.53.03-1.13-.32-1.7-.26-.42-.75-.77-1.17-1.06-.5-.35-.77-.21-1.03-.87-.23-.59.03-.87-.47-1.28-.33-.27-.89-.29-1.26-.55-.47-.33-.6-.69-1.27-.73-.28-.02-.18.4-.43.4-.35,0-.68-.32-1.03-.44-.45-.17-1.23-.35-1.69-.42-.08.64-.63.36-1.07.57-.3.14-.59.63-.99.59-.63-.06-.52-.84-.77-1.16-.3-.37-.82-.47-1.21-.75-.69-.48-.66-1.02-1.28-1.42-.96-.62-1.3.3-2.28.66.17-.87-.68-.76-1.28-.94-.14-.04-.7-.1-.78-.21-.22-.3.16-.44.1-.62-.12-.38-.09-.82-.52-1.02-.29-.13-.64.19-.94.11-.42-.12-.67-.67-1.25-.67-.05.59-.63.84-1.01.77.25-.1.34-.25.51-.38-.68-.03-3.28.26-3.74-.02-.34-.2-.19-.72-.52-.97-.41-.32-1.06-.19-1.56-.2-.26-.77-.62-1.38-1.47-1.54,0,.1.06.81-.01.87-.28.24-.45.02-.71.17-.31.17-.79.64-1.22.8-.32-.99-2.31.4-3.14.38-1.31-.03-1.7.33-3.06.9-.76.32-1.12.81-1.73,1.36-.37.33-1.09,1.39-1.15.02-1.31-.25-2.32,1.17-3.56,1.24-.01-.08-.01-.19-.03-.26-.48-.21-1.5-.11-1.89-.4-.53-.4-.2-1.27-1.21-.97.08.5.76.75.97,1.27.11.28.23,1.11.2,1.44-.06.77-1.06,2.67-2.03,2.15-.17.88,0,1.01-.4,1.84-.28.58-.32,1.16-.58,1.71-.31.65-.84,1.14-1.11,1.8-.51,1.23.19,1.6.29,2.78.05.68-.32,1.16-.16,1.83.29,1.18.82,1.04.5,2.24-.11.42-.18,2.21-.19,2.22"/>
          <path class="cls-2" d="M112.69,108.58c.17.27-.09.86-.22,1.1"/>
          <path class="cls-2" d="M237.54,144.05c.28.4.28,1.02.38,1.51"/>
          <path class="cls-2" d="M374.74,212.53c.27-.62,1.02-.81,2.12-.76.13.51.52.81,1.01.7.23-1-1.07-1.13-1.37-1.87-.15-.37.14-.72,0-1.09-.21-.62-.24-.41-.56-.96-.68-1.12-.77-2.46,1.05-1.97-.32-.48-1.85-1.57-.48-2.15.49,1.38,2.07-.38,3,.27.2-1.15-1.25-.49-1.76-1.11-.4-.49-.12-1.45-.85-1.91-1.18-.73-2.09-.28-1-1.89.26-.38.72-.58.96-1.03.21-.41-.02-1.22.41-1.47,1.14-.68,1.3,1.76,1.79.73.44-.91-.82-2.32-1.06-2.89-.39-.94-.33-1.74-1.26-2.49-.64-.51-.94-.29-1.47-1.03-.38-.52-.25-.93-.76-1.36-.04.11-.05.23-.02.35.17-1.64-1.58-2.47-2.61-2.89-.23-.1-.11-.52-.41-.64-.19-.08-.55.05-.76,0-.48-.09-1.25-.15-1.69-.17-1.02-.05-1.8-.03-2.89-.46-.67-.26-2.29-.94-2.61.24-1.18-.2-1.8-1.04-2.75-1.27-.55-.13-1.17.43-1.41.38-.64-.14-.34-.68-.85-1.16-.38-.36-1.06-.28-1.51-.45-.98-.36-.55.06-1.32-.92s-1.57-1.57-2.58-2.25c-1.2,1.16-1.97,2.3-3.91,1.76-.63-.17-1.05-.82-1.62-.86-.81-.06-1.08.82-1.99.62-.62-1.62.22-3.34-.05-4.52-.05-.19-.51-.34-.6-.75-.13-.58.28-.84.29-1.2.07-1.34-1.12-1.49-1.45-2.69-.14,0-.33,0-.46-.04-.28-1.54,1.47-2.24-1.12-2.76-.45-.09-.85.1-1.16.02-.58-.16-.99-.67-1.62-.78,0-.15-.03-.31-.03-.46-1.01.04-1.72,1.11-2.1-.36-.27-1.06.86-1.51.86-2.37,0-.66-.52-.99-.76-1.58-.19-.47-.15-1.06-.33-1.51-.86,1.42-1.24,3-3.31,2.76.13-1.27-.81-1.18-1.53-1.74-.47-.36-1.12-1.15-1.53-1.63-.39.38-.9.87-1.5,1.01-.41.1-.68-.21-.99-.14-1.17.25-1.7.67-3.17.51-.7-.08-1.45-.65-1.75.39-.34,1.15.94.48-.43,1.51-1.01.76-1.04.67-1.22,1.91-.16,1.15-.73,1.54-.98,2.65-.21.93.31,1.24-.62,1.98-.44.35-1.7,1.03-2.38.88-.03.12-.54.24-.52.37-.29.45-1.77,3.54-2.41,1.41-1.56-.49-.85,1.88-2.82,1.24-1.04-.34-.44-.47-.68-1.52-.14-.62-.51-.8-.76-1.3-.48-.97.27-1-.97-1.34-.73-.2-1.62.3-2.29.14-1.31-.32-1.36-1.58-1.41-2.76-1.03-.36-1.18-1.33-.87-2.28.18-.56.71-.6.57-1.2-.01-.06-.98-.93-1.1-1.07-.42-.48-.54-.64-.98-1.03-.29-.26-.76-.36-.98-.73-.6-1.03.29-2.66-.05-3.89-.92-.04-2.42-.3-2.52.98-1.1.19-2.23.4-3.24.89-.54.26-.94.72-1.58.75-1.25.07-.78-.22-1.2-1-.47-.86-1.45-1.27-1.76-2.13-.25-.7,0-1.32-.4-2.05-.34-.62-1.02-1.28-1.47-1.83.13.83-.38,1.33-.53,2.06-.16.79.02,1.53.28,2.3.74,2.22.61,3.18-1.28,4.72-1.31,1.07-1.72,3-3.63,2.97-.39,0-1.08-.42-1.4-.25-.52.29-.14.83-.43,1.13-.61.64-1.96.32-2.34.9-.51.77.29,1.45-.65,2.25-.6.51-2,.91-1.75-.37-1.75-.09-3.52-.11-5.28-.26-.25-.02-.64-.33-.86-.25-.36.13-.23.32-.49.47.06-.04-.34.49-.38.52-.41.35-1.16.46-1.66.67,0,.58-.11,1.24.18,1.68.32.5,1.19.59,1.51,1.23,1.3,2.59-1.51,2.26-2.2,3.78-.15.34-.24,1.81-.13,2.18.21.64.45.73,1.01,1.2s1.07,1.03,1.65,1.48c1.03.79.76.71.73,1.86-.04,1.41.86,1.91,1.25,3.09.29.87.18,1.93.38,2.83-.5.02-.81.16-1.02.37"/>
          <path class="cls-2" d="M242.11,228.3c1-.18.91.73.93,1.42.98.13,2.22-.35,3-.7,1.14-.52,1.11-.89,1.66-1.91-.31-.07-.57-.23-.9-.24-.05-1.79.73-1.7,1.62-2.94.3-.42.51-.86.99-1.02.77-.25,1.25.26,2.07-.22.63-.37,1.05-1.25,1.88-.55.48.4.1.72.72.98.58.24,1.05-.22,1.57.16.13.1.05.53.33.74s.83.14,1.15.13c.74-.04.94-.47,1.48-.62.44-.12,1.06.01,1.52-.01.03-.1,0-.18.03-.28.24.06.57-.02.81.08.74-1.45-.95-.7-1.57-1s-.45-.78-.7-1.43c-.34-.88-.65-.72-1.25-1.24-.26-.22-.35-.07-.51-.44-.29-.69.3-.64.45-1.11.22-.75-.2-1.43.59-2.05.51-.39,1.22-.51,1.72-.77.86-.45.57-.45.86-1.27.51-1.45.61-.3,1.53-.7.81-.36.34-1.42,1.02-1.95.49-.38,1.29-.08,1.65-.67.1-.17-.02-.78,0-1,.12-.07.25-.1.38-.11.02.11-.01.21-.09.3"/>
          <path class="cls-2" d="M292.99,159.53c.63-.2.62-1.33,1.06-1.85s.91-.32.99-1.08c.02-.2-.5-1.09-.55-1.4-.1-.52-.14-1.14-.1-1.66.06-.03.12-.04.19-.03,0,.68.38.57.71.97.35.43.43.78.67,1.26s-.04.83.77.52c.28-.11.62-.58.62-.95.38.04.74.13,1.15.07.06-.79.92-.92,1.09-1.66.08-.32-.15-.82-.08-1.08.08-.31.46-.43.52-.69.06-.28.02-.61-.05-.89s-.58-.78-.59-.84c-.14-.79.07-.49.49-.32.58.24.18,1.2,1.37.65-.25-1.22.98-.95,1.63-1.16,1.06-.34.67-1.88,1.8-2.25.02.41,0,.84.03,1.25.26.06,1.73-.15,1.96-.28.36-.2,1.08-1.72,1.09-2.25.04,0,.23,0,.27,0,.03,1.29.36,2.06,1.79,2.01,1.19-.04,2.09-.5,2.86-1.5-.02.71.19,1.19.2,1.83.28.01.87-.11,1.11,0,.34.16.31.71.64.82.8.26.34-.55.5-1,.12-.34.34-.52.64-.71.1.38-.2,1.02-.06,1.34.16.34.21.09.44.35.29.32,1.13,1,1.63.77.33-.15.57-.91.71-1.24.34-.81.52-1.37,1.53-1.47-.61,1.14.95.93,1.5,1.25.26.15.28.9.93.5.38-.24.11-.79.53-1,.02-.68.72-.63,1.05-1.11s.02-1.18.62-1.4c.28.45.35,1,.33,1.53.39.12.69.02.79-.36.09,0,.28.02.36,0-.07.2,0,.59-.06.78.52,0,1,.12,1.06.68"/>
          <path class="cls-2" d="M327.83,148.21c0-.3.69-.41.69-.49.47-.22,1.15-1.8,1.5-.21.58-.72,2.07-2.29,1.16-3.22.34-.15.5-.18.58-.43.03.47-.09,2.97-.1,2.97.12-.7,1.7-3.36,2.45-3.54.02.58-.45.99-.34,1.57.05.28.36.23.36.67.98-.04.23,2.1,1.36.77.6-.71.74-1.79,1.06-2.62.05.68-.34,1.99.49,2.25.12-.37.34-.69.69-.77.07.45.07.94.5,1.06.14-.82,1.07-.23.92-1.37.15.48-.04,1.09.1,1.61.11.43.42.5.49.94.35-.79.88-1.02,1.4-1.71.35-.46.09-.89.72-1.23.09.65-.48,2.06.2,2.37-.04.22.08.53.03.76.68.08.68-.7,1.35-.77-.24,1,.96,1,1.56,1.07-.74-.05-.81.93.01.8.05.46.53.45.96.39,0,.1.05.25.05.36.83.21.73-.95,1.52-1.06.07.8.14,1.59.43,2.31.33.84.22.61,1.17.83-.13-.83,0-.94.4-1.55.15-.23.36-.37.5-.61.08-.13,0-.63.02-.78.04,0,.23,0,.26,0,.32.78.52,1.51.53,2.34.08-.11.48-.46.56-.57-.11.64.19,1.43.23,2.14.13.03.25.02.38.01"/>
          <path class="cls-2" d="M352.43,151.17c.07.45.57.61.68.94.18.52-.26,1.43.68,1.31.02-.46.29-.9.68-1.13.3.07.28.31.52-.15-.02.81-.14,1.73.59,2.28.45.34.92.27,1.47.32.44.04,1.21.16,1.58-.04.69-.37.44-1.23,1.66-1.15,0,.51-.6.73-.68,1.26"/>
          <path class="cls-2" d="M361.09,155.1c.77.06,1.36-1.04,1.89-.81.67.28-.11.89-.21,1.29.22-.04.52.08.75.03.03.55-.23,2.03.46,2.26.77.25,1.87-1.45,2.9-1.27-.02.4-.32.63-.39,1.02-.03.2.12.5.12.63.02-.05.17-.3.18-.3.5.3,1.29.27,1.48.9-.31.11-.65.29-.9.49.64.26,1.08.76,1.74.99.31.11.63-.08.94.09.33.18-.04.47.47.6.02.35.02.71.03,1.06,1.4.21,3.76-1.98,3.62.49-.6.18-1.25.13-1.85.03-.21.83,2.28,1.65,2.84,1.78-.27.11-.52.34-.57.65,1.38.31,1.25.25,1.43,1.39-.89.98,1.3.87,1.8.91-.07.11-.18.27-.29.37"/>
          <path class="cls-2" d="M377.92,168.98c.19.19.57.24.79.42.45.38.21.16.4.55-.06-.11-.35.26-.21.51.13.23.84.37,1.08.4-1.28,1.91,1.94,1.26,3.13,1.26-.82-.08-1,.84-1.73.7.02.39.31.73.47,1.05-.51-.08-.9.16-.77.69,1.05.06,1.46.09,2.24.68-.58.04-1.18,0-1.76.03-.01.35,0,.71-.02,1.05-1.27.25-.47,1.28-.59,2.17-.1.02-.23.08-.28.09.87-.18,1.03.49.97,1.18-.54-.56-1.11-.38-1.7-.66-.28-.13-.42-.53-.74-.58-.76-.13-1.08.49-1.56.87-.18-.4-.69-1.59-1.25-1.48-.87.18.22,1.3.44,1.66-.52.09-1.82-.36-1.39.59-.12-.02-.23-.01-.37-.04-.07.79.83,1.65.05,2.23-1.04.78-1.02-.76-2-.48-.1.49.88,3.76-.99,2.75.02.52-.08,1.17-.22,1.58-.18-.05-.03-.09-.1-.21"/>
          <path class="cls-2" d="M247.96,151.79c1.05-1.33,2.51-.17,3.96-.48.99-.22,1.28-.65,2.25-.1.57.32.91.68,1.6.85.62.15,1.06,0,1.66-.05.93-.07.6.23,1.24.52.57.27,1.29.15,1.89.46.96.49,1.16.55,2.34.12,1.66-.6,2.57-.54,4.1.14.73.32,1.06.43,1.65,1.01s.87.85,1.87.73c1.38-.16,3.4-1.1,4.79-.38.54.28.53.72.93,1.15.63.67,1.02.35,1.95.27,2.26-.2,4.56-.37,6.82-.48,1-.05,1.31.18,2.05.71.4.28.46.41.98.54.49.12,1.09-.15,1.3.35"/>
          <path class="cls-2" d="M234.65,45.32c-.57-.17-.11-.37-.19-.61s-.1-.25-.25-.49c-.29-.5-.55-.71-1.16-.66-.03-.04-.05-.08-.06-.13.3-.08.41-.37.31-.68-.58-.07-.76-1.27-1.28-1.65-.25-.19-.83-.24-1.02-.43-.28-.28-.18-.78-.56-.99-.13.43.19,1.67-.48,1.68-.04.25,0,.52.05.75-.89.3-1.03-.78-1.81-.5-.05-.1-.16-.19-.19-.25-.18.48-.18.97-.8.9-.4-.05-.53-.22-.34-.61-.82.04-.16-.69-.21-1.06-.07-.57-.2-.33-.69-.48-.59-.18-.53-.43-.88-.81-.51-.56-.47-.44-.85-.1-.1.09-.05.38-.2.49s-.56-.03-.7.07c-.23.17-.19,1.21-.66,1.06-.58-.18.17-1.46.08-1.72-.16-.46-.77-.29-.99-.79-.13-.31.02-1.13-.65-.68-.21.14-.14.61-.26.72-.2.18-.65.13-.9.16,0,.33.22,1.76-.01,2.02-.49.55-.64-1.24-.74-1.55-.09-.29-.37-.99-.66-1.27-.97-.92-.75.33-1.08.98-.39.76-1.32.55-1.8,1.03-.13.13-.02.47-.16.66-.25.33-.61.18-.86.34-.37.24-.49.87-.83,1.19-.78.73-1.12.64-.51,1.76.06.11.42.68.44.77.21.9-.66.75-.99,1.38-.17.33-.04.71-.29,1.04-.26.36-.62.34-.54.9.58-.04.26.36.48.6.09.09.3.05.35.1.07.08.26.34.36.43.48.42.78.93,1.44,1.05-.02.37-.48.4-.54.74.74.03,1.33.72,1.25,1.4-.06.51-.46,1.09-.07,1.47"/>
          <path class="cls-2" d="M213.84,39.38c.01-.45.05-1.23-.36-1.54-.2-.15-.56-.04-.7-.2-.22-.25-.07-.56-.12-.85-.14-.74-.37-1.15-1.16-1.31-.61-.12-.63.09-1.18.26-.41.12-1.15.16-1.58.15-.53-.02-1.08-.45-1.61-.35-.48.09-.62.31-.46.77.03.1.39.28.48.5.1.24.07.56.04.81-.53,0-.43.4-.48.78-.09.71-.13.59-.57,1.05-1.05,1.07.51,1.17.99,2,.31.53.41,1.31.64,1.85.17.39.23.66.06.98s-.59.25-.55.69c.5.03,1.16-.15,1.53.2.32.3.18.85.55,1.09.33.21.78-.06,1.11.26.35.34.21.87.23,1.32.18-.04.43.02.6-.05.04.11.16.41.15.34"/>
          <path class="cls-2" d="M207.83,56.42c.03.13.1.23.21.28-.46-.16-.54-.77-.87-.98-.42-.27-1.05-.07-1.51-.42-.63-.48-.21-1.25-1.31-1s-2.06,1.13-3.2.99c.2-1.06-1.49-.82-1.92-.35-.18.2-.03.62-.39.91-.24.19-.98.51-1.27.5-.33-.01-.42-.25-.58-.28-.47-.07-1,.11-1.41.31-.7.35-1.14.65-1.91.18.16-.38.27-.69.05-1.07-.27-.46-.41-.24-.78-.4-.59-.25-.73-.22-1.33-.18-.77.06-.77-.55-1.33-1.08-.32-.3-1.12-.78-1.24-1.25-.82-.17-.66.75-1.42.76-.88.02-.39-.81-1.22-1.02-.39-.1-.92.21-1.27.03-.46-.24-.36-.96-.55-1.32-.06-.12-.46-.5-.47-.56-.03-.2.13-.27.12-.38,0-.3.26-.41-.05-.74-.25-.25-.52-.11-.73-.42-.09-.13-.39-1.05-.42-1.22-.13-.76.75-1.78-.61-2.07-.03-.75,1.04-1.11,1.33-1.73.16.03.38-.05.53-.02.16-.26.65-.24.79-.49.2-.36-.24-.62-.12-1.02,1.58-.05,1.1-.88,1.44-1.97.22-.69.62-.57,1.02-1.1.36-.47.15-1.01.3-1.61.07-.28.15-.61.42-.7.32-.11.48.21.67.21.78-.02.93-.98,1.43-1.04,0-.06.35-.06.35-.12v1.31c.25-.21.87-1.28,1.03-1.53-.24,1.2.79,0,.99,0,.88-.06.24.79.36,1.18s.4.31.89.28c.06-.44.48-.38.83-.33.14.18.28.25.56.2.15.45.34.88.44,1.34.05.26-.1.51.11.71s.44,0,.62.11c.21.13.3.43.59.54.62-.8.54.49.62.73.12.33.32.46.61.69.12.1.12.28.29.37.14.08.39-.03.5.05.5.35.22,1.07.52,1.44.18.21.98.42,1.25.39.41-.04.43-.1.75-.49.46.3.31.79.54,1.2.26.45.62.48.79,1.01.15.48-.21.75.13,1.2.59.79,1.11.36,1.11,1.53,1.13-.27.98,1.58,1.3,2.18.27.5.71.39,1.09.68.5.38.21.49.19.73-.04.6-.02.52.28,1.1.19.36.25.81.35,1.19.03.14-.15.3-.06.47.08.15.39.2.49.31.33.37-.07,1.2.05,1.8Z"/>
          <path class="cls-2" d="M214.53,39.66c.09-.07.05-.17.2-.13-.33.36-1.15.68-1.32,1.18"/>
          <path class="cls-2" d="M380.11,131.61c.14,0,.6.02.86.01.12.81,1.17.01,1.59,0,.34-.01.71.33,1.04.26.73-.16.4-.74.8-1.03.78-.57,1.55.19,2.16-.94.31-.57.61-1.77-.41-1.79.19-1.18-.86-1.64-.9-2.76-.81-.05-1.7-.04-2.1-.96-.63-1.41,1.11-.53,1.59-.77.83-.41.22-1.09.18-1.51-.07-.7-.09-.29.37-.71.39-.36,1.57-.72,1.63-1.1-.4.06-.79-.7-1.06-1.02-.33-.37-.65-.61-1.07-.92s-.94-.33-1.43-.5c-.62-.21-.95-.86-1.49-.98"/>
          <path class="cls-2" d="M379.5,116c-.82-.6-1.7-.58-2.55-.28-.75.26-1.49.33-2.33.43-1.34.17-3.27-.63-4.49-1.28-.71-.38-1.72-.73-2.64-.61-.03.11-.03.23-.01.35"/>
          <path class="cls-2" d="M376.71,130.04c-.55-.03-1.19-.09-1.55-.47-.27-.29-.21-.98-.61-1.2-.56-.32-1.97-.08-2.87-.37-.44-.14-.74-.36-1.17-.48-.34-.1-.55-.09-.9-.24-.28-.12-.56-.45-.89-.46-1.02-.03-1.93,1.69-2.92.34-1.1,1.13-1.29-.18-1.99-.8-.25-.22-.52-.28-.83-.35-.8-.18-.92-.19-1.54-.54-.37-.2-.89-.3-1.22-.54-.64-.45-.6-.89-1.4-1.14-.65-.21-1.78-.45-2.51-.37h.24"/>
          <path class="cls-2" d="M366.51,114.09c.07.09.09-.13.08-.16-.06-.04-.21-.16-.24-.18.46-.07.85.05,1.21.24"/>
          <path class="cls-2" d="M386.38,100.92c.02-.08,0-.16.01-.25.41-.19.74-.64,1.21-.72.21-.03.61.25.94.17.2-1.19,1.59.31,2.01.47.66.25.8-.14,1.27-.29s1.01-.17,1.56-.17c.62,0,1.28.09,1.71-.21-.04.03.18-.48.21-.52.09-.11.41-.28.53-.36.39-.24.7-.21,1.08-.39.54-.25.64-.68,1.14-.97s.93-.08,1.44-.17c.64-.12.89-.68,1.52-.8.03-.29-.03-.58-.16-.84.14-.11.53-.39.58-.56.09-.28-.27-.76-.06-1.02.25-.3.72.05,1.03,0,.41-.07.98-.47,1.23-.79.66-.83.15-1.77.16-2.74,0-.68.36-1.72-.15-2.24-.3,1.13-.75,1.42-1.33,2.29-.24-.37-.81-1.43-.89-1.84-.3.47-.18,1.04-.34,1.55-.42-.05-.47-.47-.84-.6-.34.82-.03,1.16-.87,1.11-.21-.01-.43-.38-.81-.33-.4.05-.61.48-1.01.51-.1-.58-.24-1.32-.38-1.83-.12.71-.76,1.48-1.47,1.76.05-.71.21-1.38-.09-1.88-.23-.38-1.06-1.24-1.38-1.53-.03.45.18,1.44-.3,1.73-.67.4-.38-.6-.93-.76.05.56-.27.61-.45,1-.1.21-.27.4-.36.64-.05.15.3.15.14.41-.43.72-1.37.23-2.05.45-.47.15-.43.49-.86.21-.59-.38-.23-.83-.98-1.04-.44-.12-.86-.02-1.31-.17-.51-.18-.86-.43-1.4-.57-.35-.09-.86-.23-1.23-.15s-.55.49-.93.45c-.67-.08-.53-.94-.93-1.32s-.89-.2-1.42-.32c-.47-.11-.83-.59-1.24-.64-1.04-.14-.87,1-1.02,1.58-.12.47-.41,1.2-.64,1.64-.36.7-1.02.72-1.46,1.39-.52.8-.38,1.1-1.38,1.57-.6.28-1.59.53-1.93,1.18-.14.27.05.65-.09.94-.15.31-.7,0-.53.52"/>
          <path class="cls-2" d="M382.72,99.88c-.17-.73.07-.81-.49-1.44-.27-.3-.56-.46-.76-.83-.16-.3-.09-.91-.34-1.12s-1.06.01-1.41-.19c-.23-.13-.36-.49-.59-.67-.82-.65-1.89-.02-2.51.76.04.07-.99.57-.9.61-.43-.06-.74.2-1.1.34"/>
          <path class="cls-2" d="M390.57,90.29c-.03-.1-.87-.63-1.07-.93-.36-.54,0-.67-.64-1.12-.34-.24-1.02-.22-1.26-.44-.33-.3-.3-1.15-.45-1.6-.94.13-.71-.6-.88-1.24s-.38-.84-.94-1.21c-.66-.43-.98-.22-1.56-.53-.39-.2-1.41-.87-1.65-1.15-.29-.35-.1-.92-.36-1.2-.53-.58-1.21.05-1.66-.68-.47-.77.18-.54.33-.9.27-.66.05-.69-.26-1.28-1.62.08.24-2.4.37-2.93.18-.71.02-3.11,1.2-2.92.58,1.32,1.53-2.06,1.76-2.39.19-.29.7-.49.86-.91.18-.47-.05-1.11.52-1.33-.15,1.48,1.24-.34,1.5-.58.37-.34,1.12-1.19,1.55-1.16-.08.72,1.37.81,1.91.76-.01-.66.86-.82,1.35-.8.26,0,.44.45.91.29.38-.13.11-.17.34-.45.85-1,1.46-2.44,3.07-2.36.27-.64-.02-2.25,1.05-2.16.02.4-.15,1.23.2,1.54.45.39,1.93-.1,2.41-.06-.43.65.14.8.72.94.25.06.57-.06.82.02.18.06.17.37.38.44.72.24,2.22-.47,2.27.69-.33.09-.37.24-.51.42.48.16.86.03,1.37.19.47.15.83.55,1.33.6.05-.06.08-.13.09-.21-.1,1.24.88.82,1.32,1.43.29.4-.09.44,0,.79.18.76.06.26.49.7.52.52,1.09.72,1.77,1.11.36.21.51.67.87.79.59.2,1.53-.38,1.28.53-.02.07-.53.08-.6.36s.29.3.34.6c.04.25.11.8.02,1.04s-.42.31-.51.55c-.33.94.56.87.33,1.8.24-.03.54.07.78.01.16.45-.08,1.05.09,1.49.12.3.45.33.57.65.23.59.27,2.27-.71,2.06-.33.88.33,2.17-.24,2.86-.42.52-1.1.41-1.11,1.31,0,.32.45.57.26.96s-.7.04-.9.61.45.96.31,1.56c-.06.27-.44.61-.64.8,0-.09-.06-.24-.07-.35-1.35-.27-1.11,1.08-1.37,1.82-.96-.41-.95,1.29-1.86,1.5-.42.1-.4-.21-.92.05-.31.16-.48.5-.79.62-.02-.11-.01-.22-.02-.34"/>
          <path class="cls-2" d="M338.09,85.76c.6-.79,1.56-2.2,1.64-3.25.07-.89-.65-1.07-.6-1.96.05-.78.17-1.57.14-2.41-.11-2.91,1.19,1.12,1.57,1.25.77.26.9-.88,1.18-1.2s1.03-.85,1.4-.99c.14-.06.41.1.65.03.59-.2.98-.51,1.35-.94s.75-1.07.71-1.67c.94-.18.81.84.96,1.45.93,0,.81.17,1.47.7.88.72.47.11,1.13.08,1.26-.06,1.51,1.11,2.37,1.68.26-.23.61-.73.95-.81.2-.05.44.22.52.19.68-.28.6-.16.63-1.13.74.06.23-.47.33-.82.15-.5.42-1.01.83-1.37.13-.12.4.09.55-.07.24-.27.25-.74.35-1.07.19-.57.4-.94.71-1.49.64.21,1.19.54,1.57,1.05.34.46.12.83.84.79.5-.03.48-.31.78-.52.25-.18.35-.53.73-.52.32,0,.4.45.61.49.4.08.87-.17,1.2-.41.67-.48.99-1.31,1.59-1.85.31.33.75.62.96.97.13.21.06.6.24.85.37.54.22.22.65.39.38.15,1.24.04,1.55.33.5.47.16.92.89,1.37.32.2.74.37,1.11.37.07-.06-.21.77-.14.71-.81.42-.2,1.25-.03,1.97.06.27.25.78.18,1.05-.11.4-.62.55-.8.89.76.43,1.53.65,2.39.76.47.06.53-.2.85.13.18.18.18.71.32.96-.14.05-.93.23-.98.38-.14.39.3.3.46.56.17.28.37.87.54,1.02-.55.22-1.34,1.42-.45,1.61.04.2.09.51.09.68-1.19.77-1.08,1.12-.79,2.26-.42.06-.8-.14-1.2-.15.02.2-.12.39-.11.59-1.44-.32-.86,1.73-.96,2.53-.3.02-.63.02-.93.02-.47,1.04.24,1.66.06,2.59-.48.22-.58.73-.51,1.24"/>
          <path class="cls-2" d="M351.34,44.09c.87.47,1.08-2.53,2.08-2.34.04.41-.09.8-.06,1.2.2-.04.47.07.67.03.21.85.75.36,1.17.18.38-.17,1.36-.26,1.64-.49s-.02-.42.16-.65c.2-.28.58-.55.71-.83.23-.51.03-1.23.19-1.78.47.19.14,2.2.17,2.85.58-.05.43.52.94.54.76.03.27-.57.37-1.05.22-1.07,1.04-1.81.94-3.03.02.69-.37,3.35.96,3.21s1.17-2.06,1.48-2.81c.29.61-.12,1.79.61,2.11.56.25,1.35-.46,1.82-.61-.11.25-.29.58-.42.76.67.36,1.47.92,2.41,1.06-.93-.05-1.36.88-.16.88.52,0,1.36-.03,1.41-.7.5.13.16.41.33.78.22.47.52.72.81,1.22.19.34.15.57.39.93.33.49.83.76,1.07,1.32-.41.01-.82-.02-1.21.09-.11.67.7.64.78,1.22s-.71.98-.44,1.65c.22-.05.54.02.76-.08.11.49-.24.91-.15,1.39s.71.96.61,1.67c-.08.56-.49,1.02-.58,1.62-.08.55-.04,1.13-.04,1.69.05-.8-.77-1.19-.7-1.91,0,.46,0,.92-.01,1.38-1.23-.13-.86-.57-1.48.51-.18.31-.37.18-.51.62-.12.4-.07.87.17,1.13-1.33-.08-.73.69-1.23,1.48-.13.21-.51.26-.64.5-.19.32-.05.59-.13.94-.23,1.12-.29.38-1.05.67-.41.15-.32.63-.85.63-.14,1.25-1.53.98-1.85,1.82s.39.64-.77.94c-.39.1-.94.42-1.36.46-.58.05-.92-.42-1.35-.57-.79-.28-.98.15-1.82.1-.97-.06-1.18-.7-2.22-.04-.75.47-.67.61-1.68.6-.07.15-.13.29-.2.44"/>
          <path class="cls-2" d="M392.66,64.57c-.07-.31.27-.88.5-1.24.34-.55.48-.6.57-1.28.06-.48.08-.68.33-1.21.08-.17.32-.79.44-.89.35-.29.54.05.78-.36.15-.27,0-1.72,0-2.06-.16-.02-.3-.15-.43-.18.02-.33.18-.64.36-.87.54-.11,1.64.11,1.88-.56.26-.71-.54-.58-.67-1.12.63-.26,1.29.21,1.93-.16.34-.2.48-.86,1.03-1.03.33-.11.77.12,1.08-.02.56-.24.11,0,.4-.63.15-.35.06-.66.34-1s.73-.4.99-.73c-.66-.33-.19-.87.27-1.1,1.01-.52,1.52.47,2.59.31-.02-.41.05-.83.2-1.21,1.02-.06,1.45,1.1,2.09,1.63.24.2.67.24.86.53.18.28-.01.27.09.53.23.61-.07.66.58,1.12.6.42.69.2.89.86.08.24-.12.61.06.83.11.14.27-.01.38.08.34.3,1.9,1.88,1.81.53.93,0,1.08.29,1.55-.49.24-.4.19-.84.3-1.25.08-.3.04-.55.26-.8.2-.22.55-.05.72-.24.33-.39.07-.98.59-1.34-.31-1.13.37-1.62-.86-1.89-.66-.14-.83.05-1.05-.53-.28-.74.39-1.23-.78-1.21-.43,0-.7.51-1.25.25-.69-.32-.19-.45-.31-1.07-.2-.97-1.01-1.27-1.07-2.38-.22.02-.53-.08-.76-.04-.03-.4.97-1.55,0-1.48.03-.88.64-1.68.69-2.52.03-.5-.44-1.04-.34-1.46.14-.58.78-1.13.94-1.75.14-.55.15-1.01.44-1.52.15-.27.65-.61.62-.93-.04-.39-.34-.24-.45-.5-.29-.73-.15-.46.33-1.24.31-.51.15-1,.41-1.48.3-.56,1.13-.9,1.49-1.44s.18-1.1.56-1.6c.28-.36.49-.35.7-.71.12-.21,0-.52.17-.76.77.74,1.82-.63,2.23-1.07.31-.33.4-.82.65-1.14.27-.35.55-.37.96-.52-.53.74-.53,1.77-.5,2.61.01.38-.25,1.41-.06,1.66.39.52,1.45-.19,1.78.39.18.31-.18.85.17,1.37.37.55,1.28.78,1.58,1.3.52.89-.02,1.75-.91,1.91-.71.12-1.51-.28-1.35.84.05.37.51,1.02.8,1.25.4.31,1.2.31,1.55.6.47.39.42,1.04.44,1.66.55.14,1.15.31,1.21.99.07.77-.59.36-.53,1.08.03.38.51.58.7.85.13.19.33.71.43.82.31.36.55.32.7.72.3.76-.6,1.12-.53,1.67.05.41.39.19.54.5.13.26.08.51.17.75.33.85,1.03,1.23,1.46,2.11-.59.53,0,1.6-.35,2.27s-.8.21-1.13.54c-.31.31-.14.98-.16,1.41-.03.66-.13,3.23,1.12,2.97.09.65-.71.96-.76,1.5s.12.37.39.67c.3.34.96.83,1.44.89.2.7-.21,1.42.74,1.37.35-.02.61-.43,1.05-.42.76,0,1.33.54,1.17,1.29-.42.17-.85.26-1.02.69-.14.35.25.81.07,1.11-.23.39-1.48.9-1.65.4-.33.03-.88.42-1.04.75-.26.53.02.47-.03.92-.03.31.16.79-.25.95-.28.11-.35-.29-.5-.3-.89-.03-.33.05-.8.64-.33.41-1.02.51-.88,1.2-.21.09-.62.5-.87.46-.31-.05-.24-.41-.47-.53-.47-.25-.86-.48-.75.35.15,1.08,1.86,1.84,2.71,1.33.28-.16.5-.84.74-.89.57-.12.31.28.59.42.6.3.77.21,1.39.08,1.08-.22.88.03,1.03,1.16.08.59.18,1.17.17,1.81-.67.2-.97-.25-1.38-.6-.29.23-.37.71-.61.89-.2.15-.72.07-1,.28-.22.16-.23.51-.37.61-.19.13-.52-.06-.69.07-.32.26-.3.61-.65.77-.51.24-1.17-.28-1.14.59-.55-.1-.67.31-.54.75.04.13.54.4.65.56.19.31.23.79.25,1.14-.52.04-.59.59-.51,1.04-1.34.27-.86.78-.87,1.84,0,.76.04,1.26.17,1.89.06.3.19,1.03.1,1.34-.11.35-.41.38-.59.69-.39.65-.21,1.38-.38,2.08-.06.25-.35,1.67-.5,1.82s-.62.02-.83.13c-.33.19-.41.69-.68.86-.75.46-1.77.18-2.51-.08-.82-.29-1.33.15-2.07-.04-.68-.17-.58-.69-1.42-.36-.36.14-.68.45-1.03.59-.57.23-1.34.43-1.84-.02"/>
          <path class="cls-2" d="M400.59,50.54c.06.13.13.18.08.34-.55.04-1.04-.08-1.57-.08-.32,0-.62.12-.95.08-.12-.01-.28-.3-.52-.34-.45-.06-.88.13-1.37-.02-.66-.2-.78-.69-1.28-.98-.38-.23-.65-.29-1.03.04-.35.3-.26.9-.59,1.14-.08.06-1.23.23-1.33.23-.45.01-.84.12-.86-.57-.63-.02-1.08.24-1.56-.1-.18-.13-.08-.44-.22-.56-.2-.17-.5-.11-.7-.22-.74-.42-.96-1.12-1.45-1.65-1.07-1.16-1.06.22-1.9.69-.88.5-1.48-.38-2.25-.25.04.27-.06.51.07.75-1.02.25-1.66.59-2.65.36-.48-.11-1.13-.55-1.34.19s.94.85-.01,1.22c-.82.32-.88-.56-1.73-.34.02.28-.02.59.06.85-.87.05-1.84-.3-1.74.87.04.41.32.75.43,1.15.13.46-.1.71.27,1.05-.76.38-1.87.66-.89,1.4.28.21.64.09.99.41.2.18.37.49.51.7-.07.07-.12.12-.19.19.53.43,1.13.55.67,1.39-.14.26-.42-.07-.62.57-.33,1.01.26.55.64,1.23.59,1.06-.86.62-1,1.49-.13.79.77.96,1.17,1.5.27.36.44.9.64,1.3-.14-.04-.36.05-.51.02-.22.74-.16,1.67.14,2.25.5.96.62.86-.17,1.64-.54.53-1.68,1.18-1.64,2.02s.53.86,0,1.81c.92-.33.57.5.89,1,.12.19.47.12.64.35s.11.59.28.84c.68.97,1.61-.91,2.11.28"/>
          <path class="cls-2" d="M362.32,38.95c-.47-.29.14-1.34.21-1.78s.2-.97.33-1.52c.85-.04,1.42.1,2.08-.56.82-.81.76-1.12,2.26-1.12-.05-.53,0-1.1.49-1.44.72-.49,1.04.29,1.82.15.49-.09.58-.44,1.18-.47.46-.02,1.16.08,1.24.62.33-.06,1.01-.32,1.23-.62.17-.24.03-.47.15-.67.14-.22.1-.36.26-.54.17-.2.6-.13.78-.41.49-.77-.3-2.24-.24-3.04.58.04.72.56,1.12.86.42.32.87.47,1.4.59.88.2,1.32.77,2,1.43s.66,1.18,1.59,1.62,1.33.6,1.99-.16c.8-.92.46-1.25.52-2.36.04-.78.73-.69.97-1.3.06-.15-.18-1.32-.2-1.57-.06-.97-.16-2.09.97-1.07.52.47,1.51,1.67,2.43,1.05.27-.19.08-.65.29-.83.52-.46.86-.03,1.12.06,0,0,.28.21.41.26.25.1.7,0,.98,0,.66,0,1.34.02,2-.01-.07-.74-.48-1.21.12-1.91.72-.84,1.92-.38,2.71-.81.22-.12,0-.39.32-.5.19-.06.28.14.39.14.21,0,.71.11,1.05.08.9-.08,1.66.18,2.57.15-.06.54.46.95.95,1.02.07-.64,1.31-1.09,1.84-.67.78.62.36,2.25,1.17,2.77.85.55,2.08-.91,3.11-.18.96.68.54,2.2,2,2.45-.6-.09-.68.72-.96,1.11-.62.87-.94.74-2,.85s-1.97.41-2.95.91c-.19-.19-.49-.23-.79-.15.01.67-.1,1.68-.62,2.15-.99.9-2.18.18-2.8,1.64-.5,1.17-.74,2.73-2,3.09s-2.25.51-3.53.52c-.36,0-.75.19-1.13.08-.44-.13-.38-.65-1-.53-.07-.77-.52-.91-1.22-1.09.22.28.7,0,.58-.46-.8.39-.69-1.06-1.07-1.53-.65-.82-1.38-.35-2.18-.48-1-.15-.73-.98-1.79-1.03-.65-.04-1.22.29-1.46-.47-.05.14-.09.29-.11.45"/>
          <path class="cls-2" d="M371.21,49.75c.57-.09.72-.8,1.22-1.11.61-.38.67-.11,1.23-.1.45,0,.99-.2,1.48.01.75.32.98,1.43,1.82,1.45.33-.37,1.11-.06,1.25-.84.8.18.77-.6.68-1.19-.04-.3-.27-.53-.24-.81s.36-.51.42-.84c.2-1.26-1.08-1.43-1.2-2.41-.04-.32.39-.73.25-1.05-.23-.49-1.05-.25-1.55-.27-.18-.86.74-1.18,1.2-1.75.52-.65.54-1.27,1.14-1.81.24-.22.62-.46.87-.77.11-.14.36-.1.44-.27.08-.17-.17-.41-.17-.44.33-1.02.84-2.06,1.82-2.71.05-.14,0-1.06.09-1.19.24.39.71.5.61,1.02"/>
          <path class="cls-2" d="M378.71,42.26c.22-1.26,1.77-1.14,2.55-1.82.96-.84.95-2.36,1.8-3.27.64-.69,1.58-1.98,1.56-2.98v.43"/>
          <path class="cls-2" d="M382.09,40.28c.69-.07,1.38-1.05,1.97-1.44s1.3-.63,1.91-.96c.81-.43,1.61-1.31,2.39-1.52"/>
          <path class="cls-2" d="M318.4,226.19c-.48-.2-.99-.38-1.31-.58-.53-.33-1.21-1.06-1.86-1.17-1.04-.19-1.82.8-2.83.68-.59-.07-1.65-.62-2.36-.79-.92-.22-2.22-.49-3.08-.93-.79-.41-.88-1-1.99-.91-1.62.13-2.26.89-3.95.3-1.97-.68-1.64-1.78-2.8-3.29s-2.79-1.6-4.67-1.55c.12.01.24,0,.36,0-.64.12-1.4.09-1.47.84.11.12.19-.56.35-.59-.48-.68-.39-1.89.58-2.22-.84-.02-2.47-.91-2.92-1.63-.42-.66.19-.97-.69-1.39-.72-.34-1.7.3-2.45-.24-.56-.4-.39-1.17-1.05-1.38-.52-.16-1.35.5-1.86.63-1.01.25-2.75.3-3.3-.77-1.1.43-1.48.98-2.26,1.71-.97.9-.86.62-1.87.19-.49-.21.15-.4-.56-.5-.39-.05-.8.27-1.15.4-.8.3-1.77.98-2.75.84-1.03-.15-1.23-.88-2.13-1.41s-1.81-1.01-2.43-1.84-.58-2.37-1.8-2.34c-.46,0-1.53,1.04-1.84,1.35-.34.34-1.05,1.87-1.53,1.89-.57.02-1.23-1.61-1.68-1.89-.25-.15-.73-.04-1.06-.22-.31-.17-.39-.45-.68-.65s-.93-.46-1.13-.63c-.36-.3-.58-1.02-.95-1.23-.48-.27-1.56.06-2.1,0-.71-.09-1.46-.34-2.1-.66.22-1.14,1-1.3.39-2.47-.23-.44-.87-1.16-1.25-1.49-.87-.75-1.85-.6-1.38-2.1,1.02-.17,2.21-.83,2.81-1.64.4-.54.52-.91,1.02-1.45.36-.38.67-.35.78-.9,1.32-.18,2.07.87,3.47.51,1.3-.33,2.28-.72,3.23-1.64,1.6.75,1.82.5,2.93-.56.34-.32.77-.99,1.32-.95.71.04.52.96,1.35.86.26-.48,1.55-.46,1.89-.85-.51-.32-.76-.97-1.12-1.25"/>
          <path class="cls-2" d="M319.23,226.87c.65.4,1.1-.28,1.78-.45.82-.2.81,0,1.58.04,1.49.08,2.87.41,4.31.53.03-.13,0-.24.03-.37.49-.23,1.06-.37,1.6-.32.71-2.33,2.57.36,4.01-.19.73-.28,1.12-1.04,1.63-1.57.37-.38.75-.53,1.04-.9.19-.25.16-.81.35-1.03.57-.67,1.57-.93,2.18-1.59,1-1.06,1.09-1.1,2.32-1.12.66-.01.95.15,1.48-.11.56-.27.87-1.14,1.57-1.28.88-.17,1.24.47,2.16.68.06.97-.18,2.04.54,2.74.11-1.17.05-2.18.58-3.24.22-.45.71-.86.7-1.42,1.36.01,3.23,2.51,3.41-.4-.56-.02-1.12-.2-1.22-.69.88-.4,1.93-.03,2.87-.33s1.88-1.49,2.81-1.55c.99-.07,1.18,1.04,2.66.89-.06.42.11.86.14,1.26.46-.26.9-.67,1.42-.87.33-.13.83.12,1.19-.1,1.03-.63.03-1.23.64-2,.8-1.03,3.43-.27,3.25,1.16,1.7.16,2.9-1.22,4.51-1.1.64.05,1.14.54,1.8.67.97.18,2.08-.17,3.02-.41-.17-.75.05-1.54.95-1.35"/>
        </g>
      </g>
      <path class="cls-1" d="M322.77,8.88l-156.85,65.35,39.21,52.65,151.4-76.25-33.77-41.75ZM294.06,73.49l-9.05,4.38-11.06-14.4,9.61-4.48s8.24,11.24,8.16,10.88c-.08-.36,2.38,1.5,2.38,1.5l-.04,2.13Z"/>
    </g>
  </g>
</svg>