<?xml version="1.0" encoding="UTF-8"?>
<svg id="Capa_2" data-name="Capa 2" xmlns="http://www.w3.org/2000/svg" viewBox="0 0 382.01 198.26">
  <defs>
    <style>
      .cls-1 {
        opacity: .3;
      }

      .cls-1, .cls-2 {
        fill: #fff;
      }
    </style>
  </defs>
  <g id="CUIDANDERO">
    <g>
      <polygon class="cls-1" points="239.29 131.07 239.08 135.02 235.4 166.18 238.33 166.64 381.64 167.07 319.26 140.21 303.6 131.07 280.91 131.28 273.83 126.7 269.46 126.91 269.26 130.86 239.29 131.07"/>
      <g>
        <path class="cls-2" d="M80.11,77.79c.02,13.15,0,26.31,0,39.46,0,12.37,0,24.74.01,37.1,0,4.45.02,8.9-.01,13.34,0,.48.75.48.75,0,.07-10.11.01-20.22,0-30.32,0-12.6-.01-25.2,0-37.8.01-7.26,0-14.53-.01-21.79,0-.48-.75-.48-.75,0h0Z"/>
        <path class="cls-2" d="M80.56,78.14c20.96-5.39,41.88-10.91,62.79-16.5,20.76-5.55,41.5-11.17,62.25-16.78,10.93-2.95,21.82-6.02,32.75-8.97.47-.13.27-.85-.2-.72-20.02,5.41-40.01,10.94-60.03,16.35s-41.39,11.15-62.11,16.61c-11.88,3.13-23.76,6.23-35.65,9.29-.47.12-.27.84.2.72h0Z"/>
        <path class="cls-2" d="M80.49,168.07c19.68-.52,39.37-.41,59.06-.4,9.94,0,19.88.01,29.82-.04s20.67-.44,31.01-.65c11.67-.23,23.35-.37,35.02-.43.48,0,.48-.75,0-.75-10.35.05-20.7.17-31.05.35s-20.69.57-31.03.69c-19.91.23-39.83.03-59.74.07-11.03.03-22.06.11-33.09.4-.48.01-.48.76,0,.75h0Z"/>
        <path class="cls-2" d="M235.16,40.95c.38,16.02.27,32.06.11,48.07-.17,17.23-.36,34.46-.31,51.7.02,8.5.06,17.01,0,25.52,0,.48.75.48.75,0,.14-16.05-.09-32.1.02-48.15.12-17.27.45-34.53.41-51.8-.02-8.45-.02-16.89-.22-25.34-.01-.48-.76-.48-.75,0h0Z"/>
        <path class="cls-2" d="M145.46,43.45c.27,5.62.14,11.24.42,16.86.02.48.77.48.75,0-.27-5.62-.14-11.24-.42-16.86-.02-.48-.77-.48-.75,0h0Z"/>
        <path class="cls-2" d="M145.9,43.77c9.61.12,19.22.2,28.83.25,2.3.01,4.6.02,6.9.01.48,0,.48-.75,0-.75-10.11.04-20.22-.1-30.32-.21-1.8-.02-3.61-.04-5.41-.06-.48,0-.48.74,0,.75h0Z"/>
        <path class="cls-2" d="M181.21,43.78c.07,1.12-.03,2.26-.06,3.38-.04,1.26-.1,2.52-.1,3.78,0,.48.75.48.75,0,0-1.26.06-2.52.1-3.78.03-1.12.13-2.26.06-3.38-.03-.48-.78-.48-.75,0h0Z"/>
        <path class="cls-2" d="M153.54,41.32c6.73.2,13.46.22,20.19,0,.48-.02.48-.77,0-.75-6.72.22-13.46.2-20.19,0-.48-.01-.48.74,0,.75h0Z"/>
        <path class="cls-2" d="M156.08,41.16v2.29c0,.2.17.38.38.38s.38-.16.38-.38v-2.29c0-.2-.17-.38-.38-.38s-.38.16-.38.38h0Z"/>
        <path class="cls-2" d="M170.85,41.16v2.29c0,.2.17.38.38.38s.38-.16.38-.38v-2.29c0-.2-.17-.38-.38-.38s-.38.16-.38.38h0Z"/>
        <path class="cls-2" d="M80.79,82.31c22.5-6.03,45.04-11.88,67.58-17.75,20.53-5.34,41.05-10.69,61.51-16.3,10.44-2.86,20.88-5.74,31.37-8.4.47-.12.27-.84-.2-.72-18.78,4.77-37.4,10.17-56.14,15.13-22.14,5.85-44.33,11.54-66.49,17.33-12.62,3.3-25.24,6.62-37.84,10-.47.12-.27.85.2.72h0Z"/>
        <path class="cls-2" d="M237.99,35.48c-.12.38-.1.81-.06,1.2.06.47.16.93.35,1.36.14.3.33.49.59.68.3.23.62.44.95.63.41.24.86.47,1.34.52.2.02.38-.19.38-.38,0-.22-.17-.35-.38-.38.09.01-.05-.01-.07-.02-.05-.01-.1-.03-.15-.04-.11-.04-.17-.06-.27-.11-.22-.1-.43-.22-.63-.35s-.4-.25-.59-.39c-.07-.05-.14-.1-.22-.16-.09-.06.02.02-.02-.02-.02-.01-.03-.02-.05-.04-.1-.09-.17-.2-.24-.38s-.15-.45-.19-.67c-.05-.23-.07-.47-.08-.71,0-.12,0-.23.01-.35,0-.05,0-.05,0-.02,0-.02,0-.05.01-.07.01-.04.02-.09.03-.13.15-.46-.57-.66-.72-.2h0Z"/>
        <path class="cls-2" d="M239.49,39.87c.03,10.19.15,20.38.35,30.56l.38-.38c-2.04-.2-4.41,1.16-4.83,3.26-.09.47.63.67.72.2.36-1.8,2.38-2.88,4.11-2.71.2.02.38-.19.38-.38-.2-10.19-.32-20.37-.35-30.56,0-.48-.75-.48-.75,0h0Z"/>
        <path class="cls-2" d="M240.12,57.56c7.3-.84,14.53-2.41,21.77-3.64,6.06-1.03,12.13-2,18.2-3.03,1.94-.33,4.25-.82,6.03-1.02.47-.05.48-.8,0-.75-4.42.5-8.84,1.5-13.23,2.24-7.09,1.19-14.17,2.36-21.25,3.62-3.82.68-7.66,1.39-11.52,1.84-.47.05-.48.81,0,.75h0Z"/>
        <path class="cls-2" d="M240.22,62.54c12.32-3.09,24.41-7.03,36.75-10.06,2.98-.73,5.92-1.56,8.85-2.44.46-.14.26-.86-.2-.72-5.42,1.63-10.93,2.88-16.4,4.36-6.43,1.74-12.83,3.63-19.24,5.44-3.31.94-6.63,1.86-9.96,2.7-.47.12-.27.84.2.72h0Z"/>
        <path class="cls-2" d="M240.43,65.25c12.25-3.34,24.49-6.76,36.68-10.34,3.46-1.02,6.95-1.99,10.36-3.19.45-.16.26-.88-.2-.72-6.5,2.28-13.22,4.04-19.84,5.94-5.95,1.71-11.91,3.36-17.88,5.02-3.11.86-6.21,1.73-9.32,2.58-.47.13-.27.85.2.72h0Z"/>
        <path class="cls-2" d="M285.79,49.31c-.23,1,.49,2.15,1.54,2.29.1.01.19.02.29-.04.08-.05.15-.13.17-.22.04-.18-.05-.43-.26-.46-.1-.01-.19-.04-.28-.07s0,0,0,0c0,0-.06-.03-.07-.03-.04-.02-.09-.05-.13-.07-.02-.01-.04-.03-.06-.04-.03-.02-.05-.06,0,0-.03-.04-.08-.06-.11-.1s-.07-.07-.1-.11c-.02-.02-.03-.04-.05-.06.07.07.01.02,0,0-.06-.08-.1-.17-.15-.26-.03-.07.03.07,0,0,0-.02-.02-.05-.02-.07-.02-.05-.03-.09-.04-.14,0-.02-.01-.05-.01-.07v-.02s0-.03,0,.03c.01-.02,0-.11,0-.13,0-.05,0-.1,0-.15,0-.09,0,.04,0,0,0-.03.01-.06.02-.08.04-.19-.06-.41-.26-.46-.19-.04-.42.06-.46.26h0Z"/>
        <path class="cls-2" d="M286.36,51.98c-.27,4.36-.37,8.72-.34,13.08,0,1.02.02,2.05.04,3.07.01.54.02,1.09.04,1.63,0,.34.21,1.25-.07,1.52-.31.3-.98.31-1.34.66s-.58.78-.61,1.26.72.48.75,0c.06-1.16,1.24-.8,1.81-1.32.37-.34.25-.84.23-1.31-.06-2.04-.1-4.09-.1-6.13-.01-4.16.09-8.32.35-12.47.03-.48-.72-.48-.75,0h0Z"/>
        <path class="cls-2" d="M284.07,52.4c-.17,7.49.14,14.99,0,22.48,0,.48.74.48.75,0,.14-7.49-.17-14.98,0-22.48.01-.48-.74-.48-.75,0h0Z"/>
        <path class="cls-2" d="M235.75,75.04c12.78.39,25.58.21,38.37.21h10.33c.48,0,.48-.75,0-.75-11.64,0-23.28.04-34.92-.01-4.59-.02-9.19-.06-13.78-.2-.48-.01-.48.74,0,.75h0Z"/>
        <path class="cls-2" d="M235.85,78.98c1.58-.49,3.18-.85,4.79-1.25.47-.12.27-.84-.2-.72-1.6.4-3.21.75-4.79,1.25-.46.14-.26.87.2.72h0Z"/>
        <path class="cls-2" d="M240.74,77.75c19.17.32,38.34.54,57.51.86,5.57.09,11.15.19,16.72.28.48,0,.48-.74,0-.75-19.37-.32-38.74-.7-58.1-.93-5.38-.06-10.75-.12-16.13-.21-.48,0-.48.74,0,.75h0Z"/>
        <path class="cls-2" d="M284.45,75.25c5.01.54,10.03,1.08,15.03,1.73s10.33,1.06,15.46,1.8c.47.07.68-.65.2-.72-5.04-.73-10.13-1.1-15.19-1.76s-10.33-1.23-15.51-1.79c-.48-.05-.48.7,0,.75h0Z"/>
        <path class="cls-2" d="M235.95,82.65c.84-.4,1.7-.77,2.56-1.13.71-.3,1.43-.64,2.17-.84.46-.13.27-.85-.2-.72-.76.21-1.5.56-2.23.87-.9.38-1.8.77-2.68,1.18-.44.21-.06.85.38.65h0Z"/>
        <path class="cls-2" d="M240.16,77.37c.02.9,0,1.8,0,2.71,0,.2.17.38.38.38s.37-.17.38-.38c0-.9.02-1.8,0-2.71,0-.2-.17-.38-.38-.38s-.38.17-.38.38h0Z"/>
        <path class="cls-2" d="M240.53,80.66c9.19.1,18.37.37,27.56.48,9.85.11,19.7.29,29.54.49,5.42.11,10.85.23,16.27.34.48.01.48-.74,0-.75-19.47-.41-38.94-.74-58.41-.97-4.99-.06-9.97-.29-14.96-.34-.48,0-.48.74,0,.75h0Z"/>
        <path class="cls-2" d="M314.72,78.22c-.74.99-1.26,2.15-1.08,3.41.03.2.28.31.46.26.22-.06.29-.26.26-.46-.15-1.04.41-2.03,1-2.83.12-.16.03-.42-.13-.51-.19-.11-.39-.03-.51.13h0Z"/>
        <path class="cls-2" d="M238.7,80.91c0,14.21-.36,28.42-.17,42.63.05,3.83.13,7.65.17,11.48,0,.48.75.48.75,0-.13-13.47-.27-26.91-.07-40.38.07-4.58.07-9.16.07-13.73,0-.48-.75-.48-.75,0h0Z"/>
        <path class="cls-2" d="M238.7,135.02c-.86,10.41-2.15,20.79-3.73,31.12-.07.47.65.68.72.2,1.6-10.39,2.89-20.84,3.76-31.32.04-.48-.71-.48-.75,0h0Z"/>
        <path class="cls-2" d="M280.91,131.65c7.56-.2,15.13.03,22.69-.21.48-.01.48-.77,0-.75-7.56.24-15.12.01-22.69.21-.48.01-.48.76,0,.75h0Z"/>
        <path class="cls-2" d="M303.43,81.53c-.21,16.51-.21,33.02-.21,49.53,0,.48.75.48.75,0,0-16.51,0-33.02.21-49.53,0-.48-.74-.48-.75,0h0Z"/>
        <path class="cls-2" d="M280.54,81.33c0,16.65,0,33.3,0,49.95,0,.48.75.48.75,0,0-16.65,0-33.3,0-49.95,0-.48-.75-.48-.75,0h0Z"/>
        <path class="cls-2" d="M269.09,80.91c0,8.22.04,16.43-.03,24.65-.04,4.3-.18,8.6-.22,12.9s.13,8.27.25,12.4c.01.48.76.48.75,0-.12-4.05-.28-8.11-.25-12.17.04-4.38.19-8.76.22-13.14.07-8.22.03-16.43.03-24.65,0-.48-.75-.48-.75,0h0Z"/>
        <path class="cls-2" d="M269.26,130.48c-8.48,0-16.97.12-25.45.18-1.51.01-3.01.03-4.52.03-.48,0-.48.75,0,.75,8.63,0,17.26-.12,25.89-.18,1.36,0,2.72-.03,4.08-.03.48,0,.48-.75,0-.75h0Z"/>
        <path class="cls-2" d="M273.65,127.02c2.32,1.43,4.56,2.99,6.88,4.42.41.25.79-.4.38-.65-2.32-1.42-4.56-2.99-6.88-4.42-.41-.25-.79.4-.38.65h0Z"/>
        <path class="cls-2" d="M273.46,80.91c-.18,15.26.18,30.53,0,45.79,0,.48.74.48.75,0,.18-15.26-.18-30.53,0-45.79,0-.48-.74-.48-.75,0h0Z"/>
        <path class="cls-2" d="M269.46,127.28c1.46.02,2.92-.03,4.37-.21.2-.03.38-.15.38-.38,0-.18-.17-.4-.38-.38-1.45.18-2.91.23-4.37.21-.48,0-.48.74,0,.75h0Z"/>
        <path class="cls-2" d="M238.33,167.02c6.63-.64,13.28.22,19.91.27,5.4.05,10.79.05,16.19,0,8.9-.09,17.81-.24,26.71-.25,6.97,0,13.95-.08,20.92,0,4.67.05,9.34.38,14.02.45s9.05.09,13.58.11c10.66.04,21.32.04,31.98-.14.48,0,.48-.76,0-.75-18.84.32-37.7.34-56.53-.34-7.3-.26-14.63-.09-21.93-.08-8.53.02-17.06.11-25.58.22-5.65.07-11.31.09-16.96.06-7.41-.04-14.91-1.01-22.3-.29-.48.05-.48.8,0,.75h0Z"/>
        <path class="cls-2" d="M305.9,132.85c10.44,6.88,21.83,11.95,33.52,16.31,3.41,1.27,6.81,2.54,10.17,3.95,2.55,1.07,5.02,2.32,7.54,3.45,3.93,1.76,7.95,3.32,11.93,4.98,2.47,1.03,4.94,2.07,7.37,3.2,1.71.79,3.47,1.58,5.02,2.66.4.28.77-.37.38-.65-3.14-2.18-6.95-3.56-10.44-5.03-4.23-1.79-8.5-3.47-12.71-5.29-2.13-.92-4.19-1.98-6.31-2.92-3.06-1.37-6.18-2.59-9.32-3.78-3.4-1.29-6.84-2.5-10.21-3.86-2.91-1.18-5.74-2.53-8.6-3.82-6.23-2.81-12.24-6.08-17.96-9.84-.4-.27-.78.38-.38.65h0Z"/>
        <path class="cls-2" d="M146.65,42.05c.07-.82.11-1.76-.34-2.49-.16-.27-.38-.49-.65-.65-.36-.21-2.12-.37-1.86-1.14l-.36.28c.68.04,1.11-.53,1.07-1.2-.07-1.41-2.84-1.37-2.68-2.64.02-.19-.19-.39-.38-.38-1.81.2-4.17.38-5.36-1.31-.14-.2-.4-.25-.59-.08-1.43,1.33-3.58.42-3.63-1.53l-.28.36c.71-.19,1.18-.55,1.53-1.2.12-.22.01-.48-.22-.55-1.77-.55-3.1-1.77-3.84-3.46-.07-.15-.28-.21-.42-.17-.62.15-1.17.42-1.63.87-.23.23-.35.5-.55.75-.29.35-.41.36-.91.49-1.07.29-2.19.48-3.27.71-.42.09-.86.3-1.27.11-.31-.14-.65-.69-.93-.92-1.1-.93-2.55-1.74-4-1.92-.63-.08-1.13.01-1.67.34-.3.18-.56.45-.88.6-1.03.48-2.11-.16-2.18-1.28-.02-.28-.31-.48-.56-.32-1.01.61-2.04,1-3.2,1.22l.47.36c-.15-1.32.21-2.47,1.14-3.43.28-.28,0-.69-.36-.63-1.22.22-2.48.75-3.73.68-.64-.04-1.35-.23-1.82-.7-.67-.67-.36-2.75,1.02-2.07.18.09.41.05.51-.13.47-.81.93-1.62,1.4-2.43.11-.2.02-.5-.22-.55-1.77-.37-3.37-.2-5.06.39-.76.26-2.43.91-2.26-.63.05-.44.46-1.05.66-1.48.24-.54.49-1.08.73-1.62.1-.23.02-.46-.22-.55-1.71-.61-3.59.44-3.98,2.21l.63-.17c-1.09-.89-2.32-1.29-3.73-1.16l.36.28c-.32-.8,1.13-1.42.59-2.35-.5-.87-2.42-.68-3.23-.7-1.33-.03-2.69.08-3.92.64-.89.4-1.65,1.31-2.68,1.23-.94-.08-1.78-.85-2.46-1.43-1.09-.94-2.22-1.76-3.54-2.35-.64-.29-1.3-.53-1.98-.71-.24-.06-.98-.12-1.18-.25-.87-.6.26-.93.68-1.1.93-.37,1.58-.6,1.66-1.72.14-1.88-.18-3.9-.27-5.78-.01-.24-.23-.43-.47-.36-.8.22-1.04.84-1.17,1.61-.08.48-.08.98-.24,1.44-.27.78-.99,1.35-1.57,1.89-1.09,1.02-2.22,2.03-3.53,2.78s-2.73.88-4.07,1.46-2.02,1.8-3.18,2.57c-.62.41-1.71.99-2.49.91-.96-.1-.93-.97-1.25-1.65-.87-1.87-3.69-.92-4.44-2.6-.2-.44-.84-.06-.65.38.36.82,1.13,1.11,1.95,1.31.56.14,1.18.2,1.7.46.75.38.79,1.09,1.09,1.78,1,2.28,4.23.42,5.44-.73.6-.57,1.1-1.23,1.85-1.62.79-.41,1.7-.51,2.53-.78,1.33-.43,2.51-1.16,3.61-2.02s2.33-1.84,3.19-2.96c.33-.43.52-.87.64-1.4.13-.61.01-1.89.8-2.11l-.47-.36c.05.99.09,1.99.14,2.98.04.78.34,2.06.13,2.8-.39,1.36-2.3.85-2.72,2.24-.31,1.04.51,1.22,1.32,1.38,1.79.36,3.49,1.12,4.95,2.21,1.08.81,2.04,1.95,3.35,2.37,1.43.46,2.17-.41,3.35-1.04,1.61-.86,3.56-.78,5.33-.62,2.12.19.03,1.29.49,2.42.06.14.19.29.36.28,1.2-.11,2.25.17,3.2.94.2.17.56.13.63-.17.31-1.39,1.72-2.16,3.05-1.69l-.22-.55c-.5,1.1-1.41,2.43-1.56,3.64-.08.6.15,1.13.69,1.4.69.35,1.61.1,2.3-.11,1.7-.54,3.16-.86,4.95-.49l-.22-.55c-.47.81-.93,1.62-1.4,2.43l.51-.13c-1.61-.79-3.15,1.18-2.36,2.68,1.3,2.48,4.7,1.15,6.71.79l-.36-.63c-1.05,1.09-1.53,2.45-1.36,3.96.03.25.21.41.47.36,1.22-.23,2.32-.66,3.38-1.3l-.56-.32c.09,1.46,1.53,2.66,2.99,2.08.58-.23.99-.7,1.6-.89.72-.22,1.43,0,2.13.28,1.35.52,2.48,1.42,3.39,2.53.09.1.24.12.36.1,1.64-.36,3.27-.71,4.91-1.07.38-.08.69-.09.94-.37s.32-.72.61-1.01c.36-.36.81-.56,1.29-.68l-.42-.17c.82,1.87,2.35,3.2,4.29,3.81l-.22-.55c-.2.47-.56.76-1.08.86-.16.04-.28.2-.28.36.07,2.62,2.99,3.84,4.91,2.06l-.59-.08c1.37,1.95,3.86,1.91,6.01,1.68l-.38-.38c-.07.57.11.96.55,1.34.19.16.37.27.6.38.13.06.26.1.39.15.56.1.84.5.82,1.22-.17,0-.31.12-.36.28-.24.69.14,1.26.77,1.58s1.05.17,1.58.7c.63.63.56,1.35.48,2.2-.04.48.71.48.75,0h0Z"/>
        <path class="cls-2" d="M279.81,48.35l-.92-1.11.06.45c.78-1.46,1.72-2.79,2.83-4.01.09-.1.14-.23.1-.36-.2-.63-.58-1.01-1.14-1.36-.39-.25-.95-.41-1.27-.74-.28-.29-.8-1.24-.1-1.39.25-.05.33-.35.22-.55-.95-1.79-1.91-3.58-2.86-5.37l-.06.45c.57-.45,1.33,1.64,1.62,1.98.2.23.42.39.69.52.7.34,1.6.3,2.26-.14.57-.38.88-1.04.9-1.71.04-1-1.42-2.52.17-2.89l-.42-.17c.45,1.04,1.25,1.7,2.35,1.97.12.03.28,0,.36-.1,1.65-2.12,3.83-.67,5.87-1.62,1.1-.51,1.83-1.66,1.25-2.82l-.13.51c.54-.27,1.08-.54,1.62-.8.16-.08.2-.27.17-.42-.15-.75-.49-1.24-1.1-1.69v.65c2.24-1.32,4.91-3.29,4.38-6.23l-.36.47c.79.04,1.3-.45,1.71-1.08.27-.42.47-.88.74-1.31.14-.22.29-.54.52-.67.42-.25.37-.11.7.23.66.69,1.98,1.71,3.05,1.37.48-.16.99-.88,1.31-1.26.5-.6.8-1.38,1.29-1.95.85-.98,2.31.47,3.4-.36.86-.65.58-1.77.97-2.64.53-1.19,1.96-.35,2.86-.08.76.24,1.58.35,2.38.34,1.5-.01,2.93-.46,4.2-1.24l-.55-.42c-.45,1.51.76,3.03,2.34,2.89l-.38-.38c.17,2.11,2.61,3.6,4.59,2.72,1.3-.58,3.03-4.73,4.06-1.81.27.76.67,1.79,1.69,1.2l-.55-.42c-.3.77-.77,1.36-1.41,1.87-.15.12-.15.41,0,.53.87.7,1.78,1.29,2.78,1.78v-.65c-1.28.66-2.6,1.05-4.04,1.18-.3.03-.44.29-.32.56.49,1.09.46,2.22-.06,3.3-.09.19-.04.52.22.55,1.52.21,5.03,1.13,3.49,3.4-.1.15-.04.44.13.51,1.52.66,3.04.83,4.67.52l-.46-.26c.43,1.17-.28,2,.76,2.94.66.59,1.57.81,2.42.92,1.13.15,2.28,0,3.4.29.57.15,1.42.45,1.71,1.03.49.99-.54,2-1.31,2.51-.3.2-.2.71.19.7,1.01-.03,1.37,1.28,1.78,2.02.35.64.77,1.25,1.45,1.57,1.61.76,3.5-.33,4.8-1.23l-.56-.32c.09.89.8,1.21,1.64,1.27,1.8.14,3.76-.22,5.55-.35.22-.01.46-.23.36-.47-.13-.33-.27-.66-.4-.99l-.36.47c.68-.08,1.14-.34,1.62-.83.62-.64,1.66-2.64,2.78-1.75l-.06-.45-.62,1.34c-.1.21-.03.49.22.55l4.4,1.04c.47.11.67-.61.2-.72l-4.4-1.04.22.55.62-1.34c.06-.14.08-.35-.06-.45-2.2-1.75-3.18,2.15-4.93,2.36-.21.03-.46.22-.36.47.13.33.27.66.4.99l.36-.47c-.79.05-6.33.89-6.44-.17-.03-.26-.31-.5-.56-.32-.89.62-1.93,1.28-3.04,1.36-1.23.09-1.82-.74-2.32-1.7s-.99-2.17-2.29-2.13l.19.7c.83-.55,1.9-1.57,1.88-2.66s-1.12-1.8-2.01-2.11c-1.29-.46-2.62-.28-3.94-.45-.69-.09-1.75-.27-2.19-.9s-.11-1.7-.37-2.42c-.07-.2-.25-.3-.46-.26-1.41.27-2.78.13-4.1-.44l.13.51c.62-.91.5-2.03-.16-2.9-.88-1.16-2.43-1.41-3.77-1.6l.22.55c.65-1.35.66-2.7.06-4.06l-.32.56c1.57-.14,3.02-.56,4.42-1.28.24-.12.25-.52,0-.65-.94-.47-1.81-1.01-2.63-1.67v.53c.75-.6,1.25-1.31,1.61-2.2.13-.32-.29-.58-.55-.42-.38.22-.67-1.53-.85-1.79s-.43-.45-.74-.55c-.71-.23-1.52.08-2.04.57-.94.87-1.23,2.35-2.71,2.51-1.34.15-2.76-.83-2.87-2.21-.02-.19-.16-.39-.38-.38-1.08.1-1.93-.9-1.61-1.94.09-.31-.27-.59-.55-.42-1.57.97-3.42,1.37-5.25,1.01-1.11-.21-2.52-1.31-3.66-.75-.84.42-.92,1.41-1.08,2.22-.05.27-.1.67-.26.9-.45.66-1.02.41-1.59.27-.47-.12-.96-.3-1.45-.21-.6.11-.6.45-.88.98-.4.75-.95,1.7-1.63,2.22-1.02.79-2.14.05-2.85-.86-.28-.35-.24-.5-.71-.5-1.85-.02-1.7,3.34-3.37,3.26-.26-.01-.4.25-.36.47.46,2.54-2.14,4.27-4.03,5.38-.26.15-.22.48,0,.65.46.32.71.73.75,1.24l.17-.42c-.54.27-1.08.54-1.62.8-.19.09-.22.34-.13.51.8,1.61-1.68,1.97-2.53,1.97s-1.62-.1-2.42.13c-.53.15-1.01.41-1.43.77s-.38.48-.88.34c-.63-.18-1.02-.84-1.26-1.4-.07-.15-.28-.21-.42-.17-.75.17-1.37.71-1.47,1.51-.03.27,0,.45.11.68.23.49.62.63.65,1.27.02.53-.23.98-.68,1.25-1.14.66-1.88-.27-2.31-1.24-.15-.35-.27-.71-.57-.97-.53-.46-1.15-.49-1.69-.07-.13.1-.13.32-.06.45.95,1.79,1.91,3.58,2.86,5.37l.22-.55c-1.35.29-.92,2.04-.14,2.72.31.27.69.42,1.04.62s.71.34.82.75c.11.43-.19.59-.46.91-.81,1-1.51,2.08-2.12,3.22-.09.16-.05.32.06.45l.92,1.11c.31.37.84-.16.53-.53h0Z"/>
        <path class="cls-2" d="M79.79,142.84c-9.11,7.94-19.33,14.7-29.31,21.47-11.73,7.96-23.61,15.69-35.48,23.44-4.96,3.24-9.93,6.47-14.83,9.8-.4.27-.02.92.38.65,9.9-6.72,19.99-13.15,29.99-19.72,11.96-7.85,23.91-15.75,35.53-24.11,4.87-3.5,9.72-7.06,14.25-11.01.36-.32-.17-.85-.53-.53h0Z"/>
      </g>
    </g>
  </g>
</svg>