<?xml version="1.0" encoding="UTF-8"?>
<svg id="Capa_2" data-name="Capa 2" xmlns="http://www.w3.org/2000/svg" viewBox="0 0 467.01 218.03">
  <defs>
    <style>
      .cls-1 {
        opacity: .3;
      }

      .cls-1, .cls-2 {
        fill: #fff;
      }
    </style>
  </defs>
  <g id="LA_MUELA" data-name="LA MUELA">
    <g>
      <g>
        <path class="cls-2" d="M307.34,52.47c.39,17.41.47,34.83.58,52.24.02,3.9.04,7.8.04,11.7,0,.48.75.48.75,0,0-17.45-.19-34.91-.43-52.35-.05-3.86-.11-7.72-.19-11.58-.01-.48-.76-.48-.75,0h0Z"/>
        <path class="cls-2" d="M362.25,88.76c-.78,16.66.03,33.35-.33,50.01-.01.48.74.48.75,0,.36-16.67-.45-33.35.33-50.01.02-.48-.73-.48-.75,0h0Z"/>
        <path class="cls-2" d="M307.49,52.89c9.91,6.28,20.14,12.26,29.35,19.57.37.3.91-.23.53-.53-9.26-7.34-19.54-13.36-29.5-19.68-.41-.26-.79.39-.38.65h0Z"/>
        <path class="cls-2" d="M338.09,73.29c8.2,5.12,15.88,11.1,24.35,15.79.42.23.8-.41.38-.65-8.46-4.69-16.15-10.68-24.35-15.79-.41-.26-.79.39-.38.65h0Z"/>
        <path class="cls-2" d="M94.89,132.56c9.03-3.31,17.97-6.85,26.98-10.2.45-.17.25-.89-.2-.72-9.01,3.35-17.95,6.89-26.98,10.2-.45.16-.26.89.2.72h0Z"/>
        <path class="cls-2" d="M244.6,76.29c7.48-2.74,14.95-5.51,22.42-8.27,9.81-3.62,19.61-7.25,29.41-10.88,3.78-1.4,7.56-2.8,11.34-4.21.45-.17.25-.89-.2-.72-7.86,2.92-15.73,5.83-23.59,8.74-9.69,3.59-19.39,7.17-29.09,10.75-3.5,1.29-7,2.58-10.5,3.87-.45.16-.26.89.2.72h0Z"/>
        <path class="cls-2" d="M122.86,121.7c4.9-1.57,9.71-3.46,14.53-5.25,9.04-3.35,18.07-6.73,27.09-10.12,10.6-3.98,21.19-7.97,31.78-11.97,9.55-3.61,19.11-7.21,28.66-10.82,5.79-2.19,11.58-4.38,17.38-6.55.33-.12.66-.25.99-.37.45-.17.25-.89-.2-.72-5.18,1.93-10.35,3.89-15.53,5.85-9.2,3.48-18.4,6.95-27.61,10.43-10.6,4-21.2,8-31.81,11.99-9.4,3.53-18.79,7.06-28.2,10.55-5.47,2.03-10.92,4.11-16.44,5.99-.28.1-.56.19-.84.28-.46.15-.26.87.2.72h0Z"/>
        <path class="cls-2" d="M244.12,75.93c-.75,16.23-.01,32.46,0,48.7,0,.48.75.48.75,0-.01-16.23-.75-32.47,0-48.7.02-.48-.73-.48-.75,0h0Z"/>
        <path class="cls-2" d="M296.3,110.8c15.7,7.66,31.32,15.48,47.09,22.99,4.47,2.13,8.95,4.23,13.45,6.3.44.2.82-.45.38-.65-15.82-7.27-31.42-14.98-47.04-22.66-4.5-2.21-9-4.42-13.5-6.62-.43-.21-.81.44-.38.65h0Z"/>
        <path class="cls-2" d="M296.07,110.65c.04,1.59.05,3.18.05,4.77,0,.48.75.48.75,0,0-1.59,0-3.18-.05-4.77-.01-.48-.76-.48-.75,0h0Z"/>
        <path class="cls-2" d="M296.63,115.74c1.03.59,2.01,1.27,3.01,1.91,1.78,1.14,3.56,2.29,5.32,3.47.74.5,1.48,1,2.2,1.53.39.29.76-.36.38-.65-3-2.23-6.22-4.19-9.37-6.18-.38-.24-.76-.5-1.16-.73-.42-.24-.8.41-.38.65h0Z"/>
        <path class="cls-2" d="M307.27,122.68c7.95,3.32,15.8,6.89,23.67,10.4,3.88,1.73,7.76,3.44,11.66,5.1,3.26,1.38,6.43,2.95,9.72,4.25.45.18.64-.55.2-.72-3.53-1.4-6.95-3.07-10.44-4.56-3.9-1.66-7.78-3.38-11.66-5.11-7.63-3.41-15.24-6.86-22.95-10.08-.44-.19-.64.54-.2.72h0Z"/>
        <path class="cls-2" d="M296.39,110.12c-8.25,2.32-16.41,5.02-24.71,7.12-6.2,1.57-12.43,3.04-18.62,4.67-2.89.76-5.78,1.55-8.66,2.36-.46.13-.27.85.2.72,12.7-3.56,25.56-6.48,38.24-10.13,4.59-1.32,9.15-2.73,13.75-4.02.46-.13.27-.85-.2-.72h0Z"/>
        <path class="cls-2" d="M296.06,115.05c-16.3,4.45-32.66,8.65-48.97,13.06-4.32,1.17-8.6,2.43-12.89,3.72-.46.14-.26.86.2.72,15.86-4.76,31.94-8.78,47.93-13.03,4.64-1.24,9.29-2.48,13.92-3.75.47-.13.27-.85-.2-.72h0Z"/>
        <path class="cls-2" d="M197.73,96c.07,11.46.01,22.91-.03,34.37,0,2.31-.02,4.62-.04,6.93,0,.48.74.48.75,0,.14-11.52.09-23.05.09-34.57,0-2.24,0-4.49-.01-6.73,0-.48-.75-.48-.75,0h0Z"/>
        <path class="cls-2" d="M194.44,97.65c.23,10.79-.13,21.59-.11,32.38,0,2.81.02,5.61.11,8.42.01.48.76.48.75,0-.34-11.2,0-22.42.03-33.62,0-2.39.02-4.79-.03-7.18-.01-.48-.76-.48-.75,0h0Z"/>
        <path class="cls-2" d="M156.93,111.47c.29,12.39.65,24.79.66,37.18,0,.48.75.48.75,0,0-12.39-.37-24.79-.66-37.18-.01-.48-.76-.48-.75,0h0Z"/>
        <path class="cls-2" d="M154.3,112.12c.38,12.3.44,24.6.69,36.9,0,.48.76.48.75,0-.25-12.3-.31-24.6-.69-36.9-.02-.48-.77-.48-.75,0h0Z"/>
        <path class="cls-2" d="M194.92,138.81c5.28-1.61,10.66-2.94,15.98-4.4,8.5-2.34,17.01-4.67,25.51-7.04,2.4-.67,4.83-1.29,7.21-2.05.46-.15.26-.87-.2-.72-5.8,1.85-11.75,3.31-17.62,4.93-8.35,2.3-16.7,4.6-25.05,6.89-2.01.55-4.04,1.06-6.03,1.67-.46.14-.26.86.2.72h0Z"/>
        <path class="cls-2" d="M232.89,132.25c-10.98,2.74-21.92,5.63-32.86,8.52-11.13,2.94-22.25,5.91-33.37,8.87-3.78,1.01-7.57,2.02-11.36,3.01-.47.12-.27.84.2.72,8.21-2.13,16.39-4.35,24.59-6.53,11.88-3.16,23.76-6.32,35.66-9.42,5.77-1.5,11.55-3,17.34-4.44.47-.12.27-.84-.2-.72h0Z"/>
        <path class="cls-2" d="M193.4,138.41c-6.27,1.69-12.47,3.62-18.74,5.31s-12.89,3.79-19.43,5.22c-.47.1-.27.83.2.72,6.54-1.43,12.97-3.48,19.43-5.22s12.47-3.62,18.74-5.31c.47-.13.27-.85-.2-.72h0Z"/>
        <path class="cls-2" d="M94.41,132.19c-.02,8.67-.39,17.34-.54,26-.05,2.63-.09,5.26-.11,7.89,0,.48.75.48.75,0,.09-10.03.37-20.07.59-30.1.03-1.26.07-2.53.07-3.79,0-.48-.75-.48-.75,0h0Z"/>
        <path class="cls-2" d="M122.38,121.34v36.85c0,.48.75.48.75,0v-36.85c0-.48-.75-.48-.75,0h0Z"/>
        <path class="cls-2" d="M153.92,149.27c-7.41,2.15-14.86,4.15-22.3,6.2-11.43,3.15-22.86,6.29-34.3,9.4-4.71,1.28-9.42,2.56-14.14,3.81-.47.12-.27.85.2.72,9.64-2.54,19.25-5.19,28.86-7.82,10.83-2.97,21.65-5.95,32.47-8.95,3.14-.87,6.28-1.73,9.41-2.64.46-.13.27-.86-.2-.72h0Z"/>
        <path class="cls-2" d="M153.92,152.89c-8.58,2.11-17.11,4.49-25.65,6.76-11.98,3.18-23.95,6.38-35.93,9.57-3.05.81-6.1,1.66-9.17,2.42-.47.12-.27.84.2.72,7.9-1.97,15.75-4.18,23.62-6.27,12.16-3.24,24.33-6.48,36.5-9.7,3.54-.94,7.07-1.91,10.63-2.78.47-.11.27-.84-.2-.72h0Z"/>
        <path class="cls-2" d="M82.57,169.05c.03.59.1,1.17.16,1.75.03.25.05.49.06.74,0,.1,0,.2,0,.3,0,.02,0,.03,0,.05,0,.07.02-.05,0-.02-.01.03-.01.06-.02.09-.07.19.08.41.26.46.21.06.39-.07.46-.26.06-.17.06-.37.05-.55,0-.26-.03-.51-.06-.76-.06-.6-.14-1.19-.17-1.79,0-.2-.17-.38-.38-.38-.2,0-.38.17-.38.38h0Z"/>
        <path class="cls-2" d="M358.68,152.44c-4.05-.03-8.14-.22-12.19.03s-7.79,1.11-11.64,1.82c-8.22,1.51-16.44,3.03-24.66,4.54-4.68.86-9.36,1.72-14.04,2.58-.47.09-.27.81.2.72,10.38-1.91,20.76-3.82,31.14-5.73,5.17-.95,10.33-2.04,15.53-2.81s10.47-.44,15.67-.4c.48,0,.48-.75,0-.75h0Z"/>
        <path class="cls-2" d="M294.3,161.12c-20.71,1.27-41.34,3.62-61.8,7.06-5.79.97-11.56,2.04-17.32,3.18-.47.09-.27.82.2.72,20.28-4.03,40.77-7.01,61.36-8.88,5.85-.53,11.7-.97,17.56-1.33.48-.03.48-.78,0-.75h0Z"/>
        <path class="cls-2" d="M213.65,170.49c-11.83.69-23.6,2.14-35.24,4.32-.47.09-.27.81.2.72,11.58-2.17,23.28-3.6,35.04-4.29.48-.03.48-.78,0-.75h0Z"/>
        <path class="cls-2" d="M176.65,173.51c-14.48,3.07-29.03,5.79-43.64,8.17-.48.08-.27.8.2.72,14.61-2.37,29.16-5.1,43.64-8.17.47-.1.27-.82-.2-.72h0Z"/>
        <path class="cls-2" d="M131.11,181.98l-9.39,1.04-2.21.24c-.74.08-1.53.09-2.26.25-.68.15-.7,1.08.05.95.48-.08.27-.8-.2-.72h-.06c.12.04.24.08.36.11.02.35.17.46.45.35l.28-.03.97-.11,1.66-.18,3.45-.38,6.9-.76c.47-.05.48-.8,0-.75h0Z"/>
        <path class="cls-2" d="M115.85,185.28c-7.77,1.3-15.46,3.04-23.14,4.79-.47.11-.27.83.2.72,7.68-1.74,15.37-3.49,23.14-4.79.47-.08.27-.8-.2-.72h0Z"/>
        <path class="cls-2" d="M91.03,190.12l-24.86,6.06c-.47.11-.27.84.2.72l24.86-6.06c.47-.11.27-.84-.2-.72h0Z"/>
        <path class="cls-2" d="M63.1,196.41c-10.7,1.75-21.3,4.07-31.76,6.96-.46.13-.27.85.2.72,10.45-2.89,21.05-5.21,31.76-6.96.48-.08.27-.8-.2-.72h0Z"/>
        <path class="cls-2" d="M71.98,127.29c11.3-4.35,22.55-8.76,33.75-13.34,8-3.27,16.02-6.48,23.97-9.88,6.37-2.72,12.75-5.4,19.15-8.04.44-.18.25-.91-.2-.72-9.65,3.97-19.22,8.14-28.85,12.16-8.59,3.58-17.24,7.02-25.86,10.53-7.33,2.99-14.78,5.73-22.17,8.57-.45.17-.25.9.2.72h0Z"/>
        <path class="cls-2" d="M150.17,95.38c20.04-8.3,39.98-16.86,59.97-25.27,5.56-2.34,11.12-4.67,16.69-6.98.44-.18.25-.91-.2-.72-20.04,8.3-39.98,16.86-59.97,25.27-5.56,2.34-11.12,4.67-16.69,6.98-.44.18-.25.91.2.72h0Z"/>
        <path class="cls-2" d="M188.33,83.2c15.24-6.31,30.46-12.7,45.68-19.06,18.51-7.74,37.03-15.5,55.54-23.23,7.49-3.13,14.99-6.26,22.49-9.37.44-.18.25-.91-.2-.72-15.24,6.31-30.46,12.7-45.68,19.06-18.51,7.74-37.03,15.5-55.54,23.23-7.49,3.13-14.99,6.26-22.49,9.37-.44.18-.25.91.2.72h0Z"/>
        <path class="cls-2" d="M228.48,62.47c21.75-9.18,43.51-18.33,65.27-27.49,6.1-2.57,12.2-5.14,18.3-7.72.44-.18.25-.91-.2-.72-21.75,9.18-43.51,18.33-65.27,27.49-6.1,2.57-12.2,5.14-18.3,7.72-.44.18-.25.91.2.72h0Z"/>
        <path class="cls-2" d="M311.76,27.23c1.57,1.13,3.05,2.44,4.55,3.66,3.11,2.54,6.22,5.08,9.33,7.63,6.83,5.59,13.65,11.2,20.55,16.72,1.16.93,2.32,1.85,3.49,2.75,3.05,2.36,5.79,5.11,8.88,7.42.39.29.76-.36.38-.65-2.99-2.23-5.63-4.9-8.58-7.18-1-.77-1.99-1.55-2.97-2.33-3.08-2.46-6.14-4.94-9.2-7.43-6.9-5.62-13.77-11.27-20.66-16.89-1.78-1.45-3.52-3-5.39-4.34-.39-.28-.77.37-.38.65h0Z"/>
        <path class="cls-2" d="M390.52,84.2c-9.11-5.54-18.16-11.17-27.25-16.75-1.47-.9-2.93-1.81-4.41-2.7-.41-.25-.79.4-.38.65,8.39,5.04,16.67,10.25,25,15.37,2.22,1.36,4.43,2.72,6.65,4.07.41.25.79-.4.38-.65h0Z"/>
        <path class="cls-2" d="M311.76,31.5c1.57,1.13,3.05,2.44,4.55,3.66,3.11,2.54,6.22,5.08,9.33,7.63,6.83,5.59,13.65,11.2,20.55,16.72,1.16.93,2.32,1.85,3.49,2.75,3.05,2.36,5.79,5.11,8.88,7.42.39.29.76-.36.38-.65-2.99-2.23-5.63-4.9-8.58-7.18-1-.77-1.99-1.55-2.97-2.33-3.08-2.46-6.14-4.94-9.2-7.43-6.9-5.62-13.77-11.27-20.66-16.89-1.78-1.45-3.52-3-5.39-4.34-.39-.28-.77.37-.38.65h0Z"/>
        <path class="cls-2" d="M390.45,87.45c-8.97-5.45-18.12-10.61-27.21-15.87-1.46-.85-2.93-1.69-4.38-2.55-.42-.25-.79.4-.38.65,8.26,4.94,16.67,9.63,24.97,14.5,2.21,1.3,4.42,2.6,6.62,3.93.41.25.79-.4.38-.65h0Z"/>
        <path class="cls-2" d="M311.58,26.9c.08,1.43,0,2.85,0,4.28,0,.48.75.48.75,0,0-1.43.08-2.85,0-4.28-.03-.48-.78-.48-.75,0h0Z"/>
        <path class="cls-2" d="M72.19,130.06c10.06-3.85,20.19-7.55,30.17-11.59,5.48-2.22,10.96-4.45,16.43-6.68,8.34-3.4,16.67-6.8,25.01-10.2s16.78-6.86,25.17-10.3c5.64-2.31,11.29-4.62,16.92-6.96.37-.15.74-.31,1.12-.47.44-.18.25-.91-.2-.72-5.09,2.13-10.2,4.21-15.3,6.31-8.2,3.36-16.4,6.72-24.6,10.07s-16.99,6.94-25.49,10.4c-5.99,2.44-11.97,4.88-17.97,7.31-8.42,3.41-16.95,6.56-25.44,9.81l-6.03,2.31c-.45.17-.25.9.2.72h0Z"/>
        <path class="cls-2" d="M389.89,84.48v3.29c0,.48.75.48.75,0v-3.29c0-.48-.75-.48-.75,0h0Z"/>
        <path class="cls-2" d="M362.87,96.04c9.06-2.97,18.25-5.56,27.49-7.91.47-.12.27-.84-.2-.72-9.24,2.35-18.43,4.94-27.49,7.91-.46.15-.26.87.2.72h0Z"/>
        <path class="cls-2" d="M71.57,127.01c-.04.88.04,1.76.22,2.62.04.2.27.31.46.26.21-.06.3-.26.26-.46-.17-.8-.23-1.61-.19-2.42,0-.2-.18-.38-.38-.38-.21,0-.37.17-.38.38h0Z"/>
        <path class="cls-2" d="M71.94,130.5c7.27,2.87,15,4.45,22.36,7.06.46.16.65-.56.2-.72-7.36-2.6-15.09-4.19-22.36-7.06-.45-.18-.64.55-.2.72h0Z"/>
        <path class="cls-2" d="M198.21,96.36c5.51-1.76,10.9-3.97,16.3-6.02,7.33-2.79,14.64-5.6,21.94-8.47,2.21-.87,4.43-1.71,6.6-2.66.44-.19.06-.84-.38-.65-5.12,2.22-10.37,4.14-15.57,6.15-7.29,2.82-14.59,5.62-21.92,8.35-2.38.88-4.75,1.81-7.17,2.58-.46.15-.26.87.2.72h0Z"/>
        <path class="cls-2" d="M157.41,111.83c12.53-4.52,25.06-9.08,37.51-13.82.45-.17.25-.9-.2-.72-12.45,4.74-24.98,9.3-37.51,13.82-.45.16-.26.89.2.72h0Z"/>
        <path class="cls-2" d="M154.57,111.76c-8.46,3.24-17.1,6.05-25.64,9.06-1.98.7-3.97,1.4-5.94,2.13-.45.17-.26.89.2.72,8.84-3.25,17.78-6.25,26.66-9.4,1.65-.58,3.3-1.16,4.93-1.79.45-.17.25-.9-.2-.72h0Z"/>
        <path class="cls-2" d="M154.9,126.9c-10.48,4.19-21.2,7.67-31.92,11.19-.46.15-.26.87.2.72,10.72-3.52,21.43-7,31.92-11.19.44-.18.25-.9-.2-.72h0Z"/>
        <path class="cls-2" d="M155.08,139.99c-5.03,1.83-10.11,3.52-15.24,5.06-5.7,1.7-11.37,3.62-17.19,4.89-.47.1-.27.83.2.72,5.81-1.26,11.49-3.19,17.19-4.89,5.13-1.53,10.21-3.23,15.24-5.06.45-.16.26-.89-.2-.72h0Z"/>
        <path class="cls-2" d="M194.35,113.9c-6.17,2.01-12.35,4.01-18.52,6.02-3.06,1-6.13,2.01-9.18,3.03-1.57.52-3.13,1.05-4.7,1.59-.7.24-1.41.48-2.11.72-.65.22-1.45.64-2.14.74-.48.07-.27.79.2.72.63-.09,1.31-.45,1.9-.65.78-.27,1.56-.54,2.34-.81,1.56-.53,3.13-1.06,4.7-1.59,3.06-1.02,6.12-2.03,9.18-3.03,6.17-2.02,12.34-4.02,18.52-6.02.46-.15.26-.87-.2-.72h0Z"/>
        <path class="cls-2" d="M194.39,128.54c-11.96,3.87-24.12,7.08-36.22,10.53-.46.13-.27.86.2.72,12.09-3.44,24.25-6.65,36.22-10.53.46-.15.26-.87-.2-.72h0Z"/>
        <path class="cls-2" d="M198.65,113.38c12-4.34,24.13-8.33,36.26-12.29,3.01-.98,6.03-1.96,9.04-2.92.46-.15.26-.87-.2-.72-12.02,3.84-24.01,7.8-35.95,11.92-3.12,1.08-6.24,2.17-9.35,3.29-.45.16-.26.89.2.72h0Z"/>
        <path class="cls-2" d="M198.55,127.89c12.83-3.66,25.6-7.58,38.29-11.69,2.45-.79,4.9-1.59,7.33-2.46.45-.16.26-.89-.2-.72-11.72,4.22-23.75,7.68-35.68,11.24-3.31.99-6.62,1.96-9.94,2.91-.46.13-.27.86.2.72h0Z"/>
        <path class="cls-2" d="M138.55,118c.16,11.86.28,23.72.28,35.58,0,.48.75.48.75,0,0-11.86-.13-23.72-.28-35.58,0-.48-.76-.48-.75,0h0Z"/>
        <path class="cls-2" d="M130.64,120.94c.1,11.68.45,23.39.26,35.07,0,.48.74.48.75,0,.19-11.68-.16-23.39-.26-35.07,0-.48-.75-.48-.75,0h0Z"/>
        <path class="cls-2" d="M146.83,115.25c-.04,12.11-.04,24.21,0,36.32,0,.48.75.48.75,0-.03-12.11-.04-24.21,0-36.32,0-.48-.75-.48-.75,0h0Z"/>
        <path class="cls-2" d="M165.37,108.75c.34,12.42.77,24.84.77,37.27,0,.48.75.48.75,0,0-12.42-.43-24.85-.77-37.27-.01-.48-.76-.48-.75,0h0Z"/>
        <path class="cls-2" d="M174.81,105.37c-.26,12.74-.23,25.44.16,38.17.01.48.76.48.75,0-.39-12.73-.41-25.44-.16-38.17,0-.48-.74-.48-.75,0h0Z"/>
        <path class="cls-2" d="M184.84,101.67c.08,10.53-.03,21.05,0,31.58,0,2.61.02,5.22.06,7.83,0,.48.76.48.75,0-.17-10.88-.05-21.77-.04-32.66,0-2.25,0-4.5-.01-6.75,0-.48-.75-.48-.75,0h0Z"/>
        <path class="cls-2" d="M208.09,92.36c-.1,7.02-.16,14.04-.16,21.06s-.12,13.99.08,20.97c.01.48.76.48.75,0-.21-6.98-.09-13.98-.08-20.97s.07-14.04.16-21.06c0-.48-.74-.48-.75,0h0Z"/>
        <path class="cls-2" d="M219.28,88.34c.27,12.45-.03,24.92-.08,37.37,0,1.97-.04,3.95,0,5.93,0,.48.76.48.75,0-.24-11.71.13-23.45.13-35.16,0-2.71,0-5.43-.05-8.14-.01-.48-.76-.48-.75,0h0Z"/>
        <path class="cls-2" d="M230.71,83.83c.43,12.28.43,24.58.66,36.87.05,2.45.09,4.9.18,7.34.02.48.77.48.75,0-.45-12.19-.43-24.4-.66-36.6-.05-2.54-.09-5.08-.18-7.61-.02-.48-.77-.48-.75,0h0Z"/>
        <path class="cls-2" d="M94.11,175.89c.25,4.48.65,8.95.83,13.43.02.48.77.48.75,0-.19-4.48-.59-8.95-.83-13.43-.03-.48-.78-.48-.75,0h0Z"/>
        <path class="cls-2" d="M91.78,176.28c.29,4.71.35,9.44.66,14.15.03.48.78.48.75,0-.31-4.71-.37-9.44-.66-14.15-.03-.48-.78-.48-.75,0h0Z"/>
        <path class="cls-2" d="M83.4,172.59c2.76,1.34,5.71,2.37,8.32,3.99.41.26.79-.39.38-.65-2.61-1.63-5.56-2.65-8.32-3.99-.43-.21-.81.44-.38.65h0Z"/>
        <path class="cls-2" d="M97.73,180.39c3.81,2.21,7.97,3.94,11.52,6.58.39.29.76-.36.38-.65-3.55-2.64-7.7-4.37-11.52-6.58-.42-.24-.8.41-.38.65h0Z"/>
        <path class="cls-2" d="M92.26,176.65l1.97-.66c.19-.06.33-.26.26-.46-.06-.18-.26-.33-.46-.26l-1.97.66c-.19.06-.33.26-.26.46.06.18.26.33.46.26h0Z"/>
        <path class="cls-2" d="M94.33,175.98c1.07.19,2.12.5,3.12.93.19.08.4.05.51-.13.09-.16.05-.43-.13-.51-1.06-.46-2.16-.8-3.3-1.01-.2-.04-.4.05-.46.26-.05.18.06.43.26.46h0Z"/>
        <path class="cls-2" d="M97.29,176.67c.39,4.14.29,8.31.75,12.44.05.47.8.48.75,0-.45-4.13-.36-8.31-.75-12.44-.04-.48-.8-.48-.75,0h0Z"/>
        <path class="cls-2" d="M119.42,169.38c.07,4.72.07,9.43,0,14.15,0,.48.74.48.75,0,.07-4.72.07-9.43,0-14.15,0-.48-.76-.48-.75,0h0Z"/>
        <path class="cls-2" d="M121.96,168.84c.11,4.61.07,9.21.25,13.82.02.48.77.48.75,0-.18-4.6-.15-9.21-.25-13.82-.01-.48-.76-.48-.75,0h0Z"/>
        <path class="cls-2" d="M126.33,169.38c-.16,2.02-.1,4.07-.1,6.09,0,2.36,0,4.72.1,7.07.02.48.77.48.75,0-.11-2.35-.1-4.72-.1-7.07,0-2.02-.06-4.07.1-6.09.04-.48-.71-.48-.75,0h0Z"/>
        <path class="cls-2" d="M119.87,169.81c.83-.26,1.66-.5,2.5-.72.2-.05.32-.27.26-.46s-.26-.31-.46-.26c-.84.22-1.68.46-2.5.72-.19.06-.32.26-.26.46s.27.32.46.26h0Z"/>
        <path class="cls-2" d="M122.26,168.91c.58.34,1.3.37,1.95.47.73.11,1.47.22,2.2.34.2.03.4-.05.46-.26.05-.18-.06-.43-.26-.46-.71-.11-1.41-.22-2.12-.32-.34-.05-.67-.1-1.01-.15-.29-.05-.58-.11-.84-.25-.42-.24-.8.41-.38.65h0Z"/>
        <path class="cls-2" d="M192.47,151.28c.01,7.14,0,14.27.01,21.41,0,.48.75.48.75,0-.01-7.14,0-14.27-.01-21.41,0-.48-.75-.48-.75,0h0Z"/>
        <path class="cls-2" d="M196.26,150.42c.34,7.29-.14,14.62.16,21.92.02.48.77.48.75,0-.29-7.3.18-14.62-.16-21.92-.02-.48-.77-.48-.75,0h0Z"/>
        <path class="cls-2" d="M200.43,150.65c.33,6.99.22,14.03.27,21.03,0,.48.75.48.75,0-.05-7,.07-14.04-.27-21.03-.02-.48-.77-.48-.75,0h0Z"/>
        <path class="cls-2" d="M192.98,151.41c1.13-.28,2.27-.54,3.41-.78.2-.04.31-.27.26-.46-.06-.21-.26-.3-.46-.26-1.14.24-2.28.5-3.41.78-.47.12-.27.84.2.72h0Z"/>
        <path class="cls-2" d="M196.13,150.67c.87-.01,1.74.07,2.6.13.43.03.87.07,1.3.11.15.01.3.03.44.05.03,0,.22.03.08,0,.03,0,.05,0,.08.01.47.11.67-.62.2-.72-.23-.05-.48-.06-.72-.09-.44-.04-.88-.08-1.33-.12-.88-.07-1.77-.15-2.66-.14-.48,0-.48.76,0,.75h0Z"/>
        <path class="cls-2" d="M241.16,139.43c-.11,4.88-.21,9.77-.27,14.66-.03,2.58,0,5.15.07,7.73.04,1.24.08,2.49.12,3.73.02.51-.19,1.47.26,1.85.18.16.46.14.59-.08l.04-.07c.1-.17.04-.42-.13-.51l-.05-.03c-.43-.22-.81.42-.38.65l.05.03-.13-.51-.04.07.59-.08c-.18-.15-.05-1.53-.06-1.78-.02-.62-.04-1.23-.06-1.85-.04-1.11-.07-2.22-.1-3.33-.05-2.34-.04-4.69,0-7.03.07-4.48.15-8.96.25-13.45.01-.48-.74-.48-.75,0h0Z"/>
        <path class="cls-2" d="M246.1,138.12c0,9.4.01,18.8.26,28.19.01.48.76.48.75,0-.25-9.4-.26-18.79-.26-28.19,0-.48-.75-.48-.75,0h0Z"/>
        <path class="cls-2" d="M249.99,139.35c.32,8.9-.03,17.82.17,26.73.01.48.76.48.75,0-.21-8.9.15-17.83-.17-26.73-.02-.48-.77-.48-.75,0h0Z"/>
        <path class="cls-2" d="M241.57,139.56c.92-.3,1.85-.58,2.79-.82.47-.12.94-.23,1.41-.34.2-.04.47-.06.65-.17.19-.12.25-.39.12-.57-.1-.15-.25-.2-.42-.17-.25.04-.36.31-.3.52.13.47.85.27.72-.2v-.03c-.02.1-.03.19-.05.29l.02-.03-.22.17h.03c-.14-.06-.28-.12-.42-.18l.02.03-.04-.29v.03c.05-.07.11-.15.16-.22-.06.03-.22.04-.29.05-.09.02-.18.04-.27.06-.21.05-.41.09-.62.14-.38.09-.76.19-1.14.29-.79.21-1.57.45-2.35.7-.46.15-.26.87.2.72h0Z"/>
        <path class="cls-2" d="M246.26,138.25c1.26.44,2.52.88,3.78,1.32.19.07.41-.08.46-.26.06-.21-.07-.39-.26-.46-1.26-.44-2.52-.88-3.78-1.32-.19-.07-.41.08-.46.26-.06.21.07.39.26.46h0Z"/>
        <path class="cls-2" d="M302.13,124.43c1.53-.62,3.06-1.23,4.59-1.85.19-.08.32-.25.26-.46-.05-.18-.27-.34-.46-.26-1.53.62-3.06,1.23-4.59,1.85-.19.08-.32.25-.26.46.05.18.27.34.46.26h0Z"/>
        <path class="cls-2" d="M311.55,124.79c.34,4.04.33,8.13.43,12.18.13,5.42.24,10.85.39,16.27.05,1.76.07,3.52.2,5.27.03.48.78.48.75,0-.27-3.91-.27-7.85-.36-11.77-.13-5.46-.24-10.93-.41-16.39-.06-1.85-.1-3.72-.25-5.57-.04-.48-.79-.48-.75,0h0Z"/>
        <path class="cls-2" d="M306.29,122.47c-.09,4.15.1,8.32.21,12.47.15,5.88.33,11.75.53,17.63.08,2.31.16,4.62.27,6.93.02.48.77.48.75,0-.49-10.48-.76-20.99-.96-31.48-.03-1.85-.09-3.7-.05-5.55.01-.48-.74-.48-.75,0h0Z"/>
        <path class="cls-2" d="M301.71,124.17c0,12.12-.01,24.24-.02,36.37,0,.48.75.48.75,0,0-12.12.01-24.24.02-36.37,0-.48-.75-.48-.75,0h0Z"/>
        <path class="cls-2" d="M10.68,124.29l4.95-1.66c1-.34,2.24-.56,2.93-1.45.52-.67.64-2.11,1.32-2.57.59-.4,1.4.18,1.97.37s1.15.3,1.73.34c1.72.14,4.66-.34,5.42-2.15.28-.65-.71-1.1.91-1.59.26-.08.62,0,.88-.02.32-.02.65-.05.95-.2,1.17-.57,1.23-2.09,2.68-2.39.95-.2,1.57.13,2.2.81.25.27.39.48.75.64s.76.16,1.17.14c1.24-.05,1.96-.11,3.17.47,1.3.62,3.82,1.71,4.54-.33.27-.77-.09-1.55-.54-2.17-.33-.46-3.92-3.69-2.16-4.12.47-.12,1.56,1.29,2.25,1.34.77.06,1.28-.51,1.67-1.09.55-.83,1.03-2.32,2.38-1.56.18.1.26.35.49.46.8.39,1.83-.08,2.52-.49.85-.51,1.67-1.11,2.5-1.66.56-.37,1.47-1.26,2.13-1.16.56.09,1.07.57,1.7.65.53.06,1.01,0,1.53-.13l-.28-.22c.04.46.17.72.35,1.13.15.36.3.15.27.68-.02.39-.49,1-.65,1.34-.06.12-.02.3.13.33,1.1.2,2.2.39,3.3.59.92.17,2.09.19,2.97.56,1.28.54,1.05,2.4,2.74,1.57.9-.44,1.74-1.22,2.55-1.79.91-.64,3.17-2.75,3.27-.16.02.44-.17.85-.07,1.34.18.91.82,1.81.38,2.75-.07.15.01.34.19.34,1.62-.01,3.25.05,4.87-.03,1.02-.05,1.54-.41,2.1-1.25,1.7-2.53,3.6-4.6,6.28-6.12l-.33-.25c-.31,1.13-.71,2.21-1.26,3.25-.38.71-.88,1.37-1.17,2.12-.39,1.01-.24,1.85.61,2.54.55.45,1.21.86,1.86,1.13.81.33,1.5.12,2.31.32.65.16,1.24.51,1.93.61s1.39.07,2.08-.04c.29-.04.16-.48-.12-.43-.75.12-1.49.13-2.23-.02-.61-.13-1.23-.62-1.8-.7-.42-.05-.82.12-1.27.05-.81-.12-1.57-.6-2.23-1.08-1.7-1.24-.29-2.94.43-4.27.57-1.06.99-2.19,1.31-3.35.05-.19-.16-.35-.33-.25-1.98,1.12-3.74,2.59-5.15,4.38-.36.46-.7.95-1.02,1.45-.55.87-1.13,1.38-2.2,1.49-1.52.15-3.13.02-4.66.03l.19.34c.3-.64.23-1.21.03-1.88-.12-.41-.3-.8-.37-1.22-.13-.67.25-1.04.3-1.64.13-1.51-1.67-1.46-2.59-.9-1.07.64-2.06,1.44-3.07,2.16-.67.48-1.44,1.14-2.19.39-.26-.26-.29-.69-.61-.95-.62-.52-1.68-.53-2.43-.67-1.49-.27-2.98-.53-4.47-.8l.13.33.87-1.78c.04-.08.05-.21-.04-.27-.46-.28-.7-.72-.74-1.32-.01-.15-.13-.26-.28-.22-1.13.29-2.2.08-3.12-.66-.08-.06-.18-.09-.27-.04-1.32.87-2.64,1.75-3.96,2.62-.52.34-1.02.7-1.63.87-.9.25-.94-.15-1.6-.58-1.55-1.02-2.35,1.25-3.11,2.1-1.29,1.45-1.92-.11-3.01-.59-.56-.25-.93-.25-1.16.34-.86,2.23,2.62,3.46,3.08,5.26.34,1.36-.89,1.89-1.96,1.73-.7-.1-1.3-.45-1.92-.76-.5-.25-1.02-.51-1.58-.6-.64-.11-1.19.07-1.82.07-1.12,0-1.58-1.09-2.55-1.46-.74-.29-1.64-.25-2.35.11-.94.48-1.15,1.57-2.02,2.08-.78.46-1.84,0-2.59.52-.18.13-.3.29-.39.49-.34.78.14,1.25-.83,1.99-1.15.87-2.85,1.14-4.25,1.02-.98-.08-1.72-.42-2.61-.75-.42-.16-.3-.27-.75-.2-.65.1-.99.77-1.23,1.31s-.41,1.17-.8,1.66c-.57.73-1.61.94-2.45,1.22l-5.19,1.74c-.27.09-.16.53.12.43h0Z"/>
        <path class="cls-2" d="M94.24,110.29c.59-1.11,1.44-1.2,2.55-1.25.32-.01.59-.02.87-.21.35-.23.51-.64.68-1,.48-.98,1.3-1.11,2.29-1.28.57-.1,1.32-.42,1.41-1.08.04-.3-.06-.5-.22-.74-.5-.75-.95-1.11-.4-2.02.44-.74,1.16-1.43,1.23-2.34.03-.38-.07-.7-.22-1.06-.08-.2-.28-.44-.34-.66-.18-.59-.11-1.09.2-1.48.07-.09.14-.18.21-.27.15-.65.09-1.12-.64-1.39-.28-.11-.51-.08-.81-.07-.68.03-1.13.28-1.81-.09-.61-.33-.94-1-.95-1.68,0-.17-.19-.28-.34-.19-3.65,2.03-3.87-5.37-.93-4.36.17.06.31-.12.28-.28-.39-1.65,3.11-.97,3.71-.92.91.09,1.83.2,2.75.26.48.03.93.06,1.35-.21.23-.15.36-.49.58-.62.5-.28,1.04-.09,1.54-.04.6.07,1.15-.27.93-.94-.1-.33-.49-.57-.78-.72-.91-.47-3.76-1.17-2.21-2.92.09-.1.08-.22,0-.32-.2-.24-.38-.37-.68-.47-.41-.14-2.3-.18-1.82-1.05.09-.16-.03-.32-.19-.34-.61-.06-1.45.06-1.85-.49-.2-.28-.18-1.05-.23-1.36-.17-1.06-.34-2.12-.49-3.19l-.41.17c1.19,1.78,2.89,4.07,4.95,4.89.75.29,1.56.31,2.2-.24s.39-1.87,1.41-1.84,1.75,1.02,2.78,1.01c.86,0,.98-.55,1.36-1.18.53-.89,1.19-1.09,1.95-1.64.29-.21.54-.46.71-.78.3-.57.28-1.1-.14-1.58l-.16.38c.7-.09,1.4-.15,2.1-.16.82-.02,1.25-.14,1.57.66.38.96.73,1.75,1.44,2.52l.05-.35-1.68,1.04c-.07.04-.11.11-.11.19.04,1.19,1.09,1.79,2.2,1.87.86.06,1.61-.25,2.4-.55.5-.19,1.13-.49,1.68-.45s.36-.02.47.42c.06.27-.06.79-.08,1.05,0,.08.05.15.11.19,1.33.83,2.97.99,4.42.37.71-.31,1.17-.78,1.74-1.28.74-.65,1.26-.35,2.08-.32.2,0,.39-.04.57-.12,1.08-.41,2.15-1.39,3.12-2.03.44-.29,1.07-.9,1.57-1.04.42-.46.73-.31.92.46-.03.15-.06.3-.08.45.08.57.23.79.73,1.07,1.03.57,2.33.87,3.44,1.27.15.05.28-.08.28-.22.08-1.06,1.93-.67,2.6-.81.56-.11,1.09-.36,1.58-.65,1.2-.71,2.19-1.75,3.45-2.37.66-.32,1.4-.46,2.04-.82s1.12-.97,1.59-1.54c1.26-1.52,2.51-3.04,3.77-4.56.13-.15.01-.46-.22-.38-1.15.42.29,1.84.75,2.22,1.5,1.24,2.94,1.05,4.73,1.3,1.16.16,1.91.73,1.34,1.97-.15.33-.36.25-.39.65-.02.34.13.53.38.73.21.18.64.22.8.43.77.99-.16.81-.07,1.43.06.41.11.58.5.74l.06-.44c-2.98-.22-4.48,3.3-2.29,5.31l.1-.38c-.95.25-1.5.92-1.59,1.9,0,.07.05.17.11.19,1.52.64,2.9,1.48,4.16,2.55.22.19.54-.13.32-.32-.65-.55-1.32-1.06-2.04-1.5-.35-.22-.71-.42-1.08-.61-.25-.12-.5-.24-.75-.35-.13-.82.19-1.3.99-1.43.16-.04.22-.26.1-.38-1.91-1.76-.6-4.73,1.97-4.55.28.02.27-.35.06-.44-.19-.08.21-1.37.13-1.62-.1-.28-.32-.41-.55-.57-.46-.3-.84-.16-.6-1.05.05-.17.32-.38.39-.57.12-.34.06-.7-.09-1.02-.42-.93-1.41-1.14-2.34-1.18s-1.72.01-2.58-.3c-.55-.2-1.02-.49-1.47-.85-.18-.15-1.4-1.27-.93-1.44l-.22-.38c-1.36,1.64-2.69,3.31-4.08,4.94-1.18,1.38-2.96,1.62-4.41,2.65-1.34.95-2.6,2.23-4.34,2.3-1.01.04-2.23-.14-2.33,1.18l.28-.22c-1.15-.42-3.54-.79-3.77-2.24-.08-.47.32-1.06-.26-1.42-.51-.31-.91.18-1.32.44-1.05.69-2.1,1.39-3.15,2.08-.57.37-1.33,1.08-2.06,1-.35-.04-.57-.26-.94-.23-.65.05-1.1.57-1.54.97-.94.83-1.95,1.34-3.23,1.29-.44-.02-1.52-.14-1.84-.51s-.08-1.23-.05-1.67c0-.13-.11-.21-.23-.23-1.34-.15-2.41.51-3.67.85-.68.18-1.4.2-2.04-.11-1.55-.76-.08-1.54.71-2.03.13-.08.15-.25.05-.35-.83-.9-1.3-1.91-1.48-3.12-.01-.1-.13-.16-.22-.17-1.25-.07-2.49-.03-3.74.12-.19.02-.3.23-.16.38,1.06,1.22-1.38,2.04-1.97,2.56-.37.32-.41.65-.67,1-1.1,1.48-1.78.46-2.99,0-.39-.15-.9-.28-1.32-.17-.35.09-.55.28-.75.57-.06.1-.5,1.36-.3.86-.09.81-.58,1.07-1.48.79-.35-.11-.67-.27-.97-.47-1.64-1.04-3-2.74-4.06-4.33-.15-.22-.45-.07-.41.17.24,1.67.5,3.34.8,5.01.02.1.12.16.22.17.66.07,1.32.13,1.98.2l-.19-.34c-.28.5-.12.92.34,1.27.26.2.55.25.86.3.26.05,1.04.01,1.16.41.02.07-.17.25-.18.35-.05.69-.1,1.19.38,1.78.33.41.82.67,1.29.87.17.07.45.1.6.22.25.02.34.19.27.5.21.43.15.54-.19.36-.23.05-.53-.14-.79-.08-.36.07-.46.26-.74.49-1.19.95-2.82.47-4.27.33-1.15-.11-4.69-.81-4.15,1.49l.28-.28c-1.75-.6-2.81,1.51-2.66,2.98.18,1.83,1.98,3.15,3.7,2.2l-.34-.19c.02.85.41,1.64,1.18,2.07.32.18.67.27,1.04.28-.06,0,.83-.07.77-.09l.93,1.19c-.05.06-.09.12-.12.18-.05.33-.24.53-.17.91.09.57.55,1.02.69,1.57.34,1.31-.99,2.15-1.4,3.26-.23.62-.07.94.23,1.47.1.12.21.23.33.32l-.16,1.1c-.18.27-1.3.19-1.66.27-.32.06-.58.13-.84.34-.35.28-.5.68-.69,1.07-.12.23-.22.59-.43.75-.48.39-1.06.15-1.58.2-.94.1-1.67.69-2.1,1.5-.14.26.25.48.39.23h0Z"/>
        <path class="cls-2" d="M169.68,85.09l-.08-2.5c0-.3-.15-.88-.02-1.12.11-.22.1-.02.3-.17.64-.44.98-.8,1.4-1.48.61-.99,1.59-1.56,2.24-2.48.49-.69.62-1.49.12-2.19l-.13.33c.55-.08,1.09-.15,1.64-.23.08-.01.13-.09.16-.16.4-1.11.89-2.16,1.54-3.15.23-.35,1.12-1.85,1.84-1.09.19.2.1,1.38.12,1.67,0,.13.1.22.23.23,2.01.14,3.87-.3,5.63-1.27.73-.4,1.51-.5,2.27-.1.42.22.74.57,1.2.73.51.18.93.16,1.39-.11l-.34-.19c-.09.75.6,1.14,1.28.9.55-.2,1.05-.74,1.47-1.1.72-.6,1.44-1.21,2.16-1.81.1-.09.08-.3-.05-.35l-.68-.97c0-.15-.14-.25-.28-.22-1.38.33-3.08.74-4.4,0-.55-.3-.91-.81-1.45-1.11-.12-.07-.29-.03-.41-.08-.83-.38-1.03-.84-1.35-1.65s-.6-2.24-1.39-2.8c-.43-.31-1.15-.13-1.51-.4l-.13-1.23c.35.04.66.16.94.36.3.16.55.4.88.51.7.25,1.38.11,1.88-.48.25-.29.24-.6.41-.9.07-.12-.22-.17,0-.35.25-.19.53.21.74.39.51.44.83,1.06,1.59,1.04.32,0,.55-.14.81-.3.28-.17.49-.45.78-.61.93-.5,1.66-.07,2.43.33s1.55.91,2.45.78c1.27-.19,1.24-1.72,2.41-2.03,1.55-.41,4.09,1.18,5-.89.57-1.3-.43-2.72-1.85-2.54-.8.11-1.18.81-1.96.87-1.2.09-2.42-.78-3.47-1.23-.91-.39-1.59-.46-2.55-.4-.07,0-.24.13-.3.11-.41-.12-.65-.99-.75-1.31-.36-1.14-.15-2.53.97-3.18,1.5-.87,2.58.97,4,.4.65-.26,1.01-.9.67-1.53l-.19.34c1.49-.15,2.93-.49,4.29-1.1.44-.19.99-.55,1.45-.63,1.04-.17,1.26.21,1.77.72.26.27.54.62.92.74.63.19,1.2-.21,1.34-.83.11-.47-.05-.89-.31-1.29-.49-.74-.47-.54.12-1.29.36-.45.48-.83.66-1.36.04-.13-.07-.38,0-.46.17-.21.79-.21,1.01-.09,1.02.55-.02,1.83,1.19,2.27.99.36,2.19-.24,3.07-.63,1.44-.64,2.71-1.53,3.86-2.6l-.35-.05c1.04,1.35-1.43,2.82-.88,4.42.22.64.75,1.09,1.1,1.65.41.66.42,1.46.82,2.11.51.84,1.41.83,2.14.24.59-.49.77-1.22,1.25-1.78.77-.91.97.11.83.91-.09.5-.3.98-.53,1.43-.08.16.02.33.19.34,1.03.06,2.46-.11,3.43.21,1.56.52-.2,2.52-.69,3.35-.06.11-.02.24.08.31.95.64,1.91.16,2.81-.37,1.78-1.05,3.42-1.66,5.51-1.24l-.05-.41c-.73.53-1.65,1.3-1.31,2.31.36,1.06,2.07,1.2,2.22,2.32.04.28.49.29.45,0-.07-.51-.28-.82-.68-1.14-.25-.2-.54-.35-.8-.53-.48-.34-.47-.33-.54-1.01-.1-.86.2-1.05.9-1.56.14-.1.15-.37-.05-.41-1.38-.27-2.77-.21-4.09.31-.64.25-1.18.63-1.77.97-.33.2-.89.6-1.3.6-1.32,0-.44-.84-.15-1.33.38-.65,1.35-1.74.5-2.41-.36-.29-1.08-.22-1.48-.24-.99-.06-1.98-.12-2.98-.19l.19.34c.55-1.1,1.1-2.64-.04-3.54-.07-.06-.18-.1-.27-.04-.32.22-.54.42-.77.74-.28.39-.6,1.41-1.05,1.62l-1.71-.38-.08-.29c-.11-.2-.12-.51-.21-.73-.16-.43-.4-.78-.67-1.15-.36-.5-.87-1.03-.86-1.69,0-.8.71-1.39,1.02-2.07s.38-1.33-.08-1.92c-.09-.12-.24-.15-.35-.05-.97.9-2.02,1.66-3.2,2.26-.65.33-1.37.66-2.09.83-.19.04-.55.17-.74.1l-.81-.86c.03-.15.06-.3.08-.45-.3-1.15-1.33-1.22-2.42-1.01-.12.02-.19.17-.16.28.29,1.08-.54,1.9-1.27,2.56-.09.08-.08.24,0,.32.28.25.53.52.74.84-.35,1.13-.74,1.42-1.16.89-.23-.16-.39-.45-.61-.64-.41-.36-.83-.53-1.39-.49-.82.05-1.6.6-2.34.9-1.19.48-2.42.76-3.69.89-.17.02-.28.18-.19.34l-1.26.89-.64-.27c-.13-.06-.26-.13-.4-.18-.44-.17-.82-.29-1.29-.23-.71.08-1.33.51-1.74,1.08-1.04,1.43-.43,3.25.5,4.56.07.1.19.14.31.08,2.21-1.11,4.34,1.68,6.62,1.45.3-.03.5-.12.73-.23.72-.35,1.04-1.01,1.93-.45.59.37.77,1.38.36,1.94-.91,1.28-2.89.32-4.13.39-1.02.06-1.29.51-1.84,1.25-1.52,2.02-3.09-.42-4.82-.53-1.34-.08-2.39,1.76-3.59.54-.49-.5-.9-1.14-1.68-.87-.12.04-.19.15-.16.28.12.51-.15,1.26-.64,1.5-.77.37-1.27-.13-1.8-.45-.28-.17-.55-.34-.88-.4-.45-.07-1.03.05-1.29.46s-.13.92.22,1.25c.23.21.5.31.8.39.24.06.54.02.76.11.79.33,1.12,1,1.41,1.73.31.78.53,1.83,1.05,2.5.19.25.37.34.65.46.18.08.65.23.73.26.48.2.68.43,1.07.72,1.47,1.07,3.45.66,5.08.26l-.28-.22c.02.65.3,1.09.9,1.36l-.05-.35c-.54.45-1.08.91-1.62,1.36-.24.2-.48.4-.72.6-.16.13-1.96,1.6-1.81.37.02-.18-.2-.27-.34-.19-1.17.68-2.15-.97-3.22-1.06-.62-.05-1.13.26-1.65.54-1.16.64-2.37,1.08-3.69,1.21-.46.05-1.19.22-1.51-.19-.2-.25-.09-1.33-.12-1.67,0-.11-.07-.18-.17-.22-1.06-.4-1.83.52-2.37,1.32-.47.69-.88,1.44-1.22,2.2-.06.13-.23.71-.34.83-.42.44-1.06.39-1.63.47-.14.02-.21.22-.13.33,1.02,1.43-1.16,2.53-1.87,3.45-.55.71-.96,2.16-2.06,2.04-.12-.01-.23.11-.23.23l.13,4c0,.29.46.29.45,0h0Z"/>
        <path class="cls-2" d="M265.34,46.17l.2-2.25c0-.07-.05-.16-.11-.19-.31-.15-.94-.17-1.19-.33-.36-.25-.43-.86-.69-1.24-.52-.78-1.34-1.3-2.26-1.44-2.51-.37-5.94,2.72-8.01.26-.14-.17-.36-.01-.38.16-.25,2.12-1.75,3.96-3.78,4.64-1.28.43-2.96-.18-4.06.72-.99.81-1.11,2.24-1.77,3.27-1.12,1.73-3.46,2.33-5.31,1.5-.19-.08-.36.05-.33.25.13.87.25,1.82.03,2.69-.28,1.16-1,1.37-1.91,1.87-1.06.59-1.45,2.38-2.65,2.58-.29.05-.16.48.12.43.69-.11,1.05-.54,1.42-1.09.28-.41.5-.89.88-1.23.47-.42,1.15-.5,1.64-.89,1.32-1.04,1.12-3.02.89-4.48l-.33.25c1.41.64,3,.58,4.35-.19,1.69-.96,1.81-2.52,2.75-4.03.81-1.29,2.27-.81,3.54-1.02.88-.14,1.71-.51,2.43-1.02,1.42-1.01,2.31-2.53,2.52-4.26l-.38.16c.98,1.16,2.53,1.2,3.91.86,1.18-.29,2.28-.89,3.51-.98,1.68-.13,3.01.86,3.27,2.54.01.09.13.17.22.17.31-.09.57-.01.78.24.41.1.53.34.36.71.07.4-.08.95-.12,1.35-.03.29.42.29.45,0h0Z"/>
        <path class="cls-2" d="M342.08,50.42c.37-1.08.62-2.17.71-3.31.04-.48-.12-1.34.14-1.73.28-.42,1.25-.55,1.73-.7l-.28-.22c-.02,1.03,1.29,1.19,1.99.68.91-.66.97-1.94,1.97-2.6.7-.47,1.23-.65,1.48-1.53.33-1.16.29-2.5.4-3.7.14-1.44.28-2.87.42-4.31.07-.72.14-1.44.21-2.15.04-.36-.12-1.18.62-.63.12.09.21.53.25.66.24.86.16,1.82.55,2.64.62,1.31,2.2,2.15,3.63,1.75.7-.2,1.32-.66,1.73-1.25.2-.29.37-.61.47-.95.18-.63.13-.8.83-1s2.25-.07,2.79-.59c.38-.37.22-1.25.04-1.65-.26-.59-.8-1.11-1.44-1.24-.24-.05-.47-.04-.71,0-.3.04-.28.09-.45.15-.54.47-.98.38-1.3-.28l.48-.07c.71-.25,1.64-.23,2.38-.33.79-.11,1.59-.22,2.38-.33,1.22-.17,2.55-.23,3.68-.73,1.46-.64,2.54-2.61,1.12-3.88l-.05.35c.83-.53,1.65-.7,2.61-.52l-.13-.33c-.49.72-.02,1.37.68,1.75,1.2.65,3.28-.55,4.08.69.07.11.25.16.35.05.78-.88,1.32-1.9,1.51-3.06.09-.53.1-1.07.04-1.6-.1-.89-.13-.91.6-1.49,2-1.57,3.34-3.8,3.87-6.27l-.33.13c2.21,1.08,4.22-.78,5.05-2.73.66-1.57.96-3.24,1.78-4.75.9-1.66,2.15-3.07,3.66-4.19l-.34-.19c.17,3.51,2.1,6.66,5.17,8.39.1.06.25.03.31-.08.33-.65.8-1.5,1.49-1.85,1.2-.62,1.44.22,2.12.76.77.61,1.75.59,2.67.38,1.16-.26,2.22-.85,3.44-.79.66.03,1.54.24,1.54,1.02,0,.42-.18.56.04,1.02.77,1.66,2.67,1.23,3.98.68.87-.36,1.71-.74,2.68-.48.6.16,1.13.5,1.65.83.78.49,1.58,1.11,2.53,1.22s1.51-.37,2.27-.81c.22-.13.78-.5,1.05-.44,2,.45.35,1.34.04,1.53s-.66.38-.89.68c-.38.49-.37,1.07-.08,1.6.55,1.01,1.69,1.13,2.68,1.46,1.52.5,3.24,3.14,5,1.96.39-.26.62-.68.95-.99.68-.65,1.51-.72,2.41-.76.97-.04,1.98-.02,2.81-.59,1.86-1.27,1.42-3.98,2.49-5.72.7-1.15,2.03-1.66,2.83-2.73.47-.63.74-1.37,1.17-2.03.17-.27.37-.55.61-.77.36-.37.8-.59,1.32-.64.93.14,1.3.63,1.11,1.47-.06.14,0,.35.19.34,2.99-.25,4.16-3.36,6.59-4.67,3.8-2.05,4.58,2.95,6.27,5.07.86,1.08,1.98,2.02,2.61,3.26.41.79.47,1.52.22,2.37-.17.57-.51,1.13-.54,1.74-.04.97.6,1.37,1.43,1.67,1.74.61,3.52,1.12,5.28,1.68.28.09.4-.35.12-.43-.88-.28-1.76-.56-2.64-.84-.82-.26-1.89-.42-2.64-.84-2.02-1.12-.24-2.64-.41-4.23-.26-2.51-3.08-4.17-4.14-6.33-.93-1.9-1.85-4.47-4.48-4-3.25.58-4.33,4.82-7.67,5.1l.19.34c.44-1.03-.37-2.13-1.49-2.15-1.8-.02-2.48,2.15-3.27,3.35-.63.97-1.63,1.44-2.42,2.24-.55.55-.88,1.24-1.12,1.97-.66,2.03-.66,4.59-3.33,4.88-.85.09-1.73-.02-2.56.21-.94.26-1.19.95-1.92,1.48-1.29.93-2.22-.19-3.21-.95-.91-.7-1.83-.81-2.86-1.23-.37-.15-1.07-.49-1.2-.91-.16-.54.2-1.23.57-1.53.27-.21.61-.32.87-.55.3-.26.53-.56.49-.99-.13-1.27-1.78-1.01-2.52-.56-.59.36-1.12.85-1.85.87-.66.02-1.28-.33-1.82-.66-.79-.48-1.54-1.07-2.43-1.35-.97-.3-1.83-.07-2.75.29-.65.26-1.36.68-2.08.68-.83,0-2.28-.86-1.56-1.86.05-.07.03-.16,0-.23-.72-1.39-2.44-1.35-3.77-.98-1.2.34-2.71,1.16-3.94.45-.68-.39-.99-1.22-1.87-1.25-.67-.03-1.26.43-1.69.89-.15.16-.61,1.02-.78,1.1-.4.17-1.22-.67-1.49-.9-2.01-1.72-3.18-4.25-3.31-6.87,0-.15-.19-.3-.34-.19-1.96,1.46-3.5,3.36-4.42,5.63-.5,1.22-.75,2.53-1.3,3.73-.73,1.6-2.44,3.23-4.31,2.31-.12-.06-.3-.02-.33.13-.59,2.77-2.21,5.12-4.6,6.65-.08.05-.13.16-.1.25.54,1.9.11,3.84-1.21,5.32l.35.05c-.35-.55-.81-.74-1.45-.79-.39-.03-.77.04-1.15.07-.49.05-3-.04-2.15-1.27.08-.11,0-.3-.13-.33-1.08-.21-2.04-.03-2.96.56-.12.07-.16.25-.05.35,1.55,1.38-.35,3.01-1.68,3.39-.94.26-1.96.34-2.92.47-1.27.18-2.54.35-3.81.53-.51.07-1.71,0-2.04.37-.58.67.47,1.35,1.04,1.35.31,0,.55-.16.84-.25.56-.37,1.12-.39,1.68-.06.38.27.64.62.76,1.06.18,1.34-2.65,1.36-3.52,1.52-.09.02-.17.12-.17.22.03,1.6-1.23,3.02-2.89,2.87-1.55-.14-2.29-1.43-2.5-2.82-.16-1.04-.25-2.68-1.64-2.64-.13,0-.21.1-.23.23-.3,3.03-.59,6.07-.89,9.1-.09.92-.04,1.86-.6,2.61-.43.58-.95.69-1.46,1.14-.3.27-.49.59-.68.95-.11.21-.18.45-.31.65-.15.23-1.79,1.64-1.76.35,0-.14-.15-.26-.28-.22-.68.22-1.35.44-2.03.65-.09.03-.17.12-.17.22.1,1.78-.13,3.5-.71,5.19-.09.27.34.39.43.12h0Z"/>
        <path class="cls-2" d="M334.51,153.09c.44-.56.45-1.09.27-1.77-.12-.46-.34-.9-.46-1.37-.32-1.21.48-2.73,2-2.03.11.05.25.03.31-.08.39-.72.46-1.29,1.35-1.07.53.13,1.08.22,1.62.22.83,0,1.63-.24,2.19-.87.38-.42.52-.99.89-1.41.75-.88,2-.44,3-.36,1.48.11,2.97.04,4.43-.19.85-.13,1.97-.19,2.43-1.04.23-.42.13-.95.34-1.35.62-1.18,1.68-.22,2.47-.12,2.31.32,2.86-2.45,2.92-4.14l-.28.22c1.41.52,2.82,1.68,4.41,1.35,1.25-.26,1.66-.96,1.78-2.11.07-.7.07-1.14.83-1.42.32-.12.63-.2.91-.4.49-.35.76-.9.99-1.44.33-.78.69-2.48,1.75-2.58s.38,1.11.48,1.73c.24,1.47,1.78,2.06,3.05,2.35s2.38.39,3.24-.76c.63-.84.96-1.78,2.1-2.03,1-.22,2.04.09,3.05.05,1.92-.07,3.58-1.11,5.14-2.13l-.33-.13c.36,1.22.6,2.58,1.1,3.75.27.63.63.93,1.32,1.01.55.06,1.09-.09,1.64-.03.71.08,1.23.43,1.8.82.69.46,1.37,1,2.22,1.07.19.02.42-.06.6-.03.44.09.6.28.83.73.13.25.12.47.32.69.5.57,1.31.61,1.99.49,1.37-.25,2.45-.66,3.84-.17s2.38,1.48,2.93,2.78c.04.09.17.12.25.1.7-.15,1.39-.29,2.09-.44.28-.06.16-.49-.12-.43-.49.1-1.51.53-1.97.23-.25-.16-.45-.77-.66-1.02-.56-.67-1.29-1.2-2.1-1.53-.86-.35-1.81-.5-2.73-.36-.62.09-1.2.37-1.83.42-.79.05-1.07-.26-1.59-1.19-.07-.12-.01-.3-.11-.4-.56-.6-1.27-.2-1.99-.36-1.09-.23-1.87-1.21-2.87-1.63-.93-.39-1.92.1-2.8-.23-.78-.3-.91-1.53-1.11-2.24s-.42-1.43-.63-2.15c-.04-.13-.21-.22-.33-.13-1.77,1.16-3.51,2.16-5.69,2.04-1.28-.07-2.71-.32-3.7.69-.43.44-.68,1.02-1.05,1.5-.84,1.12-2.39.76-3.55.37-1.56-.52-1.94-1.37-1.77-2.94.03-.28.06-.6-.16-.82-.65-.63-1.77.25-2.16.75-.31.4-.49.87-.67,1.34-.52,1.31-.83,1.76-2.15,2.32-1.53.66-.25,1.93-1.24,2.93-1.49,1.5-3.75-.29-5.25-.84-.14-.05-.28.08-.28.22-.05,1.5-.36,3.71-2.28,3.65-.76-.02-1.51-.66-2.28-.42-.63.2-.76.74-.9,1.32-.37,1.63-2,1.66-3.45,1.8-1.22.12-2.46.12-3.69,0-.79-.08-1.71-.39-2.43.08-.83.54-.91,1.7-1.75,2.25-1.08.72-2.64.26-3.77-.09-.09-.03-.21.02-.25.1-.15.28-.41,1.09-.72,1.21-.08.03-.55-.11-.68-.11-.55.02-1.1.3-1.46.72-1.26,1.5,1.13,3.37.05,4.74-.18.23.14.55.32.32h0Z"/>
        <path class="cls-2" d="M345.82,153.65c.79,2.91,1.43,5.85,1.92,8.83.08.48.8.27.72-.2-.49-2.97-1.14-5.92-1.92-8.83-.13-.47-.85-.27-.72.2h0Z"/>
        <path class="cls-2" d="M295.88,161.92c.14,1.74.28,3.49.42,5.23.04.48.79.48.75,0-.14-1.74-.28-3.49-.42-5.23-.04-.48-.79-.48-.75,0h0Z"/>
        <path class="cls-2" d="M214.98,171.81c0,1.05.17,2.1.51,3.1.07.19.26.32.46.26.19-.05.33-.27.26-.46-.33-.93-.49-1.91-.49-2.9,0-.48-.75-.48-.75,0h0Z"/>
        <path class="cls-2" d="M178.14,175.25c.4,2.2.59,4.42.56,6.66,0,.48.74.48.75,0,.03-2.3-.17-4.59-.58-6.86-.09-.47-.81-.27-.72.2h0Z"/>
        <path class="cls-2" d="M132.68,182.11c.34,1.63.71,3.24.83,4.91.03.48.78.48.75,0-.13-1.73-.5-3.41-.85-5.11-.1-.47-.82-.27-.72.2h0Z"/>
        <path class="cls-2" d="M116.66,184c.01.89.3,1.79.49,2.65s.39,1.77.58,2.66c.1.47.83.27.72-.2-.19-.85-.37-1.71-.56-2.56-.09-.42-.18-.84-.27-1.25s-.2-.86-.21-1.3c0-.48-.76-.48-.75,0h0Z"/>
        <path class="cls-2" d="M65.67,196.56c.28,1.68.56,3.35.85,5.03l.72-.2c-.01-.06-.03-.13-.04-.19-.1-.47-.82-.27-.72.2.01.06.03.13.04.19.1.48.8.27.72-.2-.29-1.68-.57-3.35-.85-5.03-.08-.48-.8-.27-.72.2h0Z"/>
        <path class="cls-2" d="M30.92,203.83c.02,1.74.26,3.48.71,5.16.13.47.85.27.72-.2-.44-1.62-.67-3.29-.68-4.97,0-.48-.75-.48-.75,0h0Z"/>
        <path class="cls-2" d="M.71,217.86c.47-.7,1.07-1.45,1.96-1.48.72-.02,1.44.12,2.17.08,1.52-.08,3.01-.42,4.41-1.01,1.66-.71,2.9-1.45,4.78-1.06,1.29.27,2.5.82,3.82.96,1.22.13,2.36-.29,3.59-.22,1.92.1,3.84.04,5.75-.18,1.34-.16,2.32-.43,3.42-1.23,1.6-1.15,3.15-1.44,5.07-1.79,3.2-.58,6.48-1.02,9.63-1.86,1.24-.33,2.47-.76,3.59-1.4.51-.29.99-.62,1.44-.99.69-.58,1.35-1.75,2.24-2s1.86.35,2.64.63c.7.26,1.4.45,2.14.56,1.43.2,2.9.1,4.28-.32.41-.12.8-.34,1.21-.45.59-.17.99-.11,1.66-.08.8.03,1.56-.02,2.36-.1,1.9-.17,3.79-.39,5.67-.64,7.9-1.07,15.68-2.86,23.26-5.32.46-.15.26-.87-.2-.72-6.94,2.25-14.06,3.95-21.28,5.03-1.85.28-3.7.51-5.56.71-.95.1-1.89.2-2.84.27-.81.06-1.61-.14-2.41-.08s-1.52.51-2.27.72c-.85.24-1.73.35-2.62.34-.81-.01-1.62-.13-2.4-.36-.95-.28-1.84-.82-2.84-.94-1.22-.16-1.87.49-2.64,1.33-1.15,1.26-2.58,2.09-4.18,2.66-3.07,1.09-6.44,1.46-9.64,2.04-1.63.3-3.43.43-4.97,1.06-1.32.54-2.22,1.67-3.63,2.03-1.72.43-3.68.41-5.44.4-.9,0-2-.28-2.88-.15-.69.1-1.25.41-1.98.35-1.58-.13-3.03-.92-4.61-1.1s-2.74.46-4.15,1.1c-1.93.88-4.06,1.25-6.17,1.06-.89-.08-.94-.2-1.68.33-.56.4-.99.91-1.37,1.48-.27.4.38.78.65.38h0Z"/>
        <path class="cls-2" d="M98.4,199.85l5.75-1.61,2.63-.74c.82-.23,1.79-.65,2.65-.68.97-.03,2.28.87,3.06-.17.51-.69.03-1.33-.61-1.68-1.41-.77-3.02-1.28-4.52-1.85-.68-.26-.78-.17-.49-1.03.05-.14.14-.33.2-.47.22-.46.17-.82.78-.61.28.1.48.38.72.55.62.42,1.34.45,1.86-.16.93-1.11-.16-2.73.71-3.79l-.45.06c.72.42.62,1.5.9,2.16.2.46.5.85.88,1.16.84.69,1.92.88,2.95.59l-.47-.36c0,.35-.02.69-.03,1.04,0,.22.25.45.47.36.39-.22.82-.26,1.27-.11l-.22-.55c-.76,1.27-1.57,2.5-2.42,3.71-.2.28.13.63.42.55,2.56-.65,5.13-1.3,7.69-1.95,2.26-.57,4.62-1.32,6.97-1.34,1.17,0,2.11.6,3.26.66,1.04.05,2.09,0,3.12-.11,2.19-.22,4.34-.69,6.48-1.19,2.26-.53,4.52-1.1,6.82-1.42,1.16-.16,2.3-.23,3.46-.27.57-.02,1.22-.02,1.68-.42.87-.77.32-1.99-.52-2.53-.93-.6-2.18-.39-3-1.23-.35-.35-.89-1.16-.92-1.67s.28-.95.5-1.4l-.51.13c.6.36,1.2.72,1.8,1.08.2.12.5.01.55-.22.12-.61.24-1.21.37-1.82.09-.44.05-1.98.79-1.05.22.27.14.76.42,1.07.13.14.27.25.44.33,1.86.91,3.21-1.85,4.96-1.19l-.22-.55c-.64,1.32-1.75,2.14-3.2,2.37-.31.05-.32.43-.17.63.62.75-.03,2.02.24,2.89.13.44.4.81.76,1.1,1.09.92,2.71.96,4.06.89,4.54-.21,9.02-1.25,13.23-2.96.44-.18.25-.9-.2-.72-3.86,1.57-7.94,2.57-12.1,2.87-1.42.1-3.68.39-4.73-.86-.91-1.08.21-2.61-.73-3.75l-.17.63c1.62-.26,2.93-1.24,3.65-2.71.11-.23.01-.46-.22-.55-.99-.37-1.84.07-2.68.6-.51.32-1.38.96-2.04.68-.73-.3-.46-1.23-.89-1.74-1.69-1.99-2.15,2.95-2.29,3.64l.55-.22c-.6-.36-1.2-.72-1.8-1.08-.16-.1-.43-.05-.51.13-.34.7-.8,1.23-.58,1.98.18.6.49,1.25.89,1.74.44.55.98.86,1.66,1.08.56.18,1.22.19,1.72.53.78.54.45,1.47-.48,1.54-2.09.15-4.1.27-6.17.68s-4.1.94-6.15,1.39-4.32.87-6.53.93c-.67.02-1.45.08-2.11-.11-.48-.14-.85-.38-1.35-.48-.96-.19-1.96-.05-2.92.09-4.41.62-8.78,2.05-13.1,3.14l.42.55c.86-1.2,1.66-2.44,2.42-3.71.12-.2.01-.49-.22-.55-.61-.15-1.07-.13-1.67.11l.47.36c0-.35.02-.69.03-1.04,0-.24-.25-.43-.47-.36-1.55.43-2.74-.53-3.12-1.98-.2-.78-.29-1.43-1.03-1.86-.13-.08-.35-.07-.45.06-.75.91-.39,1.76-.45,2.84-.03.54-.19,1.4-1.07,1.08-.27-.1-.48-.45-.74-.61-.28-.18-.59-.34-.94-.35-.93-.02-.87.61-1.05,1.27-.22.82-1.11,1.37-.17,2.09.5.39,1.27.53,1.85.76.91.35,1.81.72,2.71,1.11.17.07.82.22.89.4.41,1.18-1.12.54-1.34.49-.51-.11-.98-.1-1.49,0-3.56.74-7.09,1.97-10.59,2.95-.46.13-.27.85.2.72h0Z"/>
        <path class="cls-2" d="M175.93,185.96c2.26-1.28,4.95-1.17,7.29-2.21,2.04-.91,3.31-2.72,3.44-4.96.03-.48-.72-.48-.75,0-.07,1.18-.14,2.37-.21,3.55-.01.2.18.38.38.38,2.95-.08,5.72-1.03,8.33-2.35,1.42-.71,2.79-1.52,4.15-2.35,1-.6,1.8-1.14,2.37-2.18.26-.48.62-1.47,1.36-1.32.29.06.72.51,1.02.64.86.38,1.82.47,2.75.51,1.88.07,4.75-.46,5.74,1.59.07.14.28.23.42.17,5.09-1.96,10.36-2.96,15.8-3.23,1.17-.06,2.35-.12,3.51-.29,1.39-.2,2.98-1,4.37-.62,1.01.27,1.84.68,2.91.68,1.26,0,2.53-.26,3.77-.44,5.38-.79,10.78-1.49,16.12-2.52,2.62-.51,5.22-1.11,7.77-1.9,2.24-.69,4.38-1.81,6.66-2.34,1.69-.39,2.83-.1,3.89,1.3.52.69,1.04,1.22,1.92,1.36,1.61.26,6.1-2.24,6.62.44.03.14.21.3.36.28,5.85-.78,11.75-1.14,17.65-1.03,1.5.03,2.98-.15,4.1.99.62.63,1.3.86,2.18.9,2.91.14,5.86-.05,8.77-.08.48,0,.48-.75,0-.75-2.85.03-5.75.22-8.59.08-.89-.04-1.44-.31-2.07-.95-.27-.27-.52-.49-.87-.64-1.05-.44-2.41-.28-3.52-.3-5.9-.11-11.8.25-17.65,1.03l.36.28c-.3-1.53-1.97-1.9-3.32-1.74-1.03.12-1.96.61-2.99.74-1.9.25-2.09-1.2-3.29-2.14-1.52-1.19-3.67-.61-5.3,0-2.57.96-5.09,1.92-7.75,2.61-5.45,1.42-11.05,2.17-16.62,2.99-1.46.22-2.93.43-4.39.65-1.61.24-3.39.71-5.02.33-1.01-.24-1.81-.77-2.89-.64-1.41.17-2.76.68-4.19.83-3.08.32-6.16.32-9.23.85s-6.28,1.42-9.28,2.57l.42.17c-.87-1.8-2.89-1.92-4.67-1.94-1.13-.01-2.3.05-3.41-.22-.67-.16-1.08-.46-1.64-.83-.28-.19-.49-.32-.86-.25-.84.15-1.23,1.17-1.58,1.81-.8,1.46-2.56,2.21-3.96,3.02-3.17,1.82-6.53,3.39-10.24,3.49l.38.38c.07-1.18.14-2.37.21-3.55h-.75c-.31,5.5-6.83,4.51-10.36,6.52-.42.24-.04.89.38.65h0Z"/>
        <path class="cls-2" d="M322.94,170.45c2.08.08,3.81-.55,5.58-1.6,2.08-1.23,4.21-1.3,6.56-1.24s4.46.68,6.75,1.47c1.74.59,3.3.86,5.05.25.75-.26,1.44-.39,2.18-.07.44.2.85.57,1.26.83.88.56,1.8,1.07,2.78,1.43,1.85.67,3.43.4,5.17-.41,1.38-.64,2.4-.79,3.83-.19.99.42,1.94.85,2.97,1.16,2.05.62,4.19.91,6.31,1.14,1.33.14,2.72.37,4.06.25,1.03-.09,1.77-.52,2.66-.98,1.27-.67,2.61-.5,4-.46s2.84.08,4.26.13c.37.01.51-.52.19-.7-.49-.28,1.52-.94,1.71-.99.81-.2,1.62-.36,2.45-.46.64-.08,1.29-.15,1.93-.13,1.16.04,1.55.49,1.95,1.48.94,2.31,3.1.93,5.01.74,2.82-.28,5.76.08,8.57.28,3.11.22,6.2.54,9.27,1.13.47.09.67-.63.2-.72-3.52-.68-7.09-1.01-10.67-1.24-1.82-.12-3.65-.26-5.48-.28-.87,0-1.73.03-2.59.16-.68.1-1.54.56-2.21.51l-1.38-.78c-.06-.22-.13-.43-.21-.65-.06-.15-.13-.29-.22-.42-.25-.35-.57-.58-.96-.74-1.28-.52-2.95-.16-4.26.06-1.1.18-2.8.29-3.58,1.21-.42.5-.55,1.12.08,1.48l.19-.7c-2.25-.07-4.65-.39-6.89-.15-.87.09-1.49.47-2.25.87-1.24.65-2.46.67-3.82.55-2.44-.22-4.9-.46-7.27-1.08-1.13-.29-2.2-.69-3.27-1.15-.83-.36-1.67-.76-2.59-.74-.79.02-1.51.34-2.21.67-1.33.63-2.49,1.01-3.97.66-1.15-.27-2.21-.86-3.21-1.48-.78-.48-1.67-1.37-2.62-1.46-.73-.07-1.29.41-1.95.65-1.16.42-2.38.19-3.53-.14-1.91-.56-3.67-1.42-5.68-1.63-2.26-.24-4.91-.41-7.09.32-.99.33-1.82.92-2.73,1.41-1.37.74-2.8,1.05-4.35,1-.48-.02-.48.73,0,.75h0Z"/>
        <path class="cls-2" d="M359.17,152.74c-.51.61-.91,1.29-1.13,2.06-.11.36-.17.73-.2,1.11-.01.14-.1,1.14.05,1.23-.22-.13-.6.03-.56.32.12.96.14,2.68-1.31,2.26-.59-.17-.93-.41-1.53-.16-.12.05-.18.2-.19.32,0,.74-.01,1.48-.02,2.22,0,.61.18,2.59-.95,2.23-.22-.07-.49.12-.47.36.08,1.03-1.92,1.16-2.09,2.28-.05.34.06.65.27.92.19.23,1.38.87,1.05,1.23s.21.89.53.53c.28-.3.35-.64.21-1.03-.2-.54-.67-.63-1.01-1.03-.75-.87.69-1.25,1.19-1.67.39-.33.62-.7.59-1.22l-.47.36c2.51.79,1.9-3.97,1.91-5.17l-.19.32c.44-.18,1.03.34,1.49.37.38.02.73-.11,1.03-.34.85-.67.81-1.8.69-2.78l-.56.32c.69.39,1.11-.23,1.09-.88-.04-1.37.2-2.55,1.11-3.63.31-.37-.22-.9-.53-.53h0Z"/>
      </g>
      <polygon class="cls-1" points="122.76 120.45 122.76 158.19 244.5 124.63 244.5 75.93 122.76 120.45"/>
    </g>
  </g>
</svg>