<?xml version="1.0" encoding="UTF-8"?>
<svg id="Capa_2" data-name="Capa 2" xmlns="http://www.w3.org/2000/svg" viewBox="0 0 425.71 137.83">
  <defs>
    <style>
      .cls-1 {
        opacity: .3;
      }

      .cls-1, .cls-2 {
        fill: #fff;
      }
    </style>
  </defs>
  <g id="VERJON">
    <g>
      <g>
        <path class="cls-2" d="M.54,51.26c13.31-9.69,26.34-19.77,39.65-29.47.39-.28.01-.93-.38-.65C26.5,30.84,13.48,40.93.16,50.62c-.39.28-.01.93.38.65h0Z"/>
        <path class="cls-2" d="M38.72,23.25c3.12,2.16,5.81,4.89,8.79,7.23,3.38,2.65,6.75,5.3,10.13,7.95s6.76,5.3,9.93,8.23c3,2.77,6.09,5.4,9.31,7.9,3.55,2.75,7.03,5.59,10.58,8.33.38.29.76-.36.38-.65-3.27-2.53-6.46-5.15-9.73-7.68s-6.44-5.14-9.47-7.95c-6.3-5.83-13.27-10.92-20.01-16.22-3.22-2.53-6.15-5.47-9.53-7.81-.4-.28-.77.37-.38.65h0Z"/>
        <path class="cls-2" d="M.72,51.32c5.49-.66,11.08-.79,16.6-1.18,6.22-.44,12.46-.53,18.69-1,.48-.04.48-.79,0-.75-6.22.48-12.46.57-18.69,1-5.52.39-11.11.52-16.6,1.18-.47.06-.48.81,0,.75h0Z"/>
        <path class="cls-2" d="M36.65,42.5c4.42-3.43,9.1-6.51,13.99-9.22.42-.23.04-.88-.38-.65-4.95,2.74-9.68,5.86-14.14,9.33-.38.3.15.82.53.53h0Z"/>
        <path class="cls-2" d="M35.63,42.57c.47,9.02.63,18.06.9,27.09.2,7.04.42,14.07.4,21.12,0,2.73,0,5.45.15,8.18.03.48.78.48.75,0-.14-2.41-.18-4.81-.16-7.22.02-2.8-.14-5.6-.05-8.39.13-3.94-.17-7.9-.29-11.83-.14-4.6-.25-9.21-.38-13.82-.14-5.04-.31-10.09-.57-15.12-.02-.48-.77-.48-.75,0h0Z"/>
        <path class="cls-2" d="M20.35,49.85c0,4,.19,8.01.36,12,.02.48.77.48.75,0-.17-4-.36-8-.36-12,0-.48-.75-.48-.75,0h0Z"/>
        <path class="cls-2" d="M20.74,61.99c1.22,2.09,2.44,4,3.89,5.92s2.55,3.94,3.75,5.95c1.31,2.19,2.53,4.38,3.72,6.63.78,1.49,1.79,2.82,2.58,4.31.87,1.65,1.55,3.38,2.4,5.04.22.43.87.05.65-.38-.85-1.66-1.53-3.39-2.4-5.04-.79-1.49-1.8-2.82-2.58-4.31-1.19-2.25-2.41-4.45-3.72-6.63-1.2-2.01-2.34-4.08-3.75-5.95s-2.67-3.84-3.89-5.92c-.24-.42-.89-.04-.65.38h0Z"/>
        <path class="cls-2" d="M87.66,62.96c9.15-.95,18.27-2.16,27.41-3.18,6.06-.68,12.13-1.19,18.2-1.81,12.18-1.24,24.38-2.31,36.57-3.46,8.98-.85,17.96-1.7,26.95-2.46.48-.04.48-.79,0-.75-16.04,1.36-32.06,2.96-48.1,4.37-10.05.89-20.1,1.92-30.13,2.98s-20.58,2.5-30.9,3.56c-.48.05-.48.8,0,.75h0Z"/>
        <path class="cls-2" d="M199.33,51.68c8.71-.86,17.43-2.15,26.18-2.52,5.44-.23,10.81-1.03,16.2-1.76.48-.06.27-.79-.2-.72-5.39.74-10.74,1.5-16.18,1.74-8.69.4-17.35,1.65-26,2.51-.48.05-.48.8,0,.75h0Z"/>
        <path class="cls-2" d="M194.68,14.68c1.02,1.48,2.37,2.64,3.79,3.74,1.6,1.24,3.18,2.52,4.81,3.73,3.51,2.6,7.26,4.84,10.93,7.2,5.81,3.75,11.54,7.66,17.52,11.12,3.46,2.01,6.59,4.47,9.91,6.68.4.27.78-.38.38-.65-2.78-1.86-5.41-3.95-8.26-5.7-2.41-1.48-4.86-2.91-7.26-4.42-6.77-4.24-13.56-8.52-20.17-13-2.02-1.37-3.91-2.88-5.84-4.37s-3.82-2.77-5.15-4.72c-.27-.4-.92-.02-.65.38h0Z"/>
        <path class="cls-2" d="M121.49,17.85c4.51-.32,9.01-.29,13.52-.5s8.69-.56,13.03-.59c11.16-.1,22.34-.52,33.48-1.27,4.57-.31,9.15-.44,13.73-.62.48-.02.48-.77,0-.75-3.91.16-7.83.24-11.73.49-2.75.17-5.49.38-8.23.54-2.36.14-4.72.12-7.08.29-3.07.22-6.15.18-9.23.28-2.75.09-5.49.23-8.24.27-4.66.07-9.3.3-13.96.53-5.11.25-10.2.22-15.3.58-.48.03-.48.78,0,.75h0Z"/>
        <path class="cls-2" d="M119.86,17.29c-.03-5.64-.58-11.29-.94-16.92-.01-.19-.16-.39-.38-.38-1.38.13-2.76.18-4.15.18-.19,0-.39.17-.38.38.47,5.57.39,11.16.73,16.73.03.48.78.48.75,0-.34-5.57-.26-11.17-.73-16.73l-.38.38c1.39,0,2.77-.06,4.15-.18l-.38-.38c.36,5.62.91,11.28.94,16.92,0,.48.75.48.75,0h0Z"/>
        <path class="cls-2" d="M119.44,17.08c-20.67.61-41.3,1.81-61.94,3.04-5.88.35-11.75.7-17.63,1.05-.48.03-.48.78,0,.75,20.63-1.23,41.26-2.61,61.92-3.47,5.88-.25,11.77-.45,17.65-.63.48-.01.48-.76,0-.75h0Z"/>
        <path class="cls-2" d="M206.05,50.76c0,2.6.03,5.2-.03,7.8-.03,1.25.06,2.49.07,3.74.01,1.37-.09,2.73-.04,4.1.02.48.77.48.75,0-.05-1.37.06-2.73.04-4.1-.01-1.25-.1-2.49-.07-3.74.06-2.6.03-5.2.03-7.8,0-.48-.75-.48-.75,0h0Z"/>
        <path class="cls-2" d="M86.01,61.67c0,4.96.25,9.92.53,14.87.21,3.75.2,7.49.22,11.25.04,6.62.22,13.23.5,19.84.2,4.81.4,9.61.58,14.42.02.48.77.48.75,0-.27-7.46-.65-14.92-.88-22.38s.05-14.58-.34-21.85c-.29-5.38-.59-10.76-.6-16.15,0-.48-.75-.48-.75,0h0Z"/>
        <path class="cls-2" d="M106.38,60.58c.03,3.52,0,7.03,0,10.55,0,.48.75.48.75,0,0-3.52.03-7.03,0-10.55,0-.48-.75-.48-.75,0h0Z"/>
        <path class="cls-2" d="M106.43,70.94c-2.23,4.08-4.88,7.89-7.28,11.87-1.13,1.88-2.23,3.79-3.42,5.63-1.7,2.63-3.63,5.1-4.94,7.97-.2.44.45.82.65.38,1.31-2.87,3.24-5.34,4.94-7.97,1.19-1.84,2.29-3.75,3.42-5.63,2.4-3.98,5.05-7.79,7.28-11.87.23-.42-.42-.8-.65-.38h0Z"/>
        <path class="cls-2" d="M90.89,96.77c.18,5.25.31,10.51.42,15.76.06,2.68,0,5.39.16,8.07.02.29.42.54.64.27h0c.3-.37-.22-.91-.53-.53h0c.21.09.43.18.64.27-.16-2.68-.1-5.39-.16-8.07-.11-5.25-.24-10.51-.42-15.76-.02-.48-.77-.48-.75,0h0Z"/>
        <path class="cls-2" d="M206.79,64.59c2.75.29,5.46.75,8.19,1.22,2,.34,4.04.49,6.05.83,5.93.99,11.77,2.6,17.78,3.05.48.04.48-.71,0-.75-6.26-.46-12.35-2.21-18.54-3.18-1.77-.28-3.57-.39-5.33-.71-2.71-.5-5.41-.91-8.15-1.2-.48-.05-.48.7,0,.75h0Z"/>
        <path class="cls-2" d="M178.66,73.8c4.94.53,9.92.75,14.86,1.36.48.06.47-.69,0-.75-4.93-.62-9.92-.83-14.86-1.36-.48-.05-.48.7,0,.75h0Z"/>
        <path class="cls-2" d="M193.7,75.18c11.68-1.51,23.3-3.78,35.05-4.74,3.33-.27,6.66-.52,9.99-.8.48-.04.48-.79,0-.75-5.1.44-10.22.73-15.31,1.35-5.64.69-11.26,1.55-16.88,2.39-4.28.63-8.55,1.25-12.84,1.81-.47.06-.48.81,0,.75h0Z"/>
        <path class="cls-2" d="M206.33,66.04c-9.39,1.31-18.82,1.58-28.27,2.17-.48.03-.48.78,0,.75,9.52-.6,19.01-.88,28.47-2.2.48-.07.27-.79-.2-.72h0Z"/>
        <path class="cls-2" d="M177.68,68.58c.24,7.76-.06,15.53.36,23.28s-.13,15.26.3,22.88c.03.48.78.48.75,0-.43-7.61.12-15.26-.3-22.88s-.12-15.52-.36-23.28c-.01-.48-.77-.48-.75,0h0Z"/>
        <path class="cls-2" d="M177.95,68.95c5.39,1.8,10.72,3.85,15.92,6.15.44.19.82-.45.38-.65-5.26-2.33-10.64-4.4-16.1-6.22-.46-.15-.66.57-.2.72h0Z"/>
        <path class="cls-2" d="M178.4,116.24c0,1.7-.01,3.39,0,5.09,0,.48.75.48.75,0-.01-1.7,0-3.39,0-5.09,0-.48-.75-.48-.75,0h0Z"/>
        <path class="cls-2" d="M188.95,74.4c.01,4.36.28,8.72.35,13.08s.03,8.72.04,13.08c0,7.29-.02,14.57-.02,21.86,0,.48.75.48.75,0,0-7.29.03-14.57.02-21.86,0-4.28.03-8.57-.03-12.85s-.34-8.87-.35-13.31c0-.48-.75-.48-.75,0h0Z"/>
        <path class="cls-2" d="M226.06,70.4c.18,5.1-.03,10.22.03,15.33.07,5.44.33,10.87.52,16.3.12,3.52.18,7.04.18,10.57,0,.48.75.48.75,0,0-5.64-.2-11.26-.43-16.89-.26-6.47-.31-12.93-.29-19.4,0-1.97.06-3.94,0-5.9-.02-.48-.77-.48-.75,0h0Z"/>
        <path class="cls-2" d="M12.21,107.67c.81-.24,1.15-.86,1.61-1.52.59-.83,1.03-.75,2-.72.52.01.99-.03,1.46-.27.51-.27.81-.76,1.38-.91.35-.1.57,0,.85-.3.73-.77-.19-1.84-.09-2.66l-.47.36c1.45.6,2.16-.91,3.03-1.74l-.63-.17c.6,1.71,2.4.96,3.37.06h-.53c.39.34.7.34,1.2.45.13.03,2.44,1.21,2.26,1.65-.08.18.08.42.26.46.87.2,4.79.17,4.06-1.6l-.63.36c.84,1.03,3.24,1.25,4.3.47.86-.62.97-1.97.01-2.53l.13.51c.37-.59.37-1.07.07-1.68l-.13.51c.73-.54,1.32-1.15,1.83-1.9l-.69-.09c.17.5.48.92.57,1.43.11.66.16,1.17.51,1.78.58,1,1.36,2.06,2.59,2.14.16,0,.33-.12.36-.28.08-.62.44-1.03,1.09-1.23.31-.11.36-.5.09-.69l-.4-.45-.22.55c.7-.22,1.73-.57,2.15-1.23s-.04-1.49-.24-2.16l-.17.42c1.23-.67.68-2.53-.58-2.7l.28.36c.19-1.66,2.24-2.33,1.97-4.16-.06-.41-.61-.3-.72,0-.36.92-.76,2.29-.27,3.25.13.26.31.46.57.59.95.5,1.81.16,2.48,1.3l.42-.55c-.45-.14-.8-.19-1.28-.15s-.48.79,0,.75c.37-.07.73-.03,1.08.12.32.1.58-.28.42-.55-.4-.69-.96-1.19-1.74-1.39-.67-.17-1.18-.12-1.37-.92-.18-.71.17-1.61.42-2.25h-.72c.14.94-.76,1.62-1.27,2.29-.4.53-.65,1.02-.73,1.68-.02.14.13.34.28.36.37.05,1.56.7.4,1.33-.14.08-.22.27-.17.42.17.59.42.98.14,1.52-.29.58-.94.77-1.53.95-.23.07-.34.33-.22.55.18.32.37.52.67.72l.09-.69c-.87.29-1.4.85-1.61,1.75l.36-.28c-1.21-.07-2.21-1.92-2.28-2.92-.06-.89-.36-.96-.67-1.87-.11-.32-.5-.36-.69-.09-.45.65-.93,1.16-1.57,1.63-.17.13-.23.31-.13.51l-.07.93c-.11.17-.04.41.13.51.47.79.27,1.29-.61,1.49-.35.05-.71.06-1.06.03-.65-.04-1.3-.1-1.73-.64-.23-.28-.77.02-.63.36.36.86-2.91.73-3.14.67l.26.46c.33-.79-.34-1.15-.92-1.5-.43-.27-.68-.74-1.15-.95-.51-.22-1.14,0-1.58-.37-.16-.14-.37-.15-.53,0-.48.45-1.72,1.39-2.12.28-.09-.27-.41-.37-.63-.17-.59.56-1.25,1.98-2.3,1.55-.25-.1-.45.15-.47.36-.05.43.08.68.16,1.1.06.31.18.88-.17,1.11-.12.08-.35-.03-.48.04-.21.13-.38.25-.58.39-.85.63-1.22.76-2.28.68-.61-.04-1.11.04-1.58.45-.63.56-.87,1.62-1.74,1.88-.46.14-.26.86.2.72h0Z"/>
        <path class="cls-2" d="M45.53,95.28l-.27,1.9c-.03.22.05.38.26.46.9.36,1.15,1.11,1.6,1.91.19.32.23.51.56.62.58.18,1.24-.32,1.66-.65.31-.25.63-.66,1.01-.79.7-.25.71.26,1.27.28.31.01.46-.13.69-.3.09-.07.15-.2.22-.29.4-.49.92-.82,1.58-.75l-.36-.28c.05.3.09.6.14.9.04.24.36.34.55.22.44-.26.89-.48,1.4-.56,1.26-.18,1.29.47,1.88,1.31.18.26.07.3.43.48.6.3,1.36.01,1.83-.38.3-.26.51-.59.71-.93.19-.32.71-.98.78-1.33.15-.76-.64-1.66-1.16-2.09v.53c.76-.67,1.32-1.49,1.61-2.46.13-.45.21-.92.21-1.38s-.48-2.16.28-2.22l-.36-.47c-1.09,3.02-.58,6.37,1.36,8.93l.22-.55c-.6.22-.88.73-.77,1.37.06.33.21.58.43.82.33.37,2.12,1.42,1.13,1.94-.32.17-.18.57.09.69,1.05.43,3.36,1.61,1.99,3.09-.2.21-.11.54.17.63,1.52.51,2.29-.31,3.26-1.34.58-.62,1.2-1.21,1.86-1.75.83-.7,1.06-1.37,1.52-2.38l-.42.17c.26.11-.96,3.67-1.03,4.04-.23,1.26-.26,2.53-.14,3.8l.47-.36c-.55-.19-1.06.09-1.25.66-.25.74.29,1.29.87,1.65.35.22,1.33.55,1.17,1.13-.03.09-.28.14-.35.23-.23.3-.55.43-.67.83-.24.8.35,1.39.98,1.77,1.25.75,2.34,1.43,3.15,2.69.51.79.66,1.78,1.6,2.17.84.35,1.72.08,2.47-.36,1.32-.78,2.52-1.81,3.75-2.71l-.56-.32c.09,1.6.93,2.92,2.35,3.65l-.17-.42c-.15.59-.3,1.17-.45,1.76-.03.12,0,.28.1.36,1.12.89,2.34,1.68,3.83,1.25.82-.24,1.54-.74,2.31-1.1,1.06-.5,2.19-.79,3.35-.93.26-.03.5-.3.32-.56-.26-.38-.52-.76-.78-1.13l-.22.55c2.03-.33,2.14-2.86,3.15-4.24.79-1.08,2.27-.26,2.96-1.42.39-.65.54-1.45.94-2.12.57-.95,1.33-1.76,2.22-2.43l-.55-.22c.31,1.14-1.37,4.64,1.17,4.59l-.32-.56c-.33.44-.24.99.18,1.35.28.24.67.28,1.01.36.61.14,1.13.42,1.7.66,1.16.48,2.99.36,3.02-1.25l-.47.36c1.4.44,2.78.09,3.82-.94.34-.34-.19-.87-.53-.53-.86.86-1.93,1.11-3.09.75-.24-.07-.47.13-.47.36l-.65.75c-.25.09-.51.09-.75,0-.47-.09-.89-.35-1.33-.54-.18-.08-2.05-.6-1.79-.95.17-.23-.06-.57-.32-.56l-.72-.68c-.07-.27-.07-.54.02-.8.07-.39.22-.76.3-1.14.11-.5.09-.92-.05-1.42-.06-.21-.35-.37-.55-.22-1.2.91-2.19,2.02-2.86,3.38-.07.13-.27.68-.35.8-.39.62-.8.8-1.51.97-.38.09-.67.14-1,.37-1.52,1.07-1.36,4.27-3.37,4.6-.23.04-.35.37-.22.55.26.38.52.76.78,1.13l.32-.56c-1.51.18-2.93.61-4.28,1.32-1.05.55-2,1.11-3.21.63-.4-.16-.9-.38-1.1-.78-.25-.48.04-1.03.18-1.56.04-.15-.02-.35-.17-.42-1.19-.61-1.9-1.66-1.98-3-.02-.26-.32-.5-.56-.32-.87.64-1.74,1.27-2.61,1.91-.68.49-1.56,1.3-2.46,1.23-1.04-.09-1.44-1.59-1.94-2.27-.42-.58-.9-1.1-1.46-1.55-.5-.4-1.13-.63-1.61-1.02-.51-.2-.69-.64-.55-1.31.18-.15.37-.27.58-.37.14-.13.23-.11.31-.3.18-.39-.08-.88-.32-1.18-.11-.14-.25-.26-.39-.37-.19-.13-.38-.25-.59-.35-.46-.15-.63-.52-.5-1.11.22.07.5-.13.47-.36-.21-2.17.1-4.25.9-6.28.32-.81.75-1.86-.28-2.29-.14-.06-.36.04-.42.17-.31.68-.55,1.4-1.07,1.96-.38.4-.88.74-1.28,1.12-.99.94-1.86,2.58-3.43,2.05l.17.63c1.78-1.92-.68-3.67-2.32-4.35l.09.69c.51-.27.7-.75.59-1.32-.05-.29-.17-.53-.35-.76-.2-.25-2.18-1.63-1.21-1.98.2-.07.38-.34.22-.55-1.83-2.42-2.31-5.49-1.28-8.35.08-.22-.13-.49-.36-.47-.93.07-1.24.78-1.18,1.65.14,1.86.07,3.31-1.45,4.64-.14.12-.15.41,0,.53.51.42.96.88.8,1.56-.09.36-.49.96-.71,1.26-.36.48-.95.83-1.42.46-.08-.06-.3-.69-.38-.79-1.02-1.33-2.77-.89-4-.16l.55.22c-.05-.3-.09-.6-.14-.9-.03-.17-.21-.26-.36-.28-.96-.1-1.41.29-2.08.9-.49.45-.41.26-.99.1-.28-.08-.56-.04-.83.06-.68.25-1.35,1.4-2.07,1.4-.41,0-.35-.15-.61-.63-.19-.35-.36-.76-.6-1.08-.35-.47-.6-.49-1.22-.74l.26.46.27-1.9c.07-.47-.66-.68-.72-.2h0Z"/>
        <path class="cls-2" d="M114.61,111.69l1.05-1.63c.26-.4.55-1.14.92-1.43.88-.69.93.17.96.84.03.62.06,1.23.09,1.85.01.22.23.45.47.36.85-.33,1.41,1.03,1.82,1.55.34.43.71.81,1.15,1.14.8.59,1.68.88,2.67.81.18-.01.3-.11.36-.28.15-.41.29-.81.44-1.22l-.46.26c1.32.3,2.53.17,3.77-.39l-.55-.42c-.26.82-.17,1.68.34,2.4s1.71.84,1.93,1.69c.2.79.11,1.24.87,1.76.61.42,4.29,1.16,2.84,2.37-.16.13-.13.4,0,.53,1.61,1.6,4.3,1.07,4.6-1.34l-.56.32c.59.35,1.17.71,1.76,1.06l-.13-.51c-.14.33-.29.66-.43,1-.08.19-.05.4.13.51.98.61,1.96,1.21,2.93,1.82.15.09.33.05.45-.06.61-.52,1.94-3.93,3.02-2.75.24.26.61.03.64-.27.14-1.36,1.75-1.41,2.74-1.66.66-.17,1.25-.41,1.81-.83,1.04-.77,1.69-1.89,1.91-3.16l-.36.28c.58,0,1.05-.08,1.59-.29l-.46-.26c.74,2.5-1.27,4.75-3.4,5.75-.18.08-.24.36-.13.51.32.48.8,1.64,1.36,1.85s1.23-.26,1.6-.62h-.53c.49.45,1.06.76,1.74.77s2.18-1.07,2.3.03c.05.47.76.49.75,0-.01-1.16,1.5-.07,1.81-.02.28.05.55,0,.8-.13.84-.4,1.27-1.61,2.25-1.7.27-.02.48-.3.32-.56-.23-.38-.45-.75-.68-1.13l-.22.55c2.02-.67,3.5-2.18,4.12-4.21l-.69.09c.5,1.08.56,2.15.21,3.29-.07.24.12.47.36.47.91,0,1.82-.02,2.73-.1.66-.06,1.77-.02,2.35-.33.5-.26.97-1.08,1.36-1.5.62-.68,1.28-1.32,1.97-1.93h-.53l-.03.66c-.13.09-.22.26-.17.42.17.52.38.74.91.9l-.26-.46-.27.66c-.14.17-.16.48.08.59.77.34,1.54.69,2.31,1.03l-.17-.42c-.09.47-.18.94-.28,1.41-.04.21.1.51.36.47,3.26-.42,6.53-.85,9.79-1.27l-.36-.47c-.11.36-.22.71-.33,1.07-.07.23.12.48.36.47,1.01-.03,1.57,1.06,2.62.92.6-.08.99-.42,1.01-1.03l-.64.27c2.48,2.33,4.95,4.67,7.43,7,.35.33.88-.2.53-.53-2.48-2.33-4.95-4.67-7.43-7-.24-.23-.63-.06-.64.27-.04.89-1.51-.22-1.78-.37-.37-.2-.68-.28-1.1-.27l.36.47c.11-.36.22-.71.33-1.07.06-.21-.12-.51-.36-.47-3.26.42-6.53.85-9.79,1.27l.36.47c.09-.47.18-.94.28-1.41.03-.15-.02-.35-.17-.42-.77-.34-1.54-.69-2.31-1.03l.08.59c.27-.32.41-.58.46-.99.03-.2-.05-.4-.26-.46l-.39-.37-.17.42c.67-.45.78-1.27.18-1.84-.15-.14-.38-.14-.53,0-.51.46-1.01.93-1.49,1.43-.51.53-1.03,1.35-1.66,1.71-1.2.69-3.35.5-4.72.49l.36.47c.41-1.34.3-2.6-.29-3.87-.14-.31-.6-.19-.69.09-.55,1.77-1.84,3.1-3.6,3.69-.22.07-.36.33-.22.55.23.38.45.75.68,1.13l.32-.56c-.51.05-.9.24-1.29.57-.26.22-.47.48-.71.71-.56.55-.63.62-1.43.2-.99-.52-2.19-.23-2.18,1.11h.75c-.08-.74-.59-1.26-1.35-1.34-1.23-.13-1.6,1.23-2.91.01-.15-.14-.38-.15-.53,0-.83.83-1.39-.51-1.77-1.08l-.13.51c2.45-1.15,4.58-3.78,3.75-6.59-.05-.18-.27-.34-.46-.26-.46.18-.89.27-1.39.26-.15,0-.33.12-.36.28-.18,1-.63,1.91-1.4,2.57-.84.72-1.83.85-2.87,1.11-1.14.29-2.09.91-2.21,2.15l.64-.27c-.59-.64-1.41-.56-2.09-.09-1.02.69-1.07,2.06-1.99,2.84l.45-.06c-.98-.61-1.96-1.21-2.93-1.82l.13.51c.14-.33.29-.66.43-1,.08-.19.06-.4-.13-.51-.59-.35-1.17-.71-1.76-1.06-.27-.16-.53.06-.56.32-.22,1.78-2.25,1.88-3.32.81v.53c.53-.44.62-1.13.33-1.75-.38-.82-1.24-1.08-2.05-1.3-.99-.27-1.58-.47-1.78-1.61-.06-.37,0-.67-.25-.99s-.62-.35-.96-.51c-.96-.44-1.42-1.34-1.09-2.39.11-.34-.28-.55-.55-.42-1.04.47-2.08.56-3.19.31-.21-.05-.39.06-.46.26-.15.41-.29.81-.44,1.22l.36-.28c-1.87.13-2.83-1.19-3.83-2.53-.5-.67-1.14-1.27-2-.94l.47.36c-.03-.62-.06-1.23-.09-1.85-.02-.4.08-1.12-.08-1.48-.15-.34-.58-.51-.93-.57-.69-.11-.88.1-1.22.63-.71,1.08-1.4,2.18-2.1,3.27-.26.41.39.78.65.38h0Z"/>
        <path class="cls-2" d="M196.57,126.36c-.24-1.49,2.31-2.37,3.05-3.45.12-.18.21-.58.35-.72.18-.18.55-.23.77-.4.61-.48.88-1.2.84-1.96l-.64.27c2.03,2.01,3.55-2.03,4.91-2.65l-.51-.13c.39.53.7,1.07.85,1.72.05.22.01.94.12,1.21.17.4.85.59,1.24.7.64.18,1.34.18,1.98.01.47-.12.64-.32,1.15-.18s.51.37.87.66c.94.73,2.27.39,3.19-.19.58-.37,1.05-.89,1.56-1.34,1.06-.92,2.04-1.08,3.41-.98,1.49.11,2.8-.1,3.99-1.07.85-.7,1.81-1.95,1.69-3.1-.23-.41-.22-.82.02-1.23l.93-.53c.34-.11.76-.02,1.12-.15.45-.17.8-.49,1.11-.85.76-.92,1.13-2.58,2.46-2.81l-.46-.26c.48,3.01,3.96,4.74,6.67,3.46l-.55-.42c-.09.41-.18.82-.27,1.24-.05.24.11.46.36.47,1.33.05,2.41.61,3.27,1.61.09.1.24.12.36.1,2.25-.48,4.5-.97,6.75-1.45,1.07-.23,2.15-.46,3.22-.69.38-.08,1.03-.37,1.38-.3.55.12.86.71,1.2,1.11.61.72,1.27,1.89,2.05,2.42.59.4,1.61.43,2.3.54,1.06.16,2.3.28,3.12,1.04.76.7,1.3,1.94.47,2.8-.16.17-.14.47.08.59,1.21.64,2.38,1.45,3.27,2.52.7.84,1.05,1.88,1.83,2.66.65.66,1.47,1.16,2.35,1.45,1.18.38,2.28.08,3.48.17,1.7.13,2.68,1.49,3.74,2.66,1,1.11,1.97,2.26,2.77,3.53,1.02,1.63,2.08,3.93,4.41,3.33.47-.12.27-.84-.2-.72-1.82.47-2.68-1.54-3.45-2.8-.59-.96-1.27-1.85-1.99-2.71-1.25-1.49-2.76-3.74-4.84-4.01-1.25-.16-2.48.22-3.72-.18-1.16-.37-2.2-1.21-2.79-2.27-1.05-1.89-2.54-3.26-4.48-4.28l.08.59c1.29-1.34.4-3.43-1.04-4.29-1.29-.77-2.8-.6-4.18-1.02-1.56-.48-2.8-2.64-3.83-3.86-.09-.1-.24-.12-.36-.1-2.96.64-5.93,1.27-8.89,1.91-.71.15-1.46.42-2.19.47-.6.04-.76-.24-1.23-.58-.86-.65-1.87-.95-2.94-.99l.36.47c.09-.41.18-.82.27-1.24.07-.33-.25-.56-.55-.42-2.32,1.1-5.18-.52-5.57-3.01-.03-.21-.28-.29-.46-.26-.98.17-1.52.92-2,1.72-.33.54-.62,1.25-1.12,1.66-.63.52-1.42.26-2.11.57-.82.37-1.19,1.26-1.09,2.12s-.05,1.35-.63,2.08c-.61.77-1.46,1.34-2.42,1.54-1.71.37-3.34-.42-4.92.62-1.44.95-3,3.44-4.83,1.76-.31-.28-.45-.66-.92-.73-.7-.1-1.37.51-2.07.55-.43.02-1.24,0-1.55-.32-.19-.2-.15-.52-.18-.77-.14-.86-.49-1.6-1-2.3-.13-.18-.31-.23-.51-.13-.58.26-.97.66-1.34,1.17-.49.68-1.57,2.67-2.66,1.59-.22-.22-.66-.07-.64.27.05.86-.41,1.48-1.26,1.67-.12.03-.24.14-.26.26-.45,2.08-3.83,2.37-3.45,4.81.07.48.8.27.72-.2h0Z"/>
        <path class="cls-2" d="M355.87,96.04c6.48-2.07,12.95-4.16,19.44-6.2.46-.14.26-.87-.2-.72-6.49,2.04-12.96,4.13-19.44,6.2-.46.15-.26.87.2.72h0Z"/>
        <path class="cls-2" d="M375.37,89.82c.22-.15,1.69.9,1.94,1.01.93.4,1.8.81,2.66,1.35,1.69,1.07,3.32,2.23,5.02,3.28,3.47,2.16,7.05,4.14,10.72,5.93.43.21.81-.44.38-.65-4.07-1.99-8.04-4.2-11.86-6.65-1.79-1.15-3.51-2.52-5.43-3.45-.85-.41-1.67-.67-2.41-1.27-.44-.36-.89-.55-1.4-.2-.4.27-.02.92.38.65h0Z"/>
        <path class="cls-2" d="M395.93,101.48c4.6-.98,9.1-2.42,13.62-3.74,4.76-1.39,9.58-2.55,14.35-3.91.46-.13.27-.86-.2-.72-4.77,1.36-9.59,2.53-14.35,3.91-4.51,1.32-9.02,2.76-13.62,3.74-.47.1-.27.82.2.72h0Z"/>
        <path class="cls-2" d="M404.13,82.73c2.95,1.76,6.05,3.28,9,5.04,3.42,2.04,6.91,4.01,10.5,5.76.43.21.81-.44.38-.65-3.58-1.75-7.07-3.72-10.5-5.76-2.95-1.76-6.05-3.28-9-5.04-.42-.25-.79.4-.38.65h0Z"/>
        <path class="cls-2" d="M376.06,89.53c4.53-1.24,9.03-2.48,13.61-3.52,1.81-.41,3.58-.92,5.38-1.38,3-.77,6.06-1.31,9.1-1.92.47-.1.27-.82-.2-.72-2.96.6-5.94,1.13-8.87,1.87-1.87.47-3.72,1-5.6,1.43-4.58,1.04-9.08,2.28-13.61,3.52-.46.13-.27.85.2.72h0Z"/>
        <path class="cls-2" d="M388.33,79.78l.06,3.08.03,1.51c0,.45,0,.92.17,1.35.08.19.25.32.46.26.18-.05.34-.27.26-.46-.18-.42-.14-.88-.15-1.32l-.03-1.45-.05-2.96c0-.48-.76-.48-.75,0h0Z"/>
        <path class="cls-2" d="M366.47,92.23c.19,4.26-.17,8.56-.3,12.82-.15,4.81-.18,9.65-.06,14.47.01.48.76.48.75,0-.12-4.81-.09-9.65.06-14.47.14-4.25.49-8.56.3-12.82-.02-.48-.77-.48-.75,0h0Z"/>
        <path class="cls-2" d="M390.84,98.78c0,2.3.07,4.61,0,6.91-.02.48.73.48.75,0,.07-2.3,0-4.61,0-6.91,0-.48-.75-.48-.75,0h0Z"/>
        <path class="cls-2" d="M412.62,96.59c.05,4.49.09,8.98.14,13.46,0,.48.75.48.75,0-.05-4.49-.09-8.98-.14-13.46,0-.48-.75-.48-.75,0h0Z"/>
        <path class="cls-2" d="M379.58,105.34c3.84.47,7.77.64,11.64.73.48.01.48-.74,0-.75-3.87-.09-7.8-.25-11.64-.73-.48-.06-.47.69,0,.75h0Z"/>
        <path class="cls-2" d="M391.32,106.05c1.55-.44,3.16-.7,4.7-1.21.39-.13.77-.3,1.17-.39.63-.14,1.3.06,1.93.17,1.14.19,2.29.38,3.43.58.47.08.68-.64.2-.72-1.18-.2-2.36-.4-3.54-.6-.57-.1-1.17-.25-1.75-.22-.49.03-.93.21-1.39.37-1.61.57-3.31.83-4.95,1.3-.46.13-.27.86.2.72h0Z"/>
        <path class="cls-2" d="M379.15,104.7c-.59.63-1.23,1.2-1.93,1.71-.31.23-.14.86.29.69.32-.14.83-.02,1.16.02.6.06,1.2.14,1.79.23,1.2.17,2.4.28,3.61.38,2.74.24,5.49.25,8.23.52.48.05.48-.7,0-.75-2.8-.28-5.61-.29-8.42-.54-1.27-.11-2.53-.25-3.79-.42-.55-.07-1.1-.15-1.65-.19-.35-.03-.8-.11-1.14.03l.29.69c.75-.55,1.44-1.15,2.08-1.83.33-.35-.2-.88-.53-.53h0Z"/>
        <path class="cls-2" d="M392.41,108.23c2.18-.49,4.32-1.13,6.45-1.76.9-.27,1.8-.54,2.69-.82.3-.09.97-.17,1.2-.43.32-.36-.21-.89-.53-.53.15-.17.18-.08.04-.05-.09.02-.17.06-.25.08-.3.09-.59.19-.89.28-.9.28-1.8.55-2.7.82-2.06.61-4.12,1.22-6.22,1.69-.47.11-.27.83.2.72h0Z"/>
        <path class="cls-2" d="M378.38,107.02c.26,4.64.1,9.3.1,13.95,0,.48.75.48.75,0,0-4.65.16-9.3-.1-13.95-.03-.48-.78-.48-.75,0h0Z"/>
        <path class="cls-2" d="M391.21,108.23c-.07,6.55.28,13.1,0,19.64-.02.48.73.48.75,0,.28-6.55-.07-13.1,0-19.64,0-.48-.74-.48-.75,0h0Z"/>
        <path class="cls-2" d="M400.58,105.72c.12,2.91.11,5.83.15,8.74s-.02,5.55-.06,8.32c0,.48.74.48.75,0,.05-2.77.1-5.55.06-8.32s-.03-5.83-.15-8.74c-.02-.48-.77-.48-.75,0h0Z"/>
        <path class="cls-2" d="M391.77,128.2c3.19-1.73,6.56-3.11,9.58-5.14.4-.27.02-.92-.38-.65-3.02,2.04-6.39,3.41-9.58,5.14-.42.23-.05.88.38.65h0Z"/>
        <path class="cls-2" d="M425.45,105.22c-2.23-.7-4.24-1.88-6.28-2.99-.23-.13-.46,0-.55.22-.83,2.06.22,4.17-.13,6.28l.46-.26c-.53-.09-1.06-.19-1.59-.28-.24-.04-.47.1-.47.36v1.23c.15-.12.31-.24.47-.36-1.82-.28-3.55.3-4.8,1.67-.1.11-.16.32-.06.45l.58.78.32-.56c-1.95.03-.76,2.75-1.68,3.61-.47.45-1.04.57-1.4,1.16s-.4,1.28-.34,1.94c.07.82.34,1.57.53,2.37.36,1.54-1.1,1.13-2.07,1.47-1.28.46-2.06,1.68-2.13,3.01l.47-.36c-.3-.04-.61-.09-.91-.13-.16-.02-.35.01-.42.17-.43.88-1.22.99-1.96,1.55-.66.5-1.16,1.11-1.58,1.81l.51-.13c-.98-.45-2.03-.55-3.07-.23-.47.14-.91.37-1.3.66-.3.22-1.52,1.83-1.46.27,0-.16-.12-.32-.28-.36-1.37-.32-2.13.84-3.21,1.44-1.13.62-1.49-.37-2.27-.91-.63-.45-1.34-.41-2.08-.45-.96-.04-1.49-.03-1.91-1.05-.1-.25-.07-.53-.26-.75-.41-.5-1.22-.56-1.79-.71-2.45-.63-4.89-1.27-7.34-1.9-.26-.07-.44.12-.47.36-.23,1.76-2.83.41-3.76.23-1-.2-2.03-.15-3.04-.08-1.08.08-2.51.53-1.89,1.88l.32-.56c-2.11.09-4.22.19-6.32.27-.98.04-1.56-.27-2.42-.63s-1.77-.48-2.72-.45l.38.38c-.07-1.57-1.93-2.55-3.23-1.6-.39.28-.01.93.38.65.8-.58,2.05-.11,2.1.95,0,.2.16.38.38.38,1.9-.06,3.28,1.15,5.14,1.07,2.11-.08,4.22-.18,6.32-.27.3-.01.44-.3.32-.56-.36-.78,2.06-.81,2.38-.81.57,0,1.14,0,1.7.11.8.15,1.55.57,2.36.66,1.15.13,2.19-.42,2.34-1.61l-.47.36c2.45.63,4.89,1.27,7.34,1.9.31.08.61.16.92.24.43.09.63.33.61.7.13.26.09.49.27.76.37.52,1,.72,1.6.81.38.05.76.02,1.14.03.82.04,1.27.32,1.82.87.41.41.82.76,1.43.75,1.42-.01,2.31-2.06,3.72-1.73l-.28-.36c-.03.9.55,1.49,1.43,1.55.13,0,.26-.08.32-.19.91-1.52,2.82-2.15,4.45-1.41.19.08.4.05.51-.13.53-.89,1.22-1.6,2.15-2.07.99-.5.9-.27,1.39-1.29l-.42.17c.3.04.61.09.91.13.25.04.46-.09.47-.36.06-1.11.79-2.12,1.9-2.38.57-.13,1.19.01,1.73-.27.93-.49.67-1.54.44-2.36-.2-.71-.42-1.44-.42-2.18,0-1.1.53-1.52,1.38-2.11.35-.24.68-.48.84-.89.2-.48-.19-2.61.46-2.62.26,0,.5-.33.32-.56l-.58-.78-.06.45c1.05-1.16,2.51-1.72,4.07-1.48.24.04.47-.1.47-.36v-1.23c-.15.12-.31.24-.47.36.53.09,1.06.19,1.59.28.18.03.43-.05.46-.26.35-2.09-.68-4.27.13-6.28l-.55.22c2.1,1.14,4.17,2.34,6.46,3.06.46.15.66-.58.2-.72h0Z"/>
        <path class="cls-2" d="M362.71,113.56c-3.82.97-7.63,2.01-11.43,3.1-.46.13-.27.86.2.72,3.79-1.09,7.6-2.13,11.43-3.1.47-.12.27-.84-.2-.72h0Z"/>
        <path class="cls-2" d="M351.19,116.96c.13,1.94,0,3.88,0,5.82,0,.48.75.48.75,0,0-1.94.13-3.88,0-5.82-.03-.48-.78-.48-.75,0h0Z"/>
        <path class="cls-2" d="M351.57,117.34c3.28.25,6.42,1.18,9.65,1.75,2.08.37,4.18.65,6.26.98,1.95.31,3.91.42,5.87.6,1.72.16,3.42.49,5.14.67.48.05.48-.7,0-.75-1.72-.17-3.42-.51-5.14-.67-2.01-.19-4.02-.31-6.02-.63-2.28-.37-4.58-.65-6.84-1.1-2.97-.58-5.89-1.37-8.92-1.6-.48-.04-.48.71,0,.75h0Z"/>
        <path class="cls-2" d="M386.48,118.42c0,1.7.1,3.4,0,5.09-.03.48.72.48.75,0,.1-1.69,0-3.4,0-5.09,0-.48-.75-.48-.75,0h0Z"/>
        <path class="cls-2" d="M351.92,123.08c5.57.9,11.15,1.79,16.72,2.69.47.08.68-.65.2-.72-5.57-.9-11.15-1.79-16.72-2.69-.47-.08-.68.65-.2.72h0Z"/>
        <path class="cls-2" d="M378.95,121.33c2.62-.92,5.3-1.63,7.92-2.55.45-.16.26-.88-.2-.72-2.62.92-5.3,1.63-7.92,2.55-.45.16-.26.88.2.72h0Z"/>
        <path class="cls-2" d="M382.51,125.83c1.46-.58,2.94-1.15,4.44-1.59.46-.14.27-.86-.2-.72-1.51.44-2.98,1.01-4.44,1.59-.19.07-.32.25-.26.46.05.18.27.34.46.26h0Z"/>
        <path class="cls-2" d="M284.61,137.76c1.44-.93,3.01-1.63,4.69-1.97s3.18-.18,4.8-.29c1.15-.08,2.14-.39,3.01-1.16.8-.71,1.36-1.07,2.42-1.23.86-.13,1.72-.23,2.57-.35,1.75-.24,3.49-.47,5.24-.71,1.35-.18,2.52-.22,3.57-1.14.69-.61,1.23-.93,2.11-1.23.58-.2,1.18-.36,1.71-.68.9-.54,1.53-1.37,1.42-2.45l-.28.36c2.9-1,7.62,1.56,9.73-1.65.97-1.46.27-3.7.47-5.36.25-2.05,1.21-6.44,4.01-6.08l-.36-.28c.31,1.44-.94,3.59.53,4.73.62.49,1.22.18,1.92.4.99.32,1.08,1.62,1.34,2.46,1.14,3.75,4.97,3.21,7.95,2.14l-.42-.55c-.7,1.59-.19,3.55,1.34,4.48.45.27.87.29,1.35.47.99.36,1.01,1.23,1.37,2.01.45.95,1.27,1.71,2.23,2.14,2.14.94,4.13-.2,5.88-1.39,2.16-1.47,4.59-3.06,7.17-3.65.47-.11.27-.83-.2-.72-1.84.42-3.53,1.39-5.15,2.34-1.77,1.04-3.68,2.92-5.81,3.04-1.27.07-2.53-.61-3.23-1.67-.47-.71-.43-1.76-1.08-2.36-.69-.63-1.74-.44-2.47-1.06-.93-.78-1.26-2.13-.77-3.24.12-.27-.08-.67-.42-.55-1.75.63-3.83,1.38-5.6.39-1.44-.81-1.36-2.34-1.94-3.67-.41-.93-.91-1.12-1.82-1.38-.71-.2-1.56-.38-1.63-1.27-.04-.47.09-.94.17-1.4.11-.65.15-1.22,0-1.87-.04-.18-.2-.26-.36-.28-3.9-.49-4.89,5.93-4.86,8.61.01,1.22.41,2.6-.58,3.55-.73.7-1.88.94-2.86.96-2.09.05-4.06-.72-6.12,0-.14.05-.29.19-.28.36.2,1.88-2.15,2.16-3.42,2.71-.52.22-.93.51-1.35.88-.68.59-1.15.86-2.05,1-3.13.49-6.31.75-9.43,1.28-.54.09-1.08.22-1.55.51-.58.36-.97.95-1.56,1.31-1.19.72-2.73.52-4.06.53-2.77.02-5.42.84-7.75,2.35-.4.26-.03.91.38.65h0Z"/>
        <path class="cls-2" d="M379.31,104.7c-.31.34-.66.64-1.02.93-.05.04-.09.07-.14.11.03-.02,0,0-.02.01-.03.02-.05.04-.08.06-.09.07-.18.14-.28.21-.19.14-.37.27-.56.41-.16.11-.25.33-.13.51.1.16.34.26.51.13.78-.56,1.58-1.13,2.24-1.84.13-.14.15-.39,0-.53-.15-.13-.39-.15-.53,0h0Z"/>
        <path class="cls-2" d="M391.07,127.28c-.62-.05-1.19-.3-1.75-.55s-1.17-.51-1.77-.72c-1.23-.43-2.5-.75-3.76-1.07-.47-.12-.67.6-.2.72,1.31.33,2.62.66,3.89,1.12,1.19.43,2.31,1.13,3.59,1.25.48.04.48-.71,0-.75h0Z"/>
        <path class="cls-2" d="M378.41,120.96c.02.58.02,1.15.04,1.73.02.68.02,1.39.14,2.07.04.2.28.31.46.26.21-.06.3-.26.26-.46,0-.02,0-.05-.01-.08-.01-.07,0,.08,0,0,0-.06-.01-.13-.02-.19-.01-.16-.02-.32-.03-.48-.02-.39-.04-.79-.05-1.18-.02-.56-.02-1.12-.04-1.68-.01-.48-.76-.48-.75,0h0Z"/>
      </g>
      <g>
        <path class="cls-1" d="M36,48.76L.35,50.94s39.8-29.87,39.65-29.47,155.14-7.38,155-6.99,4.33,4.12,4.33,4.12l42.28,28.43-153.95,15.54-37.2-29.62-14.46,9.62v6.18Z"/>
        <polygon class="cls-1" points="375.83 89.42 394.35 84.38 404.35 82.38 423.8 93.47 396.37 101.12 389.35 97.38 375.83 89.42"/>
        <polygon class="cls-1" points="379.58 104.96 377.41 106.74 391.58 108.23 402.5 104.96 397.45 104.03 391.07 105.87 379.58 104.96"/>
        <polygon class="cls-1" points="178.05 73.42 194.06 74.77 221 70.91 238.73 69.26 219.68 66.04 206.38 64.22 206.47 66.77 178.05 68.58 178.05 73.42"/>
      </g>
    </g>
  </g>
</svg>